ISO-10303-21;
HEADER;
/* Generated by software containing ST-Developer
 * from STEP Tools, Inc. (www.steptools.com) 
 */

FILE_DESCRIPTION(
/* description */ (''),
/* implementation_level */ '2;1');

FILE_NAME(
/* name */ 'leg.step',
/* time_stamp */ '2025-12-31T18:04:49+01:00',
/* author */ (''),
/* organization */ (''),
/* preprocessor_version */ 'ST-DEVELOPER v20.1',
/* originating_system */ 'Autodesk Translation Framework v14.21.0.0',
/* authorisation */ '');

FILE_SCHEMA (('AUTOMOTIVE_DESIGN { 1 0 10303 214 3 1 1 }'));
ENDSEC;

DATA;
#10=MECHANICAL_DESIGN_GEOMETRIC_PRESENTATION_REPRESENTATION('',(#13),#1013);
#11=SHAPE_REPRESENTATION_RELATIONSHIP('SRR','None',#1020,#12);
#12=ADVANCED_BREP_SHAPE_REPRESENTATION('',(#14),#1012);
#13=STYLED_ITEM('',(#1029),#14);
#14=MANIFOLD_SOLID_BREP('Body1',#629);
#15=CYLINDRICAL_SURFACE('',#673,1.5);
#16=CYLINDRICAL_SURFACE('',#675,1.5);
#17=CYLINDRICAL_SURFACE('',#677,1.5);
#18=CIRCLE('',#662,1.5);
#19=CIRCLE('',#667,1.5);
#20=CIRCLE('',#672,1.5);
#21=CIRCLE('',#674,1.5);
#22=CIRCLE('',#676,1.5);
#23=CIRCLE('',#678,1.5);
#24=FACE_BOUND('',#65,.T.);
#25=FACE_BOUND('',#66,.T.);
#26=FACE_BOUND('',#85,.T.);
#27=FACE_BOUND('',#90,.T.);
#28=FACE_BOUND('',#95,.T.);
#29=FACE_BOUND('',#101,.T.);
#30=FACE_BOUND('',#102,.T.);
#31=FACE_BOUND('',#103,.T.);
#32=FACE_OUTER_BOUND('',#64,.T.);
#33=FACE_OUTER_BOUND('',#67,.T.);
#34=FACE_OUTER_BOUND('',#68,.T.);
#35=FACE_OUTER_BOUND('',#69,.T.);
#36=FACE_OUTER_BOUND('',#70,.T.);
#37=FACE_OUTER_BOUND('',#71,.T.);
#38=FACE_OUTER_BOUND('',#72,.T.);
#39=FACE_OUTER_BOUND('',#73,.T.);
#40=FACE_OUTER_BOUND('',#74,.T.);
#41=FACE_OUTER_BOUND('',#75,.T.);
#42=FACE_OUTER_BOUND('',#76,.T.);
#43=FACE_OUTER_BOUND('',#77,.T.);
#44=FACE_OUTER_BOUND('',#78,.T.);
#45=FACE_OUTER_BOUND('',#79,.T.);
#46=FACE_OUTER_BOUND('',#80,.T.);
#47=FACE_OUTER_BOUND('',#81,.T.);
#48=FACE_OUTER_BOUND('',#82,.T.);
#49=FACE_OUTER_BOUND('',#83,.T.);
#50=FACE_OUTER_BOUND('',#84,.T.);
#51=FACE_OUTER_BOUND('',#86,.T.);
#52=FACE_OUTER_BOUND('',#87,.T.);
#53=FACE_OUTER_BOUND('',#88,.T.);
#54=FACE_OUTER_BOUND('',#89,.T.);
#55=FACE_OUTER_BOUND('',#91,.T.);
#56=FACE_OUTER_BOUND('',#92,.T.);
#57=FACE_OUTER_BOUND('',#93,.T.);
#58=FACE_OUTER_BOUND('',#94,.T.);
#59=FACE_OUTER_BOUND('',#96,.T.);
#60=FACE_OUTER_BOUND('',#97,.T.);
#61=FACE_OUTER_BOUND('',#98,.T.);
#62=FACE_OUTER_BOUND('',#99,.T.);
#63=FACE_OUTER_BOUND('',#100,.T.);
#64=EDGE_LOOP('',(#400,#401,#402,#403,#404));
#65=EDGE_LOOP('',(#405,#406,#407,#408,#409,#410));
#66=EDGE_LOOP('',(#411,#412,#413,#414,#415,#416));
#67=EDGE_LOOP('',(#417,#418,#419,#420,#421));
#68=EDGE_LOOP('',(#422,#423,#424,#425,#426,#427,#428,#429,#430,#431,#432));
#69=EDGE_LOOP('',(#433,#434,#435,#436,#437,#438,#439));
#70=EDGE_LOOP('',(#440,#441,#442,#443));
#71=EDGE_LOOP('',(#444,#445,#446,#447));
#72=EDGE_LOOP('',(#448,#449,#450,#451));
#73=EDGE_LOOP('',(#452,#453,#454,#455));
#74=EDGE_LOOP('',(#456,#457,#458,#459));
#75=EDGE_LOOP('',(#460,#461,#462,#463));
#76=EDGE_LOOP('',(#464,#465,#466,#467,#468));
#77=EDGE_LOOP('',(#469,#470,#471,#472,#473));
#78=EDGE_LOOP('',(#474,#475,#476,#477,#478));
#79=EDGE_LOOP('',(#479,#480,#481,#482,#483));
#80=EDGE_LOOP('',(#484,#485,#486,#487));
#81=EDGE_LOOP('',(#488,#489,#490,#491));
#82=EDGE_LOOP('',(#492,#493,#494,#495));
#83=EDGE_LOOP('',(#496,#497,#498,#499));
#84=EDGE_LOOP('',(#500,#501,#502,#503,#504,#505));
#85=EDGE_LOOP('',(#506));
#86=EDGE_LOOP('',(#507,#508,#509,#510));
#87=EDGE_LOOP('',(#511,#512,#513,#514));
#88=EDGE_LOOP('',(#515,#516,#517,#518));
#89=EDGE_LOOP('',(#519,#520,#521,#522,#523,#524));
#90=EDGE_LOOP('',(#525));
#91=EDGE_LOOP('',(#526,#527,#528,#529));
#92=EDGE_LOOP('',(#530,#531,#532,#533));
#93=EDGE_LOOP('',(#534,#535,#536,#537));
#94=EDGE_LOOP('',(#538,#539,#540,#541,#542,#543));
#95=EDGE_LOOP('',(#544));
#96=EDGE_LOOP('',(#545,#546,#547,#548));
#97=EDGE_LOOP('',(#549,#550,#551,#552));
#98=EDGE_LOOP('',(#553,#554,#555,#556));
#99=EDGE_LOOP('',(#557,#558,#559,#560));
#100=EDGE_LOOP('',(#561,#562,#563,#564));
#101=EDGE_LOOP('',(#565));
#102=EDGE_LOOP('',(#566));
#103=EDGE_LOOP('',(#567));
#104=LINE('',#841,#182);
#105=LINE('',#843,#183);
#106=LINE('',#845,#184);
#107=LINE('',#847,#185);
#108=LINE('',#848,#186);
#109=LINE('',#851,#187);
#110=LINE('',#853,#188);
#111=LINE('',#855,#189);
#112=LINE('',#857,#190);
#113=LINE('',#859,#191);
#114=LINE('',#860,#192);
#115=LINE('',#863,#193);
#116=LINE('',#865,#194);
#117=LINE('',#867,#195);
#118=LINE('',#869,#196);
#119=LINE('',#871,#197);
#120=LINE('',#872,#198);
#121=LINE('',#875,#199);
#122=LINE('',#877,#200);
#123=LINE('',#879,#201);
#124=LINE('',#880,#202);
#125=LINE('',#883,#203);
#126=LINE('',#885,#204);
#127=LINE('',#887,#205);
#128=LINE('',#889,#206);
#129=LINE('',#891,#207);
#130=LINE('',#893,#208);
#131=LINE('',#895,#209);
#132=LINE('',#897,#210);
#133=LINE('',#898,#211);
#134=LINE('',#901,#212);
#135=LINE('',#902,#213);
#136=LINE('',#904,#214);
#137=LINE('',#905,#215);
#138=LINE('',#908,#216);
#139=LINE('',#910,#217);
#140=LINE('',#911,#218);
#141=LINE('',#914,#219);
#142=LINE('',#915,#220);
#143=LINE('',#918,#221);
#144=LINE('',#919,#222);
#145=LINE('',#922,#223);
#146=LINE('',#924,#224);
#147=LINE('',#925,#225);
#148=LINE('',#928,#226);
#149=LINE('',#929,#227);
#150=LINE('',#932,#228);
#151=LINE('',#933,#229);
#152=LINE('',#936,#230);
#153=LINE('',#938,#231);
#154=LINE('',#939,#232);
#155=LINE('',#942,#233);
#156=LINE('',#943,#234);
#157=LINE('',#946,#235);
#158=LINE('',#947,#236);
#159=LINE('',#950,#237);
#160=LINE('',#951,#238);
#161=LINE('',#954,#239);
#162=LINE('',#956,#240);
#163=LINE('',#957,#241);
#164=LINE('',#959,#242);
#165=LINE('',#962,#243);
#166=LINE('',#963,#244);
#167=LINE('',#965,#245);
#168=LINE('',#971,#246);
#169=LINE('',#972,#247);
#170=LINE('',#975,#248);
#171=LINE('',#976,#249);
#172=LINE('',#978,#250);
#173=LINE('',#984,#251);
#174=LINE('',#985,#252);
#175=LINE('',#988,#253);
#176=LINE('',#989,#254);
#177=LINE('',#991,#255);
#178=LINE('',#997,#256);
#179=LINE('',#1001,#257);
#180=LINE('',#1005,#258);
#181=LINE('',#1008,#259);
#182=VECTOR('',#685,10.);
#183=VECTOR('',#686,10.);
#184=VECTOR('',#687,10.);
#185=VECTOR('',#688,10.);
#186=VECTOR('',#689,10.);
#187=VECTOR('',#690,10.);
#188=VECTOR('',#691,10.);
#189=VECTOR('',#692,10.);
#190=VECTOR('',#693,10.);
#191=VECTOR('',#694,10.);
#192=VECTOR('',#695,10.);
#193=VECTOR('',#696,10.);
#194=VECTOR('',#697,10.);
#195=VECTOR('',#698,10.);
#196=VECTOR('',#699,10.);
#197=VECTOR('',#700,10.);
#198=VECTOR('',#701,10.);
#199=VECTOR('',#704,10.);
#200=VECTOR('',#705,10.);
#201=VECTOR('',#706,10.);
#202=VECTOR('',#707,10.);
#203=VECTOR('',#710,10.);
#204=VECTOR('',#711,10.);
#205=VECTOR('',#712,10.);
#206=VECTOR('',#713,10.);
#207=VECTOR('',#714,10.);
#208=VECTOR('',#715,10.);
#209=VECTOR('',#716,10.);
#210=VECTOR('',#717,10.);
#211=VECTOR('',#718,10.);
#212=VECTOR('',#721,10.);
#213=VECTOR('',#722,10.);
#214=VECTOR('',#723,10.);
#215=VECTOR('',#724,10.);
#216=VECTOR('',#727,10.);
#217=VECTOR('',#728,10.);
#218=VECTOR('',#729,10.);
#219=VECTOR('',#732,10.);
#220=VECTOR('',#733,10.);
#221=VECTOR('',#736,10.);
#222=VECTOR('',#737,10.);
#223=VECTOR('',#740,10.);
#224=VECTOR('',#741,10.);
#225=VECTOR('',#742,10.);
#226=VECTOR('',#745,10.);
#227=VECTOR('',#746,10.);
#228=VECTOR('',#749,10.);
#229=VECTOR('',#750,10.);
#230=VECTOR('',#753,10.);
#231=VECTOR('',#754,10.);
#232=VECTOR('',#755,10.);
#233=VECTOR('',#758,10.);
#234=VECTOR('',#759,10.);
#235=VECTOR('',#762,10.);
#236=VECTOR('',#763,10.);
#237=VECTOR('',#766,10.);
#238=VECTOR('',#767,10.);
#239=VECTOR('',#770,10.);
#240=VECTOR('',#771,10.);
#241=VECTOR('',#772,10.);
#242=VECTOR('',#775,10.);
#243=VECTOR('',#778,10.);
#244=VECTOR('',#779,10.);
#245=VECTOR('',#782,10.);
#246=VECTOR('',#789,10.);
#247=VECTOR('',#790,10.);
#248=VECTOR('',#793,10.);
#249=VECTOR('',#794,10.);
#250=VECTOR('',#797,10.);
#251=VECTOR('',#804,10.);
#252=VECTOR('',#805,10.);
#253=VECTOR('',#808,10.);
#254=VECTOR('',#809,10.);
#255=VECTOR('',#812,10.);
#256=VECTOR('',#819,1.5);
#257=VECTOR('',#824,1.5);
#258=VECTOR('',#829,1.5);
#259=VECTOR('',#834,10.);
#260=VERTEX_POINT('',#839);
#261=VERTEX_POINT('',#840);
#262=VERTEX_POINT('',#842);
#263=VERTEX_POINT('',#844);
#264=VERTEX_POINT('',#846);
#265=VERTEX_POINT('',#849);
#266=VERTEX_POINT('',#850);
#267=VERTEX_POINT('',#852);
#268=VERTEX_POINT('',#854);
#269=VERTEX_POINT('',#856);
#270=VERTEX_POINT('',#858);
#271=VERTEX_POINT('',#861);
#272=VERTEX_POINT('',#862);
#273=VERTEX_POINT('',#864);
#274=VERTEX_POINT('',#866);
#275=VERTEX_POINT('',#868);
#276=VERTEX_POINT('',#870);
#277=VERTEX_POINT('',#874);
#278=VERTEX_POINT('',#876);
#279=VERTEX_POINT('',#878);
#280=VERTEX_POINT('',#882);
#281=VERTEX_POINT('',#884);
#282=VERTEX_POINT('',#886);
#283=VERTEX_POINT('',#888);
#284=VERTEX_POINT('',#890);
#285=VERTEX_POINT('',#892);
#286=VERTEX_POINT('',#894);
#287=VERTEX_POINT('',#896);
#288=VERTEX_POINT('',#900);
#289=VERTEX_POINT('',#903);
#290=VERTEX_POINT('',#907);
#291=VERTEX_POINT('',#909);
#292=VERTEX_POINT('',#913);
#293=VERTEX_POINT('',#917);
#294=VERTEX_POINT('',#921);
#295=VERTEX_POINT('',#923);
#296=VERTEX_POINT('',#927);
#297=VERTEX_POINT('',#931);
#298=VERTEX_POINT('',#935);
#299=VERTEX_POINT('',#937);
#300=VERTEX_POINT('',#941);
#301=VERTEX_POINT('',#945);
#302=VERTEX_POINT('',#949);
#303=VERTEX_POINT('',#953);
#304=VERTEX_POINT('',#955);
#305=VERTEX_POINT('',#961);
#306=VERTEX_POINT('',#967);
#307=VERTEX_POINT('',#970);
#308=VERTEX_POINT('',#974);
#309=VERTEX_POINT('',#980);
#310=VERTEX_POINT('',#983);
#311=VERTEX_POINT('',#987);
#312=VERTEX_POINT('',#993);
#313=VERTEX_POINT('',#996);
#314=VERTEX_POINT('',#1000);
#315=VERTEX_POINT('',#1004);
#316=EDGE_CURVE('',#260,#261,#104,.T.);
#317=EDGE_CURVE('',#261,#262,#105,.T.);
#318=EDGE_CURVE('',#262,#263,#106,.T.);
#319=EDGE_CURVE('',#263,#264,#107,.T.);
#320=EDGE_CURVE('',#264,#260,#108,.T.);
#321=EDGE_CURVE('',#265,#266,#109,.T.);
#322=EDGE_CURVE('',#266,#267,#110,.T.);
#323=EDGE_CURVE('',#267,#268,#111,.T.);
#324=EDGE_CURVE('',#268,#269,#112,.T.);
#325=EDGE_CURVE('',#269,#270,#113,.T.);
#326=EDGE_CURVE('',#270,#265,#114,.T.);
#327=EDGE_CURVE('',#271,#272,#115,.T.);
#328=EDGE_CURVE('',#272,#273,#116,.T.);
#329=EDGE_CURVE('',#273,#274,#117,.T.);
#330=EDGE_CURVE('',#274,#275,#118,.T.);
#331=EDGE_CURVE('',#275,#276,#119,.T.);
#332=EDGE_CURVE('',#276,#271,#120,.T.);
#333=EDGE_CURVE('',#277,#262,#121,.T.);
#334=EDGE_CURVE('',#278,#277,#122,.T.);
#335=EDGE_CURVE('',#279,#278,#123,.T.);
#336=EDGE_CURVE('',#279,#263,#124,.T.);
#337=EDGE_CURVE('',#280,#261,#125,.T.);
#338=EDGE_CURVE('',#280,#281,#126,.T.);
#339=EDGE_CURVE('',#281,#282,#127,.T.);
#340=EDGE_CURVE('',#282,#283,#128,.T.);
#341=EDGE_CURVE('',#283,#284,#129,.T.);
#342=EDGE_CURVE('',#284,#285,#130,.T.);
#343=EDGE_CURVE('',#285,#286,#131,.T.);
#344=EDGE_CURVE('',#287,#286,#132,.T.);
#345=EDGE_CURVE('',#287,#277,#133,.T.);
#346=EDGE_CURVE('',#260,#288,#134,.T.);
#347=EDGE_CURVE('',#288,#287,#135,.T.);
#348=EDGE_CURVE('',#286,#289,#136,.T.);
#349=EDGE_CURVE('',#289,#280,#137,.T.);
#350=EDGE_CURVE('',#290,#267,#138,.T.);
#351=EDGE_CURVE('',#290,#291,#139,.T.);
#352=EDGE_CURVE('',#291,#268,#140,.T.);
#353=EDGE_CURVE('',#292,#266,#141,.T.);
#354=EDGE_CURVE('',#292,#290,#142,.T.);
#355=EDGE_CURVE('',#293,#265,#143,.T.);
#356=EDGE_CURVE('',#293,#292,#144,.T.);
#357=EDGE_CURVE('',#294,#273,#145,.T.);
#358=EDGE_CURVE('',#294,#295,#146,.T.);
#359=EDGE_CURVE('',#295,#274,#147,.T.);
#360=EDGE_CURVE('',#296,#272,#148,.T.);
#361=EDGE_CURVE('',#296,#294,#149,.T.);
#362=EDGE_CURVE('',#297,#271,#150,.T.);
#363=EDGE_CURVE('',#297,#296,#151,.T.);
#364=EDGE_CURVE('',#298,#289,#152,.T.);
#365=EDGE_CURVE('',#298,#299,#153,.T.);
#366=EDGE_CURVE('',#299,#281,#154,.T.);
#367=EDGE_CURVE('',#300,#285,#155,.T.);
#368=EDGE_CURVE('',#300,#298,#156,.T.);
#369=EDGE_CURVE('',#301,#288,#157,.T.);
#370=EDGE_CURVE('',#278,#301,#158,.T.);
#371=EDGE_CURVE('',#302,#264,#159,.T.);
#372=EDGE_CURVE('',#301,#302,#160,.T.);
#373=EDGE_CURVE('',#303,#283,#161,.T.);
#374=EDGE_CURVE('',#303,#304,#162,.T.);
#375=EDGE_CURVE('',#304,#284,#163,.T.);
#376=EDGE_CURVE('',#304,#300,#164,.T.);
#377=EDGE_CURVE('',#299,#305,#165,.T.);
#378=EDGE_CURVE('',#305,#282,#166,.T.);
#379=EDGE_CURVE('',#305,#303,#167,.T.);
#380=EDGE_CURVE('',#306,#306,#18,.T.);
#381=EDGE_CURVE('',#291,#307,#168,.T.);
#382=EDGE_CURVE('',#307,#269,#169,.T.);
#383=EDGE_CURVE('',#307,#308,#170,.T.);
#384=EDGE_CURVE('',#308,#270,#171,.T.);
#385=EDGE_CURVE('',#308,#293,#172,.T.);
#386=EDGE_CURVE('',#309,#309,#19,.T.);
#387=EDGE_CURVE('',#295,#310,#173,.T.);
#388=EDGE_CURVE('',#310,#275,#174,.T.);
#389=EDGE_CURVE('',#310,#311,#175,.T.);
#390=EDGE_CURVE('',#311,#276,#176,.T.);
#391=EDGE_CURVE('',#311,#297,#177,.T.);
#392=EDGE_CURVE('',#312,#312,#20,.T.);
#393=EDGE_CURVE('',#309,#313,#178,.T.);
#394=EDGE_CURVE('',#313,#313,#21,.T.);
#395=EDGE_CURVE('',#306,#314,#179,.T.);
#396=EDGE_CURVE('',#314,#314,#22,.T.);
#397=EDGE_CURVE('',#312,#315,#180,.T.);
#398=EDGE_CURVE('',#315,#315,#23,.T.);
#399=EDGE_CURVE('',#302,#279,#181,.T.);
#400=ORIENTED_EDGE('',*,*,#316,.T.);
#401=ORIENTED_EDGE('',*,*,#317,.T.);
#402=ORIENTED_EDGE('',*,*,#318,.T.);
#403=ORIENTED_EDGE('',*,*,#319,.T.);
#404=ORIENTED_EDGE('',*,*,#320,.T.);
#405=ORIENTED_EDGE('',*,*,#321,.T.);
#406=ORIENTED_EDGE('',*,*,#322,.T.);
#407=ORIENTED_EDGE('',*,*,#323,.T.);
#408=ORIENTED_EDGE('',*,*,#324,.T.);
#409=ORIENTED_EDGE('',*,*,#325,.T.);
#410=ORIENTED_EDGE('',*,*,#326,.T.);
#411=ORIENTED_EDGE('',*,*,#327,.T.);
#412=ORIENTED_EDGE('',*,*,#328,.T.);
#413=ORIENTED_EDGE('',*,*,#329,.T.);
#414=ORIENTED_EDGE('',*,*,#330,.T.);
#415=ORIENTED_EDGE('',*,*,#331,.T.);
#416=ORIENTED_EDGE('',*,*,#332,.T.);
#417=ORIENTED_EDGE('',*,*,#318,.F.);
#418=ORIENTED_EDGE('',*,*,#333,.F.);
#419=ORIENTED_EDGE('',*,*,#334,.F.);
#420=ORIENTED_EDGE('',*,*,#335,.F.);
#421=ORIENTED_EDGE('',*,*,#336,.T.);
#422=ORIENTED_EDGE('',*,*,#317,.F.);
#423=ORIENTED_EDGE('',*,*,#337,.F.);
#424=ORIENTED_EDGE('',*,*,#338,.T.);
#425=ORIENTED_EDGE('',*,*,#339,.T.);
#426=ORIENTED_EDGE('',*,*,#340,.T.);
#427=ORIENTED_EDGE('',*,*,#341,.T.);
#428=ORIENTED_EDGE('',*,*,#342,.T.);
#429=ORIENTED_EDGE('',*,*,#343,.T.);
#430=ORIENTED_EDGE('',*,*,#344,.F.);
#431=ORIENTED_EDGE('',*,*,#345,.T.);
#432=ORIENTED_EDGE('',*,*,#333,.T.);
#433=ORIENTED_EDGE('',*,*,#316,.F.);
#434=ORIENTED_EDGE('',*,*,#346,.T.);
#435=ORIENTED_EDGE('',*,*,#347,.T.);
#436=ORIENTED_EDGE('',*,*,#344,.T.);
#437=ORIENTED_EDGE('',*,*,#348,.T.);
#438=ORIENTED_EDGE('',*,*,#349,.T.);
#439=ORIENTED_EDGE('',*,*,#337,.T.);
#440=ORIENTED_EDGE('',*,*,#323,.F.);
#441=ORIENTED_EDGE('',*,*,#350,.F.);
#442=ORIENTED_EDGE('',*,*,#351,.T.);
#443=ORIENTED_EDGE('',*,*,#352,.T.);
#444=ORIENTED_EDGE('',*,*,#322,.F.);
#445=ORIENTED_EDGE('',*,*,#353,.F.);
#446=ORIENTED_EDGE('',*,*,#354,.T.);
#447=ORIENTED_EDGE('',*,*,#350,.T.);
#448=ORIENTED_EDGE('',*,*,#321,.F.);
#449=ORIENTED_EDGE('',*,*,#355,.F.);
#450=ORIENTED_EDGE('',*,*,#356,.T.);
#451=ORIENTED_EDGE('',*,*,#353,.T.);
#452=ORIENTED_EDGE('',*,*,#329,.F.);
#453=ORIENTED_EDGE('',*,*,#357,.F.);
#454=ORIENTED_EDGE('',*,*,#358,.T.);
#455=ORIENTED_EDGE('',*,*,#359,.T.);
#456=ORIENTED_EDGE('',*,*,#328,.F.);
#457=ORIENTED_EDGE('',*,*,#360,.F.);
#458=ORIENTED_EDGE('',*,*,#361,.T.);
#459=ORIENTED_EDGE('',*,*,#357,.T.);
#460=ORIENTED_EDGE('',*,*,#327,.F.);
#461=ORIENTED_EDGE('',*,*,#362,.F.);
#462=ORIENTED_EDGE('',*,*,#363,.T.);
#463=ORIENTED_EDGE('',*,*,#360,.T.);
#464=ORIENTED_EDGE('',*,*,#349,.F.);
#465=ORIENTED_EDGE('',*,*,#364,.F.);
#466=ORIENTED_EDGE('',*,*,#365,.T.);
#467=ORIENTED_EDGE('',*,*,#366,.T.);
#468=ORIENTED_EDGE('',*,*,#338,.F.);
#469=ORIENTED_EDGE('',*,*,#348,.F.);
#470=ORIENTED_EDGE('',*,*,#343,.F.);
#471=ORIENTED_EDGE('',*,*,#367,.F.);
#472=ORIENTED_EDGE('',*,*,#368,.T.);
#473=ORIENTED_EDGE('',*,*,#364,.T.);
#474=ORIENTED_EDGE('',*,*,#347,.F.);
#475=ORIENTED_EDGE('',*,*,#369,.F.);
#476=ORIENTED_EDGE('',*,*,#370,.F.);
#477=ORIENTED_EDGE('',*,*,#334,.T.);
#478=ORIENTED_EDGE('',*,*,#345,.F.);
#479=ORIENTED_EDGE('',*,*,#320,.F.);
#480=ORIENTED_EDGE('',*,*,#371,.F.);
#481=ORIENTED_EDGE('',*,*,#372,.F.);
#482=ORIENTED_EDGE('',*,*,#369,.T.);
#483=ORIENTED_EDGE('',*,*,#346,.F.);
#484=ORIENTED_EDGE('',*,*,#341,.F.);
#485=ORIENTED_EDGE('',*,*,#373,.F.);
#486=ORIENTED_EDGE('',*,*,#374,.T.);
#487=ORIENTED_EDGE('',*,*,#375,.T.);
#488=ORIENTED_EDGE('',*,*,#342,.F.);
#489=ORIENTED_EDGE('',*,*,#375,.F.);
#490=ORIENTED_EDGE('',*,*,#376,.T.);
#491=ORIENTED_EDGE('',*,*,#367,.T.);
#492=ORIENTED_EDGE('',*,*,#339,.F.);
#493=ORIENTED_EDGE('',*,*,#366,.F.);
#494=ORIENTED_EDGE('',*,*,#377,.T.);
#495=ORIENTED_EDGE('',*,*,#378,.T.);
#496=ORIENTED_EDGE('',*,*,#340,.F.);
#497=ORIENTED_EDGE('',*,*,#378,.F.);
#498=ORIENTED_EDGE('',*,*,#379,.T.);
#499=ORIENTED_EDGE('',*,*,#373,.T.);
#500=ORIENTED_EDGE('',*,*,#368,.F.);
#501=ORIENTED_EDGE('',*,*,#376,.F.);
#502=ORIENTED_EDGE('',*,*,#374,.F.);
#503=ORIENTED_EDGE('',*,*,#379,.F.);
#504=ORIENTED_EDGE('',*,*,#377,.F.);
#505=ORIENTED_EDGE('',*,*,#365,.F.);
#506=ORIENTED_EDGE('',*,*,#380,.F.);
#507=ORIENTED_EDGE('',*,*,#324,.F.);
#508=ORIENTED_EDGE('',*,*,#352,.F.);
#509=ORIENTED_EDGE('',*,*,#381,.T.);
#510=ORIENTED_EDGE('',*,*,#382,.T.);
#511=ORIENTED_EDGE('',*,*,#325,.F.);
#512=ORIENTED_EDGE('',*,*,#382,.F.);
#513=ORIENTED_EDGE('',*,*,#383,.T.);
#514=ORIENTED_EDGE('',*,*,#384,.T.);
#515=ORIENTED_EDGE('',*,*,#326,.F.);
#516=ORIENTED_EDGE('',*,*,#384,.F.);
#517=ORIENTED_EDGE('',*,*,#385,.T.);
#518=ORIENTED_EDGE('',*,*,#355,.T.);
#519=ORIENTED_EDGE('',*,*,#381,.F.);
#520=ORIENTED_EDGE('',*,*,#351,.F.);
#521=ORIENTED_EDGE('',*,*,#354,.F.);
#522=ORIENTED_EDGE('',*,*,#356,.F.);
#523=ORIENTED_EDGE('',*,*,#385,.F.);
#524=ORIENTED_EDGE('',*,*,#383,.F.);
#525=ORIENTED_EDGE('',*,*,#386,.F.);
#526=ORIENTED_EDGE('',*,*,#330,.F.);
#527=ORIENTED_EDGE('',*,*,#359,.F.);
#528=ORIENTED_EDGE('',*,*,#387,.T.);
#529=ORIENTED_EDGE('',*,*,#388,.T.);
#530=ORIENTED_EDGE('',*,*,#331,.F.);
#531=ORIENTED_EDGE('',*,*,#388,.F.);
#532=ORIENTED_EDGE('',*,*,#389,.T.);
#533=ORIENTED_EDGE('',*,*,#390,.T.);
#534=ORIENTED_EDGE('',*,*,#332,.F.);
#535=ORIENTED_EDGE('',*,*,#390,.F.);
#536=ORIENTED_EDGE('',*,*,#391,.T.);
#537=ORIENTED_EDGE('',*,*,#362,.T.);
#538=ORIENTED_EDGE('',*,*,#358,.F.);
#539=ORIENTED_EDGE('',*,*,#361,.F.);
#540=ORIENTED_EDGE('',*,*,#363,.F.);
#541=ORIENTED_EDGE('',*,*,#391,.F.);
#542=ORIENTED_EDGE('',*,*,#389,.F.);
#543=ORIENTED_EDGE('',*,*,#387,.F.);
#544=ORIENTED_EDGE('',*,*,#392,.F.);
#545=ORIENTED_EDGE('',*,*,#386,.T.);
#546=ORIENTED_EDGE('',*,*,#393,.T.);
#547=ORIENTED_EDGE('',*,*,#394,.F.);
#548=ORIENTED_EDGE('',*,*,#393,.F.);
#549=ORIENTED_EDGE('',*,*,#380,.T.);
#550=ORIENTED_EDGE('',*,*,#395,.T.);
#551=ORIENTED_EDGE('',*,*,#396,.F.);
#552=ORIENTED_EDGE('',*,*,#395,.F.);
#553=ORIENTED_EDGE('',*,*,#392,.T.);
#554=ORIENTED_EDGE('',*,*,#397,.T.);
#555=ORIENTED_EDGE('',*,*,#398,.F.);
#556=ORIENTED_EDGE('',*,*,#397,.F.);
#557=ORIENTED_EDGE('',*,*,#319,.F.);
#558=ORIENTED_EDGE('',*,*,#336,.F.);
#559=ORIENTED_EDGE('',*,*,#399,.F.);
#560=ORIENTED_EDGE('',*,*,#371,.T.);
#561=ORIENTED_EDGE('',*,*,#370,.T.);
#562=ORIENTED_EDGE('',*,*,#372,.T.);
#563=ORIENTED_EDGE('',*,*,#399,.T.);
#564=ORIENTED_EDGE('',*,*,#335,.T.);
#565=ORIENTED_EDGE('',*,*,#398,.T.);
#566=ORIENTED_EDGE('',*,*,#396,.T.);
#567=ORIENTED_EDGE('',*,*,#394,.T.);
#568=PLANE('',#643);
#569=PLANE('',#644);
#570=PLANE('',#645);
#571=PLANE('',#646);
#572=PLANE('',#647);
#573=PLANE('',#648);
#574=PLANE('',#649);
#575=PLANE('',#650);
#576=PLANE('',#651);
#577=PLANE('',#652);
#578=PLANE('',#653);
#579=PLANE('',#654);
#580=PLANE('',#655);
#581=PLANE('',#656);
#582=PLANE('',#657);
#583=PLANE('',#658);
#584=PLANE('',#659);
#585=PLANE('',#660);
#586=PLANE('',#661);
#587=PLANE('',#663);
#588=PLANE('',#664);
#589=PLANE('',#665);
#590=PLANE('',#666);
#591=PLANE('',#668);
#592=PLANE('',#669);
#593=PLANE('',#670);
#594=PLANE('',#671);
#595=PLANE('',#679);
#596=PLANE('',#680);
#597=ADVANCED_FACE('',(#32,#24,#25),#568,.T.);
#598=ADVANCED_FACE('',(#33),#569,.T.);
#599=ADVANCED_FACE('',(#34),#570,.F.);
#600=ADVANCED_FACE('',(#35),#571,.T.);
#601=ADVANCED_FACE('',(#36),#572,.F.);
#602=ADVANCED_FACE('',(#37),#573,.F.);
#603=ADVANCED_FACE('',(#38),#574,.F.);
#604=ADVANCED_FACE('',(#39),#575,.F.);
#605=ADVANCED_FACE('',(#40),#576,.F.);
#606=ADVANCED_FACE('',(#41),#577,.F.);
#607=ADVANCED_FACE('',(#42),#578,.F.);
#608=ADVANCED_FACE('',(#43),#579,.F.);
#609=ADVANCED_FACE('',(#44),#580,.T.);
#610=ADVANCED_FACE('',(#45),#581,.T.);
#611=ADVANCED_FACE('',(#46),#582,.F.);
#612=ADVANCED_FACE('',(#47),#583,.F.);
#613=ADVANCED_FACE('',(#48),#584,.F.);
#614=ADVANCED_FACE('',(#49),#585,.F.);
#615=ADVANCED_FACE('',(#50,#26),#586,.F.);
#616=ADVANCED_FACE('',(#51),#587,.F.);
#617=ADVANCED_FACE('',(#52),#588,.F.);
#618=ADVANCED_FACE('',(#53),#589,.F.);
#619=ADVANCED_FACE('',(#54,#27),#590,.F.);
#620=ADVANCED_FACE('',(#55),#591,.F.);
#621=ADVANCED_FACE('',(#56),#592,.F.);
#622=ADVANCED_FACE('',(#57),#593,.F.);
#623=ADVANCED_FACE('',(#58,#28),#594,.F.);
#624=ADVANCED_FACE('',(#59),#15,.F.);
#625=ADVANCED_FACE('',(#60),#16,.F.);
#626=ADVANCED_FACE('',(#61),#17,.F.);
#627=ADVANCED_FACE('',(#62),#595,.T.);
#628=ADVANCED_FACE('',(#63,#29,#30,#31),#596,.T.);
#629=CLOSED_SHELL('',(#597,#598,#599,#600,#601,#602,#603,#604,#605,#606,
#607,#608,#609,#610,#611,#612,#613,#614,#615,#616,#617,#618,#619,#620,#621,
#622,#623,#624,#625,#626,#627,#628));
#630=DERIVED_UNIT_ELEMENT(#632,1.);
#631=DERIVED_UNIT_ELEMENT(#1015,-3.);
#632=(
MASS_UNIT()
NAMED_UNIT(*)
SI_UNIT(.KILO.,.GRAM.)
);
#633=DERIVED_UNIT((#630,#631));
#634=MEASURE_REPRESENTATION_ITEM('density measure',
POSITIVE_RATIO_MEASURE(7850.),#633);
#635=PROPERTY_DEFINITION_REPRESENTATION(#640,#637);
#636=PROPERTY_DEFINITION_REPRESENTATION(#641,#638);
#637=REPRESENTATION('material name',(#639),#1012);
#638=REPRESENTATION('density',(#634),#1012);
#639=DESCRIPTIVE_REPRESENTATION_ITEM('Steel','Steel');
#640=PROPERTY_DEFINITION('material property','material name',#1022);
#641=PROPERTY_DEFINITION('material property','density of part',#1022);
#642=AXIS2_PLACEMENT_3D('',#837,#681,#682);
#643=AXIS2_PLACEMENT_3D('',#838,#683,#684);
#644=AXIS2_PLACEMENT_3D('',#873,#702,#703);
#645=AXIS2_PLACEMENT_3D('',#881,#708,#709);
#646=AXIS2_PLACEMENT_3D('',#899,#719,#720);
#647=AXIS2_PLACEMENT_3D('',#906,#725,#726);
#648=AXIS2_PLACEMENT_3D('',#912,#730,#731);
#649=AXIS2_PLACEMENT_3D('',#916,#734,#735);
#650=AXIS2_PLACEMENT_3D('',#920,#738,#739);
#651=AXIS2_PLACEMENT_3D('',#926,#743,#744);
#652=AXIS2_PLACEMENT_3D('',#930,#747,#748);
#653=AXIS2_PLACEMENT_3D('',#934,#751,#752);
#654=AXIS2_PLACEMENT_3D('',#940,#756,#757);
#655=AXIS2_PLACEMENT_3D('',#944,#760,#761);
#656=AXIS2_PLACEMENT_3D('',#948,#764,#765);
#657=AXIS2_PLACEMENT_3D('',#952,#768,#769);
#658=AXIS2_PLACEMENT_3D('',#958,#773,#774);
#659=AXIS2_PLACEMENT_3D('',#960,#776,#777);
#660=AXIS2_PLACEMENT_3D('',#964,#780,#781);
#661=AXIS2_PLACEMENT_3D('',#966,#783,#784);
#662=AXIS2_PLACEMENT_3D('',#968,#785,#786);
#663=AXIS2_PLACEMENT_3D('',#969,#787,#788);
#664=AXIS2_PLACEMENT_3D('',#973,#791,#792);
#665=AXIS2_PLACEMENT_3D('',#977,#795,#796);
#666=AXIS2_PLACEMENT_3D('',#979,#798,#799);
#667=AXIS2_PLACEMENT_3D('',#981,#800,#801);
#668=AXIS2_PLACEMENT_3D('',#982,#802,#803);
#669=AXIS2_PLACEMENT_3D('',#986,#806,#807);
#670=AXIS2_PLACEMENT_3D('',#990,#810,#811);
#671=AXIS2_PLACEMENT_3D('',#992,#813,#814);
#672=AXIS2_PLACEMENT_3D('',#994,#815,#816);
#673=AXIS2_PLACEMENT_3D('',#995,#817,#818);
#674=AXIS2_PLACEMENT_3D('',#998,#820,#821);
#675=AXIS2_PLACEMENT_3D('',#999,#822,#823);
#676=AXIS2_PLACEMENT_3D('',#1002,#825,#826);
#677=AXIS2_PLACEMENT_3D('',#1003,#827,#828);
#678=AXIS2_PLACEMENT_3D('',#1006,#830,#831);
#679=AXIS2_PLACEMENT_3D('',#1007,#832,#833);
#680=AXIS2_PLACEMENT_3D('',#1009,#835,#836);
#681=DIRECTION('axis',(0.,0.,1.));
#682=DIRECTION('refdir',(1.,0.,0.));
#683=DIRECTION('center_axis',(-0.371390676354104,0.,-0.928476690885259));
#684=DIRECTION('ref_axis',(-0.928476690885259,0.,0.371390676354104));
#685=DIRECTION('',(0.870388279778489,-0.348155311911395,-0.348155311911396));
#686=DIRECTION('',(0.,-1.,0.));
#687=DIRECTION('',(-0.928476690885259,0.,0.371390676354104));
#688=DIRECTION('',(0.,1.,0.));
#689=DIRECTION('',(0.928476690885259,0.,-0.371390676354104));
#690=DIRECTION('',(-0.830940432319538,0.446165975402067,0.332376172927815));
#691=DIRECTION('',(-0.805397663177239,-0.497542099537743,0.322159065270896));
#692=DIRECTION('',(0.,-1.,0.));
#693=DIRECTION('',(0.805397663177239,-0.497542099537743,-0.322159065270896));
#694=DIRECTION('',(0.830940432319538,0.446165975402067,-0.332376172927815));
#695=DIRECTION('',(0.,1.,0.));
#696=DIRECTION('',(-0.805397663177239,-0.497542099537743,0.322159065270896));
#697=DIRECTION('',(0.,-1.,0.));
#698=DIRECTION('',(0.805397663177239,-0.497542099537743,-0.322159065270896));
#699=DIRECTION('',(0.830940432319538,0.446165975402067,-0.332376172927815));
#700=DIRECTION('',(0.,1.,0.));
#701=DIRECTION('',(-0.830940432319538,0.446165975402067,0.332376172927815));
#702=DIRECTION('center_axis',(0.,-1.,0.));
#703=DIRECTION('ref_axis',(-1.,0.,0.));
#704=DIRECTION('',(-1.,0.,0.));
#705=DIRECTION('',(0.,0.,-1.));
#706=DIRECTION('',(1.,0.,0.));
#707=DIRECTION('',(0.,0.,-1.));
#708=DIRECTION('center_axis',(0.,0.,1.));
#709=DIRECTION('ref_axis',(1.,0.,0.));
#710=DIRECTION('',(-1.,0.,0.));
#711=DIRECTION('',(-0.866025403784439,-0.5,0.));
#712=DIRECTION('',(0.,-1.,0.));
#713=DIRECTION('',(0.866025403784439,-0.5,0.));
#714=DIRECTION('',(0.866025403784439,0.5,0.));
#715=DIRECTION('',(0.,1.,0.));
#716=DIRECTION('',(-0.866025403784439,0.5,0.));
#717=DIRECTION('',(-1.,0.,0.));
#718=DIRECTION('',(0.,-1.,0.));
#719=DIRECTION('center_axis',(0.,0.707106781186548,-0.707106781186547));
#720=DIRECTION('ref_axis',(-1.,0.,0.));
#721=DIRECTION('',(1.,0.,0.));
#722=DIRECTION('',(0.,-0.707106781186547,-0.707106781186548));
#723=DIRECTION('',(-0.803234716152348,0.421197098023987,0.421197098023988));
#724=DIRECTION('',(-0.803234716152348,-0.421197098023987,-0.421197098023988));
#725=DIRECTION('center_axis',(-0.996194698091746,0.,0.0871557427476582));
#726=DIRECTION('ref_axis',(0.,1.,0.));
#727=DIRECTION('',(-0.087045610883209,0.0502558068751963,-0.994935885120891));
#728=DIRECTION('',(0.,-1.,0.));
#729=DIRECTION('',(-0.087045610883209,-0.0502558068751962,-0.994935885120891));
#730=DIRECTION('center_axis',(-0.498097349045873,0.862729915662821,0.0871557427476583));
#731=DIRECTION('ref_axis',(0.866025403784439,0.5,0.));
#732=DIRECTION('',(-4.81967228193236E-17,0.100511613750392,-0.994935885120891));
#733=DIRECTION('',(-0.866025403784439,-0.5,0.));
#734=DIRECTION('center_axis',(0.498097349045873,0.862729915662821,0.0871557427476582));
#735=DIRECTION('ref_axis',(0.866025403784439,-0.5,0.));
#736=DIRECTION('',(0.087045610883209,0.0502558068751962,-0.994935885120891));
#737=DIRECTION('',(-0.866025403784439,0.5,0.));
#738=DIRECTION('center_axis',(-0.498097349045873,-0.862729915662821,0.0871557427476582));
#739=DIRECTION('ref_axis',(-0.866025403784439,0.5,0.));
#740=DIRECTION('',(-0.087045610883209,-0.0502558068751962,-0.994935885120891));
#741=DIRECTION('',(0.866025403784439,-0.5,0.));
#742=DIRECTION('',(4.81967228193236E-17,-0.100511613750392,-0.994935885120891));
#743=DIRECTION('center_axis',(-0.996194698091746,0.,0.0871557427476582));
#744=DIRECTION('ref_axis',(0.,1.,0.));
#745=DIRECTION('',(-0.087045610883209,0.0502558068751963,-0.994935885120891));
#746=DIRECTION('',(0.,-1.,0.));
#747=DIRECTION('center_axis',(-0.498097349045873,0.862729915662821,0.0871557427476583));
#748=DIRECTION('ref_axis',(0.866025403784439,0.5,0.));
#749=DIRECTION('',(-4.81967228193236E-17,0.100511613750392,-0.994935885120891));
#750=DIRECTION('',(-0.866025403784439,-0.5,0.));
#751=DIRECTION('center_axis',(-0.498097349045873,0.862729915662821,0.0871557427476583));
#752=DIRECTION('ref_axis',(0.866025403784439,0.5,0.));
#753=DIRECTION('',(-4.81967228193236E-17,0.100511613750392,-0.994935885120891));
#754=DIRECTION('',(-0.866025403784439,-0.5,0.));
#755=DIRECTION('',(-0.087045610883209,0.0502558068751963,-0.994935885120891));
#756=DIRECTION('center_axis',(0.498097349045873,0.862729915662821,0.0871557427476582));
#757=DIRECTION('ref_axis',(0.866025403784439,-0.5,0.));
#758=DIRECTION('',(0.087045610883209,0.0502558068751962,-0.994935885120891));
#759=DIRECTION('',(-0.866025403784439,0.5,0.));
#760=DIRECTION('center_axis',(1.,0.,0.));
#761=DIRECTION('ref_axis',(0.,-1.,0.));
#762=DIRECTION('',(0.,0.,-1.));
#763=DIRECTION('',(0.,1.,0.));
#764=DIRECTION('center_axis',(0.,1.,0.));
#765=DIRECTION('ref_axis',(1.,0.,0.));
#766=DIRECTION('',(0.,0.,-1.));
#767=DIRECTION('',(-1.,0.,0.));
#768=DIRECTION('center_axis',(0.498097349045873,-0.862729915662821,0.0871557427476583));
#769=DIRECTION('ref_axis',(-0.866025403784439,-0.5,0.));
#770=DIRECTION('',(4.81967228193236E-17,-0.100511613750392,-0.994935885120891));
#771=DIRECTION('',(0.866025403784439,0.5,0.));
#772=DIRECTION('',(0.087045610883209,-0.0502558068751963,-0.994935885120891));
#773=DIRECTION('center_axis',(0.996194698091746,0.,0.0871557427476582));
#774=DIRECTION('ref_axis',(0.,-1.,0.));
#775=DIRECTION('',(0.,1.,0.));
#776=DIRECTION('center_axis',(-0.996194698091746,0.,0.0871557427476582));
#777=DIRECTION('ref_axis',(0.,1.,0.));
#778=DIRECTION('',(0.,-1.,0.));
#779=DIRECTION('',(-0.087045610883209,-0.0502558068751962,-0.994935885120891));
#780=DIRECTION('center_axis',(-0.498097349045873,-0.862729915662821,0.0871557427476582));
#781=DIRECTION('ref_axis',(-0.866025403784439,0.5,0.));
#782=DIRECTION('',(0.866025403784439,-0.5,0.));
#783=DIRECTION('center_axis',(0.,0.,1.));
#784=DIRECTION('ref_axis',(1.,0.,0.));
#785=DIRECTION('center_axis',(0.,0.,-1.));
#786=DIRECTION('ref_axis',(1.,0.,0.));
#787=DIRECTION('center_axis',(-0.498097349045873,-0.862729915662821,0.0871557427476582));
#788=DIRECTION('ref_axis',(-0.866025403784439,0.5,0.));
#789=DIRECTION('',(0.866025403784439,-0.5,0.));
#790=DIRECTION('',(4.81967228193236E-17,-0.100511613750392,-0.994935885120891));
#791=DIRECTION('center_axis',(0.498097349045873,-0.862729915662821,0.0871557427476583));
#792=DIRECTION('ref_axis',(-0.866025403784439,-0.5,0.));
#793=DIRECTION('',(0.866025403784439,0.5,0.));
#794=DIRECTION('',(0.087045610883209,-0.0502558068751963,-0.994935885120891));
#795=DIRECTION('center_axis',(0.996194698091746,0.,0.0871557427476582));
#796=DIRECTION('ref_axis',(0.,-1.,0.));
#797=DIRECTION('',(0.,1.,0.));
#798=DIRECTION('center_axis',(0.,0.,1.));
#799=DIRECTION('ref_axis',(1.,0.,0.));
#800=DIRECTION('center_axis',(0.,0.,-1.));
#801=DIRECTION('ref_axis',(1.,0.,0.));
#802=DIRECTION('center_axis',(0.498097349045873,-0.862729915662821,0.0871557427476583));
#803=DIRECTION('ref_axis',(-0.866025403784439,-0.5,0.));
#804=DIRECTION('',(0.866025403784439,0.5,0.));
#805=DIRECTION('',(0.087045610883209,-0.0502558068751963,-0.994935885120891));
#806=DIRECTION('center_axis',(0.996194698091746,0.,0.0871557427476582));
#807=DIRECTION('ref_axis',(0.,-1.,0.));
#808=DIRECTION('',(0.,1.,0.));
#809=DIRECTION('',(0.087045610883209,0.0502558068751962,-0.994935885120891));
#810=DIRECTION('center_axis',(0.498097349045873,0.862729915662821,0.0871557427476582));
#811=DIRECTION('ref_axis',(0.866025403784439,-0.5,0.));
#812=DIRECTION('',(-0.866025403784439,0.5,0.));
#813=DIRECTION('center_axis',(0.,0.,1.));
#814=DIRECTION('ref_axis',(1.,0.,0.));
#815=DIRECTION('center_axis',(0.,0.,-1.));
#816=DIRECTION('ref_axis',(1.,0.,0.));
#817=DIRECTION('center_axis',(0.,0.,-1.));
#818=DIRECTION('ref_axis',(1.,0.,0.));
#819=DIRECTION('',(0.,0.,1.));
#820=DIRECTION('center_axis',(0.,0.,-1.));
#821=DIRECTION('ref_axis',(1.,0.,0.));
#822=DIRECTION('center_axis',(0.,0.,-1.));
#823=DIRECTION('ref_axis',(1.,0.,0.));
#824=DIRECTION('',(0.,0.,1.));
#825=DIRECTION('center_axis',(0.,0.,-1.));
#826=DIRECTION('ref_axis',(1.,0.,0.));
#827=DIRECTION('center_axis',(0.,0.,-1.));
#828=DIRECTION('ref_axis',(1.,0.,0.));
#829=DIRECTION('',(0.,0.,1.));
#830=DIRECTION('center_axis',(0.,0.,-1.));
#831=DIRECTION('ref_axis',(1.,0.,0.));
#832=DIRECTION('center_axis',(-1.,0.,0.));
#833=DIRECTION('ref_axis',(0.,1.,0.));
#834=DIRECTION('',(0.,-1.,0.));
#835=DIRECTION('center_axis',(0.,0.,1.));
#836=DIRECTION('ref_axis',(1.,0.,0.));
#837=CARTESIAN_POINT('',(0.,0.,0.));
#838=CARTESIAN_POINT('Origin',(-30.0000005960464,32.5000004842877,-6.));
#839=CARTESIAN_POINT('',(-27.5000005960464,40.0000005960464,-7.));
#840=CARTESIAN_POINT('',(-20.0000005960464,37.0000005960464,-10.));
#841=CARTESIAN_POINT('',(-28.9015157306285,40.5606066498793,-6.43939394616719));
#842=CARTESIAN_POINT('',(-20.0000005960464,30.0000004470348,-10.));
#843=CARTESIAN_POINT('',(-20.0000005960464,32.5000004842877,-10.));
#844=CARTESIAN_POINT('',(-40.0000005960464,30.0000004470348,-2.));
#845=CARTESIAN_POINT('',(-22.4137936994947,30.0000004470348,-9.03448275862069));
#846=CARTESIAN_POINT('',(-40.0000005960464,40.0000005960464,-2.));
#847=CARTESIAN_POINT('',(-40.0000005960464,32.5000004842877,-2.));
#848=CARTESIAN_POINT('',(-35.3448281822533,40.0000005960464,-3.86206896551724));
#849=CARTESIAN_POINT('',(-21.7637373432758,36.8684576805847,-9.29450530110827));
#850=CARTESIAN_POINT('',(-25.0000000745058,38.6061397838685,-8.00000020861626));
#851=CARTESIAN_POINT('',(-25.4116588798934,38.8271762689098,-7.83533668646121));
#852=CARTESIAN_POINT('',(-28.0174125319818,36.7421044161205,-6.79303522562586));
#853=CARTESIAN_POINT('',(-29.0043980172075,36.1323847049964,-6.39824103153559));
#854=CARTESIAN_POINT('',(-28.0174125319818,33.2578966269608,-6.79303522562586));
#855=CARTESIAN_POINT('',(-28.0174125319818,34.5000005029142,-6.79303522562586));
#856=CARTESIAN_POINT('',(-25.0000000745058,31.3938612592128,-8.00000020861626));
#857=CARTESIAN_POINT('',(-29.1457803917993,33.9549566504649,-6.34168808169887));
#858=CARTESIAN_POINT('',(-21.7637373432758,33.1315433624966,-9.29450530110828));
#859=CARTESIAN_POINT('',(-27.5134917274889,30.0442645716527,-6.99460354742302));
#860=CARTESIAN_POINT('',(-21.7637373432758,33.0000005029142,-9.29450530110828));
#861=CARTESIAN_POINT('',(-35.0000000745058,38.2020469563667,-4.00000020861626));
#862=CARTESIAN_POINT('',(-37.679290611839,36.5468896345072,-2.928283993683));
#863=CARTESIAN_POINT('',(-34.5612786321249,38.4730713180383,-4.17548878556862));
#864=CARTESIAN_POINT('',(-37.679290611839,33.4531114085741,-2.928283993683));
#865=CARTESIAN_POINT('',(-37.679290611839,34.5000005029142,-2.928283993683));
#866=CARTESIAN_POINT('',(-35.0000000745058,31.7979540867146,-4.00000020861625));
#867=CARTESIAN_POINT('',(-34.7026610067167,31.614270037423,-4.1189358357319));
#868=CARTESIAN_POINT('',(-32.1263829491355,33.3409169006602,-5.14944705876436));
#869=CARTESIAN_POINT('',(-33.1062548172812,32.8147835331938,-4.75749831150611));
#870=CARTESIAN_POINT('',(-32.1263829491355,36.6590841424211,-5.14944705876436));
#871=CARTESIAN_POINT('',(-32.1263829491355,33.0000005029142,-5.14944705876436));
#872=CARTESIAN_POINT('',(-31.0044219696857,36.0566573073687,-5.5982314505443));
#873=CARTESIAN_POINT('Origin',(-10.0000005960464,30.0000004470348,0.));
#874=CARTESIAN_POINT('',(-10.0000005960464,30.0000004470348,-10.));
#875=CARTESIAN_POINT('',(-40.0000005960464,30.0000004470348,-10.));
#876=CARTESIAN_POINT('',(-10.0000005960464,30.0000004470348,0.));
#877=CARTESIAN_POINT('',(-10.0000005960464,30.0000004470348,0.));
#878=CARTESIAN_POINT('',(-40.0000005960464,30.0000004470348,0.));
#879=CARTESIAN_POINT('',(-40.0000005960464,30.0000004470348,0.));
#880=CARTESIAN_POINT('',(-40.0000005960464,30.0000004470348,0.));
#881=CARTESIAN_POINT('Origin',(-25.0000005960464,35.0000005215406,-10.));
#882=CARTESIAN_POINT('',(-18.1318693694416,37.0000005960464,-10.));
#883=CARTESIAN_POINT('',(-32.5000005960464,37.0000005960464,-10.));
#884=CARTESIAN_POINT('',(-18.2979855940665,36.9040933490425,-10.));
#885=CARTESIAN_POINT('',(-19.7494739770256,36.0660761404155,-10.));
#886=CARTESIAN_POINT('',(-18.2979855940665,33.0959076940388,-10.));
#887=CARTESIAN_POINT('',(-18.2979855940665,35.7500005215406,-10.));
#888=CARTESIAN_POINT('',(-15.0000000745058,31.1918148665369,-10.));
#889=CARTESIAN_POINT('',(-21.0485120827022,34.6839249026658,-10.));
#890=CARTESIAN_POINT('',(-11.7020145549451,33.0959076940388,-10.));
#891=CARTESIAN_POINT('',(-17.7505265631415,29.6037976579099,-10.));
#892=CARTESIAN_POINT('',(-11.7020145549451,36.9040933490425,-10.));
#893=CARTESIAN_POINT('',(-11.7020145549451,34.2500005215406,-10.));
#894=CARTESIAN_POINT('',(-11.86813077957,37.0000005960464,-10.));
#895=CARTESIAN_POINT('',(-16.4514884574649,39.6462033851714,-10.));
#896=CARTESIAN_POINT('',(-10.0000005960464,37.0000005960464,-10.));
#897=CARTESIAN_POINT('',(-32.5000005960464,37.0000005960464,-10.));
#898=CARTESIAN_POINT('',(-10.0000005960464,30.0000004470348,-10.));
#899=CARTESIAN_POINT('Origin',(-32.5000005960464,38.5000005960464,-8.5));
#900=CARTESIAN_POINT('',(-10.0000005960464,40.0000005960464,-7.));
#901=CARTESIAN_POINT('',(-32.5000005960464,40.0000005960464,-7.));
#902=CARTESIAN_POINT('',(-10.0000005960464,41.0000005960464,-6.));
#903=CARTESIAN_POINT('',(-15.0000000745058,38.6422780423405,-8.35772255370596));
#904=CARTESIAN_POINT('',(-20.472206246836,41.5117722427595,-5.4882283532869));
#905=CARTESIAN_POINT('',(-19.7266880903835,36.1637157547328,-10.8362848413136));
#906=CARTESIAN_POINT('Origin',(-27.5980762858591,36.5000005215406,-2.));
#907=CARTESIAN_POINT('',(-27.5980762858591,36.5000005215406,-2.));
#908=CARTESIAN_POINT('',(-27.5915144647443,36.4962120523536,-1.92499804145624));
#909=CARTESIAN_POINT('',(-27.5980762858591,33.5000005215406,-2.));
#910=CARTESIAN_POINT('',(-27.5980762858591,36.5000005215406,-2.));
#911=CARTESIAN_POINT('',(-27.5915144647443,33.5037889907277,-1.92499804145624));
#912=CARTESIAN_POINT('Origin',(-25.0000000745058,38.0000005215406,-2.));
#913=CARTESIAN_POINT('',(-25.0000000745058,38.0000005215406,-2.));
#914=CARTESIAN_POINT('',(-25.0000000745058,37.9924235831666,-1.92499804145624));
#915=CARTESIAN_POINT('',(-25.0000000745058,38.0000005215406,-2.));
#916=CARTESIAN_POINT('Origin',(-22.4019238631525,36.5000005215406,-2.));
#917=CARTESIAN_POINT('',(-22.4019238631525,36.5000005215406,-2.));
#918=CARTESIAN_POINT('',(-22.4084856842673,36.4962120523536,-1.92499804145624));
#919=CARTESIAN_POINT('',(-22.4019238631525,36.5000005215406,-2.));
#920=CARTESIAN_POINT('Origin',(-37.5980762858591,33.5000005215406,-2.));
#921=CARTESIAN_POINT('',(-37.5980762858591,33.5000005215406,-2.));
#922=CARTESIAN_POINT('',(-37.5915144647443,33.5037889907277,-1.92499804145624));
#923=CARTESIAN_POINT('',(-35.0000000745058,32.0000005215406,-2.));
#924=CARTESIAN_POINT('',(-37.5980762858591,33.5000005215406,-2.));
#925=CARTESIAN_POINT('',(-35.0000000745058,32.0075774599147,-1.92499804145624));
#926=CARTESIAN_POINT('Origin',(-37.5980762858591,36.5000005215406,-2.));
#927=CARTESIAN_POINT('',(-37.5980762858591,36.5000005215406,-2.));
#928=CARTESIAN_POINT('',(-37.5915144647443,36.4962120523536,-1.92499804145624));
#929=CARTESIAN_POINT('',(-37.5980762858591,36.5000005215406,-2.));
#930=CARTESIAN_POINT('Origin',(-35.0000000745058,38.0000005215406,-2.));
#931=CARTESIAN_POINT('',(-35.0000000745058,38.0000005215406,-2.));
#932=CARTESIAN_POINT('',(-35.0000000745058,37.9924235831666,-1.92499804145624));
#933=CARTESIAN_POINT('',(-35.0000000745058,38.0000005215406,-2.));
#934=CARTESIAN_POINT('Origin',(-15.0000000745058,38.0000005215406,-2.));
#935=CARTESIAN_POINT('',(-15.0000000745058,38.0000005215406,-2.));
#936=CARTESIAN_POINT('',(-15.0000000745058,37.9924235831666,-1.92499804145624));
#937=CARTESIAN_POINT('',(-17.5980762858591,36.5000005215406,-2.));
#938=CARTESIAN_POINT('',(-15.0000000745058,38.0000005215406,-2.));
#939=CARTESIAN_POINT('',(-17.5915144647443,36.4962120523536,-1.92499804145624));
#940=CARTESIAN_POINT('Origin',(-12.4019238631525,36.5000005215406,-2.));
#941=CARTESIAN_POINT('',(-12.4019238631525,36.5000005215406,-2.));
#942=CARTESIAN_POINT('',(-12.4084856842673,36.4962120523536,-1.92499804145624));
#943=CARTESIAN_POINT('',(-12.4019238631525,36.5000005215406,-2.));
#944=CARTESIAN_POINT('Origin',(-10.0000005960464,40.0000005960464,0.));
#945=CARTESIAN_POINT('',(-10.0000005960464,40.0000005960464,0.));
#946=CARTESIAN_POINT('',(-10.0000005960464,40.0000005960464,0.));
#947=CARTESIAN_POINT('',(-10.0000005960464,30.0000004470348,0.));
#948=CARTESIAN_POINT('Origin',(-40.0000005960464,40.0000005960464,0.));
#949=CARTESIAN_POINT('',(-40.0000005960464,40.0000005960464,0.));
#950=CARTESIAN_POINT('',(-40.0000005960464,40.0000005960464,0.));
#951=CARTESIAN_POINT('',(-10.0000005960464,40.0000005960464,0.));
#952=CARTESIAN_POINT('Origin',(-15.0000000745058,32.0000005215406,-2.));
#953=CARTESIAN_POINT('',(-15.0000000745058,32.0000005215406,-2.));
#954=CARTESIAN_POINT('',(-15.0000000745058,32.0075774599147,-1.92499804145624));
#955=CARTESIAN_POINT('',(-12.4019238631525,33.5000005215406,-2.));
#956=CARTESIAN_POINT('',(-15.0000000745058,32.0000005215406,-2.));
#957=CARTESIAN_POINT('',(-12.4084856842673,33.5037889907277,-1.92499804145624));
#958=CARTESIAN_POINT('Origin',(-12.4019238631525,33.5000005215406,-2.));
#959=CARTESIAN_POINT('',(-12.4019238631525,33.5000005215406,-2.));
#960=CARTESIAN_POINT('Origin',(-17.5980762858591,36.5000005215406,-2.));
#961=CARTESIAN_POINT('',(-17.5980762858591,33.5000005215406,-2.));
#962=CARTESIAN_POINT('',(-17.5980762858591,36.5000005215406,-2.));
#963=CARTESIAN_POINT('',(-17.5915144647443,33.5037889907277,-1.92499804145624));
#964=CARTESIAN_POINT('Origin',(-17.5980762858591,33.5000005215406,-2.));
#965=CARTESIAN_POINT('',(-17.5980762858591,33.5000005215406,-2.));
#966=CARTESIAN_POINT('Origin',(-15.0000000745058,35.0000005215406,-2.));
#967=CARTESIAN_POINT('',(-16.5000000745058,35.0000005215406,-2.));
#968=CARTESIAN_POINT('Origin',(-15.0000000745058,35.0000005215406,-2.));
#969=CARTESIAN_POINT('Origin',(-27.5980762858591,33.5000005215406,-2.));
#970=CARTESIAN_POINT('',(-25.0000000745058,32.0000005215406,-2.));
#971=CARTESIAN_POINT('',(-27.5980762858591,33.5000005215406,-2.));
#972=CARTESIAN_POINT('',(-25.0000000745058,32.0075774599147,-1.92499804145624));
#973=CARTESIAN_POINT('Origin',(-25.0000000745058,32.0000005215406,-2.));
#974=CARTESIAN_POINT('',(-22.4019238631525,33.5000005215406,-2.));
#975=CARTESIAN_POINT('',(-25.0000000745058,32.0000005215406,-2.));
#976=CARTESIAN_POINT('',(-22.4084856842673,33.5037889907277,-1.92499804145624));
#977=CARTESIAN_POINT('Origin',(-22.4019238631525,33.5000005215406,-2.));
#978=CARTESIAN_POINT('',(-22.4019238631525,33.5000005215406,-2.));
#979=CARTESIAN_POINT('Origin',(-25.0000000745058,35.0000005215406,-2.));
#980=CARTESIAN_POINT('',(-26.5000000745058,35.0000005215406,-2.));
#981=CARTESIAN_POINT('Origin',(-25.0000000745058,35.0000005215406,-2.));
#982=CARTESIAN_POINT('Origin',(-35.0000000745058,32.0000005215406,-2.));
#983=CARTESIAN_POINT('',(-32.4019238631525,33.5000005215406,-2.));
#984=CARTESIAN_POINT('',(-35.0000000745058,32.0000005215406,-2.));
#985=CARTESIAN_POINT('',(-32.4084856842673,33.5037889907277,-1.92499804145624));
#986=CARTESIAN_POINT('Origin',(-32.4019238631525,33.5000005215406,-2.));
#987=CARTESIAN_POINT('',(-32.4019238631525,36.5000005215406,-2.));
#988=CARTESIAN_POINT('',(-32.4019238631525,33.5000005215406,-2.));
#989=CARTESIAN_POINT('',(-32.4084856842673,36.4962120523536,-1.92499804145624));
#990=CARTESIAN_POINT('Origin',(-32.4019238631525,36.5000005215406,-2.));
#991=CARTESIAN_POINT('',(-32.4019238631525,36.5000005215406,-2.));
#992=CARTESIAN_POINT('Origin',(-35.0000000745058,35.0000005215406,-2.));
#993=CARTESIAN_POINT('',(-36.5000000745058,35.0000005215406,-2.));
#994=CARTESIAN_POINT('Origin',(-35.0000000745058,35.0000005215406,-2.));
#995=CARTESIAN_POINT('Origin',(-25.0000000745058,35.0000005215406,0.));
#996=CARTESIAN_POINT('',(-26.5000000745058,35.0000005215406,0.));
#997=CARTESIAN_POINT('',(-26.5000000745058,35.0000005215406,0.));
#998=CARTESIAN_POINT('Origin',(-25.0000000745058,35.0000005215406,0.));
#999=CARTESIAN_POINT('Origin',(-15.0000000745058,35.0000005215406,0.));
#1000=CARTESIAN_POINT('',(-16.5000000745058,35.0000005215406,0.));
#1001=CARTESIAN_POINT('',(-16.5000000745058,35.0000005215406,0.));
#1002=CARTESIAN_POINT('Origin',(-15.0000000745058,35.0000005215406,0.));
#1003=CARTESIAN_POINT('Origin',(-35.0000000745058,35.0000005215406,0.));
#1004=CARTESIAN_POINT('',(-36.5000000745058,35.0000005215406,0.));
#1005=CARTESIAN_POINT('',(-36.5000000745058,35.0000005215406,0.));
#1006=CARTESIAN_POINT('Origin',(-35.0000000745058,35.0000005215406,0.));
#1007=CARTESIAN_POINT('Origin',(-40.0000005960464,30.0000004470348,0.));
#1008=CARTESIAN_POINT('',(-40.0000005960464,40.0000005960464,0.));
#1009=CARTESIAN_POINT('Origin',(-25.0000005960464,35.0000005215406,0.));
#1010=UNCERTAINTY_MEASURE_WITH_UNIT(LENGTH_MEASURE(0.01),#1014,
'DISTANCE_ACCURACY_VALUE',
'Maximum model space distance between geometric entities at asserted c
onnectivities');
#1011=UNCERTAINTY_MEASURE_WITH_UNIT(LENGTH_MEASURE(0.01),#1014,
'DISTANCE_ACCURACY_VALUE',
'Maximum model space distance between geometric entities at asserted c
onnectivities');
#1012=(
GEOMETRIC_REPRESENTATION_CONTEXT(3)
GLOBAL_UNCERTAINTY_ASSIGNED_CONTEXT((#1010))
GLOBAL_UNIT_ASSIGNED_CONTEXT((#1014,#1016,#1017))
REPRESENTATION_CONTEXT('','3D')
);
#1013=(
GEOMETRIC_REPRESENTATION_CONTEXT(3)
GLOBAL_UNCERTAINTY_ASSIGNED_CONTEXT((#1011))
GLOBAL_UNIT_ASSIGNED_CONTEXT((#1014,#1016,#1017))
REPRESENTATION_CONTEXT('','3D')
);
#1014=(
LENGTH_UNIT()
NAMED_UNIT(*)
SI_UNIT(.MILLI.,.METRE.)
);
#1015=(
LENGTH_UNIT()
NAMED_UNIT(*)
SI_UNIT($,.METRE.)
);
#1016=(
NAMED_UNIT(*)
PLANE_ANGLE_UNIT()
SI_UNIT($,.RADIAN.)
);
#1017=(
NAMED_UNIT(*)
SI_UNIT($,.STERADIAN.)
SOLID_ANGLE_UNIT()
);
#1018=SHAPE_DEFINITION_REPRESENTATION(#1019,#1020);
#1019=PRODUCT_DEFINITION_SHAPE('',$,#1022);
#1020=SHAPE_REPRESENTATION('',(#642),#1012);
#1021=PRODUCT_DEFINITION_CONTEXT('part definition',#1026,'design');
#1022=PRODUCT_DEFINITION('leg','leg',#1023,#1021);
#1023=PRODUCT_DEFINITION_FORMATION('',$,#1028);
#1024=PRODUCT_RELATED_PRODUCT_CATEGORY('leg','leg',(#1028));
#1025=APPLICATION_PROTOCOL_DEFINITION('international standard',
'automotive_design',2009,#1026);
#1026=APPLICATION_CONTEXT(
'Core Data for Automotive Mechanical Design Process');
#1027=PRODUCT_CONTEXT('part definition',#1026,'mechanical');
#1028=PRODUCT('leg','leg',$,(#1027));
#1029=PRESENTATION_STYLE_ASSIGNMENT((#1030));
#1030=SURFACE_STYLE_USAGE(.BOTH.,#1031);
#1031=SURFACE_SIDE_STYLE('',(#1032));
#1032=SURFACE_STYLE_FILL_AREA(#1033);
#1033=FILL_AREA_STYLE('Steel - Satin',(#1034));
#1034=FILL_AREA_STYLE_COLOUR('Steel - Satin',#1035);
#1035=COLOUR_RGB('Steel - Satin',0.627450980392157,0.627450980392157,0.627450980392157);
ENDSEC;
END-ISO-10303-21;
