ISO-10303-21;
HEADER;
/* Generated by software containing ST-Developer
 * from STEP Tools, Inc. (www.steptools.com) 
 */

FILE_DESCRIPTION(
/* description */ (''),
/* implementation_level */ '2;1');

FILE_NAME(
/* name */ 'midleg.step',
/* time_stamp */ '2025-12-31T18:04:42+01:00',
/* author */ (''),
/* organization */ (''),
/* preprocessor_version */ 'ST-DEVELOPER v20.1',
/* originating_system */ 'Autodesk Translation Framework v14.21.0.0',
/* authorisation */ '');

FILE_SCHEMA (('AUTOMOTIVE_DESIGN { 1 0 10303 214 3 1 1 }'));
ENDSEC;

DATA;
#10=MECHANICAL_DESIGN_GEOMETRIC_PRESENTATION_REPRESENTATION('',(#13),#2150);
#11=SHAPE_REPRESENTATION_RELATIONSHIP('SRR','None',#2157,#12);
#12=ADVANCED_BREP_SHAPE_REPRESENTATION('',(#14),#2149);
#13=STYLED_ITEM('',(#2166),#14);
#14=MANIFOLD_SOLID_BREP('Body1',#1346);
#15=CYLINDRICAL_SURFACE('',#1431,1.5);
#16=CYLINDRICAL_SURFACE('',#1432,1.5);
#17=CYLINDRICAL_SURFACE('',#1434,1.5);
#18=CYLINDRICAL_SURFACE('',#1435,1.5);
#19=CYLINDRICAL_SURFACE('',#1436,1.5);
#20=CYLINDRICAL_SURFACE('',#1437,1.5);
#21=CIRCLE('',#1372,1.5);
#22=CIRCLE('',#1373,1.5);
#23=CIRCLE('',#1374,1.5);
#24=CIRCLE('',#1375,1.5);
#25=CIRCLE('',#1376,1.5);
#26=CIRCLE('',#1377,1.5);
#27=CIRCLE('',#1390,1.5);
#28=CIRCLE('',#1398,1.5);
#29=CIRCLE('',#1406,1.5);
#30=CIRCLE('',#1413,1.5);
#31=CIRCLE('',#1421,1.5);
#32=CIRCLE('',#1429,1.5);
#33=FACE_BOUND('',#122,.T.);
#34=FACE_BOUND('',#131,.T.);
#35=FACE_BOUND('',#132,.T.);
#36=FACE_BOUND('',#133,.T.);
#37=FACE_BOUND('',#134,.T.);
#38=FACE_BOUND('',#135,.T.);
#39=FACE_BOUND('',#136,.T.);
#40=FACE_BOUND('',#140,.T.);
#41=FACE_BOUND('',#141,.T.);
#42=FACE_BOUND('',#144,.T.);
#43=FACE_BOUND('',#145,.T.);
#44=FACE_BOUND('',#153,.T.);
#45=FACE_BOUND('',#161,.T.);
#46=FACE_BOUND('',#169,.T.);
#47=FACE_BOUND('',#176,.T.);
#48=FACE_BOUND('',#184,.T.);
#49=FACE_BOUND('',#192,.T.);
#50=FACE_OUTER_BOUND('',#118,.T.);
#51=FACE_OUTER_BOUND('',#119,.T.);
#52=FACE_OUTER_BOUND('',#120,.T.);
#53=FACE_OUTER_BOUND('',#121,.T.);
#54=FACE_OUTER_BOUND('',#123,.T.);
#55=FACE_OUTER_BOUND('',#124,.T.);
#56=FACE_OUTER_BOUND('',#125,.T.);
#57=FACE_OUTER_BOUND('',#126,.T.);
#58=FACE_OUTER_BOUND('',#127,.T.);
#59=FACE_OUTER_BOUND('',#128,.T.);
#60=FACE_OUTER_BOUND('',#129,.T.);
#61=FACE_OUTER_BOUND('',#130,.T.);
#62=FACE_OUTER_BOUND('',#137,.T.);
#63=FACE_OUTER_BOUND('',#138,.T.);
#64=FACE_OUTER_BOUND('',#139,.T.);
#65=FACE_OUTER_BOUND('',#142,.T.);
#66=FACE_OUTER_BOUND('',#143,.T.);
#67=FACE_OUTER_BOUND('',#146,.T.);
#68=FACE_OUTER_BOUND('',#147,.T.);
#69=FACE_OUTER_BOUND('',#148,.T.);
#70=FACE_OUTER_BOUND('',#149,.T.);
#71=FACE_OUTER_BOUND('',#150,.T.);
#72=FACE_OUTER_BOUND('',#151,.T.);
#73=FACE_OUTER_BOUND('',#152,.T.);
#74=FACE_OUTER_BOUND('',#154,.T.);
#75=FACE_OUTER_BOUND('',#155,.T.);
#76=FACE_OUTER_BOUND('',#156,.T.);
#77=FACE_OUTER_BOUND('',#157,.T.);
#78=FACE_OUTER_BOUND('',#158,.T.);
#79=FACE_OUTER_BOUND('',#159,.T.);
#80=FACE_OUTER_BOUND('',#160,.T.);
#81=FACE_OUTER_BOUND('',#162,.T.);
#82=FACE_OUTER_BOUND('',#163,.T.);
#83=FACE_OUTER_BOUND('',#164,.T.);
#84=FACE_OUTER_BOUND('',#165,.T.);
#85=FACE_OUTER_BOUND('',#166,.T.);
#86=FACE_OUTER_BOUND('',#167,.T.);
#87=FACE_OUTER_BOUND('',#168,.T.);
#88=FACE_OUTER_BOUND('',#170,.T.);
#89=FACE_OUTER_BOUND('',#171,.T.);
#90=FACE_OUTER_BOUND('',#172,.T.);
#91=FACE_OUTER_BOUND('',#173,.T.);
#92=FACE_OUTER_BOUND('',#174,.T.);
#93=FACE_OUTER_BOUND('',#175,.T.);
#94=FACE_OUTER_BOUND('',#177,.T.);
#95=FACE_OUTER_BOUND('',#178,.T.);
#96=FACE_OUTER_BOUND('',#179,.T.);
#97=FACE_OUTER_BOUND('',#180,.T.);
#98=FACE_OUTER_BOUND('',#181,.T.);
#99=FACE_OUTER_BOUND('',#182,.T.);
#100=FACE_OUTER_BOUND('',#183,.T.);
#101=FACE_OUTER_BOUND('',#185,.T.);
#102=FACE_OUTER_BOUND('',#186,.T.);
#103=FACE_OUTER_BOUND('',#187,.T.);
#104=FACE_OUTER_BOUND('',#188,.T.);
#105=FACE_OUTER_BOUND('',#189,.T.);
#106=FACE_OUTER_BOUND('',#190,.T.);
#107=FACE_OUTER_BOUND('',#191,.T.);
#108=FACE_OUTER_BOUND('',#193,.T.);
#109=FACE_OUTER_BOUND('',#194,.T.);
#110=FACE_OUTER_BOUND('',#195,.T.);
#111=FACE_OUTER_BOUND('',#196,.T.);
#112=FACE_OUTER_BOUND('',#197,.T.);
#113=FACE_OUTER_BOUND('',#198,.T.);
#114=FACE_OUTER_BOUND('',#199,.T.);
#115=FACE_OUTER_BOUND('',#200,.T.);
#116=FACE_OUTER_BOUND('',#201,.T.);
#117=FACE_OUTER_BOUND('',#202,.T.);
#118=EDGE_LOOP('',(#850,#851,#852,#853));
#119=EDGE_LOOP('',(#854,#855,#856,#857));
#120=EDGE_LOOP('',(#858,#859,#860,#861));
#121=EDGE_LOOP('',(#862,#863,#864,#865,#866,#867));
#122=EDGE_LOOP('',(#868,#869,#870,#871));
#123=EDGE_LOOP('',(#872,#873,#874,#875));
#124=EDGE_LOOP('',(#876,#877,#878,#879));
#125=EDGE_LOOP('',(#880,#881,#882,#883));
#126=EDGE_LOOP('',(#884,#885,#886,#887));
#127=EDGE_LOOP('',(#888,#889,#890,#891));
#128=EDGE_LOOP('',(#892,#893,#894,#895,#896,#897,#898,#899,#900,#901));
#129=EDGE_LOOP('',(#902,#903,#904,#905,#906,#907,#908,#909,#910,#911));
#130=EDGE_LOOP('',(#912,#913,#914,#915));
#131=EDGE_LOOP('',(#916));
#132=EDGE_LOOP('',(#917));
#133=EDGE_LOOP('',(#918));
#134=EDGE_LOOP('',(#919));
#135=EDGE_LOOP('',(#920));
#136=EDGE_LOOP('',(#921));
#137=EDGE_LOOP('',(#922,#923,#924,#925,#926,#927,#928,#929,#930,#931));
#138=EDGE_LOOP('',(#932,#933,#934,#935,#936));
#139=EDGE_LOOP('',(#937,#938,#939,#940,#941));
#140=EDGE_LOOP('',(#942,#943,#944,#945,#946,#947));
#141=EDGE_LOOP('',(#948,#949,#950,#951,#952,#953));
#142=EDGE_LOOP('',(#954,#955,#956,#957,#958,#959));
#143=EDGE_LOOP('',(#960,#961,#962,#963,#964));
#144=EDGE_LOOP('',(#965,#966,#967,#968,#969,#970));
#145=EDGE_LOOP('',(#971,#972,#973,#974,#975,#976));
#146=EDGE_LOOP('',(#977,#978,#979,#980));
#147=EDGE_LOOP('',(#981,#982,#983,#984));
#148=EDGE_LOOP('',(#985,#986,#987,#988));
#149=EDGE_LOOP('',(#989,#990,#991,#992,#993));
#150=EDGE_LOOP('',(#994,#995,#996,#997,#998));
#151=EDGE_LOOP('',(#999,#1000,#1001,#1002));
#152=EDGE_LOOP('',(#1003,#1004,#1005,#1006,#1007,#1008));
#153=EDGE_LOOP('',(#1009));
#154=EDGE_LOOP('',(#1010,#1011,#1012,#1013));
#155=EDGE_LOOP('',(#1014,#1015,#1016,#1017));
#156=EDGE_LOOP('',(#1018,#1019,#1020,#1021));
#157=EDGE_LOOP('',(#1022,#1023,#1024,#1025));
#158=EDGE_LOOP('',(#1026,#1027,#1028,#1029));
#159=EDGE_LOOP('',(#1030,#1031,#1032,#1033));
#160=EDGE_LOOP('',(#1034,#1035,#1036,#1037,#1038,#1039));
#161=EDGE_LOOP('',(#1040));
#162=EDGE_LOOP('',(#1041,#1042,#1043,#1044));
#163=EDGE_LOOP('',(#1045,#1046,#1047,#1048));
#164=EDGE_LOOP('',(#1049,#1050,#1051,#1052));
#165=EDGE_LOOP('',(#1053,#1054,#1055,#1056));
#166=EDGE_LOOP('',(#1057,#1058,#1059,#1060));
#167=EDGE_LOOP('',(#1061,#1062,#1063,#1064));
#168=EDGE_LOOP('',(#1065,#1066,#1067,#1068,#1069,#1070));
#169=EDGE_LOOP('',(#1071));
#170=EDGE_LOOP('',(#1072,#1073,#1074,#1075));
#171=EDGE_LOOP('',(#1076,#1077,#1078,#1079));
#172=EDGE_LOOP('',(#1080,#1081,#1082,#1083));
#173=EDGE_LOOP('',(#1084,#1085,#1086,#1087,#1088));
#174=EDGE_LOOP('',(#1089,#1090,#1091,#1092));
#175=EDGE_LOOP('',(#1093,#1094,#1095,#1096,#1097,#1098));
#176=EDGE_LOOP('',(#1099));
#177=EDGE_LOOP('',(#1100,#1101,#1102,#1103));
#178=EDGE_LOOP('',(#1104,#1105,#1106,#1107));
#179=EDGE_LOOP('',(#1108,#1109,#1110,#1111));
#180=EDGE_LOOP('',(#1112,#1113,#1114,#1115));
#181=EDGE_LOOP('',(#1116,#1117,#1118,#1119));
#182=EDGE_LOOP('',(#1120,#1121,#1122,#1123));
#183=EDGE_LOOP('',(#1124,#1125,#1126,#1127,#1128,#1129));
#184=EDGE_LOOP('',(#1130));
#185=EDGE_LOOP('',(#1131,#1132,#1133,#1134));
#186=EDGE_LOOP('',(#1135,#1136,#1137,#1138));
#187=EDGE_LOOP('',(#1139,#1140,#1141,#1142));
#188=EDGE_LOOP('',(#1143,#1144,#1145,#1146));
#189=EDGE_LOOP('',(#1147,#1148,#1149,#1150));
#190=EDGE_LOOP('',(#1151,#1152,#1153,#1154));
#191=EDGE_LOOP('',(#1155,#1156,#1157,#1158,#1159,#1160));
#192=EDGE_LOOP('',(#1161));
#193=EDGE_LOOP('',(#1162,#1163,#1164,#1165,#1166,#1167,#1168,#1169,#1170,
#1171,#1172,#1173,#1174,#1175,#1176,#1177,#1178,#1179));
#194=EDGE_LOOP('',(#1180,#1181,#1182,#1183));
#195=EDGE_LOOP('',(#1184,#1185,#1186,#1187));
#196=EDGE_LOOP('',(#1188,#1189,#1190,#1191));
#197=EDGE_LOOP('',(#1192,#1193,#1194,#1195));
#198=EDGE_LOOP('',(#1196,#1197,#1198,#1199));
#199=EDGE_LOOP('',(#1200,#1201,#1202,#1203));
#200=EDGE_LOOP('',(#1204,#1205,#1206,#1207));
#201=EDGE_LOOP('',(#1208,#1209,#1210,#1211));
#202=EDGE_LOOP('',(#1212,#1213,#1214,#1215));
#203=LINE('',#1777,#374);
#204=LINE('',#1779,#375);
#205=LINE('',#1781,#376);
#206=LINE('',#1782,#377);
#207=LINE('',#1785,#378);
#208=LINE('',#1787,#379);
#209=LINE('',#1788,#380);
#210=LINE('',#1791,#381);
#211=LINE('',#1793,#382);
#212=LINE('',#1794,#383);
#213=LINE('',#1798,#384);
#214=LINE('',#1800,#385);
#215=LINE('',#1802,#386);
#216=LINE('',#1804,#387);
#217=LINE('',#1806,#388);
#218=LINE('',#1807,#389);
#219=LINE('',#1809,#390);
#220=LINE('',#1811,#391);
#221=LINE('',#1812,#392);
#222=LINE('',#1815,#393);
#223=LINE('',#1817,#394);
#224=LINE('',#1818,#395);
#225=LINE('',#1821,#396);
#226=LINE('',#1823,#397);
#227=LINE('',#1824,#398);
#228=LINE('',#1828,#399);
#229=LINE('',#1830,#400);
#230=LINE('',#1832,#401);
#231=LINE('',#1833,#402);
#232=LINE('',#1835,#403);
#233=LINE('',#1836,#404);
#234=LINE('',#1839,#405);
#235=LINE('',#1841,#406);
#236=LINE('',#1842,#407);
#237=LINE('',#1844,#408);
#238=LINE('',#1846,#409);
#239=LINE('',#1849,#410);
#240=LINE('',#1851,#411);
#241=LINE('',#1852,#412);
#242=LINE('',#1868,#413);
#243=LINE('',#1870,#414);
#244=LINE('',#1872,#415);
#245=LINE('',#1874,#416);
#246=LINE('',#1876,#417);
#247=LINE('',#1878,#418);
#248=LINE('',#1880,#419);
#249=LINE('',#1882,#420);
#250=LINE('',#1884,#421);
#251=LINE('',#1885,#422);
#252=LINE('',#1888,#423);
#253=LINE('',#1890,#424);
#254=LINE('',#1892,#425);
#255=LINE('',#1893,#426);
#256=LINE('',#1896,#427);
#257=LINE('',#1897,#428);
#258=LINE('',#1898,#429);
#259=LINE('',#1901,#430);
#260=LINE('',#1903,#431);
#261=LINE('',#1905,#432);
#262=LINE('',#1907,#433);
#263=LINE('',#1909,#434);
#264=LINE('',#1910,#435);
#265=LINE('',#1913,#436);
#266=LINE('',#1915,#437);
#267=LINE('',#1917,#438);
#268=LINE('',#1919,#439);
#269=LINE('',#1921,#440);
#270=LINE('',#1922,#441);
#271=LINE('',#1925,#442);
#272=LINE('',#1926,#443);
#273=LINE('',#1927,#444);
#274=LINE('',#1929,#445);
#275=LINE('',#1930,#446);
#276=LINE('',#1933,#447);
#277=LINE('',#1935,#448);
#278=LINE('',#1937,#449);
#279=LINE('',#1939,#450);
#280=LINE('',#1941,#451);
#281=LINE('',#1942,#452);
#282=LINE('',#1945,#453);
#283=LINE('',#1947,#454);
#284=LINE('',#1949,#455);
#285=LINE('',#1951,#456);
#286=LINE('',#1953,#457);
#287=LINE('',#1954,#458);
#288=LINE('',#1958,#459);
#289=LINE('',#1960,#460);
#290=LINE('',#1962,#461);
#291=LINE('',#1963,#462);
#292=LINE('',#1966,#463);
#293=LINE('',#1968,#464);
#294=LINE('',#1969,#465);
#295=LINE('',#1972,#466);
#296=LINE('',#1974,#467);
#297=LINE('',#1975,#468);
#298=LINE('',#1977,#469);
#299=LINE('',#1979,#470);
#300=LINE('',#1980,#471);
#301=LINE('',#1983,#472);
#302=LINE('',#1985,#473);
#303=LINE('',#1986,#474);
#304=LINE('',#1988,#475);
#305=LINE('',#1989,#476);
#306=LINE('',#1995,#477);
#307=LINE('',#1997,#478);
#308=LINE('',#1998,#479);
#309=LINE('',#2001,#480);
#310=LINE('',#2002,#481);
#311=LINE('',#2005,#482);
#312=LINE('',#2006,#483);
#313=LINE('',#2009,#484);
#314=LINE('',#2010,#485);
#315=LINE('',#2013,#486);
#316=LINE('',#2014,#487);
#317=LINE('',#2016,#488);
#318=LINE('',#2022,#489);
#319=LINE('',#2024,#490);
#320=LINE('',#2025,#491);
#321=LINE('',#2028,#492);
#322=LINE('',#2029,#493);
#323=LINE('',#2032,#494);
#324=LINE('',#2033,#495);
#325=LINE('',#2036,#496);
#326=LINE('',#2037,#497);
#327=LINE('',#2040,#498);
#328=LINE('',#2041,#499);
#329=LINE('',#2043,#500);
#330=LINE('',#2050,#501);
#331=LINE('',#2052,#502);
#332=LINE('',#2054,#503);
#333=LINE('',#2055,#504);
#334=LINE('',#2058,#505);
#335=LINE('',#2060,#506);
#336=LINE('',#2061,#507);
#337=LINE('',#2063,#508);
#338=LINE('',#2064,#509);
#339=LINE('',#2067,#510);
#340=LINE('',#2069,#511);
#341=LINE('',#2070,#512);
#342=LINE('',#2072,#513);
#343=LINE('',#2073,#514);
#344=LINE('',#2079,#515);
#345=LINE('',#2081,#516);
#346=LINE('',#2082,#517);
#347=LINE('',#2085,#518);
#348=LINE('',#2086,#519);
#349=LINE('',#2089,#520);
#350=LINE('',#2090,#521);
#351=LINE('',#2093,#522);
#352=LINE('',#2094,#523);
#353=LINE('',#2097,#524);
#354=LINE('',#2098,#525);
#355=LINE('',#2100,#526);
#356=LINE('',#2106,#527);
#357=LINE('',#2108,#528);
#358=LINE('',#2109,#529);
#359=LINE('',#2112,#530);
#360=LINE('',#2113,#531);
#361=LINE('',#2116,#532);
#362=LINE('',#2117,#533);
#363=LINE('',#2120,#534);
#364=LINE('',#2121,#535);
#365=LINE('',#2124,#536);
#366=LINE('',#2125,#537);
#367=LINE('',#2127,#538);
#368=LINE('',#2133,#539);
#369=LINE('',#2135,#540);
#370=LINE('',#2138,#541);
#371=LINE('',#2140,#542);
#372=LINE('',#2142,#543);
#373=LINE('',#2144,#544);
#374=VECTOR('',#1444,10.);
#375=VECTOR('',#1445,10.);
#376=VECTOR('',#1446,10.);
#377=VECTOR('',#1447,10.);
#378=VECTOR('',#1450,10.);
#379=VECTOR('',#1451,10.);
#380=VECTOR('',#1452,10.);
#381=VECTOR('',#1455,10.);
#382=VECTOR('',#1456,10.);
#383=VECTOR('',#1457,10.);
#384=VECTOR('',#1460,10.);
#385=VECTOR('',#1461,10.);
#386=VECTOR('',#1462,10.);
#387=VECTOR('',#1463,10.);
#388=VECTOR('',#1464,10.);
#389=VECTOR('',#1465,10.);
#390=VECTOR('',#1466,10.);
#391=VECTOR('',#1467,10.);
#392=VECTOR('',#1468,10.);
#393=VECTOR('',#1471,10.);
#394=VECTOR('',#1472,10.);
#395=VECTOR('',#1473,10.);
#396=VECTOR('',#1476,10.);
#397=VECTOR('',#1477,10.);
#398=VECTOR('',#1478,10.);
#399=VECTOR('',#1481,10.);
#400=VECTOR('',#1482,10.);
#401=VECTOR('',#1483,10.);
#402=VECTOR('',#1484,10.);
#403=VECTOR('',#1487,10.);
#404=VECTOR('',#1488,10.);
#405=VECTOR('',#1491,10.);
#406=VECTOR('',#1492,10.);
#407=VECTOR('',#1493,10.);
#408=VECTOR('',#1496,10.);
#409=VECTOR('',#1499,10.);
#410=VECTOR('',#1502,10.);
#411=VECTOR('',#1503,10.);
#412=VECTOR('',#1504,10.);
#413=VECTOR('',#1519,10.);
#414=VECTOR('',#1520,10.);
#415=VECTOR('',#1521,10.);
#416=VECTOR('',#1522,10.);
#417=VECTOR('',#1523,10.);
#418=VECTOR('',#1524,10.);
#419=VECTOR('',#1525,10.);
#420=VECTOR('',#1526,10.);
#421=VECTOR('',#1527,10.);
#422=VECTOR('',#1528,10.);
#423=VECTOR('',#1531,10.);
#424=VECTOR('',#1532,10.);
#425=VECTOR('',#1533,10.);
#426=VECTOR('',#1534,10.);
#427=VECTOR('',#1537,10.);
#428=VECTOR('',#1538,10.);
#429=VECTOR('',#1539,10.);
#430=VECTOR('',#1540,10.);
#431=VECTOR('',#1541,10.);
#432=VECTOR('',#1542,10.);
#433=VECTOR('',#1543,10.);
#434=VECTOR('',#1544,10.);
#435=VECTOR('',#1545,10.);
#436=VECTOR('',#1546,10.);
#437=VECTOR('',#1547,10.);
#438=VECTOR('',#1548,10.);
#439=VECTOR('',#1549,10.);
#440=VECTOR('',#1550,10.);
#441=VECTOR('',#1551,10.);
#442=VECTOR('',#1554,10.);
#443=VECTOR('',#1555,10.);
#444=VECTOR('',#1556,10.);
#445=VECTOR('',#1559,10.);
#446=VECTOR('',#1560,10.);
#447=VECTOR('',#1561,10.);
#448=VECTOR('',#1562,10.);
#449=VECTOR('',#1563,10.);
#450=VECTOR('',#1564,10.);
#451=VECTOR('',#1565,10.);
#452=VECTOR('',#1566,10.);
#453=VECTOR('',#1567,10.);
#454=VECTOR('',#1568,10.);
#455=VECTOR('',#1569,10.);
#456=VECTOR('',#1570,10.);
#457=VECTOR('',#1571,10.);
#458=VECTOR('',#1572,10.);
#459=VECTOR('',#1575,10.);
#460=VECTOR('',#1576,10.);
#461=VECTOR('',#1577,10.);
#462=VECTOR('',#1578,10.);
#463=VECTOR('',#1581,10.);
#464=VECTOR('',#1582,10.);
#465=VECTOR('',#1583,10.);
#466=VECTOR('',#1586,10.);
#467=VECTOR('',#1587,10.);
#468=VECTOR('',#1588,10.);
#469=VECTOR('',#1591,10.);
#470=VECTOR('',#1592,10.);
#471=VECTOR('',#1593,10.);
#472=VECTOR('',#1596,10.);
#473=VECTOR('',#1597,10.);
#474=VECTOR('',#1598,10.);
#475=VECTOR('',#1601,10.);
#476=VECTOR('',#1602,10.);
#477=VECTOR('',#1609,10.);
#478=VECTOR('',#1610,10.);
#479=VECTOR('',#1611,10.);
#480=VECTOR('',#1614,10.);
#481=VECTOR('',#1615,10.);
#482=VECTOR('',#1618,10.);
#483=VECTOR('',#1619,10.);
#484=VECTOR('',#1622,10.);
#485=VECTOR('',#1623,10.);
#486=VECTOR('',#1626,10.);
#487=VECTOR('',#1627,10.);
#488=VECTOR('',#1630,10.);
#489=VECTOR('',#1637,10.);
#490=VECTOR('',#1638,10.);
#491=VECTOR('',#1639,10.);
#492=VECTOR('',#1642,10.);
#493=VECTOR('',#1643,10.);
#494=VECTOR('',#1646,10.);
#495=VECTOR('',#1647,10.);
#496=VECTOR('',#1650,10.);
#497=VECTOR('',#1651,10.);
#498=VECTOR('',#1654,10.);
#499=VECTOR('',#1655,10.);
#500=VECTOR('',#1658,10.);
#501=VECTOR('',#1665,10.);
#502=VECTOR('',#1666,10.);
#503=VECTOR('',#1667,10.);
#504=VECTOR('',#1668,10.);
#505=VECTOR('',#1671,10.);
#506=VECTOR('',#1672,10.);
#507=VECTOR('',#1673,10.);
#508=VECTOR('',#1676,10.);
#509=VECTOR('',#1677,10.);
#510=VECTOR('',#1680,10.);
#511=VECTOR('',#1681,10.);
#512=VECTOR('',#1682,10.);
#513=VECTOR('',#1685,10.);
#514=VECTOR('',#1686,10.);
#515=VECTOR('',#1693,10.);
#516=VECTOR('',#1694,10.);
#517=VECTOR('',#1695,10.);
#518=VECTOR('',#1698,10.);
#519=VECTOR('',#1699,10.);
#520=VECTOR('',#1702,10.);
#521=VECTOR('',#1703,10.);
#522=VECTOR('',#1706,10.);
#523=VECTOR('',#1707,10.);
#524=VECTOR('',#1710,10.);
#525=VECTOR('',#1711,10.);
#526=VECTOR('',#1714,10.);
#527=VECTOR('',#1721,10.);
#528=VECTOR('',#1722,10.);
#529=VECTOR('',#1723,10.);
#530=VECTOR('',#1726,10.);
#531=VECTOR('',#1727,10.);
#532=VECTOR('',#1730,10.);
#533=VECTOR('',#1731,10.);
#534=VECTOR('',#1734,10.);
#535=VECTOR('',#1735,10.);
#536=VECTOR('',#1738,10.);
#537=VECTOR('',#1739,10.);
#538=VECTOR('',#1742,10.);
#539=VECTOR('',#1751,1.5);
#540=VECTOR('',#1754,1.5);
#541=VECTOR('',#1759,1.5);
#542=VECTOR('',#1762,1.5);
#543=VECTOR('',#1765,1.5);
#544=VECTOR('',#1768,1.5);
#545=VERTEX_POINT('',#1775);
#546=VERTEX_POINT('',#1776);
#547=VERTEX_POINT('',#1778);
#548=VERTEX_POINT('',#1780);
#549=VERTEX_POINT('',#1784);
#550=VERTEX_POINT('',#1786);
#551=VERTEX_POINT('',#1790);
#552=VERTEX_POINT('',#1792);
#553=VERTEX_POINT('',#1796);
#554=VERTEX_POINT('',#1797);
#555=VERTEX_POINT('',#1799);
#556=VERTEX_POINT('',#1801);
#557=VERTEX_POINT('',#1803);
#558=VERTEX_POINT('',#1805);
#559=VERTEX_POINT('',#1808);
#560=VERTEX_POINT('',#1810);
#561=VERTEX_POINT('',#1814);
#562=VERTEX_POINT('',#1816);
#563=VERTEX_POINT('',#1820);
#564=VERTEX_POINT('',#1822);
#565=VERTEX_POINT('',#1826);
#566=VERTEX_POINT('',#1827);
#567=VERTEX_POINT('',#1829);
#568=VERTEX_POINT('',#1831);
#569=VERTEX_POINT('',#1838);
#570=VERTEX_POINT('',#1840);
#571=VERTEX_POINT('',#1848);
#572=VERTEX_POINT('',#1850);
#573=VERTEX_POINT('',#1853);
#574=VERTEX_POINT('',#1855);
#575=VERTEX_POINT('',#1857);
#576=VERTEX_POINT('',#1859);
#577=VERTEX_POINT('',#1861);
#578=VERTEX_POINT('',#1863);
#579=VERTEX_POINT('',#1866);
#580=VERTEX_POINT('',#1867);
#581=VERTEX_POINT('',#1869);
#582=VERTEX_POINT('',#1871);
#583=VERTEX_POINT('',#1873);
#584=VERTEX_POINT('',#1875);
#585=VERTEX_POINT('',#1877);
#586=VERTEX_POINT('',#1879);
#587=VERTEX_POINT('',#1881);
#588=VERTEX_POINT('',#1883);
#589=VERTEX_POINT('',#1887);
#590=VERTEX_POINT('',#1889);
#591=VERTEX_POINT('',#1891);
#592=VERTEX_POINT('',#1895);
#593=VERTEX_POINT('',#1899);
#594=VERTEX_POINT('',#1900);
#595=VERTEX_POINT('',#1902);
#596=VERTEX_POINT('',#1904);
#597=VERTEX_POINT('',#1906);
#598=VERTEX_POINT('',#1908);
#599=VERTEX_POINT('',#1911);
#600=VERTEX_POINT('',#1912);
#601=VERTEX_POINT('',#1914);
#602=VERTEX_POINT('',#1916);
#603=VERTEX_POINT('',#1918);
#604=VERTEX_POINT('',#1920);
#605=VERTEX_POINT('',#1924);
#606=VERTEX_POINT('',#1931);
#607=VERTEX_POINT('',#1932);
#608=VERTEX_POINT('',#1934);
#609=VERTEX_POINT('',#1936);
#610=VERTEX_POINT('',#1938);
#611=VERTEX_POINT('',#1940);
#612=VERTEX_POINT('',#1943);
#613=VERTEX_POINT('',#1944);
#614=VERTEX_POINT('',#1946);
#615=VERTEX_POINT('',#1948);
#616=VERTEX_POINT('',#1950);
#617=VERTEX_POINT('',#1952);
#618=VERTEX_POINT('',#1956);
#619=VERTEX_POINT('',#1957);
#620=VERTEX_POINT('',#1959);
#621=VERTEX_POINT('',#1961);
#622=VERTEX_POINT('',#1965);
#623=VERTEX_POINT('',#1967);
#624=VERTEX_POINT('',#1971);
#625=VERTEX_POINT('',#1973);
#626=VERTEX_POINT('',#1978);
#627=VERTEX_POINT('',#1982);
#628=VERTEX_POINT('',#1984);
#629=VERTEX_POINT('',#1991);
#630=VERTEX_POINT('',#1994);
#631=VERTEX_POINT('',#1996);
#632=VERTEX_POINT('',#2000);
#633=VERTEX_POINT('',#2004);
#634=VERTEX_POINT('',#2008);
#635=VERTEX_POINT('',#2012);
#636=VERTEX_POINT('',#2018);
#637=VERTEX_POINT('',#2021);
#638=VERTEX_POINT('',#2023);
#639=VERTEX_POINT('',#2027);
#640=VERTEX_POINT('',#2031);
#641=VERTEX_POINT('',#2035);
#642=VERTEX_POINT('',#2039);
#643=VERTEX_POINT('',#2045);
#644=VERTEX_POINT('',#2048);
#645=VERTEX_POINT('',#2049);
#646=VERTEX_POINT('',#2051);
#647=VERTEX_POINT('',#2053);
#648=VERTEX_POINT('',#2057);
#649=VERTEX_POINT('',#2059);
#650=VERTEX_POINT('',#2066);
#651=VERTEX_POINT('',#2068);
#652=VERTEX_POINT('',#2075);
#653=VERTEX_POINT('',#2078);
#654=VERTEX_POINT('',#2080);
#655=VERTEX_POINT('',#2084);
#656=VERTEX_POINT('',#2088);
#657=VERTEX_POINT('',#2092);
#658=VERTEX_POINT('',#2096);
#659=VERTEX_POINT('',#2102);
#660=VERTEX_POINT('',#2105);
#661=VERTEX_POINT('',#2107);
#662=VERTEX_POINT('',#2111);
#663=VERTEX_POINT('',#2115);
#664=VERTEX_POINT('',#2119);
#665=VERTEX_POINT('',#2123);
#666=VERTEX_POINT('',#2129);
#667=EDGE_CURVE('',#545,#546,#203,.T.);
#668=EDGE_CURVE('',#546,#547,#204,.T.);
#669=EDGE_CURVE('',#547,#548,#205,.T.);
#670=EDGE_CURVE('',#548,#545,#206,.T.);
#671=EDGE_CURVE('',#549,#546,#207,.T.);
#672=EDGE_CURVE('',#550,#549,#208,.T.);
#673=EDGE_CURVE('',#547,#550,#209,.T.);
#674=EDGE_CURVE('',#549,#551,#210,.T.);
#675=EDGE_CURVE('',#551,#552,#211,.T.);
#676=EDGE_CURVE('',#552,#550,#212,.T.);
#677=EDGE_CURVE('',#553,#554,#213,.T.);
#678=EDGE_CURVE('',#555,#553,#214,.T.);
#679=EDGE_CURVE('',#556,#555,#215,.T.);
#680=EDGE_CURVE('',#557,#556,#216,.T.);
#681=EDGE_CURVE('',#557,#558,#217,.T.);
#682=EDGE_CURVE('',#554,#558,#218,.T.);
#683=EDGE_CURVE('',#552,#559,#219,.T.);
#684=EDGE_CURVE('',#551,#560,#220,.T.);
#685=EDGE_CURVE('',#560,#559,#221,.T.);
#686=EDGE_CURVE('',#559,#561,#222,.T.);
#687=EDGE_CURVE('',#562,#560,#223,.T.);
#688=EDGE_CURVE('',#561,#562,#224,.T.);
#689=EDGE_CURVE('',#563,#548,#225,.T.);
#690=EDGE_CURVE('',#563,#564,#226,.T.);
#691=EDGE_CURVE('',#545,#564,#227,.T.);
#692=EDGE_CURVE('',#565,#566,#228,.T.);
#693=EDGE_CURVE('',#567,#565,#229,.T.);
#694=EDGE_CURVE('',#568,#567,#230,.T.);
#695=EDGE_CURVE('',#568,#566,#231,.T.);
#696=EDGE_CURVE('',#566,#563,#232,.T.);
#697=EDGE_CURVE('',#564,#568,#233,.T.);
#698=EDGE_CURVE('',#569,#562,#234,.T.);
#699=EDGE_CURVE('',#569,#570,#235,.T.);
#700=EDGE_CURVE('',#570,#561,#236,.T.);
#701=EDGE_CURVE('',#570,#565,#237,.T.);
#702=EDGE_CURVE('',#567,#569,#238,.T.);
#703=EDGE_CURVE('',#556,#571,#239,.T.);
#704=EDGE_CURVE('',#571,#572,#240,.T.);
#705=EDGE_CURVE('',#572,#557,#241,.T.);
#706=EDGE_CURVE('',#573,#573,#21,.T.);
#707=EDGE_CURVE('',#574,#574,#22,.T.);
#708=EDGE_CURVE('',#575,#575,#23,.T.);
#709=EDGE_CURVE('',#576,#576,#24,.T.);
#710=EDGE_CURVE('',#577,#577,#25,.T.);
#711=EDGE_CURVE('',#578,#578,#26,.T.);
#712=EDGE_CURVE('',#579,#580,#242,.T.);
#713=EDGE_CURVE('',#580,#581,#243,.T.);
#714=EDGE_CURVE('',#581,#582,#244,.T.);
#715=EDGE_CURVE('',#582,#583,#245,.T.);
#716=EDGE_CURVE('',#583,#584,#246,.T.);
#717=EDGE_CURVE('',#584,#585,#247,.T.);
#718=EDGE_CURVE('',#585,#586,#248,.T.);
#719=EDGE_CURVE('',#586,#587,#249,.T.);
#720=EDGE_CURVE('',#587,#588,#250,.T.);
#721=EDGE_CURVE('',#588,#579,#251,.T.);
#722=EDGE_CURVE('',#589,#585,#252,.T.);
#723=EDGE_CURVE('',#590,#589,#253,.T.);
#724=EDGE_CURVE('',#590,#591,#254,.T.);
#725=EDGE_CURVE('',#591,#586,#255,.T.);
#726=EDGE_CURVE('',#583,#592,#256,.T.);
#727=EDGE_CURVE('',#592,#555,#257,.T.);
#728=EDGE_CURVE('',#553,#584,#258,.T.);
#729=EDGE_CURVE('',#593,#594,#259,.T.);
#730=EDGE_CURVE('',#594,#595,#260,.T.);
#731=EDGE_CURVE('',#595,#596,#261,.T.);
#732=EDGE_CURVE('',#596,#597,#262,.T.);
#733=EDGE_CURVE('',#597,#598,#263,.T.);
#734=EDGE_CURVE('',#598,#593,#264,.T.);
#735=EDGE_CURVE('',#599,#600,#265,.T.);
#736=EDGE_CURVE('',#600,#601,#266,.T.);
#737=EDGE_CURVE('',#601,#602,#267,.T.);
#738=EDGE_CURVE('',#602,#603,#268,.T.);
#739=EDGE_CURVE('',#603,#604,#269,.T.);
#740=EDGE_CURVE('',#604,#599,#270,.T.);
#741=EDGE_CURVE('',#605,#582,#271,.T.);
#742=EDGE_CURVE('',#572,#605,#272,.T.);
#743=EDGE_CURVE('',#571,#592,#273,.T.);
#744=EDGE_CURVE('',#581,#554,#274,.T.);
#745=EDGE_CURVE('',#558,#605,#275,.T.);
#746=EDGE_CURVE('',#606,#607,#276,.T.);
#747=EDGE_CURVE('',#607,#608,#277,.T.);
#748=EDGE_CURVE('',#608,#609,#278,.T.);
#749=EDGE_CURVE('',#609,#610,#279,.T.);
#750=EDGE_CURVE('',#610,#611,#280,.T.);
#751=EDGE_CURVE('',#611,#606,#281,.T.);
#752=EDGE_CURVE('',#612,#613,#282,.T.);
#753=EDGE_CURVE('',#613,#614,#283,.T.);
#754=EDGE_CURVE('',#614,#615,#284,.T.);
#755=EDGE_CURVE('',#615,#616,#285,.T.);
#756=EDGE_CURVE('',#616,#617,#286,.T.);
#757=EDGE_CURVE('',#617,#612,#287,.T.);
#758=EDGE_CURVE('',#618,#619,#288,.T.);
#759=EDGE_CURVE('',#620,#618,#289,.T.);
#760=EDGE_CURVE('',#620,#621,#290,.T.);
#761=EDGE_CURVE('',#621,#619,#291,.T.);
#762=EDGE_CURVE('',#619,#622,#292,.T.);
#763=EDGE_CURVE('',#621,#623,#293,.T.);
#764=EDGE_CURVE('',#623,#622,#294,.T.);
#765=EDGE_CURVE('',#622,#624,#295,.T.);
#766=EDGE_CURVE('',#623,#625,#296,.T.);
#767=EDGE_CURVE('',#625,#624,#297,.T.);
#768=EDGE_CURVE('',#624,#588,#298,.T.);
#769=EDGE_CURVE('',#625,#626,#299,.T.);
#770=EDGE_CURVE('',#626,#579,#300,.T.);
#771=EDGE_CURVE('',#626,#627,#301,.T.);
#772=EDGE_CURVE('',#627,#628,#302,.T.);
#773=EDGE_CURVE('',#580,#628,#303,.T.);
#774=EDGE_CURVE('',#628,#618,#304,.T.);
#775=EDGE_CURVE('',#627,#620,#305,.T.);
#776=EDGE_CURVE('',#629,#629,#27,.T.);
#777=EDGE_CURVE('',#630,#602,#306,.T.);
#778=EDGE_CURVE('',#630,#631,#307,.T.);
#779=EDGE_CURVE('',#631,#603,#308,.T.);
#780=EDGE_CURVE('',#631,#632,#309,.T.);
#781=EDGE_CURVE('',#632,#604,#310,.T.);
#782=EDGE_CURVE('',#632,#633,#311,.T.);
#783=EDGE_CURVE('',#633,#599,#312,.T.);
#784=EDGE_CURVE('',#633,#634,#313,.T.);
#785=EDGE_CURVE('',#634,#600,#314,.T.);
#786=EDGE_CURVE('',#634,#635,#315,.T.);
#787=EDGE_CURVE('',#635,#601,#316,.T.);
#788=EDGE_CURVE('',#635,#630,#317,.T.);
#789=EDGE_CURVE('',#636,#636,#28,.T.);
#790=EDGE_CURVE('',#637,#615,#318,.T.);
#791=EDGE_CURVE('',#637,#638,#319,.T.);
#792=EDGE_CURVE('',#638,#616,#320,.T.);
#793=EDGE_CURVE('',#638,#639,#321,.T.);
#794=EDGE_CURVE('',#639,#617,#322,.T.);
#795=EDGE_CURVE('',#639,#640,#323,.T.);
#796=EDGE_CURVE('',#640,#612,#324,.T.);
#797=EDGE_CURVE('',#640,#641,#325,.T.);
#798=EDGE_CURVE('',#641,#613,#326,.T.);
#799=EDGE_CURVE('',#641,#642,#327,.T.);
#800=EDGE_CURVE('',#642,#614,#328,.T.);
#801=EDGE_CURVE('',#642,#637,#329,.T.);
#802=EDGE_CURVE('',#643,#643,#29,.T.);
#803=EDGE_CURVE('',#644,#645,#330,.T.);
#804=EDGE_CURVE('',#646,#644,#331,.T.);
#805=EDGE_CURVE('',#646,#647,#332,.T.);
#806=EDGE_CURVE('',#647,#645,#333,.T.);
#807=EDGE_CURVE('',#645,#648,#334,.T.);
#808=EDGE_CURVE('',#647,#649,#335,.T.);
#809=EDGE_CURVE('',#649,#648,#336,.T.);
#810=EDGE_CURVE('',#648,#589,#337,.T.);
#811=EDGE_CURVE('',#649,#590,#338,.T.);
#812=EDGE_CURVE('',#591,#650,#339,.T.);
#813=EDGE_CURVE('',#650,#651,#340,.T.);
#814=EDGE_CURVE('',#587,#651,#341,.T.);
#815=EDGE_CURVE('',#651,#644,#342,.T.);
#816=EDGE_CURVE('',#650,#646,#343,.T.);
#817=EDGE_CURVE('',#652,#652,#30,.T.);
#818=EDGE_CURVE('',#653,#596,#344,.T.);
#819=EDGE_CURVE('',#653,#654,#345,.T.);
#820=EDGE_CURVE('',#654,#597,#346,.T.);
#821=EDGE_CURVE('',#654,#655,#347,.T.);
#822=EDGE_CURVE('',#655,#598,#348,.T.);
#823=EDGE_CURVE('',#655,#656,#349,.T.);
#824=EDGE_CURVE('',#656,#593,#350,.T.);
#825=EDGE_CURVE('',#656,#657,#351,.T.);
#826=EDGE_CURVE('',#657,#594,#352,.T.);
#827=EDGE_CURVE('',#657,#658,#353,.T.);
#828=EDGE_CURVE('',#658,#595,#354,.T.);
#829=EDGE_CURVE('',#658,#653,#355,.T.);
#830=EDGE_CURVE('',#659,#659,#31,.T.);
#831=EDGE_CURVE('',#660,#609,#356,.T.);
#832=EDGE_CURVE('',#660,#661,#357,.T.);
#833=EDGE_CURVE('',#661,#610,#358,.T.);
#834=EDGE_CURVE('',#661,#662,#359,.T.);
#835=EDGE_CURVE('',#662,#611,#360,.T.);
#836=EDGE_CURVE('',#662,#663,#361,.T.);
#837=EDGE_CURVE('',#663,#606,#362,.T.);
#838=EDGE_CURVE('',#663,#664,#363,.T.);
#839=EDGE_CURVE('',#664,#607,#364,.T.);
#840=EDGE_CURVE('',#664,#665,#365,.T.);
#841=EDGE_CURVE('',#665,#608,#366,.T.);
#842=EDGE_CURVE('',#665,#660,#367,.T.);
#843=EDGE_CURVE('',#666,#666,#32,.T.);
#844=EDGE_CURVE('',#666,#574,#368,.T.);
#845=EDGE_CURVE('',#643,#573,#369,.T.);
#846=EDGE_CURVE('',#659,#578,#370,.T.);
#847=EDGE_CURVE('',#636,#577,#371,.T.);
#848=EDGE_CURVE('',#652,#576,#372,.T.);
#849=EDGE_CURVE('',#629,#575,#373,.T.);
#850=ORIENTED_EDGE('',*,*,#667,.T.);
#851=ORIENTED_EDGE('',*,*,#668,.T.);
#852=ORIENTED_EDGE('',*,*,#669,.T.);
#853=ORIENTED_EDGE('',*,*,#670,.T.);
#854=ORIENTED_EDGE('',*,*,#668,.F.);
#855=ORIENTED_EDGE('',*,*,#671,.F.);
#856=ORIENTED_EDGE('',*,*,#672,.F.);
#857=ORIENTED_EDGE('',*,*,#673,.F.);
#858=ORIENTED_EDGE('',*,*,#674,.T.);
#859=ORIENTED_EDGE('',*,*,#675,.T.);
#860=ORIENTED_EDGE('',*,*,#676,.T.);
#861=ORIENTED_EDGE('',*,*,#672,.T.);
#862=ORIENTED_EDGE('',*,*,#677,.F.);
#863=ORIENTED_EDGE('',*,*,#678,.F.);
#864=ORIENTED_EDGE('',*,*,#679,.F.);
#865=ORIENTED_EDGE('',*,*,#680,.F.);
#866=ORIENTED_EDGE('',*,*,#681,.T.);
#867=ORIENTED_EDGE('',*,*,#682,.F.);
#868=ORIENTED_EDGE('',*,*,#683,.F.);
#869=ORIENTED_EDGE('',*,*,#675,.F.);
#870=ORIENTED_EDGE('',*,*,#684,.T.);
#871=ORIENTED_EDGE('',*,*,#685,.T.);
#872=ORIENTED_EDGE('',*,*,#686,.F.);
#873=ORIENTED_EDGE('',*,*,#685,.F.);
#874=ORIENTED_EDGE('',*,*,#687,.F.);
#875=ORIENTED_EDGE('',*,*,#688,.F.);
#876=ORIENTED_EDGE('',*,*,#670,.F.);
#877=ORIENTED_EDGE('',*,*,#689,.F.);
#878=ORIENTED_EDGE('',*,*,#690,.T.);
#879=ORIENTED_EDGE('',*,*,#691,.F.);
#880=ORIENTED_EDGE('',*,*,#692,.F.);
#881=ORIENTED_EDGE('',*,*,#693,.F.);
#882=ORIENTED_EDGE('',*,*,#694,.F.);
#883=ORIENTED_EDGE('',*,*,#695,.T.);
#884=ORIENTED_EDGE('',*,*,#696,.F.);
#885=ORIENTED_EDGE('',*,*,#695,.F.);
#886=ORIENTED_EDGE('',*,*,#697,.F.);
#887=ORIENTED_EDGE('',*,*,#690,.F.);
#888=ORIENTED_EDGE('',*,*,#688,.T.);
#889=ORIENTED_EDGE('',*,*,#698,.F.);
#890=ORIENTED_EDGE('',*,*,#699,.T.);
#891=ORIENTED_EDGE('',*,*,#700,.T.);
#892=ORIENTED_EDGE('',*,*,#686,.T.);
#893=ORIENTED_EDGE('',*,*,#700,.F.);
#894=ORIENTED_EDGE('',*,*,#701,.T.);
#895=ORIENTED_EDGE('',*,*,#692,.T.);
#896=ORIENTED_EDGE('',*,*,#696,.T.);
#897=ORIENTED_EDGE('',*,*,#689,.T.);
#898=ORIENTED_EDGE('',*,*,#669,.F.);
#899=ORIENTED_EDGE('',*,*,#673,.T.);
#900=ORIENTED_EDGE('',*,*,#676,.F.);
#901=ORIENTED_EDGE('',*,*,#683,.T.);
#902=ORIENTED_EDGE('',*,*,#687,.T.);
#903=ORIENTED_EDGE('',*,*,#684,.F.);
#904=ORIENTED_EDGE('',*,*,#674,.F.);
#905=ORIENTED_EDGE('',*,*,#671,.T.);
#906=ORIENTED_EDGE('',*,*,#667,.F.);
#907=ORIENTED_EDGE('',*,*,#691,.T.);
#908=ORIENTED_EDGE('',*,*,#697,.T.);
#909=ORIENTED_EDGE('',*,*,#694,.T.);
#910=ORIENTED_EDGE('',*,*,#702,.T.);
#911=ORIENTED_EDGE('',*,*,#698,.T.);
#912=ORIENTED_EDGE('',*,*,#680,.T.);
#913=ORIENTED_EDGE('',*,*,#703,.T.);
#914=ORIENTED_EDGE('',*,*,#704,.T.);
#915=ORIENTED_EDGE('',*,*,#705,.T.);
#916=ORIENTED_EDGE('',*,*,#706,.T.);
#917=ORIENTED_EDGE('',*,*,#707,.T.);
#918=ORIENTED_EDGE('',*,*,#708,.T.);
#919=ORIENTED_EDGE('',*,*,#709,.T.);
#920=ORIENTED_EDGE('',*,*,#710,.T.);
#921=ORIENTED_EDGE('',*,*,#711,.T.);
#922=ORIENTED_EDGE('',*,*,#712,.T.);
#923=ORIENTED_EDGE('',*,*,#713,.T.);
#924=ORIENTED_EDGE('',*,*,#714,.T.);
#925=ORIENTED_EDGE('',*,*,#715,.T.);
#926=ORIENTED_EDGE('',*,*,#716,.T.);
#927=ORIENTED_EDGE('',*,*,#717,.T.);
#928=ORIENTED_EDGE('',*,*,#718,.T.);
#929=ORIENTED_EDGE('',*,*,#719,.T.);
#930=ORIENTED_EDGE('',*,*,#720,.T.);
#931=ORIENTED_EDGE('',*,*,#721,.T.);
#932=ORIENTED_EDGE('',*,*,#718,.F.);
#933=ORIENTED_EDGE('',*,*,#722,.F.);
#934=ORIENTED_EDGE('',*,*,#723,.F.);
#935=ORIENTED_EDGE('',*,*,#724,.T.);
#936=ORIENTED_EDGE('',*,*,#725,.T.);
#937=ORIENTED_EDGE('',*,*,#716,.F.);
#938=ORIENTED_EDGE('',*,*,#726,.T.);
#939=ORIENTED_EDGE('',*,*,#727,.T.);
#940=ORIENTED_EDGE('',*,*,#678,.T.);
#941=ORIENTED_EDGE('',*,*,#728,.T.);
#942=ORIENTED_EDGE('',*,*,#729,.T.);
#943=ORIENTED_EDGE('',*,*,#730,.T.);
#944=ORIENTED_EDGE('',*,*,#731,.T.);
#945=ORIENTED_EDGE('',*,*,#732,.T.);
#946=ORIENTED_EDGE('',*,*,#733,.T.);
#947=ORIENTED_EDGE('',*,*,#734,.T.);
#948=ORIENTED_EDGE('',*,*,#735,.T.);
#949=ORIENTED_EDGE('',*,*,#736,.T.);
#950=ORIENTED_EDGE('',*,*,#737,.T.);
#951=ORIENTED_EDGE('',*,*,#738,.T.);
#952=ORIENTED_EDGE('',*,*,#739,.T.);
#953=ORIENTED_EDGE('',*,*,#740,.T.);
#954=ORIENTED_EDGE('',*,*,#715,.F.);
#955=ORIENTED_EDGE('',*,*,#741,.F.);
#956=ORIENTED_EDGE('',*,*,#742,.F.);
#957=ORIENTED_EDGE('',*,*,#704,.F.);
#958=ORIENTED_EDGE('',*,*,#743,.T.);
#959=ORIENTED_EDGE('',*,*,#726,.F.);
#960=ORIENTED_EDGE('',*,*,#714,.F.);
#961=ORIENTED_EDGE('',*,*,#744,.T.);
#962=ORIENTED_EDGE('',*,*,#682,.T.);
#963=ORIENTED_EDGE('',*,*,#745,.T.);
#964=ORIENTED_EDGE('',*,*,#741,.T.);
#965=ORIENTED_EDGE('',*,*,#746,.T.);
#966=ORIENTED_EDGE('',*,*,#747,.T.);
#967=ORIENTED_EDGE('',*,*,#748,.T.);
#968=ORIENTED_EDGE('',*,*,#749,.T.);
#969=ORIENTED_EDGE('',*,*,#750,.T.);
#970=ORIENTED_EDGE('',*,*,#751,.T.);
#971=ORIENTED_EDGE('',*,*,#752,.T.);
#972=ORIENTED_EDGE('',*,*,#753,.T.);
#973=ORIENTED_EDGE('',*,*,#754,.T.);
#974=ORIENTED_EDGE('',*,*,#755,.T.);
#975=ORIENTED_EDGE('',*,*,#756,.T.);
#976=ORIENTED_EDGE('',*,*,#757,.T.);
#977=ORIENTED_EDGE('',*,*,#758,.F.);
#978=ORIENTED_EDGE('',*,*,#759,.F.);
#979=ORIENTED_EDGE('',*,*,#760,.T.);
#980=ORIENTED_EDGE('',*,*,#761,.T.);
#981=ORIENTED_EDGE('',*,*,#762,.F.);
#982=ORIENTED_EDGE('',*,*,#761,.F.);
#983=ORIENTED_EDGE('',*,*,#763,.T.);
#984=ORIENTED_EDGE('',*,*,#764,.T.);
#985=ORIENTED_EDGE('',*,*,#765,.F.);
#986=ORIENTED_EDGE('',*,*,#764,.F.);
#987=ORIENTED_EDGE('',*,*,#766,.T.);
#988=ORIENTED_EDGE('',*,*,#767,.T.);
#989=ORIENTED_EDGE('',*,*,#721,.F.);
#990=ORIENTED_EDGE('',*,*,#768,.F.);
#991=ORIENTED_EDGE('',*,*,#767,.F.);
#992=ORIENTED_EDGE('',*,*,#769,.T.);
#993=ORIENTED_EDGE('',*,*,#770,.T.);
#994=ORIENTED_EDGE('',*,*,#712,.F.);
#995=ORIENTED_EDGE('',*,*,#770,.F.);
#996=ORIENTED_EDGE('',*,*,#771,.T.);
#997=ORIENTED_EDGE('',*,*,#772,.T.);
#998=ORIENTED_EDGE('',*,*,#773,.F.);
#999=ORIENTED_EDGE('',*,*,#774,.F.);
#1000=ORIENTED_EDGE('',*,*,#772,.F.);
#1001=ORIENTED_EDGE('',*,*,#775,.T.);
#1002=ORIENTED_EDGE('',*,*,#759,.T.);
#1003=ORIENTED_EDGE('',*,*,#775,.F.);
#1004=ORIENTED_EDGE('',*,*,#771,.F.);
#1005=ORIENTED_EDGE('',*,*,#769,.F.);
#1006=ORIENTED_EDGE('',*,*,#766,.F.);
#1007=ORIENTED_EDGE('',*,*,#763,.F.);
#1008=ORIENTED_EDGE('',*,*,#760,.F.);
#1009=ORIENTED_EDGE('',*,*,#776,.F.);
#1010=ORIENTED_EDGE('',*,*,#738,.F.);
#1011=ORIENTED_EDGE('',*,*,#777,.F.);
#1012=ORIENTED_EDGE('',*,*,#778,.T.);
#1013=ORIENTED_EDGE('',*,*,#779,.T.);
#1014=ORIENTED_EDGE('',*,*,#739,.F.);
#1015=ORIENTED_EDGE('',*,*,#779,.F.);
#1016=ORIENTED_EDGE('',*,*,#780,.T.);
#1017=ORIENTED_EDGE('',*,*,#781,.T.);
#1018=ORIENTED_EDGE('',*,*,#740,.F.);
#1019=ORIENTED_EDGE('',*,*,#781,.F.);
#1020=ORIENTED_EDGE('',*,*,#782,.T.);
#1021=ORIENTED_EDGE('',*,*,#783,.T.);
#1022=ORIENTED_EDGE('',*,*,#735,.F.);
#1023=ORIENTED_EDGE('',*,*,#783,.F.);
#1024=ORIENTED_EDGE('',*,*,#784,.T.);
#1025=ORIENTED_EDGE('',*,*,#785,.T.);
#1026=ORIENTED_EDGE('',*,*,#736,.F.);
#1027=ORIENTED_EDGE('',*,*,#785,.F.);
#1028=ORIENTED_EDGE('',*,*,#786,.T.);
#1029=ORIENTED_EDGE('',*,*,#787,.T.);
#1030=ORIENTED_EDGE('',*,*,#737,.F.);
#1031=ORIENTED_EDGE('',*,*,#787,.F.);
#1032=ORIENTED_EDGE('',*,*,#788,.T.);
#1033=ORIENTED_EDGE('',*,*,#777,.T.);
#1034=ORIENTED_EDGE('',*,*,#782,.F.);
#1035=ORIENTED_EDGE('',*,*,#780,.F.);
#1036=ORIENTED_EDGE('',*,*,#778,.F.);
#1037=ORIENTED_EDGE('',*,*,#788,.F.);
#1038=ORIENTED_EDGE('',*,*,#786,.F.);
#1039=ORIENTED_EDGE('',*,*,#784,.F.);
#1040=ORIENTED_EDGE('',*,*,#789,.F.);
#1041=ORIENTED_EDGE('',*,*,#755,.F.);
#1042=ORIENTED_EDGE('',*,*,#790,.F.);
#1043=ORIENTED_EDGE('',*,*,#791,.T.);
#1044=ORIENTED_EDGE('',*,*,#792,.T.);
#1045=ORIENTED_EDGE('',*,*,#756,.F.);
#1046=ORIENTED_EDGE('',*,*,#792,.F.);
#1047=ORIENTED_EDGE('',*,*,#793,.T.);
#1048=ORIENTED_EDGE('',*,*,#794,.T.);
#1049=ORIENTED_EDGE('',*,*,#757,.F.);
#1050=ORIENTED_EDGE('',*,*,#794,.F.);
#1051=ORIENTED_EDGE('',*,*,#795,.T.);
#1052=ORIENTED_EDGE('',*,*,#796,.T.);
#1053=ORIENTED_EDGE('',*,*,#752,.F.);
#1054=ORIENTED_EDGE('',*,*,#796,.F.);
#1055=ORIENTED_EDGE('',*,*,#797,.T.);
#1056=ORIENTED_EDGE('',*,*,#798,.T.);
#1057=ORIENTED_EDGE('',*,*,#753,.F.);
#1058=ORIENTED_EDGE('',*,*,#798,.F.);
#1059=ORIENTED_EDGE('',*,*,#799,.T.);
#1060=ORIENTED_EDGE('',*,*,#800,.T.);
#1061=ORIENTED_EDGE('',*,*,#754,.F.);
#1062=ORIENTED_EDGE('',*,*,#800,.F.);
#1063=ORIENTED_EDGE('',*,*,#801,.T.);
#1064=ORIENTED_EDGE('',*,*,#790,.T.);
#1065=ORIENTED_EDGE('',*,*,#795,.F.);
#1066=ORIENTED_EDGE('',*,*,#793,.F.);
#1067=ORIENTED_EDGE('',*,*,#791,.F.);
#1068=ORIENTED_EDGE('',*,*,#801,.F.);
#1069=ORIENTED_EDGE('',*,*,#799,.F.);
#1070=ORIENTED_EDGE('',*,*,#797,.F.);
#1071=ORIENTED_EDGE('',*,*,#802,.F.);
#1072=ORIENTED_EDGE('',*,*,#803,.F.);
#1073=ORIENTED_EDGE('',*,*,#804,.F.);
#1074=ORIENTED_EDGE('',*,*,#805,.T.);
#1075=ORIENTED_EDGE('',*,*,#806,.T.);
#1076=ORIENTED_EDGE('',*,*,#807,.F.);
#1077=ORIENTED_EDGE('',*,*,#806,.F.);
#1078=ORIENTED_EDGE('',*,*,#808,.T.);
#1079=ORIENTED_EDGE('',*,*,#809,.T.);
#1080=ORIENTED_EDGE('',*,*,#810,.F.);
#1081=ORIENTED_EDGE('',*,*,#809,.F.);
#1082=ORIENTED_EDGE('',*,*,#811,.T.);
#1083=ORIENTED_EDGE('',*,*,#723,.T.);
#1084=ORIENTED_EDGE('',*,*,#719,.F.);
#1085=ORIENTED_EDGE('',*,*,#725,.F.);
#1086=ORIENTED_EDGE('',*,*,#812,.T.);
#1087=ORIENTED_EDGE('',*,*,#813,.T.);
#1088=ORIENTED_EDGE('',*,*,#814,.F.);
#1089=ORIENTED_EDGE('',*,*,#815,.F.);
#1090=ORIENTED_EDGE('',*,*,#813,.F.);
#1091=ORIENTED_EDGE('',*,*,#816,.T.);
#1092=ORIENTED_EDGE('',*,*,#804,.T.);
#1093=ORIENTED_EDGE('',*,*,#816,.F.);
#1094=ORIENTED_EDGE('',*,*,#812,.F.);
#1095=ORIENTED_EDGE('',*,*,#724,.F.);
#1096=ORIENTED_EDGE('',*,*,#811,.F.);
#1097=ORIENTED_EDGE('',*,*,#808,.F.);
#1098=ORIENTED_EDGE('',*,*,#805,.F.);
#1099=ORIENTED_EDGE('',*,*,#817,.F.);
#1100=ORIENTED_EDGE('',*,*,#732,.F.);
#1101=ORIENTED_EDGE('',*,*,#818,.F.);
#1102=ORIENTED_EDGE('',*,*,#819,.T.);
#1103=ORIENTED_EDGE('',*,*,#820,.T.);
#1104=ORIENTED_EDGE('',*,*,#733,.F.);
#1105=ORIENTED_EDGE('',*,*,#820,.F.);
#1106=ORIENTED_EDGE('',*,*,#821,.T.);
#1107=ORIENTED_EDGE('',*,*,#822,.T.);
#1108=ORIENTED_EDGE('',*,*,#734,.F.);
#1109=ORIENTED_EDGE('',*,*,#822,.F.);
#1110=ORIENTED_EDGE('',*,*,#823,.T.);
#1111=ORIENTED_EDGE('',*,*,#824,.T.);
#1112=ORIENTED_EDGE('',*,*,#729,.F.);
#1113=ORIENTED_EDGE('',*,*,#824,.F.);
#1114=ORIENTED_EDGE('',*,*,#825,.T.);
#1115=ORIENTED_EDGE('',*,*,#826,.T.);
#1116=ORIENTED_EDGE('',*,*,#730,.F.);
#1117=ORIENTED_EDGE('',*,*,#826,.F.);
#1118=ORIENTED_EDGE('',*,*,#827,.T.);
#1119=ORIENTED_EDGE('',*,*,#828,.T.);
#1120=ORIENTED_EDGE('',*,*,#731,.F.);
#1121=ORIENTED_EDGE('',*,*,#828,.F.);
#1122=ORIENTED_EDGE('',*,*,#829,.T.);
#1123=ORIENTED_EDGE('',*,*,#818,.T.);
#1124=ORIENTED_EDGE('',*,*,#823,.F.);
#1125=ORIENTED_EDGE('',*,*,#821,.F.);
#1126=ORIENTED_EDGE('',*,*,#819,.F.);
#1127=ORIENTED_EDGE('',*,*,#829,.F.);
#1128=ORIENTED_EDGE('',*,*,#827,.F.);
#1129=ORIENTED_EDGE('',*,*,#825,.F.);
#1130=ORIENTED_EDGE('',*,*,#830,.F.);
#1131=ORIENTED_EDGE('',*,*,#749,.F.);
#1132=ORIENTED_EDGE('',*,*,#831,.F.);
#1133=ORIENTED_EDGE('',*,*,#832,.T.);
#1134=ORIENTED_EDGE('',*,*,#833,.T.);
#1135=ORIENTED_EDGE('',*,*,#750,.F.);
#1136=ORIENTED_EDGE('',*,*,#833,.F.);
#1137=ORIENTED_EDGE('',*,*,#834,.T.);
#1138=ORIENTED_EDGE('',*,*,#835,.T.);
#1139=ORIENTED_EDGE('',*,*,#751,.F.);
#1140=ORIENTED_EDGE('',*,*,#835,.F.);
#1141=ORIENTED_EDGE('',*,*,#836,.T.);
#1142=ORIENTED_EDGE('',*,*,#837,.T.);
#1143=ORIENTED_EDGE('',*,*,#746,.F.);
#1144=ORIENTED_EDGE('',*,*,#837,.F.);
#1145=ORIENTED_EDGE('',*,*,#838,.T.);
#1146=ORIENTED_EDGE('',*,*,#839,.T.);
#1147=ORIENTED_EDGE('',*,*,#747,.F.);
#1148=ORIENTED_EDGE('',*,*,#839,.F.);
#1149=ORIENTED_EDGE('',*,*,#840,.T.);
#1150=ORIENTED_EDGE('',*,*,#841,.T.);
#1151=ORIENTED_EDGE('',*,*,#748,.F.);
#1152=ORIENTED_EDGE('',*,*,#841,.F.);
#1153=ORIENTED_EDGE('',*,*,#842,.T.);
#1154=ORIENTED_EDGE('',*,*,#831,.T.);
#1155=ORIENTED_EDGE('',*,*,#836,.F.);
#1156=ORIENTED_EDGE('',*,*,#834,.F.);
#1157=ORIENTED_EDGE('',*,*,#832,.F.);
#1158=ORIENTED_EDGE('',*,*,#842,.F.);
#1159=ORIENTED_EDGE('',*,*,#840,.F.);
#1160=ORIENTED_EDGE('',*,*,#838,.F.);
#1161=ORIENTED_EDGE('',*,*,#843,.F.);
#1162=ORIENTED_EDGE('',*,*,#677,.T.);
#1163=ORIENTED_EDGE('',*,*,#744,.F.);
#1164=ORIENTED_EDGE('',*,*,#713,.F.);
#1165=ORIENTED_EDGE('',*,*,#773,.T.);
#1166=ORIENTED_EDGE('',*,*,#774,.T.);
#1167=ORIENTED_EDGE('',*,*,#758,.T.);
#1168=ORIENTED_EDGE('',*,*,#762,.T.);
#1169=ORIENTED_EDGE('',*,*,#765,.T.);
#1170=ORIENTED_EDGE('',*,*,#768,.T.);
#1171=ORIENTED_EDGE('',*,*,#720,.F.);
#1172=ORIENTED_EDGE('',*,*,#814,.T.);
#1173=ORIENTED_EDGE('',*,*,#815,.T.);
#1174=ORIENTED_EDGE('',*,*,#803,.T.);
#1175=ORIENTED_EDGE('',*,*,#807,.T.);
#1176=ORIENTED_EDGE('',*,*,#810,.T.);
#1177=ORIENTED_EDGE('',*,*,#722,.T.);
#1178=ORIENTED_EDGE('',*,*,#717,.F.);
#1179=ORIENTED_EDGE('',*,*,#728,.F.);
#1180=ORIENTED_EDGE('',*,*,#843,.T.);
#1181=ORIENTED_EDGE('',*,*,#844,.T.);
#1182=ORIENTED_EDGE('',*,*,#707,.F.);
#1183=ORIENTED_EDGE('',*,*,#844,.F.);
#1184=ORIENTED_EDGE('',*,*,#802,.T.);
#1185=ORIENTED_EDGE('',*,*,#845,.T.);
#1186=ORIENTED_EDGE('',*,*,#706,.F.);
#1187=ORIENTED_EDGE('',*,*,#845,.F.);
#1188=ORIENTED_EDGE('',*,*,#727,.F.);
#1189=ORIENTED_EDGE('',*,*,#743,.F.);
#1190=ORIENTED_EDGE('',*,*,#703,.F.);
#1191=ORIENTED_EDGE('',*,*,#679,.T.);
#1192=ORIENTED_EDGE('',*,*,#830,.T.);
#1193=ORIENTED_EDGE('',*,*,#846,.T.);
#1194=ORIENTED_EDGE('',*,*,#711,.F.);
#1195=ORIENTED_EDGE('',*,*,#846,.F.);
#1196=ORIENTED_EDGE('',*,*,#789,.T.);
#1197=ORIENTED_EDGE('',*,*,#847,.T.);
#1198=ORIENTED_EDGE('',*,*,#710,.F.);
#1199=ORIENTED_EDGE('',*,*,#847,.F.);
#1200=ORIENTED_EDGE('',*,*,#817,.T.);
#1201=ORIENTED_EDGE('',*,*,#848,.T.);
#1202=ORIENTED_EDGE('',*,*,#709,.F.);
#1203=ORIENTED_EDGE('',*,*,#848,.F.);
#1204=ORIENTED_EDGE('',*,*,#776,.T.);
#1205=ORIENTED_EDGE('',*,*,#849,.T.);
#1206=ORIENTED_EDGE('',*,*,#708,.F.);
#1207=ORIENTED_EDGE('',*,*,#849,.F.);
#1208=ORIENTED_EDGE('',*,*,#745,.F.);
#1209=ORIENTED_EDGE('',*,*,#681,.F.);
#1210=ORIENTED_EDGE('',*,*,#705,.F.);
#1211=ORIENTED_EDGE('',*,*,#742,.T.);
#1212=ORIENTED_EDGE('',*,*,#693,.T.);
#1213=ORIENTED_EDGE('',*,*,#701,.F.);
#1214=ORIENTED_EDGE('',*,*,#699,.F.);
#1215=ORIENTED_EDGE('',*,*,#702,.F.);
#1216=PLANE('',#1360);
#1217=PLANE('',#1361);
#1218=PLANE('',#1362);
#1219=PLANE('',#1363);
#1220=PLANE('',#1364);
#1221=PLANE('',#1365);
#1222=PLANE('',#1366);
#1223=PLANE('',#1367);
#1224=PLANE('',#1368);
#1225=PLANE('',#1369);
#1226=PLANE('',#1370);
#1227=PLANE('',#1371);
#1228=PLANE('',#1378);
#1229=PLANE('',#1379);
#1230=PLANE('',#1380);
#1231=PLANE('',#1381);
#1232=PLANE('',#1382);
#1233=PLANE('',#1383);
#1234=PLANE('',#1384);
#1235=PLANE('',#1385);
#1236=PLANE('',#1386);
#1237=PLANE('',#1387);
#1238=PLANE('',#1388);
#1239=PLANE('',#1389);
#1240=PLANE('',#1391);
#1241=PLANE('',#1392);
#1242=PLANE('',#1393);
#1243=PLANE('',#1394);
#1244=PLANE('',#1395);
#1245=PLANE('',#1396);
#1246=PLANE('',#1397);
#1247=PLANE('',#1399);
#1248=PLANE('',#1400);
#1249=PLANE('',#1401);
#1250=PLANE('',#1402);
#1251=PLANE('',#1403);
#1252=PLANE('',#1404);
#1253=PLANE('',#1405);
#1254=PLANE('',#1407);
#1255=PLANE('',#1408);
#1256=PLANE('',#1409);
#1257=PLANE('',#1410);
#1258=PLANE('',#1411);
#1259=PLANE('',#1412);
#1260=PLANE('',#1414);
#1261=PLANE('',#1415);
#1262=PLANE('',#1416);
#1263=PLANE('',#1417);
#1264=PLANE('',#1418);
#1265=PLANE('',#1419);
#1266=PLANE('',#1420);
#1267=PLANE('',#1422);
#1268=PLANE('',#1423);
#1269=PLANE('',#1424);
#1270=PLANE('',#1425);
#1271=PLANE('',#1426);
#1272=PLANE('',#1427);
#1273=PLANE('',#1428);
#1274=PLANE('',#1430);
#1275=PLANE('',#1433);
#1276=PLANE('',#1438);
#1277=PLANE('',#1439);
#1278=ADVANCED_FACE('',(#50),#1216,.T.);
#1279=ADVANCED_FACE('',(#51),#1217,.F.);
#1280=ADVANCED_FACE('',(#52),#1218,.T.);
#1281=ADVANCED_FACE('',(#53,#33),#1219,.T.);
#1282=ADVANCED_FACE('',(#54),#1220,.F.);
#1283=ADVANCED_FACE('',(#55),#1221,.F.);
#1284=ADVANCED_FACE('',(#56),#1222,.F.);
#1285=ADVANCED_FACE('',(#57),#1223,.F.);
#1286=ADVANCED_FACE('',(#58),#1224,.T.);
#1287=ADVANCED_FACE('',(#59),#1225,.T.);
#1288=ADVANCED_FACE('',(#60),#1226,.T.);
#1289=ADVANCED_FACE('',(#61,#34,#35,#36,#37,#38,#39),#1227,.T.);
#1290=ADVANCED_FACE('',(#62),#1228,.T.);
#1291=ADVANCED_FACE('',(#63),#1229,.F.);
#1292=ADVANCED_FACE('',(#64,#40,#41),#1230,.T.);
#1293=ADVANCED_FACE('',(#65),#1231,.T.);
#1294=ADVANCED_FACE('',(#66,#42,#43),#1232,.T.);
#1295=ADVANCED_FACE('',(#67),#1233,.F.);
#1296=ADVANCED_FACE('',(#68),#1234,.F.);
#1297=ADVANCED_FACE('',(#69),#1235,.F.);
#1298=ADVANCED_FACE('',(#70),#1236,.F.);
#1299=ADVANCED_FACE('',(#71),#1237,.F.);
#1300=ADVANCED_FACE('',(#72),#1238,.F.);
#1301=ADVANCED_FACE('',(#73,#44),#1239,.F.);
#1302=ADVANCED_FACE('',(#74),#1240,.F.);
#1303=ADVANCED_FACE('',(#75),#1241,.F.);
#1304=ADVANCED_FACE('',(#76),#1242,.F.);
#1305=ADVANCED_FACE('',(#77),#1243,.F.);
#1306=ADVANCED_FACE('',(#78),#1244,.F.);
#1307=ADVANCED_FACE('',(#79),#1245,.F.);
#1308=ADVANCED_FACE('',(#80,#45),#1246,.F.);
#1309=ADVANCED_FACE('',(#81),#1247,.F.);
#1310=ADVANCED_FACE('',(#82),#1248,.F.);
#1311=ADVANCED_FACE('',(#83),#1249,.F.);
#1312=ADVANCED_FACE('',(#84),#1250,.F.);
#1313=ADVANCED_FACE('',(#85),#1251,.F.);
#1314=ADVANCED_FACE('',(#86),#1252,.F.);
#1315=ADVANCED_FACE('',(#87,#46),#1253,.F.);
#1316=ADVANCED_FACE('',(#88),#1254,.F.);
#1317=ADVANCED_FACE('',(#89),#1255,.F.);
#1318=ADVANCED_FACE('',(#90),#1256,.F.);
#1319=ADVANCED_FACE('',(#91),#1257,.F.);
#1320=ADVANCED_FACE('',(#92),#1258,.F.);
#1321=ADVANCED_FACE('',(#93,#47),#1259,.F.);
#1322=ADVANCED_FACE('',(#94),#1260,.F.);
#1323=ADVANCED_FACE('',(#95),#1261,.F.);
#1324=ADVANCED_FACE('',(#96),#1262,.F.);
#1325=ADVANCED_FACE('',(#97),#1263,.F.);
#1326=ADVANCED_FACE('',(#98),#1264,.F.);
#1327=ADVANCED_FACE('',(#99),#1265,.F.);
#1328=ADVANCED_FACE('',(#100,#48),#1266,.F.);
#1329=ADVANCED_FACE('',(#101),#1267,.F.);
#1330=ADVANCED_FACE('',(#102),#1268,.F.);
#1331=ADVANCED_FACE('',(#103),#1269,.F.);
#1332=ADVANCED_FACE('',(#104),#1270,.F.);
#1333=ADVANCED_FACE('',(#105),#1271,.F.);
#1334=ADVANCED_FACE('',(#106),#1272,.F.);
#1335=ADVANCED_FACE('',(#107,#49),#1273,.F.);
#1336=ADVANCED_FACE('',(#108),#1274,.F.);
#1337=ADVANCED_FACE('',(#109),#15,.F.);
#1338=ADVANCED_FACE('',(#110),#16,.F.);
#1339=ADVANCED_FACE('',(#111),#1275,.T.);
#1340=ADVANCED_FACE('',(#112),#17,.F.);
#1341=ADVANCED_FACE('',(#113),#18,.F.);
#1342=ADVANCED_FACE('',(#114),#19,.F.);
#1343=ADVANCED_FACE('',(#115),#20,.F.);
#1344=ADVANCED_FACE('',(#116),#1276,.T.);
#1345=ADVANCED_FACE('',(#117),#1277,.T.);
#1346=CLOSED_SHELL('',(#1278,#1279,#1280,#1281,#1282,#1283,#1284,#1285,
#1286,#1287,#1288,#1289,#1290,#1291,#1292,#1293,#1294,#1295,#1296,#1297,
#1298,#1299,#1300,#1301,#1302,#1303,#1304,#1305,#1306,#1307,#1308,#1309,
#1310,#1311,#1312,#1313,#1314,#1315,#1316,#1317,#1318,#1319,#1320,#1321,
#1322,#1323,#1324,#1325,#1326,#1327,#1328,#1329,#1330,#1331,#1332,#1333,
#1334,#1335,#1336,#1337,#1338,#1339,#1340,#1341,#1342,#1343,#1344,#1345));
#1347=DERIVED_UNIT_ELEMENT(#1349,1.);
#1348=DERIVED_UNIT_ELEMENT(#2152,-3.);
#1349=(
MASS_UNIT()
NAMED_UNIT(*)
SI_UNIT(.KILO.,.GRAM.)
);
#1350=DERIVED_UNIT((#1347,#1348));
#1351=MEASURE_REPRESENTATION_ITEM('density measure',
POSITIVE_RATIO_MEASURE(7850.),#1350);
#1352=PROPERTY_DEFINITION_REPRESENTATION(#1357,#1354);
#1353=PROPERTY_DEFINITION_REPRESENTATION(#1358,#1355);
#1354=REPRESENTATION('material name',(#1356),#2149);
#1355=REPRESENTATION('density',(#1351),#2149);
#1356=DESCRIPTIVE_REPRESENTATION_ITEM('Steel','Steel');
#1357=PROPERTY_DEFINITION('material property','material name',#2159);
#1358=PROPERTY_DEFINITION('material property','density of part',#2159);
#1359=AXIS2_PLACEMENT_3D('',#1773,#1440,#1441);
#1360=AXIS2_PLACEMENT_3D('',#1774,#1442,#1443);
#1361=AXIS2_PLACEMENT_3D('',#1783,#1448,#1449);
#1362=AXIS2_PLACEMENT_3D('',#1789,#1453,#1454);
#1363=AXIS2_PLACEMENT_3D('',#1795,#1458,#1459);
#1364=AXIS2_PLACEMENT_3D('',#1813,#1469,#1470);
#1365=AXIS2_PLACEMENT_3D('',#1819,#1474,#1475);
#1366=AXIS2_PLACEMENT_3D('',#1825,#1479,#1480);
#1367=AXIS2_PLACEMENT_3D('',#1834,#1485,#1486);
#1368=AXIS2_PLACEMENT_3D('',#1837,#1489,#1490);
#1369=AXIS2_PLACEMENT_3D('',#1843,#1494,#1495);
#1370=AXIS2_PLACEMENT_3D('',#1845,#1497,#1498);
#1371=AXIS2_PLACEMENT_3D('',#1847,#1500,#1501);
#1372=AXIS2_PLACEMENT_3D('',#1854,#1505,#1506);
#1373=AXIS2_PLACEMENT_3D('',#1856,#1507,#1508);
#1374=AXIS2_PLACEMENT_3D('',#1858,#1509,#1510);
#1375=AXIS2_PLACEMENT_3D('',#1860,#1511,#1512);
#1376=AXIS2_PLACEMENT_3D('',#1862,#1513,#1514);
#1377=AXIS2_PLACEMENT_3D('',#1864,#1515,#1516);
#1378=AXIS2_PLACEMENT_3D('',#1865,#1517,#1518);
#1379=AXIS2_PLACEMENT_3D('',#1886,#1529,#1530);
#1380=AXIS2_PLACEMENT_3D('',#1894,#1535,#1536);
#1381=AXIS2_PLACEMENT_3D('',#1923,#1552,#1553);
#1382=AXIS2_PLACEMENT_3D('',#1928,#1557,#1558);
#1383=AXIS2_PLACEMENT_3D('',#1955,#1573,#1574);
#1384=AXIS2_PLACEMENT_3D('',#1964,#1579,#1580);
#1385=AXIS2_PLACEMENT_3D('',#1970,#1584,#1585);
#1386=AXIS2_PLACEMENT_3D('',#1976,#1589,#1590);
#1387=AXIS2_PLACEMENT_3D('',#1981,#1594,#1595);
#1388=AXIS2_PLACEMENT_3D('',#1987,#1599,#1600);
#1389=AXIS2_PLACEMENT_3D('',#1990,#1603,#1604);
#1390=AXIS2_PLACEMENT_3D('',#1992,#1605,#1606);
#1391=AXIS2_PLACEMENT_3D('',#1993,#1607,#1608);
#1392=AXIS2_PLACEMENT_3D('',#1999,#1612,#1613);
#1393=AXIS2_PLACEMENT_3D('',#2003,#1616,#1617);
#1394=AXIS2_PLACEMENT_3D('',#2007,#1620,#1621);
#1395=AXIS2_PLACEMENT_3D('',#2011,#1624,#1625);
#1396=AXIS2_PLACEMENT_3D('',#2015,#1628,#1629);
#1397=AXIS2_PLACEMENT_3D('',#2017,#1631,#1632);
#1398=AXIS2_PLACEMENT_3D('',#2019,#1633,#1634);
#1399=AXIS2_PLACEMENT_3D('',#2020,#1635,#1636);
#1400=AXIS2_PLACEMENT_3D('',#2026,#1640,#1641);
#1401=AXIS2_PLACEMENT_3D('',#2030,#1644,#1645);
#1402=AXIS2_PLACEMENT_3D('',#2034,#1648,#1649);
#1403=AXIS2_PLACEMENT_3D('',#2038,#1652,#1653);
#1404=AXIS2_PLACEMENT_3D('',#2042,#1656,#1657);
#1405=AXIS2_PLACEMENT_3D('',#2044,#1659,#1660);
#1406=AXIS2_PLACEMENT_3D('',#2046,#1661,#1662);
#1407=AXIS2_PLACEMENT_3D('',#2047,#1663,#1664);
#1408=AXIS2_PLACEMENT_3D('',#2056,#1669,#1670);
#1409=AXIS2_PLACEMENT_3D('',#2062,#1674,#1675);
#1410=AXIS2_PLACEMENT_3D('',#2065,#1678,#1679);
#1411=AXIS2_PLACEMENT_3D('',#2071,#1683,#1684);
#1412=AXIS2_PLACEMENT_3D('',#2074,#1687,#1688);
#1413=AXIS2_PLACEMENT_3D('',#2076,#1689,#1690);
#1414=AXIS2_PLACEMENT_3D('',#2077,#1691,#1692);
#1415=AXIS2_PLACEMENT_3D('',#2083,#1696,#1697);
#1416=AXIS2_PLACEMENT_3D('',#2087,#1700,#1701);
#1417=AXIS2_PLACEMENT_3D('',#2091,#1704,#1705);
#1418=AXIS2_PLACEMENT_3D('',#2095,#1708,#1709);
#1419=AXIS2_PLACEMENT_3D('',#2099,#1712,#1713);
#1420=AXIS2_PLACEMENT_3D('',#2101,#1715,#1716);
#1421=AXIS2_PLACEMENT_3D('',#2103,#1717,#1718);
#1422=AXIS2_PLACEMENT_3D('',#2104,#1719,#1720);
#1423=AXIS2_PLACEMENT_3D('',#2110,#1724,#1725);
#1424=AXIS2_PLACEMENT_3D('',#2114,#1728,#1729);
#1425=AXIS2_PLACEMENT_3D('',#2118,#1732,#1733);
#1426=AXIS2_PLACEMENT_3D('',#2122,#1736,#1737);
#1427=AXIS2_PLACEMENT_3D('',#2126,#1740,#1741);
#1428=AXIS2_PLACEMENT_3D('',#2128,#1743,#1744);
#1429=AXIS2_PLACEMENT_3D('',#2130,#1745,#1746);
#1430=AXIS2_PLACEMENT_3D('',#2131,#1747,#1748);
#1431=AXIS2_PLACEMENT_3D('',#2132,#1749,#1750);
#1432=AXIS2_PLACEMENT_3D('',#2134,#1752,#1753);
#1433=AXIS2_PLACEMENT_3D('',#2136,#1755,#1756);
#1434=AXIS2_PLACEMENT_3D('',#2137,#1757,#1758);
#1435=AXIS2_PLACEMENT_3D('',#2139,#1760,#1761);
#1436=AXIS2_PLACEMENT_3D('',#2141,#1763,#1764);
#1437=AXIS2_PLACEMENT_3D('',#2143,#1766,#1767);
#1438=AXIS2_PLACEMENT_3D('',#2145,#1769,#1770);
#1439=AXIS2_PLACEMENT_3D('',#2146,#1771,#1772);
#1440=DIRECTION('axis',(0.,0.,1.));
#1441=DIRECTION('refdir',(1.,0.,0.));
#1442=DIRECTION('center_axis',(0.,-0.707106781186547,0.707106781186548));
#1443=DIRECTION('ref_axis',(1.,0.,0.));
#1444=DIRECTION('',(0.,-0.707106781186548,-0.707106781186547));
#1445=DIRECTION('',(1.,0.,0.));
#1446=DIRECTION('',(0.,0.707106781186548,0.707106781186547));
#1447=DIRECTION('',(-1.,0.,0.));
#1448=DIRECTION('center_axis',(0.,0.,-1.));
#1449=DIRECTION('ref_axis',(0.,-1.,0.));
#1450=DIRECTION('',(0.,1.,0.));
#1451=DIRECTION('',(-1.,0.,0.));
#1452=DIRECTION('',(0.,-1.,0.));
#1453=DIRECTION('center_axis',(0.,0.707106807528327,0.707106754844767));
#1454=DIRECTION('ref_axis',(1.,0.,0.));
#1455=DIRECTION('',(0.,-0.707106754844767,0.707106807528327));
#1456=DIRECTION('',(1.,0.,0.));
#1457=DIRECTION('',(0.,0.707106754844767,-0.707106807528327));
#1458=DIRECTION('center_axis',(0.,1.,0.));
#1459=DIRECTION('ref_axis',(1.,0.,0.));
#1460=DIRECTION('',(1.,0.,0.));
#1461=DIRECTION('',(0.928476690885259,0.,-0.371390676354104));
#1462=DIRECTION('',(0.,0.,-1.));
#1463=DIRECTION('',(-1.,0.,0.));
#1464=DIRECTION('',(0.,0.,-1.));
#1465=DIRECTION('',(0.928476690885259,0.,0.371390676354104));
#1466=DIRECTION('',(0.,0.,-1.));
#1467=DIRECTION('',(0.,0.,-1.));
#1468=DIRECTION('',(1.,0.,0.));
#1469=DIRECTION('center_axis',(0.,0.,1.));
#1470=DIRECTION('ref_axis',(0.,1.,0.));
#1471=DIRECTION('',(0.,1.,0.));
#1472=DIRECTION('',(0.,-1.,0.));
#1473=DIRECTION('',(-1.,0.,0.));
#1474=DIRECTION('center_axis',(0.,1.,0.));
#1475=DIRECTION('ref_axis',(0.,0.,-1.));
#1476=DIRECTION('',(0.,0.,-1.));
#1477=DIRECTION('',(-1.,0.,0.));
#1478=DIRECTION('',(0.,0.,1.));
#1479=DIRECTION('center_axis',(0.,1.,1.75307767072678E-9));
#1480=DIRECTION('ref_axis',(0.,1.75307767072678E-9,-1.));
#1481=DIRECTION('',(0.,1.75307767072678E-9,-1.));
#1482=DIRECTION('',(1.,0.,0.));
#1483=DIRECTION('',(0.,-1.75307767072678E-9,1.));
#1484=DIRECTION('',(1.,0.,0.));
#1485=DIRECTION('center_axis',(0.,-1.75307775024795E-9,1.));
#1486=DIRECTION('ref_axis',(0.,1.,1.75307775024795E-9));
#1487=DIRECTION('',(0.,1.,1.75307775024795E-9));
#1488=DIRECTION('',(0.,-1.,-1.75307775024795E-9));
#1489=DIRECTION('center_axis',(0.,1.,0.));
#1490=DIRECTION('ref_axis',(1.,0.,0.));
#1491=DIRECTION('',(0.,0.,-1.));
#1492=DIRECTION('',(1.,0.,0.));
#1493=DIRECTION('',(0.,0.,-1.));
#1494=DIRECTION('center_axis',(1.,0.,0.));
#1495=DIRECTION('ref_axis',(0.,-1.,0.));
#1496=DIRECTION('',(0.,-1.,0.));
#1497=DIRECTION('center_axis',(-1.,0.,0.));
#1498=DIRECTION('ref_axis',(0.,1.,0.));
#1499=DIRECTION('',(0.,1.,0.));
#1500=DIRECTION('center_axis',(0.,0.,1.));
#1501=DIRECTION('ref_axis',(1.,0.,0.));
#1502=DIRECTION('',(0.,-1.,0.));
#1503=DIRECTION('',(1.,0.,0.));
#1504=DIRECTION('',(0.,1.,0.));
#1505=DIRECTION('center_axis',(0.,0.,-1.));
#1506=DIRECTION('ref_axis',(1.,0.,0.));
#1507=DIRECTION('center_axis',(0.,0.,-1.));
#1508=DIRECTION('ref_axis',(1.,0.,0.));
#1509=DIRECTION('center_axis',(0.,0.,-1.));
#1510=DIRECTION('ref_axis',(1.,0.,0.));
#1511=DIRECTION('center_axis',(0.,0.,-1.));
#1512=DIRECTION('ref_axis',(1.,0.,0.));
#1513=DIRECTION('center_axis',(0.,0.,-1.));
#1514=DIRECTION('ref_axis',(1.,0.,0.));
#1515=DIRECTION('center_axis',(0.,0.,-1.));
#1516=DIRECTION('ref_axis',(1.,0.,0.));
#1517=DIRECTION('center_axis',(0.,-0.707106781186548,-0.707106781186547));
#1518=DIRECTION('ref_axis',(-1.,0.,0.));
#1519=DIRECTION('',(0.803234716152348,0.421197098023987,-0.421197098023987));
#1520=DIRECTION('',(1.,0.,0.));
#1521=DIRECTION('',(0.870388279778489,-0.348155311911395,0.348155311911396));
#1522=DIRECTION('',(-1.,0.,0.));
#1523=DIRECTION('',(0.870388279778489,0.348155311911395,-0.348155311911396));
#1524=DIRECTION('',(1.,0.,0.));
#1525=DIRECTION('',(0.803234716152349,-0.421197098023986,0.421197098023986));
#1526=DIRECTION('',(0.803234716152348,0.421197098023987,-0.421197098023987));
#1527=DIRECTION('',(1.,0.,0.));
#1528=DIRECTION('',(0.803234716152349,-0.421197098023986,0.421197098023986));
#1529=DIRECTION('center_axis',(-0.498097349045871,-0.862729915662822,0.0871557427476586));
#1530=DIRECTION('ref_axis',(-0.86602540378444,0.499999999999998,0.));
#1531=DIRECTION('',(0.86602540378444,-0.499999999999998,0.));
#1532=DIRECTION('',(-0.0870456108832082,-0.0502558068751973,-0.994935885120892));
#1533=DIRECTION('',(0.86602540378444,-0.499999999999998,0.));
#1534=DIRECTION('',(-2.57049188369726E-16,-0.100511613750393,-0.994935885120891));
#1535=DIRECTION('center_axis',(-0.371390676354104,0.,-0.928476690885259));
#1536=DIRECTION('ref_axis',(-0.928476690885259,0.,0.371390676354104));
#1537=DIRECTION('',(-0.928476690885259,0.,0.371390676354104));
#1538=DIRECTION('',(0.,1.,0.));
#1539=DIRECTION('',(0.,-1.,0.));
#1540=DIRECTION('',(-0.830940432319538,0.446165975402067,0.332376172927815));
#1541=DIRECTION('',(-0.805397663177239,-0.497542099537743,0.322159065270896));
#1542=DIRECTION('',(0.,-1.,0.));
#1543=DIRECTION('',(0.80539766317724,-0.497542099537741,-0.322159065270896));
#1544=DIRECTION('',(0.830940432319539,0.446165975402066,-0.332376172927815));
#1545=DIRECTION('',(0.,1.,0.));
#1546=DIRECTION('',(0.830940432319539,0.446165975402066,-0.332376172927815));
#1547=DIRECTION('',(0.,1.,0.));
#1548=DIRECTION('',(-0.830940432319538,0.446165975402067,0.332376172927815));
#1549=DIRECTION('',(-0.805397663177239,-0.497542099537743,0.322159065270896));
#1550=DIRECTION('',(0.,-1.,0.));
#1551=DIRECTION('',(0.80539766317724,-0.497542099537741,-0.322159065270896));
#1552=DIRECTION('center_axis',(0.,-1.,0.));
#1553=DIRECTION('ref_axis',(-1.,0.,0.));
#1554=DIRECTION('',(-0.928476690885259,0.,-0.371390676354104));
#1555=DIRECTION('',(0.,0.,-1.));
#1556=DIRECTION('',(0.,0.,-1.));
#1557=DIRECTION('center_axis',(0.371390676354104,0.,-0.928476690885259));
#1558=DIRECTION('ref_axis',(-0.928476690885259,0.,-0.371390676354104));
#1559=DIRECTION('',(0.,1.,0.));
#1560=DIRECTION('',(0.,-1.,0.));
#1561=DIRECTION('',(-0.805397663177239,0.497542099537743,-0.322159065270896));
#1562=DIRECTION('',(-0.830940432319538,-0.446165975402067,-0.332376172927815));
#1563=DIRECTION('',(0.,-1.,0.));
#1564=DIRECTION('',(0.830940432319539,-0.446165975402065,0.332376172927816));
#1565=DIRECTION('',(0.805397663177239,0.497542099537742,0.322159065270896));
#1566=DIRECTION('',(0.,1.,0.));
#1567=DIRECTION('',(-0.805397663177239,0.497542099537743,-0.322159065270896));
#1568=DIRECTION('',(-0.830940432319538,-0.446165975402067,-0.332376172927815));
#1569=DIRECTION('',(0.,-1.,0.));
#1570=DIRECTION('',(0.830940432319539,-0.446165975402065,0.332376172927816));
#1571=DIRECTION('',(0.805397663177239,0.497542099537742,0.322159065270896));
#1572=DIRECTION('',(0.,1.,0.));
#1573=DIRECTION('center_axis',(0.498097349045873,0.862729915662821,0.0871557427476587));
#1574=DIRECTION('ref_axis',(0.866025403784439,-0.5,0.));
#1575=DIRECTION('',(-0.866025403784439,0.5,0.));
#1576=DIRECTION('',(0.0870456108832082,0.0502558068751973,-0.994935885120892));
#1577=DIRECTION('',(-0.866025403784439,0.5,0.));
#1578=DIRECTION('',(3.21311485462157E-17,0.100511613750393,-0.994935885120891));
#1579=DIRECTION('center_axis',(-0.498097349045873,0.862729915662821,0.0871557427476587));
#1580=DIRECTION('ref_axis',(0.866025403784439,0.5,0.));
#1581=DIRECTION('',(-0.866025403784439,-0.5,0.));
#1582=DIRECTION('',(-0.866025403784439,-0.5,0.));
#1583=DIRECTION('',(-0.0870456108832082,0.0502558068751973,-0.994935885120892));
#1584=DIRECTION('center_axis',(-0.996194698091746,0.,0.0871557427476573));
#1585=DIRECTION('ref_axis',(0.,1.,0.));
#1586=DIRECTION('',(0.,-1.,0.));
#1587=DIRECTION('',(0.,-1.,0.));
#1588=DIRECTION('',(-0.0870456108832082,-0.0502558068751973,-0.994935885120892));
#1589=DIRECTION('center_axis',(-0.498097349045871,-0.862729915662822,0.0871557427476586));
#1590=DIRECTION('ref_axis',(-0.86602540378444,0.499999999999998,0.));
#1591=DIRECTION('',(0.86602540378444,-0.499999999999998,0.));
#1592=DIRECTION('',(0.86602540378444,-0.499999999999998,0.));
#1593=DIRECTION('',(-2.57049188369726E-16,-0.100511613750393,-0.994935885120891));
#1594=DIRECTION('center_axis',(0.498097349045872,-0.862729915662821,0.0871557427476583));
#1595=DIRECTION('ref_axis',(-0.866025403784439,-0.499999999999999,0.));
#1596=DIRECTION('',(0.866025403784439,0.499999999999999,0.));
#1597=DIRECTION('',(0.0870456108832082,-0.0502558068751969,-0.994935885120892));
#1598=DIRECTION('',(0.866025403784439,0.499999999999999,0.));
#1599=DIRECTION('center_axis',(0.996194698091746,0.,0.0871557427476573));
#1600=DIRECTION('ref_axis',(0.,-1.,0.));
#1601=DIRECTION('',(0.,1.,0.));
#1602=DIRECTION('',(0.,1.,0.));
#1603=DIRECTION('center_axis',(0.,0.,1.));
#1604=DIRECTION('ref_axis',(1.,0.,0.));
#1605=DIRECTION('center_axis',(0.,0.,-1.));
#1606=DIRECTION('ref_axis',(1.,0.,0.));
#1607=DIRECTION('center_axis',(-0.498097349045873,0.862729915662821,0.0871557427476587));
#1608=DIRECTION('ref_axis',(0.866025403784439,0.5,0.));
#1609=DIRECTION('',(3.21311485462157E-17,0.100511613750393,-0.994935885120891));
#1610=DIRECTION('',(-0.866025403784439,-0.5,0.));
#1611=DIRECTION('',(-0.0870456108832082,0.0502558068751973,-0.994935885120892));
#1612=DIRECTION('center_axis',(-0.996194698091746,0.,0.0871557427476573));
#1613=DIRECTION('ref_axis',(0.,1.,0.));
#1614=DIRECTION('',(0.,-1.,0.));
#1615=DIRECTION('',(-0.0870456108832082,-0.0502558068751973,-0.994935885120892));
#1616=DIRECTION('center_axis',(-0.498097349045871,-0.862729915662822,0.0871557427476586));
#1617=DIRECTION('ref_axis',(-0.86602540378444,0.499999999999998,0.));
#1618=DIRECTION('',(0.86602540378444,-0.499999999999998,0.));
#1619=DIRECTION('',(-2.57049188369726E-16,-0.100511613750393,-0.994935885120891));
#1620=DIRECTION('center_axis',(0.498097349045872,-0.862729915662821,0.0871557427476583));
#1621=DIRECTION('ref_axis',(-0.866025403784439,-0.499999999999999,0.));
#1622=DIRECTION('',(0.866025403784439,0.499999999999999,0.));
#1623=DIRECTION('',(0.0870456108832082,-0.0502558068751969,-0.994935885120892));
#1624=DIRECTION('center_axis',(0.996194698091746,0.,0.0871557427476573));
#1625=DIRECTION('ref_axis',(0.,-1.,0.));
#1626=DIRECTION('',(0.,1.,0.));
#1627=DIRECTION('',(0.0870456108832082,0.0502558068751973,-0.994935885120892));
#1628=DIRECTION('center_axis',(0.498097349045873,0.862729915662821,0.0871557427476587));
#1629=DIRECTION('ref_axis',(0.866025403784439,-0.5,0.));
#1630=DIRECTION('',(-0.866025403784439,0.5,0.));
#1631=DIRECTION('center_axis',(0.,0.,1.));
#1632=DIRECTION('ref_axis',(1.,0.,0.));
#1633=DIRECTION('center_axis',(0.,0.,-1.));
#1634=DIRECTION('ref_axis',(1.,0.,0.));
#1635=DIRECTION('center_axis',(-0.498097349045871,-0.862729915662822,0.0871557427476586));
#1636=DIRECTION('ref_axis',(-0.86602540378444,0.499999999999998,0.));
#1637=DIRECTION('',(-0.0870456108832082,-0.0502558068751973,-0.994935885120892));
#1638=DIRECTION('',(0.86602540378444,-0.499999999999998,0.));
#1639=DIRECTION('',(-2.57049188369726E-16,-0.100511613750393,-0.994935885120891));
#1640=DIRECTION('center_axis',(0.498097349045872,-0.862729915662821,0.0871557427476583));
#1641=DIRECTION('ref_axis',(-0.866025403784439,-0.499999999999999,0.));
#1642=DIRECTION('',(0.866025403784439,0.499999999999999,0.));
#1643=DIRECTION('',(0.0870456108832082,-0.0502558068751969,-0.994935885120892));
#1644=DIRECTION('center_axis',(0.996194698091746,0.,0.0871557427476573));
#1645=DIRECTION('ref_axis',(0.,-1.,0.));
#1646=DIRECTION('',(0.,1.,0.));
#1647=DIRECTION('',(0.0870456108832082,0.0502558068751973,-0.994935885120892));
#1648=DIRECTION('center_axis',(0.498097349045873,0.862729915662821,0.0871557427476587));
#1649=DIRECTION('ref_axis',(0.866025403784439,-0.5,0.));
#1650=DIRECTION('',(-0.866025403784439,0.5,0.));
#1651=DIRECTION('',(3.21311485462157E-17,0.100511613750393,-0.994935885120891));
#1652=DIRECTION('center_axis',(-0.498097349045873,0.862729915662821,0.0871557427476587));
#1653=DIRECTION('ref_axis',(0.866025403784439,0.5,0.));
#1654=DIRECTION('',(-0.866025403784439,-0.5,0.));
#1655=DIRECTION('',(-0.0870456108832082,0.0502558068751973,-0.994935885120892));
#1656=DIRECTION('center_axis',(-0.996194698091746,0.,0.0871557427476573));
#1657=DIRECTION('ref_axis',(0.,1.,0.));
#1658=DIRECTION('',(0.,-1.,0.));
#1659=DIRECTION('center_axis',(0.,0.,1.));
#1660=DIRECTION('ref_axis',(1.,0.,0.));
#1661=DIRECTION('center_axis',(0.,0.,-1.));
#1662=DIRECTION('ref_axis',(1.,0.,0.));
#1663=DIRECTION('center_axis',(0.498097349045873,0.862729915662821,0.0871557427476587));
#1664=DIRECTION('ref_axis',(0.866025403784439,-0.5,0.));
#1665=DIRECTION('',(-0.866025403784439,0.5,0.));
#1666=DIRECTION('',(0.0870456108832082,0.0502558068751973,-0.994935885120892));
#1667=DIRECTION('',(-0.866025403784439,0.5,0.));
#1668=DIRECTION('',(3.21311485462157E-17,0.100511613750393,-0.994935885120891));
#1669=DIRECTION('center_axis',(-0.498097349045873,0.862729915662821,0.0871557427476587));
#1670=DIRECTION('ref_axis',(0.866025403784439,0.5,0.));
#1671=DIRECTION('',(-0.866025403784439,-0.5,0.));
#1672=DIRECTION('',(-0.866025403784439,-0.5,0.));
#1673=DIRECTION('',(-0.0870456108832082,0.0502558068751973,-0.994935885120892));
#1674=DIRECTION('center_axis',(-0.996194698091746,0.,0.0871557427476573));
#1675=DIRECTION('ref_axis',(0.,1.,0.));
#1676=DIRECTION('',(0.,-1.,0.));
#1677=DIRECTION('',(0.,-1.,0.));
#1678=DIRECTION('center_axis',(0.498097349045872,-0.862729915662821,0.0871557427476583));
#1679=DIRECTION('ref_axis',(-0.866025403784439,-0.499999999999999,0.));
#1680=DIRECTION('',(0.866025403784439,0.499999999999999,0.));
#1681=DIRECTION('',(0.0870456108832082,-0.0502558068751969,-0.994935885120892));
#1682=DIRECTION('',(0.866025403784439,0.499999999999999,0.));
#1683=DIRECTION('center_axis',(0.996194698091746,0.,0.0871557427476573));
#1684=DIRECTION('ref_axis',(0.,-1.,0.));
#1685=DIRECTION('',(0.,1.,0.));
#1686=DIRECTION('',(0.,1.,0.));
#1687=DIRECTION('center_axis',(0.,0.,1.));
#1688=DIRECTION('ref_axis',(1.,0.,0.));
#1689=DIRECTION('center_axis',(0.,0.,-1.));
#1690=DIRECTION('ref_axis',(1.,0.,0.));
#1691=DIRECTION('center_axis',(-0.498097349045871,-0.862729915662822,0.0871557427476586));
#1692=DIRECTION('ref_axis',(-0.86602540378444,0.499999999999998,0.));
#1693=DIRECTION('',(-0.0870456108832082,-0.0502558068751973,-0.994935885120892));
#1694=DIRECTION('',(0.86602540378444,-0.499999999999998,0.));
#1695=DIRECTION('',(-2.57049188369726E-16,-0.100511613750393,-0.994935885120891));
#1696=DIRECTION('center_axis',(0.498097349045872,-0.862729915662821,0.0871557427476583));
#1697=DIRECTION('ref_axis',(-0.866025403784439,-0.499999999999999,0.));
#1698=DIRECTION('',(0.866025403784439,0.499999999999999,0.));
#1699=DIRECTION('',(0.0870456108832082,-0.0502558068751969,-0.994935885120892));
#1700=DIRECTION('center_axis',(0.996194698091746,0.,0.0871557427476573));
#1701=DIRECTION('ref_axis',(0.,-1.,0.));
#1702=DIRECTION('',(0.,1.,0.));
#1703=DIRECTION('',(0.0870456108832082,0.0502558068751973,-0.994935885120892));
#1704=DIRECTION('center_axis',(0.498097349045873,0.862729915662821,0.0871557427476587));
#1705=DIRECTION('ref_axis',(0.866025403784439,-0.5,0.));
#1706=DIRECTION('',(-0.866025403784439,0.5,0.));
#1707=DIRECTION('',(3.21311485462157E-17,0.100511613750393,-0.994935885120891));
#1708=DIRECTION('center_axis',(-0.498097349045873,0.862729915662821,0.0871557427476587));
#1709=DIRECTION('ref_axis',(0.866025403784439,0.5,0.));
#1710=DIRECTION('',(-0.866025403784439,-0.5,0.));
#1711=DIRECTION('',(-0.0870456108832082,0.0502558068751973,-0.994935885120892));
#1712=DIRECTION('center_axis',(-0.996194698091746,0.,0.0871557427476573));
#1713=DIRECTION('ref_axis',(0.,1.,0.));
#1714=DIRECTION('',(0.,-1.,0.));
#1715=DIRECTION('center_axis',(0.,0.,1.));
#1716=DIRECTION('ref_axis',(1.,0.,0.));
#1717=DIRECTION('center_axis',(0.,0.,-1.));
#1718=DIRECTION('ref_axis',(1.,0.,0.));
#1719=DIRECTION('center_axis',(-0.498097349045871,-0.862729915662822,0.0871557427476586));
#1720=DIRECTION('ref_axis',(-0.86602540378444,0.499999999999998,0.));
#1721=DIRECTION('',(-0.0870456108832082,-0.0502558068751973,-0.994935885120892));
#1722=DIRECTION('',(0.86602540378444,-0.499999999999998,0.));
#1723=DIRECTION('',(-2.57049188369726E-16,-0.100511613750393,-0.994935885120891));
#1724=DIRECTION('center_axis',(0.498097349045872,-0.862729915662821,0.0871557427476583));
#1725=DIRECTION('ref_axis',(-0.866025403784439,-0.499999999999999,0.));
#1726=DIRECTION('',(0.866025403784439,0.499999999999999,0.));
#1727=DIRECTION('',(0.0870456108832082,-0.0502558068751969,-0.994935885120892));
#1728=DIRECTION('center_axis',(0.996194698091746,0.,0.0871557427476573));
#1729=DIRECTION('ref_axis',(0.,-1.,0.));
#1730=DIRECTION('',(0.,1.,0.));
#1731=DIRECTION('',(0.0870456108832082,0.0502558068751973,-0.994935885120892));
#1732=DIRECTION('center_axis',(0.498097349045873,0.862729915662821,0.0871557427476587));
#1733=DIRECTION('ref_axis',(0.866025403784439,-0.5,0.));
#1734=DIRECTION('',(-0.866025403784439,0.5,0.));
#1735=DIRECTION('',(3.21311485462157E-17,0.100511613750393,-0.994935885120891));
#1736=DIRECTION('center_axis',(-0.498097349045873,0.862729915662821,0.0871557427476587));
#1737=DIRECTION('ref_axis',(0.866025403784439,0.5,0.));
#1738=DIRECTION('',(-0.866025403784439,-0.5,0.));
#1739=DIRECTION('',(-0.0870456108832082,0.0502558068751973,-0.994935885120892));
#1740=DIRECTION('center_axis',(-0.996194698091746,0.,0.0871557427476573));
#1741=DIRECTION('ref_axis',(0.,1.,0.));
#1742=DIRECTION('',(0.,-1.,0.));
#1743=DIRECTION('center_axis',(0.,0.,1.));
#1744=DIRECTION('ref_axis',(1.,0.,0.));
#1745=DIRECTION('center_axis',(0.,0.,-1.));
#1746=DIRECTION('ref_axis',(1.,0.,0.));
#1747=DIRECTION('center_axis',(0.,0.,1.));
#1748=DIRECTION('ref_axis',(1.,0.,0.));
#1749=DIRECTION('center_axis',(0.,0.,-1.));
#1750=DIRECTION('ref_axis',(1.,0.,0.));
#1751=DIRECTION('',(0.,0.,1.));
#1752=DIRECTION('center_axis',(0.,0.,-1.));
#1753=DIRECTION('ref_axis',(1.,0.,0.));
#1754=DIRECTION('',(0.,0.,1.));
#1755=DIRECTION('center_axis',(-1.,0.,0.));
#1756=DIRECTION('ref_axis',(0.,1.,0.));
#1757=DIRECTION('center_axis',(0.,0.,-1.));
#1758=DIRECTION('ref_axis',(1.,0.,0.));
#1759=DIRECTION('',(0.,0.,1.));
#1760=DIRECTION('center_axis',(0.,0.,-1.));
#1761=DIRECTION('ref_axis',(1.,0.,0.));
#1762=DIRECTION('',(0.,0.,1.));
#1763=DIRECTION('center_axis',(0.,0.,-1.));
#1764=DIRECTION('ref_axis',(1.,0.,0.));
#1765=DIRECTION('',(0.,0.,1.));
#1766=DIRECTION('center_axis',(0.,0.,-1.));
#1767=DIRECTION('ref_axis',(1.,0.,0.));
#1768=DIRECTION('',(0.,0.,1.));
#1769=DIRECTION('center_axis',(1.,0.,0.));
#1770=DIRECTION('ref_axis',(0.,-1.,0.));
#1771=DIRECTION('center_axis',(0.,0.,1.));
#1772=DIRECTION('ref_axis',(1.,0.,0.));
#1773=CARTESIAN_POINT('',(0.,0.,0.));
#1774=CARTESIAN_POINT('Origin',(-128.000001937151,-22.5000002980232,-6.99999982118607));
#1775=CARTESIAN_POINT('',(-132.000001937151,-21.5000002980232,-5.99999982118607));
#1776=CARTESIAN_POINT('',(-132.000001937151,-23.5000002980232,-7.99999982118607));
#1777=CARTESIAN_POINT('',(-132.000001937151,-22.6250003791485,-7.12499990231136));
#1778=CARTESIAN_POINT('',(-128.000001937151,-23.5000002980232,-7.99999982118607));
#1779=CARTESIAN_POINT('',(-128.000001937151,-23.5000002980232,-7.99999982118607));
#1780=CARTESIAN_POINT('',(-128.000001937151,-21.5000002980232,-5.99999982118607));
#1781=CARTESIAN_POINT('',(-128.000001937151,-20.1250003427267,-4.62499986588955));
#1782=CARTESIAN_POINT('',(-128.000001937151,-21.5000002980232,-5.99999982118607));
#1783=CARTESIAN_POINT('Origin',(-128.000001937151,-21.5000002980232,-7.99999982118607));
#1784=CARTESIAN_POINT('',(-132.000001937151,-28.0000004470348,-7.99999982118607));
#1785=CARTESIAN_POINT('',(-132.000001937151,-25.7500003708668,-7.99999982118607));
#1786=CARTESIAN_POINT('',(-128.000001937151,-28.0000004470348,-7.99999982118607));
#1787=CARTESIAN_POINT('',(-128.000001937151,-28.0000004470348,-7.99999982118607));
#1788=CARTESIAN_POINT('',(-128.000001937151,-20.7500002980232,-7.99999982118607));
#1789=CARTESIAN_POINT('Origin',(-128.000001937151,-29.000000372529,-6.99999982118607));
#1790=CARTESIAN_POINT('',(-132.000001937151,-30.0000002980232,-5.99999982118607));
#1791=CARTESIAN_POINT('',(-132.000001937151,-31.0000003269944,-4.99999971770904));
#1792=CARTESIAN_POINT('',(-128.000001937151,-30.0000002980232,-5.99999982118607));
#1793=CARTESIAN_POINT('',(-128.000001937151,-30.0000002980232,-5.99999982118607));
#1794=CARTESIAN_POINT('',(-128.000001937151,-28.5000004768372,-7.49999975413084));
#1795=CARTESIAN_POINT('Origin',(-128.000001937151,-30.0000002980232,0.));
#1796=CARTESIAN_POINT('',(-140.000002384186,-30.0000002980232,-10.));
#1797=CARTESIAN_POINT('',(-120.000001490116,-30.0000002980232,-10.));
#1798=CARTESIAN_POINT('',(-100.000001490116,-30.0000002980232,-10.));
#1799=CARTESIAN_POINT('',(-160.000002384186,-30.0000002980232,-2.));
#1800=CARTESIAN_POINT('',(-155.344829970393,-30.0000002980232,-3.86206896551724));
#1801=CARTESIAN_POINT('',(-160.000002384186,-30.0000002980232,0.));
#1802=CARTESIAN_POINT('',(-160.000002384186,-30.0000002980232,0.));
#1803=CARTESIAN_POINT('',(-100.000001490116,-30.0000002980232,0.));
#1804=CARTESIAN_POINT('',(-100.000001490116,-30.0000002980232,0.));
#1805=CARTESIAN_POINT('',(-100.000001490116,-30.0000002980232,-2.));
#1806=CARTESIAN_POINT('',(-100.000001490116,-30.0000002980232,0.));
#1807=CARTESIAN_POINT('',(-116.724139613838,-30.0000002980232,-8.68965524948876));
#1808=CARTESIAN_POINT('',(-128.000001937151,-30.0000004437104,-9.49999982118607));
#1809=CARTESIAN_POINT('',(-128.000001937151,-30.0000004437104,0.));
#1810=CARTESIAN_POINT('',(-132.000001937151,-30.0000004437104,-9.49999982118607));
#1811=CARTESIAN_POINT('',(-132.000001937151,-30.0000004437104,0.));
#1812=CARTESIAN_POINT('',(-128.000001937151,-30.0000004470348,-9.49999982118607));
#1813=CARTESIAN_POINT('Origin',(-128.000001937151,-30.0000004470348,-9.49999982118607));
#1814=CARTESIAN_POINT('',(-128.000001937151,-20.0000002980232,-9.49999982118607));
#1815=CARTESIAN_POINT('',(-128.000001937151,-25.000000372529,-9.49999982118607));
#1816=CARTESIAN_POINT('',(-132.000001937151,-20.0000002980232,-9.49999982118607));
#1817=CARTESIAN_POINT('',(-132.000001937151,-30.0000004453726,-9.49999982118607));
#1818=CARTESIAN_POINT('',(-130.000001937151,-20.0000002980232,-9.49999982118607));
#1819=CARTESIAN_POINT('Origin',(-128.000001937151,-21.5000002980232,-1.));
#1820=CARTESIAN_POINT('',(-128.000001937151,-21.5000002980232,-1.));
#1821=CARTESIAN_POINT('',(-128.000001937151,-21.5000002980232,-0.5));
#1822=CARTESIAN_POINT('',(-132.000001937151,-21.5000002980232,-1.));
#1823=CARTESIAN_POINT('',(-128.000001937151,-21.5000002980232,-1.));
#1824=CARTESIAN_POINT('',(-132.000001937151,-21.5000002980232,-0.5));
#1825=CARTESIAN_POINT('Origin',(-128.000001937151,-25.5000003799796,0.));
#1826=CARTESIAN_POINT('',(-128.000001937151,-25.5000003799796,0.));
#1827=CARTESIAN_POINT('',(-128.000001937151,-25.5000003782265,-1.00000000701231));
#1828=CARTESIAN_POINT('',(-128.000001937151,-25.5000003799796,-4.82096366633661E-9));
#1829=CARTESIAN_POINT('',(-132.000001937151,-25.5000003799796,0.));
#1830=CARTESIAN_POINT('',(-129.000001937151,-25.5000003799796,0.));
#1831=CARTESIAN_POINT('',(-132.000001937151,-25.5000003782265,-1.00000000701231));
#1832=CARTESIAN_POINT('',(-132.000001937151,-25.5000003799796,3.94442481499782E-9));
#1833=CARTESIAN_POINT('',(-128.000001937151,-25.5000003782265,-1.00000000701231));
#1834=CARTESIAN_POINT('Origin',(-128.000001937151,-25.5000003782265,-1.00000000701231));
#1835=CARTESIAN_POINT('',(-128.000001937151,-22.7500003372483,-1.00000000219135));
#1836=CARTESIAN_POINT('',(-132.000001937151,-27.7500004100919,-1.00000001095674));
#1837=CARTESIAN_POINT('Origin',(-132.000001937151,-20.0000002980232,0.));
#1838=CARTESIAN_POINT('',(-132.000001937151,-20.0000002980232,0.));
#1839=CARTESIAN_POINT('',(-132.000001937151,-20.0000002980232,0.));
#1840=CARTESIAN_POINT('',(-128.000001937151,-20.0000002980232,0.));
#1841=CARTESIAN_POINT('',(-132.000001937151,-20.0000002980232,0.));
#1842=CARTESIAN_POINT('',(-128.000001937151,-20.0000002980232,0.));
#1843=CARTESIAN_POINT('Origin',(-128.000001937151,-20.0000002980232,0.));
#1844=CARTESIAN_POINT('',(-128.000001937151,-20.0000002980232,0.));
#1845=CARTESIAN_POINT('Origin',(-132.000001937151,-30.0000004437104,0.));
#1846=CARTESIAN_POINT('',(-132.000001937151,-30.0000004437104,0.));
#1847=CARTESIAN_POINT('Origin',(-130.000001937151,-30.000000372529,0.));
#1848=CARTESIAN_POINT('',(-160.000002384186,-40.0000004470348,0.));
#1849=CARTESIAN_POINT('',(-160.000002384186,-30.0000002980232,0.));
#1850=CARTESIAN_POINT('',(-100.000001490116,-40.0000004470348,0.));
#1851=CARTESIAN_POINT('',(-160.000002384186,-40.0000004470348,0.));
#1852=CARTESIAN_POINT('',(-100.000001490116,-40.0000004470348,0.));
#1853=CARTESIAN_POINT('',(-116.50000230968,-35.000000372529,0.));
#1854=CARTESIAN_POINT('Origin',(-115.00000230968,-35.000000372529,0.));
#1855=CARTESIAN_POINT('',(-106.50000230968,-35.000000372529,0.));
#1856=CARTESIAN_POINT('Origin',(-105.00000230968,-35.000000372529,0.));
#1857=CARTESIAN_POINT('',(-126.50000230968,-35.000000372529,0.));
#1858=CARTESIAN_POINT('Origin',(-125.00000230968,-35.000000372529,0.));
#1859=CARTESIAN_POINT('',(-136.50000230968,-35.000000372529,0.));
#1860=CARTESIAN_POINT('Origin',(-135.00000230968,-35.000000372529,0.));
#1861=CARTESIAN_POINT('',(-156.50000230968,-35.000000372529,0.));
#1862=CARTESIAN_POINT('Origin',(-155.00000230968,-35.000000372529,0.));
#1863=CARTESIAN_POINT('',(-146.50000230968,-35.000000372529,0.));
#1864=CARTESIAN_POINT('Origin',(-145.00000230968,-35.000000372529,0.));
#1865=CARTESIAN_POINT('Origin',(-115.000001713634,-38.5000004470348,-8.5));
#1866=CARTESIAN_POINT('',(-125.00000230968,-38.6422778933289,-8.35772255370595));
#1867=CARTESIAN_POINT('',(-121.868133014744,-37.0000004470348,-10.));
#1868=CARTESIAN_POINT('',(-122.692761804389,-37.4324160861509,-9.56758436088393));
#1869=CARTESIAN_POINT('',(-120.000001490116,-37.0000004470348,-10.));
#1870=CARTESIAN_POINT('',(-115.000001713634,-37.0000004470348,-10.));
#1871=CARTESIAN_POINT('',(-112.500001490116,-40.0000004470348,-7.));
#1872=CARTESIAN_POINT('',(-114.318183409897,-39.2727276791226,-7.72727276791226));
#1873=CARTESIAN_POINT('',(-147.500002384186,-40.0000004470348,-7.));
#1874=CARTESIAN_POINT('',(-115.000001713634,-40.0000004470348,-7.));
#1875=CARTESIAN_POINT('',(-140.000002384186,-37.0000004470348,-10.));
#1876=CARTESIAN_POINT('',(-135.075759700302,-35.0303033734813,-11.9696970735535));
#1877=CARTESIAN_POINT('',(-138.131871604616,-37.0000004470348,-10.));
#1878=CARTESIAN_POINT('',(-115.000001713634,-37.0000004470348,-10.));
#1879=CARTESIAN_POINT('',(-135.00000230968,-38.6422778933289,-8.35772255370595));
#1880=CARTESIAN_POINT('',(-128.721313601774,-41.9346722706957,-5.06532817633913));
#1881=CARTESIAN_POINT('',(-131.868133014744,-37.0000004470348,-10.));
#1882=CARTESIAN_POINT('',(-129.466831758227,-35.7408154287735,-11.2591850182614));
#1883=CARTESIAN_POINT('',(-128.131871604616,-37.0000004470348,-10.));
#1884=CARTESIAN_POINT('',(-115.000001713634,-37.0000004470348,-10.));
#1885=CARTESIAN_POINT('',(-121.947243647936,-40.2430716133183,-6.75692883371658));
#1886=CARTESIAN_POINT('Origin',(-137.598078521033,-36.500000372529,-2.));
#1887=CARTESIAN_POINT('',(-138.297987829241,-36.9040932000309,-10.));
#1888=CARTESIAN_POINT('',(-136.506045737331,-37.9386714491673,-10.));
#1889=CARTESIAN_POINT('',(-137.598078521033,-36.500000372529,-2.));
#1890=CARTESIAN_POINT('',(-137.591516699918,-36.496211903342,-1.92499804145624));
#1891=CARTESIAN_POINT('',(-135.00000230968,-38.000000372529,-2.));
#1892=CARTESIAN_POINT('',(-137.598078521033,-36.500000372529,-2.));
#1893=CARTESIAN_POINT('',(-135.00000230968,-37.992423434155,-1.92499804145624));
#1894=CARTESIAN_POINT('Origin',(-150.000002384186,-35.0000004097819,-6.));
#1895=CARTESIAN_POINT('',(-160.000002384186,-40.0000004470348,-2.));
#1896=CARTESIAN_POINT('',(-129.482760619501,-40.0000004470348,-14.2068967058741));
#1897=CARTESIAN_POINT('',(-160.000002384186,-35.0000004097819,-2.));
#1898=CARTESIAN_POINT('',(-140.000002384186,-35.0000004097819,-10.));
#1899=CARTESIAN_POINT('',(-141.763739594661,-33.1315432228447,-9.29450511580973));
#1900=CARTESIAN_POINT('',(-145.00000230968,-31.3938611282655,-8.00000002980232));
#1901=CARTESIAN_POINT('',(-145.875082603657,-30.9239946520036,-7.64996791221138));
#1902=CARTESIAN_POINT('',(-148.017414752041,-33.2578964866759,-6.79303505285802));
#1903=CARTESIAN_POINT('',(-148.503500998384,-33.5581809084208,-6.59860055432082));
#1904=CARTESIAN_POINT('',(-148.017414752041,-36.7421042583822,-6.79303505285802));
#1905=CARTESIAN_POINT('',(-148.017414752041,-34.2500003911555,-6.79303505285802));
#1906=CARTESIAN_POINT('',(-145.00000230968,-38.6061396167926,-8.00000002980232));
#1907=CARTESIAN_POINT('',(-149.646681483726,-35.7356091722261,-6.14132836018411));
#1908=CARTESIAN_POINT('',(-141.763739594661,-36.8684575222133,-9.29450511580973));
#1909=CARTESIAN_POINT('',(-147.050072080036,-39.706906101557,-7.17997212166005));
#1910=CARTESIAN_POINT('',(-141.763739594661,-35.7500003911555,-9.29450511580973));
#1911=CARTESIAN_POINT('',(-155.00000230968,-38.2020467892907,-4.00000002980232));
#1912=CARTESIAN_POINT('',(-152.126385200521,-36.6590839840498,-5.14944687346582));
#1913=CARTESIAN_POINT('',(-152.642835169828,-36.9363871400159,-4.94286688574314));
#1914=CARTESIAN_POINT('',(-152.126385200521,-33.3409167610083,-5.14944687346582));
#1915=CARTESIAN_POINT('',(-152.126385200521,-35.7500003911555,-5.14944687346581));
#1916=CARTESIAN_POINT('',(-155.00000230968,-31.7979539557674,-4.00000002980232));
#1917=CARTESIAN_POINT('',(-151.46784569345,-33.6945136135447,-5.41286267629447));
#1918=CARTESIAN_POINT('',(-157.679292831898,-33.4531112682893,-2.92828382091515));
#1919=CARTESIAN_POINT('',(-154.060381613301,-31.217494295379,-4.37584830835385));
#1920=CARTESIAN_POINT('',(-157.679292831898,-36.5468894767688,-2.92828382091515));
#1921=CARTESIAN_POINT('',(-157.679292831898,-34.2500003911555,-2.92828382091515));
#1922=CARTESIAN_POINT('',(-155.203562098643,-38.076295785268,-3.91857611421714));
#1923=CARTESIAN_POINT('Origin',(-100.000001490116,-40.0000004470348,0.));
#1924=CARTESIAN_POINT('',(-100.000001490116,-40.0000004470348,-2.));
#1925=CARTESIAN_POINT('',(-104.655173903909,-40.0000004470348,-3.86206896551724));
#1926=CARTESIAN_POINT('',(-100.000001490116,-40.0000004470348,0.));
#1927=CARTESIAN_POINT('',(-160.000002384186,-40.0000004470348,0.));
#1928=CARTESIAN_POINT('Origin',(-110.000001490116,-30.0000003352761,-6.));
#1929=CARTESIAN_POINT('',(-120.000001490116,-30.0000003352761,-10.));
#1930=CARTESIAN_POINT('',(-100.000001490116,-30.0000003352761,-2.));
#1931=CARTESIAN_POINT('',(-102.32071176227,-33.4531112537447,-2.92828410886156));
#1932=CARTESIAN_POINT('',(-105.00000230968,-31.7979539256601,-4.00000032782555));
#1933=CARTESIAN_POINT('',(-105.798240300429,-31.3048347821538,-4.31929552412507));
#1934=CARTESIAN_POINT('',(-107.873619445858,-33.3409167454088,-5.14944718229672));
#1935=CARTESIAN_POINT('',(-106.43032574995,-32.5659532046062,-4.57212970393361));
#1936=CARTESIAN_POINT('',(-107.873619445858,-36.6590839996493,-5.14944718229672));
#1937=CARTESIAN_POINT('',(-107.873619445858,-31.7500003539026,-5.14944718229672));
#1938=CARTESIAN_POINT('',(-105.00000230968,-38.2020468193979,-4.00000032782555));
#1939=CARTESIAN_POINT('',(-109.459001968763,-35.8078271439169,-5.78360019145866));
#1940=CARTESIAN_POINT('',(-102.32071176227,-36.5468894913134,-2.92828410886156));
#1941=CARTESIAN_POINT('',(-104.937824564271,-38.1636359232532,-3.9751292296618));
#1942=CARTESIAN_POINT('',(-102.32071176227,-33.2500003539026,-2.92828410886156));
#1943=CARTESIAN_POINT('',(-111.982589842127,-33.2578964721313,-6.79303534080442));
#1944=CARTESIAN_POINT('',(-115.00000230968,-31.3938610981582,-8.00000032782555));
#1945=CARTESIAN_POINT('',(-111.355120915346,-33.6455213951956,-6.54204777009205));
#1946=CARTESIAN_POINT('',(-118.236265051718,-33.1315432072452,-9.29450542464063));
#1947=CARTESIAN_POINT('',(-112.023088839742,-29.7954342430651,-6.80923493985053));
#1948=CARTESIAN_POINT('',(-118.236265051718,-36.8684575378129,-9.29450542464063));
#1949=CARTESIAN_POINT('',(-118.236265051718,-31.7500003539026,-9.29450542464063));
#1950=CARTESIAN_POINT('',(-115.00000230968,-38.6061396468998,-8.00000032782555));
#1951=CARTESIAN_POINT('',(-115.051765058555,-38.578346105458,-8.02070542737557));
#1952=CARTESIAN_POINT('',(-111.982589842127,-36.7421042729268,-6.79303534080442));
#1953=CARTESIAN_POINT('',(-110.494705179188,-35.8229493102114,-6.19788147562877));
#1954=CARTESIAN_POINT('',(-111.982589842127,-33.2500003539026,-6.79303534080442));
#1955=CARTESIAN_POINT('Origin',(-122.401926098327,-33.500000372529,-2.));
#1956=CARTESIAN_POINT('',(-121.702016790119,-33.0959075450272,-10.));
#1957=CARTESIAN_POINT('',(-125.00000230968,-31.1918147175253,-10.));
#1958=CARTESIAN_POINT('',(-125.659022112093,-30.8113294572006,-10.));
#1959=CARTESIAN_POINT('',(-122.401926098327,-33.500000372529,-2.));
#1960=CARTESIAN_POINT('',(-122.408487919441,-33.503788841716,-1.92499804145624));
#1961=CARTESIAN_POINT('',(-125.00000230968,-32.000000372529,-2.));
#1962=CARTESIAN_POINT('',(-122.401926098327,-33.500000372529,-2.));
#1963=CARTESIAN_POINT('',(-125.00000230968,-32.0075773109031,-1.92499804145624));
#1964=CARTESIAN_POINT('Origin',(-125.00000230968,-32.000000372529,-2.));
#1965=CARTESIAN_POINT('',(-128.297987829241,-33.0959075450272,-10.));
#1966=CARTESIAN_POINT('',(-126.791944122193,-32.2263928053519,-10.));
#1967=CARTESIAN_POINT('',(-127.598078521033,-33.500000372529,-2.));
#1968=CARTESIAN_POINT('',(-125.00000230968,-32.000000372529,-2.));
#1969=CARTESIAN_POINT('',(-127.591516699918,-33.503788841716,-1.92499804145624));
#1970=CARTESIAN_POINT('Origin',(-127.598078521033,-33.500000372529,-2.));
#1971=CARTESIAN_POINT('',(-128.297987829241,-36.9040932000309,-10.));
#1972=CARTESIAN_POINT('',(-128.297987829241,-31.750000372529,-10.));
#1973=CARTESIAN_POINT('',(-127.598078521033,-36.500000372529,-2.));
#1974=CARTESIAN_POINT('',(-127.598078521033,-33.500000372529,-2.));
#1975=CARTESIAN_POINT('',(-127.591516699918,-36.496211903342,-1.92499804145624));
#1976=CARTESIAN_POINT('Origin',(-127.598078521033,-36.500000372529,-2.));
#1977=CARTESIAN_POINT('',(-130.256045737331,-35.7736079397062,-10.));
#1978=CARTESIAN_POINT('',(-125.00000230968,-38.000000372529,-2.));
#1979=CARTESIAN_POINT('',(-127.598078521033,-36.500000372529,-2.));
#1980=CARTESIAN_POINT('',(-125.00000230968,-37.992423434155,-1.92499804145624));
#1981=CARTESIAN_POINT('Origin',(-125.00000230968,-38.000000372529,-2.));
#1982=CARTESIAN_POINT('',(-122.401926098327,-36.500000372529,-2.));
#1983=CARTESIAN_POINT('',(-125.00000230968,-38.000000372529,-2.));
#1984=CARTESIAN_POINT('',(-121.702016790119,-36.9040932000309,-10.));
#1985=CARTESIAN_POINT('',(-122.408487919441,-36.496211903342,-1.92499804145624));
#1986=CARTESIAN_POINT('',(-124.792996708309,-38.6886712878575,-10.));
#1987=CARTESIAN_POINT('Origin',(-122.401926098327,-36.500000372529,-2.));
#1988=CARTESIAN_POINT('',(-121.702016790119,-33.250000372529,-10.));
#1989=CARTESIAN_POINT('',(-122.401926098327,-36.500000372529,-2.));
#1990=CARTESIAN_POINT('Origin',(-125.00000230968,-35.000000372529,-2.));
#1991=CARTESIAN_POINT('',(-126.50000230968,-35.000000372529,-2.));
#1992=CARTESIAN_POINT('Origin',(-125.00000230968,-35.000000372529,-2.));
#1993=CARTESIAN_POINT('Origin',(-155.00000230968,-32.000000372529,-2.));
#1994=CARTESIAN_POINT('',(-155.00000230968,-32.000000372529,-2.));
#1995=CARTESIAN_POINT('',(-155.00000230968,-32.0075773109031,-1.92499804145624));
#1996=CARTESIAN_POINT('',(-157.598078521033,-33.500000372529,-2.));
#1997=CARTESIAN_POINT('',(-155.00000230968,-32.000000372529,-2.));
#1998=CARTESIAN_POINT('',(-157.591516699918,-33.503788841716,-1.92499804145624));
#1999=CARTESIAN_POINT('Origin',(-157.598078521033,-33.500000372529,-2.));
#2000=CARTESIAN_POINT('',(-157.598078521033,-36.500000372529,-2.));
#2001=CARTESIAN_POINT('',(-157.598078521033,-33.500000372529,-2.));
#2002=CARTESIAN_POINT('',(-157.591516699918,-36.496211903342,-1.92499804145624));
#2003=CARTESIAN_POINT('Origin',(-157.598078521033,-36.500000372529,-2.));
#2004=CARTESIAN_POINT('',(-155.00000230968,-38.000000372529,-2.));
#2005=CARTESIAN_POINT('',(-157.598078521033,-36.500000372529,-2.));
#2006=CARTESIAN_POINT('',(-155.00000230968,-37.992423434155,-1.92499804145624));
#2007=CARTESIAN_POINT('Origin',(-155.00000230968,-38.000000372529,-2.));
#2008=CARTESIAN_POINT('',(-152.401926098327,-36.500000372529,-2.));
#2009=CARTESIAN_POINT('',(-155.00000230968,-38.000000372529,-2.));
#2010=CARTESIAN_POINT('',(-152.408487919441,-36.496211903342,-1.92499804145624));
#2011=CARTESIAN_POINT('Origin',(-152.401926098327,-36.500000372529,-2.));
#2012=CARTESIAN_POINT('',(-152.401926098327,-33.500000372529,-2.));
#2013=CARTESIAN_POINT('',(-152.401926098327,-36.500000372529,-2.));
#2014=CARTESIAN_POINT('',(-152.408487919441,-33.503788841716,-1.92499804145624));
#2015=CARTESIAN_POINT('Origin',(-152.401926098327,-33.500000372529,-2.));
#2016=CARTESIAN_POINT('',(-152.401926098327,-33.500000372529,-2.));
#2017=CARTESIAN_POINT('Origin',(-155.00000230968,-35.000000372529,-2.));
#2018=CARTESIAN_POINT('',(-156.50000230968,-35.000000372529,-2.));
#2019=CARTESIAN_POINT('Origin',(-155.00000230968,-35.000000372529,-2.));
#2020=CARTESIAN_POINT('Origin',(-117.598078521033,-36.500000372529,-2.));
#2021=CARTESIAN_POINT('',(-117.598078521033,-36.500000372529,-2.));
#2022=CARTESIAN_POINT('',(-117.591516699918,-36.496211903342,-1.92499804145624));
#2023=CARTESIAN_POINT('',(-115.00000230968,-38.000000372529,-2.));
#2024=CARTESIAN_POINT('',(-117.598078521033,-36.500000372529,-2.));
#2025=CARTESIAN_POINT('',(-115.00000230968,-37.992423434155,-1.92499804145624));
#2026=CARTESIAN_POINT('Origin',(-115.00000230968,-38.000000372529,-2.));
#2027=CARTESIAN_POINT('',(-112.401926098327,-36.500000372529,-2.));
#2028=CARTESIAN_POINT('',(-115.00000230968,-38.000000372529,-2.));
#2029=CARTESIAN_POINT('',(-112.408487919441,-36.496211903342,-1.92499804145624));
#2030=CARTESIAN_POINT('Origin',(-112.401926098327,-36.500000372529,-2.));
#2031=CARTESIAN_POINT('',(-112.401926098327,-33.500000372529,-2.));
#2032=CARTESIAN_POINT('',(-112.401926098327,-36.500000372529,-2.));
#2033=CARTESIAN_POINT('',(-112.408487919441,-33.503788841716,-1.92499804145624));
#2034=CARTESIAN_POINT('Origin',(-112.401926098327,-33.500000372529,-2.));
#2035=CARTESIAN_POINT('',(-115.00000230968,-32.000000372529,-2.));
#2036=CARTESIAN_POINT('',(-112.401926098327,-33.500000372529,-2.));
#2037=CARTESIAN_POINT('',(-115.00000230968,-32.0075773109031,-1.92499804145624));
#2038=CARTESIAN_POINT('Origin',(-115.00000230968,-32.000000372529,-2.));
#2039=CARTESIAN_POINT('',(-117.598078521033,-33.500000372529,-2.));
#2040=CARTESIAN_POINT('',(-115.00000230968,-32.000000372529,-2.));
#2041=CARTESIAN_POINT('',(-117.591516699918,-33.503788841716,-1.92499804145624));
#2042=CARTESIAN_POINT('Origin',(-117.598078521033,-33.500000372529,-2.));
#2043=CARTESIAN_POINT('',(-117.598078521033,-33.500000372529,-2.));
#2044=CARTESIAN_POINT('Origin',(-115.00000230968,-35.000000372529,-2.));
#2045=CARTESIAN_POINT('',(-116.50000230968,-35.000000372529,-2.));
#2046=CARTESIAN_POINT('Origin',(-115.00000230968,-35.000000372529,-2.));
#2047=CARTESIAN_POINT('Origin',(-132.401926098327,-33.500000372529,-2.));
#2048=CARTESIAN_POINT('',(-131.702016790119,-33.0959075450272,-10.));
#2049=CARTESIAN_POINT('',(-135.00000230968,-31.1918147175253,-10.));
#2050=CARTESIAN_POINT('',(-131.909022112093,-32.9763929666617,-10.));
#2051=CARTESIAN_POINT('',(-132.401926098327,-33.500000372529,-2.));
#2052=CARTESIAN_POINT('',(-132.408487919441,-33.503788841716,-1.92499804145624));
#2053=CARTESIAN_POINT('',(-135.00000230968,-32.000000372529,-2.));
#2054=CARTESIAN_POINT('',(-132.401926098327,-33.500000372529,-2.));
#2055=CARTESIAN_POINT('',(-135.00000230968,-32.0075773109031,-1.92499804145624));
#2056=CARTESIAN_POINT('Origin',(-135.00000230968,-32.000000372529,-2.));
#2057=CARTESIAN_POINT('',(-138.297987829241,-33.0959075450272,-10.));
#2058=CARTESIAN_POINT('',(-133.041944122193,-30.0613292958908,-10.));
#2059=CARTESIAN_POINT('',(-137.598078521033,-33.500000372529,-2.));
#2060=CARTESIAN_POINT('',(-135.00000230968,-32.000000372529,-2.));
#2061=CARTESIAN_POINT('',(-137.591516699918,-33.503788841716,-1.92499804145624));
#2062=CARTESIAN_POINT('Origin',(-137.598078521033,-33.500000372529,-2.));
#2063=CARTESIAN_POINT('',(-138.297987829241,-31.750000372529,-10.));
#2064=CARTESIAN_POINT('',(-137.598078521033,-33.500000372529,-2.));
#2065=CARTESIAN_POINT('Origin',(-135.00000230968,-38.000000372529,-2.));
#2066=CARTESIAN_POINT('',(-132.401926098327,-36.500000372529,-2.));
#2067=CARTESIAN_POINT('',(-135.00000230968,-38.000000372529,-2.));
#2068=CARTESIAN_POINT('',(-131.702016790119,-36.9040932000309,-10.));
#2069=CARTESIAN_POINT('',(-132.408487919441,-36.496211903342,-1.92499804145624));
#2070=CARTESIAN_POINT('',(-131.042996708309,-36.5236077783964,-10.));
#2071=CARTESIAN_POINT('Origin',(-132.401926098327,-36.500000372529,-2.));
#2072=CARTESIAN_POINT('',(-131.702016790119,-33.250000372529,-10.));
#2073=CARTESIAN_POINT('',(-132.401926098327,-36.500000372529,-2.));
#2074=CARTESIAN_POINT('Origin',(-135.00000230968,-35.000000372529,-2.));
#2075=CARTESIAN_POINT('',(-136.50000230968,-35.000000372529,-2.));
#2076=CARTESIAN_POINT('Origin',(-135.00000230968,-35.000000372529,-2.));
#2077=CARTESIAN_POINT('Origin',(-147.598078521033,-36.500000372529,-2.));
#2078=CARTESIAN_POINT('',(-147.598078521033,-36.500000372529,-2.));
#2079=CARTESIAN_POINT('',(-147.591516699918,-36.496211903342,-1.92499804145624));
#2080=CARTESIAN_POINT('',(-145.00000230968,-38.000000372529,-2.));
#2081=CARTESIAN_POINT('',(-147.598078521033,-36.500000372529,-2.));
#2082=CARTESIAN_POINT('',(-145.00000230968,-37.992423434155,-1.92499804145624));
#2083=CARTESIAN_POINT('Origin',(-145.00000230968,-38.000000372529,-2.));
#2084=CARTESIAN_POINT('',(-142.401926098327,-36.500000372529,-2.));
#2085=CARTESIAN_POINT('',(-145.00000230968,-38.000000372529,-2.));
#2086=CARTESIAN_POINT('',(-142.408487919441,-36.496211903342,-1.92499804145624));
#2087=CARTESIAN_POINT('Origin',(-142.401926098327,-36.500000372529,-2.));
#2088=CARTESIAN_POINT('',(-142.401926098327,-33.500000372529,-2.));
#2089=CARTESIAN_POINT('',(-142.401926098327,-36.500000372529,-2.));
#2090=CARTESIAN_POINT('',(-142.408487919441,-33.503788841716,-1.92499804145624));
#2091=CARTESIAN_POINT('Origin',(-142.401926098327,-33.500000372529,-2.));
#2092=CARTESIAN_POINT('',(-145.00000230968,-32.000000372529,-2.));
#2093=CARTESIAN_POINT('',(-142.401926098327,-33.500000372529,-2.));
#2094=CARTESIAN_POINT('',(-145.00000230968,-32.0075773109031,-1.92499804145624));
#2095=CARTESIAN_POINT('Origin',(-145.00000230968,-32.000000372529,-2.));
#2096=CARTESIAN_POINT('',(-147.598078521033,-33.500000372529,-2.));
#2097=CARTESIAN_POINT('',(-145.00000230968,-32.000000372529,-2.));
#2098=CARTESIAN_POINT('',(-147.591516699918,-33.503788841716,-1.92499804145624));
#2099=CARTESIAN_POINT('Origin',(-147.598078521033,-33.500000372529,-2.));
#2100=CARTESIAN_POINT('',(-147.598078521033,-33.500000372529,-2.));
#2101=CARTESIAN_POINT('Origin',(-145.00000230968,-35.000000372529,-2.));
#2102=CARTESIAN_POINT('',(-146.50000230968,-35.000000372529,-2.));
#2103=CARTESIAN_POINT('Origin',(-145.00000230968,-35.000000372529,-2.));
#2104=CARTESIAN_POINT('Origin',(-107.598078521033,-36.500000372529,-2.));
#2105=CARTESIAN_POINT('',(-107.598078521033,-36.500000372529,-2.));
#2106=CARTESIAN_POINT('',(-107.591516699918,-36.496211903342,-1.92499804145624));
#2107=CARTESIAN_POINT('',(-105.00000230968,-38.000000372529,-2.));
#2108=CARTESIAN_POINT('',(-107.598078521033,-36.500000372529,-2.));
#2109=CARTESIAN_POINT('',(-105.00000230968,-37.992423434155,-1.92499804145624));
#2110=CARTESIAN_POINT('Origin',(-105.00000230968,-38.000000372529,-2.));
#2111=CARTESIAN_POINT('',(-102.401926098327,-36.500000372529,-2.));
#2112=CARTESIAN_POINT('',(-105.00000230968,-38.000000372529,-2.));
#2113=CARTESIAN_POINT('',(-102.408487919441,-36.496211903342,-1.92499804145624));
#2114=CARTESIAN_POINT('Origin',(-102.401926098327,-36.500000372529,-2.));
#2115=CARTESIAN_POINT('',(-102.401926098327,-33.500000372529,-2.));
#2116=CARTESIAN_POINT('',(-102.401926098327,-36.500000372529,-2.));
#2117=CARTESIAN_POINT('',(-102.408487919441,-33.503788841716,-1.92499804145624));
#2118=CARTESIAN_POINT('Origin',(-102.401926098327,-33.500000372529,-2.));
#2119=CARTESIAN_POINT('',(-105.00000230968,-32.000000372529,-2.));
#2120=CARTESIAN_POINT('',(-102.401926098327,-33.500000372529,-2.));
#2121=CARTESIAN_POINT('',(-105.00000230968,-32.0075773109031,-1.92499804145624));
#2122=CARTESIAN_POINT('Origin',(-105.00000230968,-32.000000372529,-2.));
#2123=CARTESIAN_POINT('',(-107.598078521033,-33.500000372529,-2.));
#2124=CARTESIAN_POINT('',(-105.00000230968,-32.000000372529,-2.));
#2125=CARTESIAN_POINT('',(-107.591516699918,-33.503788841716,-1.92499804145624));
#2126=CARTESIAN_POINT('Origin',(-107.598078521033,-33.500000372529,-2.));
#2127=CARTESIAN_POINT('',(-107.598078521033,-33.500000372529,-2.));
#2128=CARTESIAN_POINT('Origin',(-105.00000230968,-35.000000372529,-2.));
#2129=CARTESIAN_POINT('',(-106.50000230968,-35.000000372529,-2.));
#2130=CARTESIAN_POINT('Origin',(-105.00000230968,-35.000000372529,-2.));
#2131=CARTESIAN_POINT('Origin',(-130.000001937151,-30.000000372529,-10.));
#2132=CARTESIAN_POINT('Origin',(-105.00000230968,-35.000000372529,0.));
#2133=CARTESIAN_POINT('',(-106.50000230968,-35.000000372529,0.));
#2134=CARTESIAN_POINT('Origin',(-115.00000230968,-35.000000372529,0.));
#2135=CARTESIAN_POINT('',(-116.50000230968,-35.000000372529,0.));
#2136=CARTESIAN_POINT('Origin',(-160.000002384186,-40.0000004470348,0.));
#2137=CARTESIAN_POINT('Origin',(-145.00000230968,-35.000000372529,0.));
#2138=CARTESIAN_POINT('',(-146.50000230968,-35.000000372529,0.));
#2139=CARTESIAN_POINT('Origin',(-155.00000230968,-35.000000372529,0.));
#2140=CARTESIAN_POINT('',(-156.50000230968,-35.000000372529,0.));
#2141=CARTESIAN_POINT('Origin',(-135.00000230968,-35.000000372529,0.));
#2142=CARTESIAN_POINT('',(-136.50000230968,-35.000000372529,0.));
#2143=CARTESIAN_POINT('Origin',(-125.00000230968,-35.000000372529,0.));
#2144=CARTESIAN_POINT('',(-126.50000230968,-35.000000372529,0.));
#2145=CARTESIAN_POINT('Origin',(-100.000001490116,-30.0000002980232,0.));
#2146=CARTESIAN_POINT('Origin',(-130.000001937151,-30.000000372529,0.));
#2147=UNCERTAINTY_MEASURE_WITH_UNIT(LENGTH_MEASURE(0.01),#2151,
'DISTANCE_ACCURACY_VALUE',
'Maximum model space distance between geometric entities at asserted c
onnectivities');
#2148=UNCERTAINTY_MEASURE_WITH_UNIT(LENGTH_MEASURE(0.01),#2151,
'DISTANCE_ACCURACY_VALUE',
'Maximum model space distance between geometric entities at asserted c
onnectivities');
#2149=(
GEOMETRIC_REPRESENTATION_CONTEXT(3)
GLOBAL_UNCERTAINTY_ASSIGNED_CONTEXT((#2147))
GLOBAL_UNIT_ASSIGNED_CONTEXT((#2151,#2153,#2154))
REPRESENTATION_CONTEXT('','3D')
);
#2150=(
GEOMETRIC_REPRESENTATION_CONTEXT(3)
GLOBAL_UNCERTAINTY_ASSIGNED_CONTEXT((#2148))
GLOBAL_UNIT_ASSIGNED_CONTEXT((#2151,#2153,#2154))
REPRESENTATION_CONTEXT('','3D')
);
#2151=(
LENGTH_UNIT()
NAMED_UNIT(*)
SI_UNIT(.MILLI.,.METRE.)
);
#2152=(
LENGTH_UNIT()
NAMED_UNIT(*)
SI_UNIT($,.METRE.)
);
#2153=(
NAMED_UNIT(*)
PLANE_ANGLE_UNIT()
SI_UNIT($,.RADIAN.)
);
#2154=(
NAMED_UNIT(*)
SI_UNIT($,.STERADIAN.)
SOLID_ANGLE_UNIT()
);
#2155=SHAPE_DEFINITION_REPRESENTATION(#2156,#2157);
#2156=PRODUCT_DEFINITION_SHAPE('',$,#2159);
#2157=SHAPE_REPRESENTATION('',(#1359),#2149);
#2158=PRODUCT_DEFINITION_CONTEXT('part definition',#2163,'design');
#2159=PRODUCT_DEFINITION('midleg','midleg',#2160,#2158);
#2160=PRODUCT_DEFINITION_FORMATION('',$,#2165);
#2161=PRODUCT_RELATED_PRODUCT_CATEGORY('midleg','midleg',(#2165));
#2162=APPLICATION_PROTOCOL_DEFINITION('international standard',
'automotive_design',2009,#2163);
#2163=APPLICATION_CONTEXT(
'Core Data for Automotive Mechanical Design Process');
#2164=PRODUCT_CONTEXT('part definition',#2163,'mechanical');
#2165=PRODUCT('midleg','midleg',$,(#2164));
#2166=PRESENTATION_STYLE_ASSIGNMENT((#2167));
#2167=SURFACE_STYLE_USAGE(.BOTH.,#2168);
#2168=SURFACE_SIDE_STYLE('',(#2169));
#2169=SURFACE_STYLE_FILL_AREA(#2170);
#2170=FILL_AREA_STYLE('Steel - Satin',(#2171));
#2171=FILL_AREA_STYLE_COLOUR('Steel - Satin',#2172);
#2172=COLOUR_RGB('Steel - Satin',0.627450980392157,0.627450980392157,0.627450980392157);
ENDSEC;
END-ISO-10303-21;
