ISO-10303-21;
HEADER;
/* Generated by software containing ST-Developer
 * from STEP Tools, Inc. (www.steptools.com) 
 */

FILE_DESCRIPTION(
/* description */ (''),
/* implementation_level */ '2;1');

FILE_NAME(
/* name */ 'panel.step',
/* time_stamp */ '2025-12-31T18:04:57+01:00',
/* author */ (''),
/* organization */ (''),
/* preprocessor_version */ 'ST-DEVELOPER v20.1',
/* originating_system */ 'Autodesk Translation Framework v14.21.0.0',
/* authorisation */ '');

FILE_SCHEMA (('AUTOMOTIVE_DESIGN { 1 0 10303 214 3 1 1 }'));
ENDSEC;

DATA;
#10=MECHANICAL_DESIGN_GEOMETRIC_PRESENTATION_REPRESENTATION('',(#13),#2091);
#11=SHAPE_REPRESENTATION_RELATIONSHIP('SRR','None',#2098,#12);
#12=ADVANCED_BREP_SHAPE_REPRESENTATION('',(#14),#2090);
#13=STYLED_ITEM('',(#2107),#14);
#14=MANIFOLD_SOLID_BREP('Body1',#1295);
#15=CYLINDRICAL_SURFACE('',#1330,1.5);
#16=CYLINDRICAL_SURFACE('',#1332,1.5);
#17=CYLINDRICAL_SURFACE('',#1346,6.1);
#18=CYLINDRICAL_SURFACE('',#1350,6.1);
#19=CYLINDRICAL_SURFACE('',#1360,6.1);
#20=CYLINDRICAL_SURFACE('',#1362,2.);
#21=CYLINDRICAL_SURFACE('',#1372,2.);
#22=CYLINDRICAL_SURFACE('',#1379,1.5);
#23=CYLINDRICAL_SURFACE('',#1381,3.);
#24=CYLINDRICAL_SURFACE('',#1384,3.);
#25=CYLINDRICAL_SURFACE('',#1388,1.5);
#26=CIRCLE('',#1320,1.5);
#27=CIRCLE('',#1328,1.5);
#28=CIRCLE('',#1331,1.5);
#29=CIRCLE('',#1333,1.5);
#30=CIRCLE('',#1341,2.);
#31=CIRCLE('',#1347,6.1);
#32=CIRCLE('',#1348,6.1);
#33=CIRCLE('',#1349,6.1);
#34=CIRCLE('',#1351,6.1);
#35=CIRCLE('',#1352,6.1);
#36=CIRCLE('',#1354,6.1);
#37=CIRCLE('',#1355,3.);
#38=CIRCLE('',#1357,6.1);
#39=CIRCLE('',#1361,6.1);
#40=CIRCLE('',#1363,2.);
#41=CIRCLE('',#1364,2.);
#42=CIRCLE('',#1370,1.5);
#43=CIRCLE('',#1371,1.5);
#44=CIRCLE('',#1373,2.);
#45=CIRCLE('',#1380,1.5);
#46=CIRCLE('',#1382,3.);
#47=CIRCLE('',#1383,3.);
#48=CIRCLE('',#1385,3.);
#49=CIRCLE('',#1389,1.5);
#50=FACE_BOUND('',#132,.T.);
#51=FACE_BOUND('',#133,.T.);
#52=FACE_BOUND('',#143,.T.);
#53=FACE_BOUND('',#151,.T.);
#54=FACE_BOUND('',#160,.T.);
#55=FACE_BOUND('',#163,.T.);
#56=FACE_BOUND('',#166,.T.);
#57=FACE_BOUND('',#172,.T.);
#58=FACE_BOUND('',#183,.T.);
#59=FACE_BOUND('',#184,.T.);
#60=FACE_BOUND('',#185,.T.);
#61=FACE_BOUND('',#202,.T.);
#62=FACE_BOUND('',#203,.T.);
#63=FACE_BOUND('',#204,.T.);
#64=FACE_BOUND('',#205,.T.);
#65=FACE_BOUND('',#206,.T.);
#66=FACE_BOUND('',#208,.T.);
#67=FACE_BOUND('',#209,.T.);
#68=FACE_OUTER_BOUND('',#130,.T.);
#69=FACE_OUTER_BOUND('',#131,.T.);
#70=FACE_OUTER_BOUND('',#134,.T.);
#71=FACE_OUTER_BOUND('',#135,.T.);
#72=FACE_OUTER_BOUND('',#136,.T.);
#73=FACE_OUTER_BOUND('',#137,.T.);
#74=FACE_OUTER_BOUND('',#138,.T.);
#75=FACE_OUTER_BOUND('',#139,.T.);
#76=FACE_OUTER_BOUND('',#140,.T.);
#77=FACE_OUTER_BOUND('',#141,.T.);
#78=FACE_OUTER_BOUND('',#142,.T.);
#79=FACE_OUTER_BOUND('',#144,.T.);
#80=FACE_OUTER_BOUND('',#145,.T.);
#81=FACE_OUTER_BOUND('',#146,.T.);
#82=FACE_OUTER_BOUND('',#147,.T.);
#83=FACE_OUTER_BOUND('',#148,.T.);
#84=FACE_OUTER_BOUND('',#149,.T.);
#85=FACE_OUTER_BOUND('',#150,.T.);
#86=FACE_OUTER_BOUND('',#152,.T.);
#87=FACE_OUTER_BOUND('',#153,.T.);
#88=FACE_OUTER_BOUND('',#154,.T.);
#89=FACE_OUTER_BOUND('',#155,.T.);
#90=FACE_OUTER_BOUND('',#156,.T.);
#91=FACE_OUTER_BOUND('',#157,.T.);
#92=FACE_OUTER_BOUND('',#158,.T.);
#93=FACE_OUTER_BOUND('',#159,.T.);
#94=FACE_OUTER_BOUND('',#161,.T.);
#95=FACE_OUTER_BOUND('',#162,.T.);
#96=FACE_OUTER_BOUND('',#164,.T.);
#97=FACE_OUTER_BOUND('',#165,.T.);
#98=FACE_OUTER_BOUND('',#167,.T.);
#99=FACE_OUTER_BOUND('',#168,.T.);
#100=FACE_OUTER_BOUND('',#169,.T.);
#101=FACE_OUTER_BOUND('',#170,.T.);
#102=FACE_OUTER_BOUND('',#171,.T.);
#103=FACE_OUTER_BOUND('',#173,.T.);
#104=FACE_OUTER_BOUND('',#174,.T.);
#105=FACE_OUTER_BOUND('',#175,.T.);
#106=FACE_OUTER_BOUND('',#176,.T.);
#107=FACE_OUTER_BOUND('',#177,.T.);
#108=FACE_OUTER_BOUND('',#178,.T.);
#109=FACE_OUTER_BOUND('',#179,.T.);
#110=FACE_OUTER_BOUND('',#180,.T.);
#111=FACE_OUTER_BOUND('',#181,.T.);
#112=FACE_OUTER_BOUND('',#182,.T.);
#113=FACE_OUTER_BOUND('',#186,.T.);
#114=FACE_OUTER_BOUND('',#187,.T.);
#115=FACE_OUTER_BOUND('',#188,.T.);
#116=FACE_OUTER_BOUND('',#189,.T.);
#117=FACE_OUTER_BOUND('',#190,.T.);
#118=FACE_OUTER_BOUND('',#191,.T.);
#119=FACE_OUTER_BOUND('',#192,.T.);
#120=FACE_OUTER_BOUND('',#193,.T.);
#121=FACE_OUTER_BOUND('',#194,.T.);
#122=FACE_OUTER_BOUND('',#195,.T.);
#123=FACE_OUTER_BOUND('',#196,.T.);
#124=FACE_OUTER_BOUND('',#197,.T.);
#125=FACE_OUTER_BOUND('',#198,.T.);
#126=FACE_OUTER_BOUND('',#199,.T.);
#127=FACE_OUTER_BOUND('',#200,.T.);
#128=FACE_OUTER_BOUND('',#201,.T.);
#129=FACE_OUTER_BOUND('',#207,.T.);
#130=EDGE_LOOP('',(#822,#823,#824,#825));
#131=EDGE_LOOP('',(#826,#827,#828,#829,#830,#831,#832,#833,#834,#835,#836,
#837,#838,#839,#840,#841,#842,#843,#844,#845,#846,#847,#848,#849,#850,#851));
#132=EDGE_LOOP('',(#852,#853,#854,#855));
#133=EDGE_LOOP('',(#856,#857,#858,#859));
#134=EDGE_LOOP('',(#860,#861,#862,#863));
#135=EDGE_LOOP('',(#864,#865,#866,#867,#868,#869,#870,#871,#872,#873,#874,
#875,#876,#877,#878,#879));
#136=EDGE_LOOP('',(#880,#881,#882,#883));
#137=EDGE_LOOP('',(#884,#885,#886,#887));
#138=EDGE_LOOP('',(#888,#889,#890,#891,#892));
#139=EDGE_LOOP('',(#893,#894,#895,#896,#897));
#140=EDGE_LOOP('',(#898,#899,#900,#901));
#141=EDGE_LOOP('',(#902,#903,#904,#905));
#142=EDGE_LOOP('',(#906,#907,#908,#909,#910,#911));
#143=EDGE_LOOP('',(#912));
#144=EDGE_LOOP('',(#913,#914,#915,#916));
#145=EDGE_LOOP('',(#917,#918,#919,#920));
#146=EDGE_LOOP('',(#921,#922,#923,#924));
#147=EDGE_LOOP('',(#925,#926,#927,#928,#929));
#148=EDGE_LOOP('',(#930,#931,#932,#933));
#149=EDGE_LOOP('',(#934,#935,#936,#937,#938));
#150=EDGE_LOOP('',(#939,#940,#941,#942,#943,#944));
#151=EDGE_LOOP('',(#945));
#152=EDGE_LOOP('',(#946,#947,#948,#949,#950,#951,#952));
#153=EDGE_LOOP('',(#953,#954,#955,#956));
#154=EDGE_LOOP('',(#957,#958,#959,#960));
#155=EDGE_LOOP('',(#961,#962,#963,#964,#965,#966,#967));
#156=EDGE_LOOP('',(#968,#969,#970,#971));
#157=EDGE_LOOP('',(#972,#973,#974,#975));
#158=EDGE_LOOP('',(#976,#977,#978,#979));
#159=EDGE_LOOP('',(#980,#981,#982,#983));
#160=EDGE_LOOP('',(#984));
#161=EDGE_LOOP('',(#985,#986,#987,#988,#989,#990,#991));
#162=EDGE_LOOP('',(#992,#993,#994,#995,#996,#997,#998,#999,#1000));
#163=EDGE_LOOP('',(#1001));
#164=EDGE_LOOP('',(#1002,#1003,#1004,#1005));
#165=EDGE_LOOP('',(#1006,#1007,#1008,#1009));
#166=EDGE_LOOP('',(#1010));
#167=EDGE_LOOP('',(#1011,#1012,#1013,#1014,#1015,#1016,#1017));
#168=EDGE_LOOP('',(#1018,#1019,#1020,#1021));
#169=EDGE_LOOP('',(#1022,#1023,#1024,#1025,#1026,#1027));
#170=EDGE_LOOP('',(#1028,#1029,#1030,#1031));
#171=EDGE_LOOP('',(#1032,#1033,#1034,#1035,#1036,#1037,#1038,#1039));
#172=EDGE_LOOP('',(#1040));
#173=EDGE_LOOP('',(#1041,#1042,#1043,#1044));
#174=EDGE_LOOP('',(#1045,#1046,#1047,#1048));
#175=EDGE_LOOP('',(#1049,#1050,#1051,#1052));
#176=EDGE_LOOP('',(#1053,#1054,#1055,#1056,#1057,#1058));
#177=EDGE_LOOP('',(#1059,#1060,#1061,#1062));
#178=EDGE_LOOP('',(#1063));
#179=EDGE_LOOP('',(#1064,#1065,#1066,#1067));
#180=EDGE_LOOP('',(#1068,#1069,#1070,#1071,#1072,#1073));
#181=EDGE_LOOP('',(#1074,#1075,#1076,#1077,#1078,#1079));
#182=EDGE_LOOP('',(#1080,#1081,#1082,#1083));
#183=EDGE_LOOP('',(#1084));
#184=EDGE_LOOP('',(#1085));
#185=EDGE_LOOP('',(#1086,#1087,#1088,#1089));
#186=EDGE_LOOP('',(#1090,#1091,#1092,#1093));
#187=EDGE_LOOP('',(#1094));
#188=EDGE_LOOP('',(#1095,#1096,#1097,#1098));
#189=EDGE_LOOP('',(#1099,#1100,#1101,#1102));
#190=EDGE_LOOP('',(#1103,#1104,#1105,#1106));
#191=EDGE_LOOP('',(#1107,#1108,#1109,#1110));
#192=EDGE_LOOP('',(#1111,#1112,#1113,#1114));
#193=EDGE_LOOP('',(#1115,#1116,#1117,#1118));
#194=EDGE_LOOP('',(#1119,#1120,#1121,#1122));
#195=EDGE_LOOP('',(#1123,#1124,#1125,#1126));
#196=EDGE_LOOP('',(#1127,#1128,#1129,#1130));
#197=EDGE_LOOP('',(#1131,#1132,#1133,#1134));
#198=EDGE_LOOP('',(#1135,#1136,#1137,#1138));
#199=EDGE_LOOP('',(#1139,#1140,#1141,#1142,#1143,#1144,#1145,#1146,#1147,
#1148,#1149,#1150));
#200=EDGE_LOOP('',(#1151,#1152,#1153,#1154));
#201=EDGE_LOOP('',(#1155,#1156,#1157,#1158));
#202=EDGE_LOOP('',(#1159));
#203=EDGE_LOOP('',(#1160,#1161,#1162,#1163));
#204=EDGE_LOOP('',(#1164));
#205=EDGE_LOOP('',(#1165));
#206=EDGE_LOOP('',(#1166));
#207=EDGE_LOOP('',(#1167,#1168,#1169,#1170,#1171,#1172,#1173,#1174,#1175,
#1176,#1177,#1178,#1179));
#208=EDGE_LOOP('',(#1180));
#209=EDGE_LOOP('',(#1181));
#210=LINE('',#1729,#366);
#211=LINE('',#1731,#367);
#212=LINE('',#1733,#368);
#213=LINE('',#1734,#369);
#214=LINE('',#1737,#370);
#215=LINE('',#1739,#371);
#216=LINE('',#1741,#372);
#217=LINE('',#1743,#373);
#218=LINE('',#1745,#374);
#219=LINE('',#1747,#375);
#220=LINE('',#1749,#376);
#221=LINE('',#1751,#377);
#222=LINE('',#1753,#378);
#223=LINE('',#1755,#379);
#224=LINE('',#1757,#380);
#225=LINE('',#1759,#381);
#226=LINE('',#1761,#382);
#227=LINE('',#1763,#383);
#228=LINE('',#1765,#384);
#229=LINE('',#1767,#385);
#230=LINE('',#1769,#386);
#231=LINE('',#1771,#387);
#232=LINE('',#1773,#388);
#233=LINE('',#1775,#389);
#234=LINE('',#1777,#390);
#235=LINE('',#1779,#391);
#236=LINE('',#1781,#392);
#237=LINE('',#1783,#393);
#238=LINE('',#1784,#394);
#239=LINE('',#1787,#395);
#240=LINE('',#1789,#396);
#241=LINE('',#1791,#397);
#242=LINE('',#1792,#398);
#243=LINE('',#1795,#399);
#244=LINE('',#1797,#400);
#245=LINE('',#1799,#401);
#246=LINE('',#1800,#402);
#247=LINE('',#1803,#403);
#248=LINE('',#1805,#404);
#249=LINE('',#1806,#405);
#250=LINE('',#1809,#406);
#251=LINE('',#1811,#407);
#252=LINE('',#1813,#408);
#253=LINE('',#1815,#409);
#254=LINE('',#1817,#410);
#255=LINE('',#1819,#411);
#256=LINE('',#1821,#412);
#257=LINE('',#1823,#413);
#258=LINE('',#1825,#414);
#259=LINE('',#1827,#415);
#260=LINE('',#1829,#416);
#261=LINE('',#1831,#417);
#262=LINE('',#1832,#418);
#263=LINE('',#1833,#419);
#264=LINE('',#1836,#420);
#265=LINE('',#1838,#421);
#266=LINE('',#1839,#422);
#267=LINE('',#1842,#423);
#268=LINE('',#1843,#424);
#269=LINE('',#1846,#425);
#270=LINE('',#1848,#426);
#271=LINE('',#1849,#427);
#272=LINE('',#1851,#428);
#273=LINE('',#1853,#429);
#274=LINE('',#1854,#430);
#275=LINE('',#1857,#431);
#276=LINE('',#1858,#432);
#277=LINE('',#1860,#433);
#278=LINE('',#1866,#434);
#279=LINE('',#1868,#435);
#280=LINE('',#1869,#436);
#281=LINE('',#1872,#437);
#282=LINE('',#1873,#438);
#283=LINE('',#1876,#439);
#284=LINE('',#1877,#440);
#285=LINE('',#1880,#441);
#286=LINE('',#1882,#442);
#287=LINE('',#1883,#443);
#288=LINE('',#1886,#444);
#289=LINE('',#1887,#445);
#290=LINE('',#1889,#446);
#291=LINE('',#1890,#447);
#292=LINE('',#1896,#448);
#293=LINE('',#1898,#449);
#294=LINE('',#1899,#450);
#295=LINE('',#1903,#451);
#296=LINE('',#1907,#452);
#297=LINE('',#1910,#453);
#298=LINE('',#1912,#454);
#299=LINE('',#1913,#455);
#300=LINE('',#1916,#456);
#301=LINE('',#1918,#457);
#302=LINE('',#1919,#458);
#303=LINE('',#1922,#459);
#304=LINE('',#1924,#460);
#305=LINE('',#1925,#461);
#306=LINE('',#1928,#462);
#307=LINE('',#1930,#463);
#308=LINE('',#1931,#464);
#309=LINE('',#1933,#465);
#310=LINE('',#1934,#466);
#311=LINE('',#1938,#467);
#312=LINE('',#1940,#468);
#313=LINE('',#1941,#469);
#314=LINE('',#1946,#470);
#315=LINE('',#1948,#471);
#316=LINE('',#1949,#472);
#317=LINE('',#1951,#473);
#318=LINE('',#1952,#474);
#319=LINE('',#1957,#475);
#320=LINE('',#1959,#476);
#321=LINE('',#1961,#477);
#322=LINE('',#1962,#478);
#323=LINE('',#1967,#479);
#324=LINE('',#1975,#480);
#325=LINE('',#1978,#481);
#326=LINE('',#1982,#482);
#327=LINE('',#1983,#483);
#328=LINE('',#1984,#484);
#329=LINE('',#1991,#485);
#330=LINE('',#1992,#486);
#331=LINE('',#1994,#487);
#332=LINE('',#2001,#488);
#333=LINE('',#2005,#489);
#334=LINE('',#2006,#490);
#335=LINE('',#2009,#491);
#336=LINE('',#2010,#492);
#337=LINE('',#2013,#493);
#338=LINE('',#2015,#494);
#339=LINE('',#2016,#495);
#340=LINE('',#2018,#496);
#341=LINE('',#2025,#497);
#342=LINE('',#2027,#498);
#343=LINE('',#2029,#499);
#344=LINE('',#2030,#500);
#345=LINE('',#2033,#501);
#346=LINE('',#2038,#502);
#347=LINE('',#2040,#503);
#348=LINE('',#2041,#504);
#349=LINE('',#2044,#505);
#350=LINE('',#2045,#506);
#351=LINE('',#2047,#507);
#352=LINE('',#2052,#508);
#353=LINE('',#2057,#509);
#354=LINE('',#2062,#510);
#355=LINE('',#2065,#511);
#356=LINE('',#2066,#512);
#357=LINE('',#2068,#513);
#358=LINE('',#2072,#514);
#359=LINE('',#2075,#515);
#360=LINE('',#2077,#516);
#361=LINE('',#2078,#517);
#362=LINE('',#2080,#518);
#363=LINE('',#2082,#519);
#364=LINE('',#2083,#520);
#365=LINE('',#2085,#521);
#366=VECTOR('',#1399,10.);
#367=VECTOR('',#1400,10.);
#368=VECTOR('',#1401,10.);
#369=VECTOR('',#1402,10.);
#370=VECTOR('',#1405,10.);
#371=VECTOR('',#1406,10.);
#372=VECTOR('',#1407,10.);
#373=VECTOR('',#1408,10.);
#374=VECTOR('',#1409,10.);
#375=VECTOR('',#1410,10.);
#376=VECTOR('',#1411,10.);
#377=VECTOR('',#1412,10.);
#378=VECTOR('',#1413,10.);
#379=VECTOR('',#1414,10.);
#380=VECTOR('',#1415,10.);
#381=VECTOR('',#1416,10.);
#382=VECTOR('',#1417,10.);
#383=VECTOR('',#1418,10.);
#384=VECTOR('',#1419,10.);
#385=VECTOR('',#1420,10.);
#386=VECTOR('',#1421,10.);
#387=VECTOR('',#1422,10.);
#388=VECTOR('',#1423,10.);
#389=VECTOR('',#1424,10.);
#390=VECTOR('',#1425,10.);
#391=VECTOR('',#1426,10.);
#392=VECTOR('',#1427,10.);
#393=VECTOR('',#1428,10.);
#394=VECTOR('',#1429,10.);
#395=VECTOR('',#1430,10.);
#396=VECTOR('',#1431,10.);
#397=VECTOR('',#1432,10.);
#398=VECTOR('',#1433,10.);
#399=VECTOR('',#1434,10.);
#400=VECTOR('',#1435,10.);
#401=VECTOR('',#1436,10.);
#402=VECTOR('',#1437,10.);
#403=VECTOR('',#1440,10.);
#404=VECTOR('',#1441,10.);
#405=VECTOR('',#1442,10.);
#406=VECTOR('',#1445,10.);
#407=VECTOR('',#1446,10.);
#408=VECTOR('',#1447,10.);
#409=VECTOR('',#1448,10.);
#410=VECTOR('',#1449,10.);
#411=VECTOR('',#1450,10.);
#412=VECTOR('',#1451,10.);
#413=VECTOR('',#1452,10.);
#414=VECTOR('',#1453,10.);
#415=VECTOR('',#1454,10.);
#416=VECTOR('',#1455,10.);
#417=VECTOR('',#1456,10.);
#418=VECTOR('',#1457,10.);
#419=VECTOR('',#1458,10.);
#420=VECTOR('',#1461,10.);
#421=VECTOR('',#1462,10.);
#422=VECTOR('',#1463,10.);
#423=VECTOR('',#1466,10.);
#424=VECTOR('',#1467,10.);
#425=VECTOR('',#1470,10.);
#426=VECTOR('',#1471,10.);
#427=VECTOR('',#1472,10.);
#428=VECTOR('',#1475,10.);
#429=VECTOR('',#1476,10.);
#430=VECTOR('',#1477,10.);
#431=VECTOR('',#1480,10.);
#432=VECTOR('',#1481,10.);
#433=VECTOR('',#1484,10.);
#434=VECTOR('',#1491,10.);
#435=VECTOR('',#1492,10.);
#436=VECTOR('',#1493,10.);
#437=VECTOR('',#1496,10.);
#438=VECTOR('',#1497,10.);
#439=VECTOR('',#1500,10.);
#440=VECTOR('',#1501,10.);
#441=VECTOR('',#1504,10.);
#442=VECTOR('',#1505,10.);
#443=VECTOR('',#1506,10.);
#444=VECTOR('',#1509,10.);
#445=VECTOR('',#1510,10.);
#446=VECTOR('',#1513,10.);
#447=VECTOR('',#1514,10.);
#448=VECTOR('',#1521,10.);
#449=VECTOR('',#1522,10.);
#450=VECTOR('',#1523,10.);
#451=VECTOR('',#1528,1.5);
#452=VECTOR('',#1533,1.5);
#453=VECTOR('',#1536,10.);
#454=VECTOR('',#1537,10.);
#455=VECTOR('',#1538,10.);
#456=VECTOR('',#1541,10.);
#457=VECTOR('',#1542,10.);
#458=VECTOR('',#1543,10.);
#459=VECTOR('',#1546,10.);
#460=VECTOR('',#1547,10.);
#461=VECTOR('',#1548,10.);
#462=VECTOR('',#1551,10.);
#463=VECTOR('',#1552,10.);
#464=VECTOR('',#1553,10.);
#465=VECTOR('',#1556,10.);
#466=VECTOR('',#1557,10.);
#467=VECTOR('',#1562,10.);
#468=VECTOR('',#1563,10.);
#469=VECTOR('',#1564,10.);
#470=VECTOR('',#1569,10.);
#471=VECTOR('',#1570,10.);
#472=VECTOR('',#1571,10.);
#473=VECTOR('',#1574,10.);
#474=VECTOR('',#1575,10.);
#475=VECTOR('',#1580,10.);
#476=VECTOR('',#1581,10.);
#477=VECTOR('',#1582,10.);
#478=VECTOR('',#1583,10.);
#479=VECTOR('',#1588,10.);
#480=VECTOR('',#1597,10.);
#481=VECTOR('',#1600,10.);
#482=VECTOR('',#1605,10.);
#483=VECTOR('',#1606,10.);
#484=VECTOR('',#1607,10.);
#485=VECTOR('',#1616,10.);
#486=VECTOR('',#1617,10.);
#487=VECTOR('',#1620,10.);
#488=VECTOR('',#1629,2.);
#489=VECTOR('',#1636,10.);
#490=VECTOR('',#1637,10.);
#491=VECTOR('',#1640,10.);
#492=VECTOR('',#1641,10.);
#493=VECTOR('',#1644,10.);
#494=VECTOR('',#1645,10.);
#495=VECTOR('',#1646,10.);
#496=VECTOR('',#1649,10.);
#497=VECTOR('',#1654,10.);
#498=VECTOR('',#1655,10.);
#499=VECTOR('',#1656,10.);
#500=VECTOR('',#1657,10.);
#501=VECTOR('',#1660,2.);
#502=VECTOR('',#1667,10.);
#503=VECTOR('',#1668,10.);
#504=VECTOR('',#1669,10.);
#505=VECTOR('',#1672,10.);
#506=VECTOR('',#1673,10.);
#507=VECTOR('',#1676,10.);
#508=VECTOR('',#1683,1.5);
#509=VECTOR('',#1688,3.);
#510=VECTOR('',#1695,3.);
#511=VECTOR('',#1698,10.);
#512=VECTOR('',#1699,10.);
#513=VECTOR('',#1702,10.);
#514=VECTOR('',#1707,1.5);
#515=VECTOR('',#1710,10.);
#516=VECTOR('',#1711,10.);
#517=VECTOR('',#1712,10.);
#518=VECTOR('',#1715,10.);
#519=VECTOR('',#1716,10.);
#520=VECTOR('',#1717,10.);
#521=VECTOR('',#1720,10.);
#522=VERTEX_POINT('',#1727);
#523=VERTEX_POINT('',#1728);
#524=VERTEX_POINT('',#1730);
#525=VERTEX_POINT('',#1732);
#526=VERTEX_POINT('',#1736);
#527=VERTEX_POINT('',#1738);
#528=VERTEX_POINT('',#1740);
#529=VERTEX_POINT('',#1742);
#530=VERTEX_POINT('',#1744);
#531=VERTEX_POINT('',#1746);
#532=VERTEX_POINT('',#1748);
#533=VERTEX_POINT('',#1750);
#534=VERTEX_POINT('',#1752);
#535=VERTEX_POINT('',#1754);
#536=VERTEX_POINT('',#1756);
#537=VERTEX_POINT('',#1758);
#538=VERTEX_POINT('',#1760);
#539=VERTEX_POINT('',#1762);
#540=VERTEX_POINT('',#1764);
#541=VERTEX_POINT('',#1766);
#542=VERTEX_POINT('',#1768);
#543=VERTEX_POINT('',#1770);
#544=VERTEX_POINT('',#1772);
#545=VERTEX_POINT('',#1774);
#546=VERTEX_POINT('',#1776);
#547=VERTEX_POINT('',#1778);
#548=VERTEX_POINT('',#1780);
#549=VERTEX_POINT('',#1782);
#550=VERTEX_POINT('',#1785);
#551=VERTEX_POINT('',#1786);
#552=VERTEX_POINT('',#1788);
#553=VERTEX_POINT('',#1790);
#554=VERTEX_POINT('',#1793);
#555=VERTEX_POINT('',#1794);
#556=VERTEX_POINT('',#1796);
#557=VERTEX_POINT('',#1798);
#558=VERTEX_POINT('',#1802);
#559=VERTEX_POINT('',#1804);
#560=VERTEX_POINT('',#1808);
#561=VERTEX_POINT('',#1810);
#562=VERTEX_POINT('',#1812);
#563=VERTEX_POINT('',#1814);
#564=VERTEX_POINT('',#1816);
#565=VERTEX_POINT('',#1818);
#566=VERTEX_POINT('',#1820);
#567=VERTEX_POINT('',#1822);
#568=VERTEX_POINT('',#1824);
#569=VERTEX_POINT('',#1826);
#570=VERTEX_POINT('',#1828);
#571=VERTEX_POINT('',#1830);
#572=VERTEX_POINT('',#1835);
#573=VERTEX_POINT('',#1837);
#574=VERTEX_POINT('',#1841);
#575=VERTEX_POINT('',#1845);
#576=VERTEX_POINT('',#1847);
#577=VERTEX_POINT('',#1852);
#578=VERTEX_POINT('',#1856);
#579=VERTEX_POINT('',#1862);
#580=VERTEX_POINT('',#1865);
#581=VERTEX_POINT('',#1867);
#582=VERTEX_POINT('',#1871);
#583=VERTEX_POINT('',#1875);
#584=VERTEX_POINT('',#1879);
#585=VERTEX_POINT('',#1881);
#586=VERTEX_POINT('',#1885);
#587=VERTEX_POINT('',#1892);
#588=VERTEX_POINT('',#1895);
#589=VERTEX_POINT('',#1897);
#590=VERTEX_POINT('',#1901);
#591=VERTEX_POINT('',#1905);
#592=VERTEX_POINT('',#1909);
#593=VERTEX_POINT('',#1911);
#594=VERTEX_POINT('',#1915);
#595=VERTEX_POINT('',#1917);
#596=VERTEX_POINT('',#1921);
#597=VERTEX_POINT('',#1923);
#598=VERTEX_POINT('',#1927);
#599=VERTEX_POINT('',#1929);
#600=VERTEX_POINT('',#1937);
#601=VERTEX_POINT('',#1939);
#602=VERTEX_POINT('',#1942);
#603=VERTEX_POINT('',#1945);
#604=VERTEX_POINT('',#1947);
#605=VERTEX_POINT('',#1955);
#606=VERTEX_POINT('',#1956);
#607=VERTEX_POINT('',#1958);
#608=VERTEX_POINT('',#1960);
#609=VERTEX_POINT('',#1964);
#610=VERTEX_POINT('',#1966);
#611=VERTEX_POINT('',#1971);
#612=VERTEX_POINT('',#1972);
#613=VERTEX_POINT('',#1974);
#614=VERTEX_POINT('',#1976);
#615=VERTEX_POINT('',#1981);
#616=VERTEX_POINT('',#1985);
#617=VERTEX_POINT('',#1990);
#618=VERTEX_POINT('',#1998);
#619=VERTEX_POINT('',#2000);
#620=VERTEX_POINT('',#2008);
#621=VERTEX_POINT('',#2012);
#622=VERTEX_POINT('',#2014);
#623=VERTEX_POINT('',#2019);
#624=VERTEX_POINT('',#2021);
#625=VERTEX_POINT('',#2023);
#626=VERTEX_POINT('',#2024);
#627=VERTEX_POINT('',#2026);
#628=VERTEX_POINT('',#2028);
#629=VERTEX_POINT('',#2032);
#630=VERTEX_POINT('',#2037);
#631=VERTEX_POINT('',#2039);
#632=VERTEX_POINT('',#2043);
#633=VERTEX_POINT('',#2050);
#634=VERTEX_POINT('',#2054);
#635=VERTEX_POINT('',#2056);
#636=VERTEX_POINT('',#2060);
#637=VERTEX_POINT('',#2064);
#638=VERTEX_POINT('',#2070);
#639=VERTEX_POINT('',#2074);
#640=VERTEX_POINT('',#2076);
#641=VERTEX_POINT('',#2081);
#642=EDGE_CURVE('',#522,#523,#210,.T.);
#643=EDGE_CURVE('',#524,#522,#211,.T.);
#644=EDGE_CURVE('',#525,#524,#212,.T.);
#645=EDGE_CURVE('',#523,#525,#213,.T.);
#646=EDGE_CURVE('',#526,#523,#214,.T.);
#647=EDGE_CURVE('',#527,#525,#215,.T.);
#648=EDGE_CURVE('',#527,#528,#216,.T.);
#649=EDGE_CURVE('',#528,#529,#217,.T.);
#650=EDGE_CURVE('',#530,#529,#218,.T.);
#651=EDGE_CURVE('',#530,#531,#219,.T.);
#652=EDGE_CURVE('',#531,#532,#220,.T.);
#653=EDGE_CURVE('',#532,#533,#221,.T.);
#654=EDGE_CURVE('',#533,#534,#222,.T.);
#655=EDGE_CURVE('',#534,#535,#223,.T.);
#656=EDGE_CURVE('',#535,#536,#224,.T.);
#657=EDGE_CURVE('',#537,#536,#225,.T.);
#658=EDGE_CURVE('',#537,#538,#226,.T.);
#659=EDGE_CURVE('',#538,#539,#227,.T.);
#660=EDGE_CURVE('',#540,#539,#228,.T.);
#661=EDGE_CURVE('',#541,#540,#229,.T.);
#662=EDGE_CURVE('',#541,#542,#230,.T.);
#663=EDGE_CURVE('',#543,#542,#231,.T.);
#664=EDGE_CURVE('',#543,#544,#232,.T.);
#665=EDGE_CURVE('',#544,#545,#233,.T.);
#666=EDGE_CURVE('',#545,#546,#234,.T.);
#667=EDGE_CURVE('',#546,#547,#235,.T.);
#668=EDGE_CURVE('',#547,#548,#236,.T.);
#669=EDGE_CURVE('',#548,#549,#237,.T.);
#670=EDGE_CURVE('',#526,#549,#238,.T.);
#671=EDGE_CURVE('',#550,#551,#239,.T.);
#672=EDGE_CURVE('',#551,#552,#240,.T.);
#673=EDGE_CURVE('',#552,#553,#241,.T.);
#674=EDGE_CURVE('',#553,#550,#242,.T.);
#675=EDGE_CURVE('',#554,#555,#243,.T.);
#676=EDGE_CURVE('',#555,#556,#244,.T.);
#677=EDGE_CURVE('',#556,#557,#245,.T.);
#678=EDGE_CURVE('',#557,#554,#246,.T.);
#679=EDGE_CURVE('',#528,#558,#247,.T.);
#680=EDGE_CURVE('',#559,#527,#248,.T.);
#681=EDGE_CURVE('',#558,#559,#249,.T.);
#682=EDGE_CURVE('',#522,#560,#250,.T.);
#683=EDGE_CURVE('',#561,#560,#251,.T.);
#684=EDGE_CURVE('',#562,#561,#252,.T.);
#685=EDGE_CURVE('',#562,#563,#253,.T.);
#686=EDGE_CURVE('',#563,#564,#254,.T.);
#687=EDGE_CURVE('',#564,#565,#255,.T.);
#688=EDGE_CURVE('',#566,#565,#256,.T.);
#689=EDGE_CURVE('',#566,#567,#257,.T.);
#690=EDGE_CURVE('',#567,#568,#258,.T.);
#691=EDGE_CURVE('',#568,#569,#259,.T.);
#692=EDGE_CURVE('',#570,#569,#260,.T.);
#693=EDGE_CURVE('',#570,#571,#261,.T.);
#694=EDGE_CURVE('',#571,#558,#262,.T.);
#695=EDGE_CURVE('',#524,#559,#263,.T.);
#696=EDGE_CURVE('',#572,#533,#264,.T.);
#697=EDGE_CURVE('',#572,#573,#265,.T.);
#698=EDGE_CURVE('',#573,#534,#266,.T.);
#699=EDGE_CURVE('',#573,#574,#267,.T.);
#700=EDGE_CURVE('',#574,#535,#268,.T.);
#701=EDGE_CURVE('',#574,#575,#269,.T.);
#702=EDGE_CURVE('',#575,#576,#270,.T.);
#703=EDGE_CURVE('',#536,#576,#271,.T.);
#704=EDGE_CURVE('',#576,#530,#272,.T.);
#705=EDGE_CURVE('',#575,#577,#273,.T.);
#706=EDGE_CURVE('',#577,#531,#274,.T.);
#707=EDGE_CURVE('',#577,#578,#275,.T.);
#708=EDGE_CURVE('',#578,#532,#276,.T.);
#709=EDGE_CURVE('',#578,#572,#277,.T.);
#710=EDGE_CURVE('',#579,#579,#26,.T.);
#711=EDGE_CURVE('',#580,#545,#278,.T.);
#712=EDGE_CURVE('',#581,#580,#279,.T.);
#713=EDGE_CURVE('',#581,#546,#280,.T.);
#714=EDGE_CURVE('',#582,#581,#281,.T.);
#715=EDGE_CURVE('',#582,#547,#282,.T.);
#716=EDGE_CURVE('',#583,#582,#283,.T.);
#717=EDGE_CURVE('',#583,#548,#284,.T.);
#718=EDGE_CURVE('',#584,#583,#285,.T.);
#719=EDGE_CURVE('',#584,#585,#286,.T.);
#720=EDGE_CURVE('',#549,#585,#287,.T.);
#721=EDGE_CURVE('',#586,#544,#288,.T.);
#722=EDGE_CURVE('',#580,#586,#289,.T.);
#723=EDGE_CURVE('',#585,#543,#290,.T.);
#724=EDGE_CURVE('',#586,#584,#291,.T.);
#725=EDGE_CURVE('',#587,#587,#27,.T.);
#726=EDGE_CURVE('',#529,#588,#292,.T.);
#727=EDGE_CURVE('',#588,#589,#293,.T.);
#728=EDGE_CURVE('',#589,#537,#294,.F.);
#729=EDGE_CURVE('',#590,#590,#28,.T.);
#730=EDGE_CURVE('',#590,#579,#295,.T.);
#731=EDGE_CURVE('',#591,#591,#29,.T.);
#732=EDGE_CURVE('',#591,#587,#296,.T.);
#733=EDGE_CURVE('',#542,#592,#297,.F.);
#734=EDGE_CURVE('',#592,#593,#298,.T.);
#735=EDGE_CURVE('',#593,#526,#299,.T.);
#736=EDGE_CURVE('',#594,#592,#300,.T.);
#737=EDGE_CURVE('',#594,#595,#301,.T.);
#738=EDGE_CURVE('',#593,#595,#302,.T.);
#739=EDGE_CURVE('',#596,#570,#303,.T.);
#740=EDGE_CURVE('',#596,#597,#304,.T.);
#741=EDGE_CURVE('',#571,#597,#305,.T.);
#742=EDGE_CURVE('',#598,#588,#306,.T.);
#743=EDGE_CURVE('',#599,#598,#307,.T.);
#744=EDGE_CURVE('',#589,#599,#308,.T.);
#745=EDGE_CURVE('',#599,#596,#309,.T.);
#746=EDGE_CURVE('',#597,#598,#310,.T.);
#747=EDGE_CURVE('',#569,#600,#311,.T.);
#748=EDGE_CURVE('',#600,#601,#312,.T.);
#749=EDGE_CURVE('',#601,#538,#313,.T.);
#750=EDGE_CURVE('',#602,#602,#30,.T.);
#751=EDGE_CURVE('',#603,#560,#314,.T.);
#752=EDGE_CURVE('',#604,#603,#315,.T.);
#753=EDGE_CURVE('',#561,#604,#316,.T.);
#754=EDGE_CURVE('',#604,#594,#317,.T.);
#755=EDGE_CURVE('',#595,#603,#318,.T.);
#756=EDGE_CURVE('',#605,#606,#319,.T.);
#757=EDGE_CURVE('',#607,#605,#320,.T.);
#758=EDGE_CURVE('',#607,#608,#321,.T.);
#759=EDGE_CURVE('',#606,#608,#322,.T.);
#760=EDGE_CURVE('',#553,#609,#31,.T.);
#761=EDGE_CURVE('',#610,#609,#323,.T.);
#762=EDGE_CURVE('',#565,#610,#32,.T.);
#763=EDGE_CURVE('',#564,#550,#33,.T.);
#764=EDGE_CURVE('',#611,#612,#34,.T.);
#765=EDGE_CURVE('',#613,#611,#324,.T.);
#766=EDGE_CURVE('',#613,#614,#35,.T.);
#767=EDGE_CURVE('',#612,#614,#325,.T.);
#768=EDGE_CURVE('',#608,#552,#36,.T.);
#769=EDGE_CURVE('',#615,#607,#326,.T.);
#770=EDGE_CURVE('',#614,#615,#327,.T.);
#771=EDGE_CURVE('',#609,#613,#328,.T.);
#772=EDGE_CURVE('',#616,#616,#37,.T.);
#773=EDGE_CURVE('',#551,#563,#38,.T.);
#774=EDGE_CURVE('',#617,#605,#329,.T.);
#775=EDGE_CURVE('',#617,#615,#330,.T.);
#776=EDGE_CURVE('',#612,#617,#331,.T.);
#777=EDGE_CURVE('',#606,#562,#39,.T.);
#778=EDGE_CURVE('',#618,#618,#40,.T.);
#779=EDGE_CURVE('',#618,#619,#332,.T.);
#780=EDGE_CURVE('',#619,#619,#41,.T.);
#781=EDGE_CURVE('',#555,#567,#333,.T.);
#782=EDGE_CURVE('',#568,#554,#334,.T.);
#783=EDGE_CURVE('',#557,#620,#335,.T.);
#784=EDGE_CURVE('',#600,#620,#336,.T.);
#785=EDGE_CURVE('',#621,#566,#337,.T.);
#786=EDGE_CURVE('',#622,#621,#338,.T.);
#787=EDGE_CURVE('',#622,#556,#339,.T.);
#788=EDGE_CURVE('',#620,#622,#340,.T.);
#789=EDGE_CURVE('',#623,#623,#42,.T.);
#790=EDGE_CURVE('',#624,#624,#43,.T.);
#791=EDGE_CURVE('',#625,#626,#341,.T.);
#792=EDGE_CURVE('',#627,#625,#342,.T.);
#793=EDGE_CURVE('',#628,#627,#343,.T.);
#794=EDGE_CURVE('',#626,#628,#344,.T.);
#795=EDGE_CURVE('',#602,#629,#345,.T.);
#796=EDGE_CURVE('',#629,#629,#44,.T.);
#797=EDGE_CURVE('',#628,#630,#346,.T.);
#798=EDGE_CURVE('',#631,#630,#347,.T.);
#799=EDGE_CURVE('',#626,#631,#348,.T.);
#800=EDGE_CURVE('',#627,#632,#349,.T.);
#801=EDGE_CURVE('',#630,#632,#350,.T.);
#802=EDGE_CURVE('',#610,#621,#351,.T.);
#803=EDGE_CURVE('',#633,#633,#45,.T.);
#804=EDGE_CURVE('',#633,#624,#352,.T.);
#805=EDGE_CURVE('',#634,#634,#46,.T.);
#806=EDGE_CURVE('',#634,#635,#353,.T.);
#807=EDGE_CURVE('',#635,#635,#47,.T.);
#808=EDGE_CURVE('',#636,#636,#48,.T.);
#809=EDGE_CURVE('',#636,#616,#354,.T.);
#810=EDGE_CURVE('',#625,#637,#355,.T.);
#811=EDGE_CURVE('',#632,#637,#356,.T.);
#812=EDGE_CURVE('',#637,#631,#357,.T.);
#813=EDGE_CURVE('',#638,#638,#49,.T.);
#814=EDGE_CURVE('',#638,#623,#358,.T.);
#815=EDGE_CURVE('',#541,#639,#359,.T.);
#816=EDGE_CURVE('',#640,#540,#360,.T.);
#817=EDGE_CURVE('',#639,#640,#361,.T.);
#818=EDGE_CURVE('',#639,#611,#362,.T.);
#819=EDGE_CURVE('',#641,#640,#363,.T.);
#820=EDGE_CURVE('',#601,#641,#364,.T.);
#821=EDGE_CURVE('',#539,#641,#365,.T.);
#822=ORIENTED_EDGE('',*,*,#642,.F.);
#823=ORIENTED_EDGE('',*,*,#643,.F.);
#824=ORIENTED_EDGE('',*,*,#644,.F.);
#825=ORIENTED_EDGE('',*,*,#645,.F.);
#826=ORIENTED_EDGE('',*,*,#646,.T.);
#827=ORIENTED_EDGE('',*,*,#645,.T.);
#828=ORIENTED_EDGE('',*,*,#647,.F.);
#829=ORIENTED_EDGE('',*,*,#648,.T.);
#830=ORIENTED_EDGE('',*,*,#649,.T.);
#831=ORIENTED_EDGE('',*,*,#650,.F.);
#832=ORIENTED_EDGE('',*,*,#651,.T.);
#833=ORIENTED_EDGE('',*,*,#652,.T.);
#834=ORIENTED_EDGE('',*,*,#653,.T.);
#835=ORIENTED_EDGE('',*,*,#654,.T.);
#836=ORIENTED_EDGE('',*,*,#655,.T.);
#837=ORIENTED_EDGE('',*,*,#656,.T.);
#838=ORIENTED_EDGE('',*,*,#657,.F.);
#839=ORIENTED_EDGE('',*,*,#658,.T.);
#840=ORIENTED_EDGE('',*,*,#659,.T.);
#841=ORIENTED_EDGE('',*,*,#660,.F.);
#842=ORIENTED_EDGE('',*,*,#661,.F.);
#843=ORIENTED_EDGE('',*,*,#662,.T.);
#844=ORIENTED_EDGE('',*,*,#663,.F.);
#845=ORIENTED_EDGE('',*,*,#664,.T.);
#846=ORIENTED_EDGE('',*,*,#665,.T.);
#847=ORIENTED_EDGE('',*,*,#666,.T.);
#848=ORIENTED_EDGE('',*,*,#667,.T.);
#849=ORIENTED_EDGE('',*,*,#668,.T.);
#850=ORIENTED_EDGE('',*,*,#669,.T.);
#851=ORIENTED_EDGE('',*,*,#670,.F.);
#852=ORIENTED_EDGE('',*,*,#671,.T.);
#853=ORIENTED_EDGE('',*,*,#672,.T.);
#854=ORIENTED_EDGE('',*,*,#673,.T.);
#855=ORIENTED_EDGE('',*,*,#674,.T.);
#856=ORIENTED_EDGE('',*,*,#675,.T.);
#857=ORIENTED_EDGE('',*,*,#676,.T.);
#858=ORIENTED_EDGE('',*,*,#677,.T.);
#859=ORIENTED_EDGE('',*,*,#678,.T.);
#860=ORIENTED_EDGE('',*,*,#679,.F.);
#861=ORIENTED_EDGE('',*,*,#648,.F.);
#862=ORIENTED_EDGE('',*,*,#680,.F.);
#863=ORIENTED_EDGE('',*,*,#681,.F.);
#864=ORIENTED_EDGE('',*,*,#682,.T.);
#865=ORIENTED_EDGE('',*,*,#683,.F.);
#866=ORIENTED_EDGE('',*,*,#684,.F.);
#867=ORIENTED_EDGE('',*,*,#685,.T.);
#868=ORIENTED_EDGE('',*,*,#686,.T.);
#869=ORIENTED_EDGE('',*,*,#687,.T.);
#870=ORIENTED_EDGE('',*,*,#688,.F.);
#871=ORIENTED_EDGE('',*,*,#689,.T.);
#872=ORIENTED_EDGE('',*,*,#690,.T.);
#873=ORIENTED_EDGE('',*,*,#691,.T.);
#874=ORIENTED_EDGE('',*,*,#692,.F.);
#875=ORIENTED_EDGE('',*,*,#693,.T.);
#876=ORIENTED_EDGE('',*,*,#694,.T.);
#877=ORIENTED_EDGE('',*,*,#681,.T.);
#878=ORIENTED_EDGE('',*,*,#695,.F.);
#879=ORIENTED_EDGE('',*,*,#643,.T.);
#880=ORIENTED_EDGE('',*,*,#654,.F.);
#881=ORIENTED_EDGE('',*,*,#696,.F.);
#882=ORIENTED_EDGE('',*,*,#697,.T.);
#883=ORIENTED_EDGE('',*,*,#698,.T.);
#884=ORIENTED_EDGE('',*,*,#655,.F.);
#885=ORIENTED_EDGE('',*,*,#698,.F.);
#886=ORIENTED_EDGE('',*,*,#699,.T.);
#887=ORIENTED_EDGE('',*,*,#700,.T.);
#888=ORIENTED_EDGE('',*,*,#656,.F.);
#889=ORIENTED_EDGE('',*,*,#700,.F.);
#890=ORIENTED_EDGE('',*,*,#701,.T.);
#891=ORIENTED_EDGE('',*,*,#702,.T.);
#892=ORIENTED_EDGE('',*,*,#703,.F.);
#893=ORIENTED_EDGE('',*,*,#651,.F.);
#894=ORIENTED_EDGE('',*,*,#704,.F.);
#895=ORIENTED_EDGE('',*,*,#702,.F.);
#896=ORIENTED_EDGE('',*,*,#705,.T.);
#897=ORIENTED_EDGE('',*,*,#706,.T.);
#898=ORIENTED_EDGE('',*,*,#652,.F.);
#899=ORIENTED_EDGE('',*,*,#706,.F.);
#900=ORIENTED_EDGE('',*,*,#707,.T.);
#901=ORIENTED_EDGE('',*,*,#708,.T.);
#902=ORIENTED_EDGE('',*,*,#653,.F.);
#903=ORIENTED_EDGE('',*,*,#708,.F.);
#904=ORIENTED_EDGE('',*,*,#709,.T.);
#905=ORIENTED_EDGE('',*,*,#696,.T.);
#906=ORIENTED_EDGE('',*,*,#701,.F.);
#907=ORIENTED_EDGE('',*,*,#699,.F.);
#908=ORIENTED_EDGE('',*,*,#697,.F.);
#909=ORIENTED_EDGE('',*,*,#709,.F.);
#910=ORIENTED_EDGE('',*,*,#707,.F.);
#911=ORIENTED_EDGE('',*,*,#705,.F.);
#912=ORIENTED_EDGE('',*,*,#710,.F.);
#913=ORIENTED_EDGE('',*,*,#666,.F.);
#914=ORIENTED_EDGE('',*,*,#711,.F.);
#915=ORIENTED_EDGE('',*,*,#712,.F.);
#916=ORIENTED_EDGE('',*,*,#713,.T.);
#917=ORIENTED_EDGE('',*,*,#667,.F.);
#918=ORIENTED_EDGE('',*,*,#713,.F.);
#919=ORIENTED_EDGE('',*,*,#714,.F.);
#920=ORIENTED_EDGE('',*,*,#715,.T.);
#921=ORIENTED_EDGE('',*,*,#668,.F.);
#922=ORIENTED_EDGE('',*,*,#715,.F.);
#923=ORIENTED_EDGE('',*,*,#716,.F.);
#924=ORIENTED_EDGE('',*,*,#717,.T.);
#925=ORIENTED_EDGE('',*,*,#669,.F.);
#926=ORIENTED_EDGE('',*,*,#717,.F.);
#927=ORIENTED_EDGE('',*,*,#718,.F.);
#928=ORIENTED_EDGE('',*,*,#719,.T.);
#929=ORIENTED_EDGE('',*,*,#720,.F.);
#930=ORIENTED_EDGE('',*,*,#665,.F.);
#931=ORIENTED_EDGE('',*,*,#721,.F.);
#932=ORIENTED_EDGE('',*,*,#722,.F.);
#933=ORIENTED_EDGE('',*,*,#711,.T.);
#934=ORIENTED_EDGE('',*,*,#664,.F.);
#935=ORIENTED_EDGE('',*,*,#723,.F.);
#936=ORIENTED_EDGE('',*,*,#719,.F.);
#937=ORIENTED_EDGE('',*,*,#724,.F.);
#938=ORIENTED_EDGE('',*,*,#721,.T.);
#939=ORIENTED_EDGE('',*,*,#724,.T.);
#940=ORIENTED_EDGE('',*,*,#718,.T.);
#941=ORIENTED_EDGE('',*,*,#716,.T.);
#942=ORIENTED_EDGE('',*,*,#714,.T.);
#943=ORIENTED_EDGE('',*,*,#712,.T.);
#944=ORIENTED_EDGE('',*,*,#722,.T.);
#945=ORIENTED_EDGE('',*,*,#725,.F.);
#946=ORIENTED_EDGE('',*,*,#703,.T.);
#947=ORIENTED_EDGE('',*,*,#704,.T.);
#948=ORIENTED_EDGE('',*,*,#650,.T.);
#949=ORIENTED_EDGE('',*,*,#726,.T.);
#950=ORIENTED_EDGE('',*,*,#727,.T.);
#951=ORIENTED_EDGE('',*,*,#728,.T.);
#952=ORIENTED_EDGE('',*,*,#657,.T.);
#953=ORIENTED_EDGE('',*,*,#729,.F.);
#954=ORIENTED_EDGE('',*,*,#730,.T.);
#955=ORIENTED_EDGE('',*,*,#710,.T.);
#956=ORIENTED_EDGE('',*,*,#730,.F.);
#957=ORIENTED_EDGE('',*,*,#731,.F.);
#958=ORIENTED_EDGE('',*,*,#732,.T.);
#959=ORIENTED_EDGE('',*,*,#725,.T.);
#960=ORIENTED_EDGE('',*,*,#732,.F.);
#961=ORIENTED_EDGE('',*,*,#723,.T.);
#962=ORIENTED_EDGE('',*,*,#663,.T.);
#963=ORIENTED_EDGE('',*,*,#733,.T.);
#964=ORIENTED_EDGE('',*,*,#734,.T.);
#965=ORIENTED_EDGE('',*,*,#735,.T.);
#966=ORIENTED_EDGE('',*,*,#670,.T.);
#967=ORIENTED_EDGE('',*,*,#720,.T.);
#968=ORIENTED_EDGE('',*,*,#734,.F.);
#969=ORIENTED_EDGE('',*,*,#736,.F.);
#970=ORIENTED_EDGE('',*,*,#737,.T.);
#971=ORIENTED_EDGE('',*,*,#738,.F.);
#972=ORIENTED_EDGE('',*,*,#693,.F.);
#973=ORIENTED_EDGE('',*,*,#739,.F.);
#974=ORIENTED_EDGE('',*,*,#740,.T.);
#975=ORIENTED_EDGE('',*,*,#741,.F.);
#976=ORIENTED_EDGE('',*,*,#727,.F.);
#977=ORIENTED_EDGE('',*,*,#742,.F.);
#978=ORIENTED_EDGE('',*,*,#743,.F.);
#979=ORIENTED_EDGE('',*,*,#744,.F.);
#980=ORIENTED_EDGE('',*,*,#745,.F.);
#981=ORIENTED_EDGE('',*,*,#743,.T.);
#982=ORIENTED_EDGE('',*,*,#746,.F.);
#983=ORIENTED_EDGE('',*,*,#740,.F.);
#984=ORIENTED_EDGE('',*,*,#729,.T.);
#985=ORIENTED_EDGE('',*,*,#726,.F.);
#986=ORIENTED_EDGE('',*,*,#649,.F.);
#987=ORIENTED_EDGE('',*,*,#679,.T.);
#988=ORIENTED_EDGE('',*,*,#694,.F.);
#989=ORIENTED_EDGE('',*,*,#741,.T.);
#990=ORIENTED_EDGE('',*,*,#746,.T.);
#991=ORIENTED_EDGE('',*,*,#742,.T.);
#992=ORIENTED_EDGE('',*,*,#744,.T.);
#993=ORIENTED_EDGE('',*,*,#745,.T.);
#994=ORIENTED_EDGE('',*,*,#739,.T.);
#995=ORIENTED_EDGE('',*,*,#692,.T.);
#996=ORIENTED_EDGE('',*,*,#747,.T.);
#997=ORIENTED_EDGE('',*,*,#748,.T.);
#998=ORIENTED_EDGE('',*,*,#749,.T.);
#999=ORIENTED_EDGE('',*,*,#658,.F.);
#1000=ORIENTED_EDGE('',*,*,#728,.F.);
#1001=ORIENTED_EDGE('',*,*,#750,.T.);
#1002=ORIENTED_EDGE('',*,*,#683,.T.);
#1003=ORIENTED_EDGE('',*,*,#751,.F.);
#1004=ORIENTED_EDGE('',*,*,#752,.F.);
#1005=ORIENTED_EDGE('',*,*,#753,.F.);
#1006=ORIENTED_EDGE('',*,*,#754,.F.);
#1007=ORIENTED_EDGE('',*,*,#752,.T.);
#1008=ORIENTED_EDGE('',*,*,#755,.F.);
#1009=ORIENTED_EDGE('',*,*,#737,.F.);
#1010=ORIENTED_EDGE('',*,*,#731,.T.);
#1011=ORIENTED_EDGE('',*,*,#735,.F.);
#1012=ORIENTED_EDGE('',*,*,#738,.T.);
#1013=ORIENTED_EDGE('',*,*,#755,.T.);
#1014=ORIENTED_EDGE('',*,*,#751,.T.);
#1015=ORIENTED_EDGE('',*,*,#682,.F.);
#1016=ORIENTED_EDGE('',*,*,#642,.T.);
#1017=ORIENTED_EDGE('',*,*,#646,.F.);
#1018=ORIENTED_EDGE('',*,*,#756,.F.);
#1019=ORIENTED_EDGE('',*,*,#757,.F.);
#1020=ORIENTED_EDGE('',*,*,#758,.T.);
#1021=ORIENTED_EDGE('',*,*,#759,.F.);
#1022=ORIENTED_EDGE('',*,*,#674,.F.);
#1023=ORIENTED_EDGE('',*,*,#760,.T.);
#1024=ORIENTED_EDGE('',*,*,#761,.F.);
#1025=ORIENTED_EDGE('',*,*,#762,.F.);
#1026=ORIENTED_EDGE('',*,*,#687,.F.);
#1027=ORIENTED_EDGE('',*,*,#763,.T.);
#1028=ORIENTED_EDGE('',*,*,#764,.F.);
#1029=ORIENTED_EDGE('',*,*,#765,.F.);
#1030=ORIENTED_EDGE('',*,*,#766,.T.);
#1031=ORIENTED_EDGE('',*,*,#767,.F.);
#1032=ORIENTED_EDGE('',*,*,#673,.F.);
#1033=ORIENTED_EDGE('',*,*,#768,.F.);
#1034=ORIENTED_EDGE('',*,*,#758,.F.);
#1035=ORIENTED_EDGE('',*,*,#769,.F.);
#1036=ORIENTED_EDGE('',*,*,#770,.F.);
#1037=ORIENTED_EDGE('',*,*,#766,.F.);
#1038=ORIENTED_EDGE('',*,*,#771,.F.);
#1039=ORIENTED_EDGE('',*,*,#760,.F.);
#1040=ORIENTED_EDGE('',*,*,#772,.F.);
#1041=ORIENTED_EDGE('',*,*,#671,.F.);
#1042=ORIENTED_EDGE('',*,*,#763,.F.);
#1043=ORIENTED_EDGE('',*,*,#686,.F.);
#1044=ORIENTED_EDGE('',*,*,#773,.F.);
#1045=ORIENTED_EDGE('',*,*,#774,.F.);
#1046=ORIENTED_EDGE('',*,*,#775,.T.);
#1047=ORIENTED_EDGE('',*,*,#769,.T.);
#1048=ORIENTED_EDGE('',*,*,#757,.T.);
#1049=ORIENTED_EDGE('',*,*,#776,.F.);
#1050=ORIENTED_EDGE('',*,*,#767,.T.);
#1051=ORIENTED_EDGE('',*,*,#770,.T.);
#1052=ORIENTED_EDGE('',*,*,#775,.F.);
#1053=ORIENTED_EDGE('',*,*,#672,.F.);
#1054=ORIENTED_EDGE('',*,*,#773,.T.);
#1055=ORIENTED_EDGE('',*,*,#685,.F.);
#1056=ORIENTED_EDGE('',*,*,#777,.F.);
#1057=ORIENTED_EDGE('',*,*,#759,.T.);
#1058=ORIENTED_EDGE('',*,*,#768,.T.);
#1059=ORIENTED_EDGE('',*,*,#778,.F.);
#1060=ORIENTED_EDGE('',*,*,#779,.T.);
#1061=ORIENTED_EDGE('',*,*,#780,.T.);
#1062=ORIENTED_EDGE('',*,*,#779,.F.);
#1063=ORIENTED_EDGE('',*,*,#780,.F.);
#1064=ORIENTED_EDGE('',*,*,#690,.F.);
#1065=ORIENTED_EDGE('',*,*,#781,.F.);
#1066=ORIENTED_EDGE('',*,*,#675,.F.);
#1067=ORIENTED_EDGE('',*,*,#782,.F.);
#1068=ORIENTED_EDGE('',*,*,#691,.F.);
#1069=ORIENTED_EDGE('',*,*,#782,.T.);
#1070=ORIENTED_EDGE('',*,*,#678,.F.);
#1071=ORIENTED_EDGE('',*,*,#783,.T.);
#1072=ORIENTED_EDGE('',*,*,#784,.F.);
#1073=ORIENTED_EDGE('',*,*,#747,.F.);
#1074=ORIENTED_EDGE('',*,*,#689,.F.);
#1075=ORIENTED_EDGE('',*,*,#785,.F.);
#1076=ORIENTED_EDGE('',*,*,#786,.F.);
#1077=ORIENTED_EDGE('',*,*,#787,.T.);
#1078=ORIENTED_EDGE('',*,*,#676,.F.);
#1079=ORIENTED_EDGE('',*,*,#781,.T.);
#1080=ORIENTED_EDGE('',*,*,#677,.F.);
#1081=ORIENTED_EDGE('',*,*,#787,.F.);
#1082=ORIENTED_EDGE('',*,*,#788,.F.);
#1083=ORIENTED_EDGE('',*,*,#783,.F.);
#1084=ORIENTED_EDGE('',*,*,#789,.F.);
#1085=ORIENTED_EDGE('',*,*,#790,.F.);
#1086=ORIENTED_EDGE('',*,*,#791,.F.);
#1087=ORIENTED_EDGE('',*,*,#792,.F.);
#1088=ORIENTED_EDGE('',*,*,#793,.F.);
#1089=ORIENTED_EDGE('',*,*,#794,.F.);
#1090=ORIENTED_EDGE('',*,*,#750,.F.);
#1091=ORIENTED_EDGE('',*,*,#795,.T.);
#1092=ORIENTED_EDGE('',*,*,#796,.T.);
#1093=ORIENTED_EDGE('',*,*,#795,.F.);
#1094=ORIENTED_EDGE('',*,*,#796,.F.);
#1095=ORIENTED_EDGE('',*,*,#794,.T.);
#1096=ORIENTED_EDGE('',*,*,#797,.T.);
#1097=ORIENTED_EDGE('',*,*,#798,.F.);
#1098=ORIENTED_EDGE('',*,*,#799,.F.);
#1099=ORIENTED_EDGE('',*,*,#793,.T.);
#1100=ORIENTED_EDGE('',*,*,#800,.T.);
#1101=ORIENTED_EDGE('',*,*,#801,.F.);
#1102=ORIENTED_EDGE('',*,*,#797,.F.);
#1103=ORIENTED_EDGE('',*,*,#762,.T.);
#1104=ORIENTED_EDGE('',*,*,#802,.T.);
#1105=ORIENTED_EDGE('',*,*,#785,.T.);
#1106=ORIENTED_EDGE('',*,*,#688,.T.);
#1107=ORIENTED_EDGE('',*,*,#644,.T.);
#1108=ORIENTED_EDGE('',*,*,#695,.T.);
#1109=ORIENTED_EDGE('',*,*,#680,.T.);
#1110=ORIENTED_EDGE('',*,*,#647,.T.);
#1111=ORIENTED_EDGE('',*,*,#803,.F.);
#1112=ORIENTED_EDGE('',*,*,#804,.T.);
#1113=ORIENTED_EDGE('',*,*,#790,.T.);
#1114=ORIENTED_EDGE('',*,*,#804,.F.);
#1115=ORIENTED_EDGE('',*,*,#805,.F.);
#1116=ORIENTED_EDGE('',*,*,#806,.T.);
#1117=ORIENTED_EDGE('',*,*,#807,.T.);
#1118=ORIENTED_EDGE('',*,*,#806,.F.);
#1119=ORIENTED_EDGE('',*,*,#808,.F.);
#1120=ORIENTED_EDGE('',*,*,#809,.T.);
#1121=ORIENTED_EDGE('',*,*,#772,.T.);
#1122=ORIENTED_EDGE('',*,*,#809,.F.);
#1123=ORIENTED_EDGE('',*,*,#792,.T.);
#1124=ORIENTED_EDGE('',*,*,#810,.T.);
#1125=ORIENTED_EDGE('',*,*,#811,.F.);
#1126=ORIENTED_EDGE('',*,*,#800,.F.);
#1127=ORIENTED_EDGE('',*,*,#791,.T.);
#1128=ORIENTED_EDGE('',*,*,#799,.T.);
#1129=ORIENTED_EDGE('',*,*,#812,.F.);
#1130=ORIENTED_EDGE('',*,*,#810,.F.);
#1131=ORIENTED_EDGE('',*,*,#813,.F.);
#1132=ORIENTED_EDGE('',*,*,#814,.T.);
#1133=ORIENTED_EDGE('',*,*,#789,.T.);
#1134=ORIENTED_EDGE('',*,*,#814,.F.);
#1135=ORIENTED_EDGE('',*,*,#815,.F.);
#1136=ORIENTED_EDGE('',*,*,#661,.T.);
#1137=ORIENTED_EDGE('',*,*,#816,.F.);
#1138=ORIENTED_EDGE('',*,*,#817,.F.);
#1139=ORIENTED_EDGE('',*,*,#765,.T.);
#1140=ORIENTED_EDGE('',*,*,#818,.F.);
#1141=ORIENTED_EDGE('',*,*,#817,.T.);
#1142=ORIENTED_EDGE('',*,*,#819,.F.);
#1143=ORIENTED_EDGE('',*,*,#820,.F.);
#1144=ORIENTED_EDGE('',*,*,#748,.F.);
#1145=ORIENTED_EDGE('',*,*,#784,.T.);
#1146=ORIENTED_EDGE('',*,*,#788,.T.);
#1147=ORIENTED_EDGE('',*,*,#786,.T.);
#1148=ORIENTED_EDGE('',*,*,#802,.F.);
#1149=ORIENTED_EDGE('',*,*,#761,.T.);
#1150=ORIENTED_EDGE('',*,*,#771,.T.);
#1151=ORIENTED_EDGE('',*,*,#749,.F.);
#1152=ORIENTED_EDGE('',*,*,#820,.T.);
#1153=ORIENTED_EDGE('',*,*,#821,.F.);
#1154=ORIENTED_EDGE('',*,*,#659,.F.);
#1155=ORIENTED_EDGE('',*,*,#660,.T.);
#1156=ORIENTED_EDGE('',*,*,#821,.T.);
#1157=ORIENTED_EDGE('',*,*,#819,.T.);
#1158=ORIENTED_EDGE('',*,*,#816,.T.);
#1159=ORIENTED_EDGE('',*,*,#813,.T.);
#1160=ORIENTED_EDGE('',*,*,#812,.T.);
#1161=ORIENTED_EDGE('',*,*,#798,.T.);
#1162=ORIENTED_EDGE('',*,*,#801,.T.);
#1163=ORIENTED_EDGE('',*,*,#811,.T.);
#1164=ORIENTED_EDGE('',*,*,#808,.T.);
#1165=ORIENTED_EDGE('',*,*,#805,.T.);
#1166=ORIENTED_EDGE('',*,*,#803,.T.);
#1167=ORIENTED_EDGE('',*,*,#736,.T.);
#1168=ORIENTED_EDGE('',*,*,#733,.F.);
#1169=ORIENTED_EDGE('',*,*,#662,.F.);
#1170=ORIENTED_EDGE('',*,*,#815,.T.);
#1171=ORIENTED_EDGE('',*,*,#818,.T.);
#1172=ORIENTED_EDGE('',*,*,#764,.T.);
#1173=ORIENTED_EDGE('',*,*,#776,.T.);
#1174=ORIENTED_EDGE('',*,*,#774,.T.);
#1175=ORIENTED_EDGE('',*,*,#756,.T.);
#1176=ORIENTED_EDGE('',*,*,#777,.T.);
#1177=ORIENTED_EDGE('',*,*,#684,.T.);
#1178=ORIENTED_EDGE('',*,*,#753,.T.);
#1179=ORIENTED_EDGE('',*,*,#754,.T.);
#1180=ORIENTED_EDGE('',*,*,#778,.T.);
#1181=ORIENTED_EDGE('',*,*,#807,.F.);
#1182=PLANE('',#1309);
#1183=PLANE('',#1310);
#1184=PLANE('',#1311);
#1185=PLANE('',#1312);
#1186=PLANE('',#1313);
#1187=PLANE('',#1314);
#1188=PLANE('',#1315);
#1189=PLANE('',#1316);
#1190=PLANE('',#1317);
#1191=PLANE('',#1318);
#1192=PLANE('',#1319);
#1193=PLANE('',#1321);
#1194=PLANE('',#1322);
#1195=PLANE('',#1323);
#1196=PLANE('',#1324);
#1197=PLANE('',#1325);
#1198=PLANE('',#1326);
#1199=PLANE('',#1327);
#1200=PLANE('',#1329);
#1201=PLANE('',#1334);
#1202=PLANE('',#1335);
#1203=PLANE('',#1336);
#1204=PLANE('',#1337);
#1205=PLANE('',#1338);
#1206=PLANE('',#1339);
#1207=PLANE('',#1340);
#1208=PLANE('',#1342);
#1209=PLANE('',#1343);
#1210=PLANE('',#1344);
#1211=PLANE('',#1345);
#1212=PLANE('',#1353);
#1213=PLANE('',#1356);
#1214=PLANE('',#1358);
#1215=PLANE('',#1359);
#1216=PLANE('',#1365);
#1217=PLANE('',#1366);
#1218=PLANE('',#1367);
#1219=PLANE('',#1368);
#1220=PLANE('',#1369);
#1221=PLANE('',#1374);
#1222=PLANE('',#1375);
#1223=PLANE('',#1376);
#1224=PLANE('',#1377);
#1225=PLANE('',#1378);
#1226=PLANE('',#1386);
#1227=PLANE('',#1387);
#1228=PLANE('',#1390);
#1229=PLANE('',#1391);
#1230=PLANE('',#1392);
#1231=PLANE('',#1393);
#1232=PLANE('',#1394);
#1233=ADVANCED_FACE('',(#68),#1182,.F.);
#1234=ADVANCED_FACE('',(#69,#50,#51),#1183,.T.);
#1235=ADVANCED_FACE('',(#70),#1184,.F.);
#1236=ADVANCED_FACE('',(#71),#1185,.T.);
#1237=ADVANCED_FACE('',(#72),#1186,.F.);
#1238=ADVANCED_FACE('',(#73),#1187,.F.);
#1239=ADVANCED_FACE('',(#74),#1188,.F.);
#1240=ADVANCED_FACE('',(#75),#1189,.F.);
#1241=ADVANCED_FACE('',(#76),#1190,.F.);
#1242=ADVANCED_FACE('',(#77),#1191,.F.);
#1243=ADVANCED_FACE('',(#78,#52),#1192,.F.);
#1244=ADVANCED_FACE('',(#79),#1193,.F.);
#1245=ADVANCED_FACE('',(#80),#1194,.F.);
#1246=ADVANCED_FACE('',(#81),#1195,.F.);
#1247=ADVANCED_FACE('',(#82),#1196,.F.);
#1248=ADVANCED_FACE('',(#83),#1197,.F.);
#1249=ADVANCED_FACE('',(#84),#1198,.F.);
#1250=ADVANCED_FACE('',(#85,#53),#1199,.F.);
#1251=ADVANCED_FACE('',(#86),#1200,.T.);
#1252=ADVANCED_FACE('',(#87),#15,.F.);
#1253=ADVANCED_FACE('',(#88),#16,.F.);
#1254=ADVANCED_FACE('',(#89),#1201,.T.);
#1255=ADVANCED_FACE('',(#90),#1202,.T.);
#1256=ADVANCED_FACE('',(#91),#1203,.T.);
#1257=ADVANCED_FACE('',(#92),#1204,.T.);
#1258=ADVANCED_FACE('',(#93,#54),#1205,.T.);
#1259=ADVANCED_FACE('',(#94),#1206,.T.);
#1260=ADVANCED_FACE('',(#95,#55),#1207,.F.);
#1261=ADVANCED_FACE('',(#96),#1208,.T.);
#1262=ADVANCED_FACE('',(#97,#56),#1209,.T.);
#1263=ADVANCED_FACE('',(#98),#1210,.T.);
#1264=ADVANCED_FACE('',(#99),#1211,.F.);
#1265=ADVANCED_FACE('',(#100),#17,.F.);
#1266=ADVANCED_FACE('',(#101),#18,.F.);
#1267=ADVANCED_FACE('',(#102,#57),#1212,.F.);
#1268=ADVANCED_FACE('',(#103),#1213,.T.);
#1269=ADVANCED_FACE('',(#104),#1214,.F.);
#1270=ADVANCED_FACE('',(#105),#1215,.F.);
#1271=ADVANCED_FACE('',(#106),#19,.F.);
#1272=ADVANCED_FACE('',(#107),#20,.F.);
#1273=ADVANCED_FACE('',(#108),#1216,.F.);
#1274=ADVANCED_FACE('',(#109),#1217,.T.);
#1275=ADVANCED_FACE('',(#110),#1218,.F.);
#1276=ADVANCED_FACE('',(#111),#1219,.F.);
#1277=ADVANCED_FACE('',(#112,#58,#59,#60),#1220,.F.);
#1278=ADVANCED_FACE('',(#113),#21,.F.);
#1279=ADVANCED_FACE('',(#114),#1221,.F.);
#1280=ADVANCED_FACE('',(#115),#1222,.T.);
#1281=ADVANCED_FACE('',(#116),#1223,.T.);
#1282=ADVANCED_FACE('',(#117),#1224,.F.);
#1283=ADVANCED_FACE('',(#118),#1225,.T.);
#1284=ADVANCED_FACE('',(#119),#22,.F.);
#1285=ADVANCED_FACE('',(#120),#23,.F.);
#1286=ADVANCED_FACE('',(#121),#24,.F.);
#1287=ADVANCED_FACE('',(#122),#1226,.T.);
#1288=ADVANCED_FACE('',(#123),#1227,.T.);
#1289=ADVANCED_FACE('',(#124),#25,.F.);
#1290=ADVANCED_FACE('',(#125),#1228,.T.);
#1291=ADVANCED_FACE('',(#126),#1229,.T.);
#1292=ADVANCED_FACE('',(#127),#1230,.T.);
#1293=ADVANCED_FACE('',(#128,#61,#62,#63,#64,#65),#1231,.T.);
#1294=ADVANCED_FACE('',(#129,#66,#67),#1232,.F.);
#1295=CLOSED_SHELL('',(#1233,#1234,#1235,#1236,#1237,#1238,#1239,#1240,
#1241,#1242,#1243,#1244,#1245,#1246,#1247,#1248,#1249,#1250,#1251,#1252,
#1253,#1254,#1255,#1256,#1257,#1258,#1259,#1260,#1261,#1262,#1263,#1264,
#1265,#1266,#1267,#1268,#1269,#1270,#1271,#1272,#1273,#1274,#1275,#1276,
#1277,#1278,#1279,#1280,#1281,#1282,#1283,#1284,#1285,#1286,#1287,#1288,
#1289,#1290,#1291,#1292,#1293,#1294));
#1296=DERIVED_UNIT_ELEMENT(#1298,1.);
#1297=DERIVED_UNIT_ELEMENT(#2093,-3.);
#1298=(
MASS_UNIT()
NAMED_UNIT(*)
SI_UNIT(.KILO.,.GRAM.)
);
#1299=DERIVED_UNIT((#1296,#1297));
#1300=MEASURE_REPRESENTATION_ITEM('density measure',
POSITIVE_RATIO_MEASURE(7850.),#1299);
#1301=PROPERTY_DEFINITION_REPRESENTATION(#1306,#1303);
#1302=PROPERTY_DEFINITION_REPRESENTATION(#1307,#1304);
#1303=REPRESENTATION('material name',(#1305),#2090);
#1304=REPRESENTATION('density',(#1300),#2090);
#1305=DESCRIPTIVE_REPRESENTATION_ITEM('Steel','Steel');
#1306=PROPERTY_DEFINITION('material property','material name',#2100);
#1307=PROPERTY_DEFINITION('material property','density of part',#2100);
#1308=AXIS2_PLACEMENT_3D('',#1725,#1395,#1396);
#1309=AXIS2_PLACEMENT_3D('',#1726,#1397,#1398);
#1310=AXIS2_PLACEMENT_3D('',#1735,#1403,#1404);
#1311=AXIS2_PLACEMENT_3D('',#1801,#1438,#1439);
#1312=AXIS2_PLACEMENT_3D('',#1807,#1443,#1444);
#1313=AXIS2_PLACEMENT_3D('',#1834,#1459,#1460);
#1314=AXIS2_PLACEMENT_3D('',#1840,#1464,#1465);
#1315=AXIS2_PLACEMENT_3D('',#1844,#1468,#1469);
#1316=AXIS2_PLACEMENT_3D('',#1850,#1473,#1474);
#1317=AXIS2_PLACEMENT_3D('',#1855,#1478,#1479);
#1318=AXIS2_PLACEMENT_3D('',#1859,#1482,#1483);
#1319=AXIS2_PLACEMENT_3D('',#1861,#1485,#1486);
#1320=AXIS2_PLACEMENT_3D('',#1863,#1487,#1488);
#1321=AXIS2_PLACEMENT_3D('',#1864,#1489,#1490);
#1322=AXIS2_PLACEMENT_3D('',#1870,#1494,#1495);
#1323=AXIS2_PLACEMENT_3D('',#1874,#1498,#1499);
#1324=AXIS2_PLACEMENT_3D('',#1878,#1502,#1503);
#1325=AXIS2_PLACEMENT_3D('',#1884,#1507,#1508);
#1326=AXIS2_PLACEMENT_3D('',#1888,#1511,#1512);
#1327=AXIS2_PLACEMENT_3D('',#1891,#1515,#1516);
#1328=AXIS2_PLACEMENT_3D('',#1893,#1517,#1518);
#1329=AXIS2_PLACEMENT_3D('',#1894,#1519,#1520);
#1330=AXIS2_PLACEMENT_3D('',#1900,#1524,#1525);
#1331=AXIS2_PLACEMENT_3D('',#1902,#1526,#1527);
#1332=AXIS2_PLACEMENT_3D('',#1904,#1529,#1530);
#1333=AXIS2_PLACEMENT_3D('',#1906,#1531,#1532);
#1334=AXIS2_PLACEMENT_3D('',#1908,#1534,#1535);
#1335=AXIS2_PLACEMENT_3D('',#1914,#1539,#1540);
#1336=AXIS2_PLACEMENT_3D('',#1920,#1544,#1545);
#1337=AXIS2_PLACEMENT_3D('',#1926,#1549,#1550);
#1338=AXIS2_PLACEMENT_3D('',#1932,#1554,#1555);
#1339=AXIS2_PLACEMENT_3D('',#1935,#1558,#1559);
#1340=AXIS2_PLACEMENT_3D('',#1936,#1560,#1561);
#1341=AXIS2_PLACEMENT_3D('',#1943,#1565,#1566);
#1342=AXIS2_PLACEMENT_3D('',#1944,#1567,#1568);
#1343=AXIS2_PLACEMENT_3D('',#1950,#1572,#1573);
#1344=AXIS2_PLACEMENT_3D('',#1953,#1576,#1577);
#1345=AXIS2_PLACEMENT_3D('',#1954,#1578,#1579);
#1346=AXIS2_PLACEMENT_3D('',#1963,#1584,#1585);
#1347=AXIS2_PLACEMENT_3D('',#1965,#1586,#1587);
#1348=AXIS2_PLACEMENT_3D('',#1968,#1589,#1590);
#1349=AXIS2_PLACEMENT_3D('',#1969,#1591,#1592);
#1350=AXIS2_PLACEMENT_3D('',#1970,#1593,#1594);
#1351=AXIS2_PLACEMENT_3D('',#1973,#1595,#1596);
#1352=AXIS2_PLACEMENT_3D('',#1977,#1598,#1599);
#1353=AXIS2_PLACEMENT_3D('',#1979,#1601,#1602);
#1354=AXIS2_PLACEMENT_3D('',#1980,#1603,#1604);
#1355=AXIS2_PLACEMENT_3D('',#1986,#1608,#1609);
#1356=AXIS2_PLACEMENT_3D('',#1987,#1610,#1611);
#1357=AXIS2_PLACEMENT_3D('',#1988,#1612,#1613);
#1358=AXIS2_PLACEMENT_3D('',#1989,#1614,#1615);
#1359=AXIS2_PLACEMENT_3D('',#1993,#1618,#1619);
#1360=AXIS2_PLACEMENT_3D('',#1995,#1621,#1622);
#1361=AXIS2_PLACEMENT_3D('',#1996,#1623,#1624);
#1362=AXIS2_PLACEMENT_3D('',#1997,#1625,#1626);
#1363=AXIS2_PLACEMENT_3D('',#1999,#1627,#1628);
#1364=AXIS2_PLACEMENT_3D('',#2002,#1630,#1631);
#1365=AXIS2_PLACEMENT_3D('',#2003,#1632,#1633);
#1366=AXIS2_PLACEMENT_3D('',#2004,#1634,#1635);
#1367=AXIS2_PLACEMENT_3D('',#2007,#1638,#1639);
#1368=AXIS2_PLACEMENT_3D('',#2011,#1642,#1643);
#1369=AXIS2_PLACEMENT_3D('',#2017,#1647,#1648);
#1370=AXIS2_PLACEMENT_3D('',#2020,#1650,#1651);
#1371=AXIS2_PLACEMENT_3D('',#2022,#1652,#1653);
#1372=AXIS2_PLACEMENT_3D('',#2031,#1658,#1659);
#1373=AXIS2_PLACEMENT_3D('',#2034,#1661,#1662);
#1374=AXIS2_PLACEMENT_3D('',#2035,#1663,#1664);
#1375=AXIS2_PLACEMENT_3D('',#2036,#1665,#1666);
#1376=AXIS2_PLACEMENT_3D('',#2042,#1670,#1671);
#1377=AXIS2_PLACEMENT_3D('',#2046,#1674,#1675);
#1378=AXIS2_PLACEMENT_3D('',#2048,#1677,#1678);
#1379=AXIS2_PLACEMENT_3D('',#2049,#1679,#1680);
#1380=AXIS2_PLACEMENT_3D('',#2051,#1681,#1682);
#1381=AXIS2_PLACEMENT_3D('',#2053,#1684,#1685);
#1382=AXIS2_PLACEMENT_3D('',#2055,#1686,#1687);
#1383=AXIS2_PLACEMENT_3D('',#2058,#1689,#1690);
#1384=AXIS2_PLACEMENT_3D('',#2059,#1691,#1692);
#1385=AXIS2_PLACEMENT_3D('',#2061,#1693,#1694);
#1386=AXIS2_PLACEMENT_3D('',#2063,#1696,#1697);
#1387=AXIS2_PLACEMENT_3D('',#2067,#1700,#1701);
#1388=AXIS2_PLACEMENT_3D('',#2069,#1703,#1704);
#1389=AXIS2_PLACEMENT_3D('',#2071,#1705,#1706);
#1390=AXIS2_PLACEMENT_3D('',#2073,#1708,#1709);
#1391=AXIS2_PLACEMENT_3D('',#2079,#1713,#1714);
#1392=AXIS2_PLACEMENT_3D('',#2084,#1718,#1719);
#1393=AXIS2_PLACEMENT_3D('',#2086,#1721,#1722);
#1394=AXIS2_PLACEMENT_3D('',#2087,#1723,#1724);
#1395=DIRECTION('axis',(0.,0.,1.));
#1396=DIRECTION('refdir',(1.,0.,0.));
#1397=DIRECTION('center_axis',(0.,1.,0.));
#1398=DIRECTION('ref_axis',(0.,0.,1.));
#1399=DIRECTION('',(0.,0.,-1.));
#1400=DIRECTION('',(1.,0.,0.));
#1401=DIRECTION('',(0.,0.,1.));
#1402=DIRECTION('',(-1.,0.,0.));
#1403=DIRECTION('center_axis',(0.,0.,-1.));
#1404=DIRECTION('ref_axis',(0.,1.,0.));
#1405=DIRECTION('',(0.,1.,0.));
#1406=DIRECTION('',(0.,-1.,0.));
#1407=DIRECTION('',(1.,0.,0.));
#1408=DIRECTION('',(0.,1.,0.));
#1409=DIRECTION('',(-1.,0.,0.));
#1410=DIRECTION('',(-0.866025403784439,-0.5,0.));
#1411=DIRECTION('',(0.,-1.,0.));
#1412=DIRECTION('',(0.866025403784439,-0.5,0.));
#1413=DIRECTION('',(0.866025403784439,0.5,0.));
#1414=DIRECTION('',(0.,1.,0.));
#1415=DIRECTION('',(-0.866025403784439,0.5,0.));
#1416=DIRECTION('',(-1.,0.,0.));
#1417=DIRECTION('',(0.,1.,0.));
#1418=DIRECTION('',(1.,0.,0.));
#1419=DIRECTION('',(0.,1.,0.));
#1420=DIRECTION('',(1.,0.,0.));
#1421=DIRECTION('',(0.,1.,0.));
#1422=DIRECTION('',(1.,0.,0.));
#1423=DIRECTION('',(0.866025403784439,0.5,0.));
#1424=DIRECTION('',(0.,1.,0.));
#1425=DIRECTION('',(-0.866025403784439,0.5,0.));
#1426=DIRECTION('',(-0.866025403784439,-0.5,0.));
#1427=DIRECTION('',(0.,-1.,0.));
#1428=DIRECTION('',(0.866025403784439,-0.5,0.));
#1429=DIRECTION('',(1.,0.,0.));
#1430=DIRECTION('',(0.,-1.,0.));
#1431=DIRECTION('',(1.,0.,0.));
#1432=DIRECTION('',(0.,1.,0.));
#1433=DIRECTION('',(-1.,0.,0.));
#1434=DIRECTION('',(0.,-1.,0.));
#1435=DIRECTION('',(1.,0.,0.));
#1436=DIRECTION('',(0.,1.,0.));
#1437=DIRECTION('',(-1.,0.,0.));
#1438=DIRECTION('center_axis',(0.,-1.,0.));
#1439=DIRECTION('ref_axis',(0.,0.,-1.));
#1440=DIRECTION('',(0.,0.,1.));
#1441=DIRECTION('',(0.,0.,-1.));
#1442=DIRECTION('',(-1.,0.,0.));
#1443=DIRECTION('center_axis',(0.,0.,1.));
#1444=DIRECTION('ref_axis',(0.,-1.,0.));
#1445=DIRECTION('',(0.,-1.,0.));
#1446=DIRECTION('',(-1.,0.,0.));
#1447=DIRECTION('',(0.,-1.,0.));
#1448=DIRECTION('',(-1.,0.,0.));
#1449=DIRECTION('',(0.,1.,0.));
#1450=DIRECTION('',(1.,0.,0.));
#1451=DIRECTION('',(0.,-1.,0.));
#1452=DIRECTION('',(-1.,0.,0.));
#1453=DIRECTION('',(0.,1.,0.));
#1454=DIRECTION('',(1.,0.,0.));
#1455=DIRECTION('',(0.,-1.,0.));
#1456=DIRECTION('',(-1.,0.,0.));
#1457=DIRECTION('',(0.,-1.,0.));
#1458=DIRECTION('',(0.,1.,0.));
#1459=DIRECTION('center_axis',(0.5,-0.866025403784439,0.));
#1460=DIRECTION('ref_axis',(-0.866025403784439,-0.5,0.));
#1461=DIRECTION('',(0.,0.,-1.));
#1462=DIRECTION('',(0.866025403784439,0.5,0.));
#1463=DIRECTION('',(0.,0.,-1.));
#1464=DIRECTION('center_axis',(1.,0.,0.));
#1465=DIRECTION('ref_axis',(0.,-1.,0.));
#1466=DIRECTION('',(0.,1.,0.));
#1467=DIRECTION('',(0.,0.,-1.));
#1468=DIRECTION('center_axis',(0.5,0.866025403784439,0.));
#1469=DIRECTION('ref_axis',(0.866025403784439,-0.5,0.));
#1470=DIRECTION('',(-0.866025403784439,0.5,0.));
#1471=DIRECTION('',(0.,0.,-1.));
#1472=DIRECTION('',(-0.774596669241484,0.447213595499958,0.447213595499958));
#1473=DIRECTION('center_axis',(-0.5,0.866025403784439,0.));
#1474=DIRECTION('ref_axis',(0.866025403784439,0.5,0.));
#1475=DIRECTION('',(-0.774596669241484,-0.447213595499958,-0.447213595499958));
#1476=DIRECTION('',(-0.866025403784439,-0.5,0.));
#1477=DIRECTION('',(0.,0.,-1.));
#1478=DIRECTION('center_axis',(-1.,0.,0.));
#1479=DIRECTION('ref_axis',(0.,1.,0.));
#1480=DIRECTION('',(0.,-1.,0.));
#1481=DIRECTION('',(0.,0.,-1.));
#1482=DIRECTION('center_axis',(-0.5,-0.866025403784439,0.));
#1483=DIRECTION('ref_axis',(-0.866025403784439,0.5,0.));
#1484=DIRECTION('',(0.866025403784439,-0.5,0.));
#1485=DIRECTION('center_axis',(0.,0.,1.));
#1486=DIRECTION('ref_axis',(-1.,0.,0.));
#1487=DIRECTION('center_axis',(0.,0.,-1.));
#1488=DIRECTION('ref_axis',(-1.,0.,0.));
#1489=DIRECTION('center_axis',(0.5,0.866025403784439,0.));
#1490=DIRECTION('ref_axis',(0.866025403784439,-0.5,0.));
#1491=DIRECTION('',(0.,0.,-1.));
#1492=DIRECTION('',(0.866025403784439,-0.5,0.));
#1493=DIRECTION('',(0.,0.,-1.));
#1494=DIRECTION('center_axis',(-0.5,0.866025403784439,0.));
#1495=DIRECTION('ref_axis',(0.866025403784439,0.5,0.));
#1496=DIRECTION('',(0.866025403784439,0.5,0.));
#1497=DIRECTION('',(0.,0.,-1.));
#1498=DIRECTION('center_axis',(-1.,0.,0.));
#1499=DIRECTION('ref_axis',(0.,1.,0.));
#1500=DIRECTION('',(0.,1.,0.));
#1501=DIRECTION('',(0.,0.,-1.));
#1502=DIRECTION('center_axis',(-0.5,-0.866025403784439,0.));
#1503=DIRECTION('ref_axis',(-0.866025403784439,0.5,0.));
#1504=DIRECTION('',(-0.866025403784439,0.5,0.));
#1505=DIRECTION('',(0.,0.,-1.));
#1506=DIRECTION('',(0.774596669241483,-0.447213595499958,0.447213595499958));
#1507=DIRECTION('center_axis',(1.,0.,0.));
#1508=DIRECTION('ref_axis',(0.,-1.,0.));
#1509=DIRECTION('',(0.,0.,-1.));
#1510=DIRECTION('',(0.,-1.,0.));
#1511=DIRECTION('center_axis',(0.5,-0.866025403784439,0.));
#1512=DIRECTION('ref_axis',(-0.866025403784439,-0.5,0.));
#1513=DIRECTION('',(0.774596669241483,0.447213595499958,-0.447213595499958));
#1514=DIRECTION('',(-0.866025403784439,-0.5,0.));
#1515=DIRECTION('center_axis',(0.,0.,1.));
#1516=DIRECTION('ref_axis',(-1.,0.,0.));
#1517=DIRECTION('center_axis',(0.,0.,-1.));
#1518=DIRECTION('ref_axis',(-1.,0.,0.));
#1519=DIRECTION('center_axis',(0.,0.707106781186547,-0.707106781186548));
#1520=DIRECTION('ref_axis',(-1.,0.,0.));
#1521=DIRECTION('',(0.,0.707106781186548,0.707106781186547));
#1522=DIRECTION('',(1.,0.,0.));
#1523=DIRECTION('',(0.,0.707106781186548,0.707106781186547));
#1524=DIRECTION('center_axis',(0.,0.,-1.));
#1525=DIRECTION('ref_axis',(-1.,0.,0.));
#1526=DIRECTION('center_axis',(0.,0.,-1.));
#1527=DIRECTION('ref_axis',(-1.,0.,0.));
#1528=DIRECTION('',(0.,0.,-1.));
#1529=DIRECTION('center_axis',(0.,0.,-1.));
#1530=DIRECTION('ref_axis',(-1.,0.,0.));
#1531=DIRECTION('center_axis',(0.,0.,-1.));
#1532=DIRECTION('ref_axis',(-1.,0.,0.));
#1533=DIRECTION('',(0.,0.,-1.));
#1534=DIRECTION('center_axis',(0.,-0.707106781186548,-0.707106781186547));
#1535=DIRECTION('ref_axis',(-1.,0.,0.));
#1536=DIRECTION('',(0.,0.707106781186547,-0.707106781186548));
#1537=DIRECTION('',(-1.,0.,0.));
#1538=DIRECTION('',(0.,0.707106781186547,-0.707106781186548));
#1539=DIRECTION('center_axis',(0.,-1.,0.));
#1540=DIRECTION('ref_axis',(0.,0.,1.));
#1541=DIRECTION('',(0.,0.,-1.));
#1542=DIRECTION('',(-1.,0.,0.));
#1543=DIRECTION('',(0.,0.,1.));
#1544=DIRECTION('center_axis',(0.,-1.,0.));
#1545=DIRECTION('ref_axis',(0.,0.,1.));
#1546=DIRECTION('',(0.,0.,-1.));
#1547=DIRECTION('',(-1.,0.,0.));
#1548=DIRECTION('',(0.,0.,1.));
#1549=DIRECTION('center_axis',(0.,1.,0.));
#1550=DIRECTION('ref_axis',(0.,0.,-1.));
#1551=DIRECTION('',(0.,0.,-1.));
#1552=DIRECTION('',(-1.,0.,0.));
#1553=DIRECTION('',(0.,0.,1.));
#1554=DIRECTION('center_axis',(0.,0.,1.));
#1555=DIRECTION('ref_axis',(0.,1.,0.));
#1556=DIRECTION('',(0.,-1.,0.));
#1557=DIRECTION('',(0.,1.,0.));
#1558=DIRECTION('center_axis',(-1.,0.,0.));
#1559=DIRECTION('ref_axis',(0.,0.,1.));
#1560=DIRECTION('center_axis',(1.,0.,0.));
#1561=DIRECTION('ref_axis',(0.,1.,0.));
#1562=DIRECTION('',(0.,3.70074341541719E-16,1.));
#1563=DIRECTION('',(0.,1.,0.));
#1564=DIRECTION('',(0.,0.,-1.));
#1565=DIRECTION('center_axis',(1.,0.,0.));
#1566=DIRECTION('ref_axis',(0.,1.,0.));
#1567=DIRECTION('center_axis',(0.,1.,0.));
#1568=DIRECTION('ref_axis',(0.,0.,-1.));
#1569=DIRECTION('',(0.,0.,-1.));
#1570=DIRECTION('',(-1.,0.,0.));
#1571=DIRECTION('',(0.,0.,1.));
#1572=DIRECTION('center_axis',(0.,0.,1.));
#1573=DIRECTION('ref_axis',(0.,1.,0.));
#1574=DIRECTION('',(0.,-1.,0.));
#1575=DIRECTION('',(0.,1.,0.));
#1576=DIRECTION('center_axis',(-1.,0.,0.));
#1577=DIRECTION('ref_axis',(0.,0.,1.));
#1578=DIRECTION('center_axis',(0.,0.,-1.));
#1579=DIRECTION('ref_axis',(0.,1.,0.));
#1580=DIRECTION('',(0.,1.,0.));
#1581=DIRECTION('',(-1.,0.,0.));
#1582=DIRECTION('',(0.,1.,0.));
#1583=DIRECTION('',(1.,0.,0.));
#1584=DIRECTION('center_axis',(1.,0.,0.));
#1585=DIRECTION('ref_axis',(0.,1.,0.));
#1586=DIRECTION('center_axis',(1.,0.,0.));
#1587=DIRECTION('ref_axis',(0.,1.,0.));
#1588=DIRECTION('',(1.,0.,0.));
#1589=DIRECTION('center_axis',(1.,0.,0.));
#1590=DIRECTION('ref_axis',(0.,1.,0.));
#1591=DIRECTION('center_axis',(-1.,0.,0.));
#1592=DIRECTION('ref_axis',(0.,1.,0.));
#1593=DIRECTION('center_axis',(1.,0.,0.));
#1594=DIRECTION('ref_axis',(0.,1.,0.));
#1595=DIRECTION('center_axis',(1.,0.,0.));
#1596=DIRECTION('ref_axis',(0.,1.,0.));
#1597=DIRECTION('',(-1.,0.,0.));
#1598=DIRECTION('center_axis',(1.,0.,0.));
#1599=DIRECTION('ref_axis',(0.,1.,0.));
#1600=DIRECTION('',(1.,0.,0.));
#1601=DIRECTION('center_axis',(1.,0.,0.));
#1602=DIRECTION('ref_axis',(0.,1.,0.));
#1603=DIRECTION('center_axis',(1.,0.,0.));
#1604=DIRECTION('ref_axis',(0.,1.,0.));
#1605=DIRECTION('',(0.,0.,-1.));
#1606=DIRECTION('',(0.,-1.,0.));
#1607=DIRECTION('',(0.,-1.,0.));
#1608=DIRECTION('center_axis',(-1.,0.,0.));
#1609=DIRECTION('ref_axis',(0.,1.,0.));
#1610=DIRECTION('center_axis',(1.,0.,0.));
#1611=DIRECTION('ref_axis',(0.,1.,0.));
#1612=DIRECTION('center_axis',(-1.,0.,0.));
#1613=DIRECTION('ref_axis',(0.,1.,0.));
#1614=DIRECTION('center_axis',(0.,-1.,0.));
#1615=DIRECTION('ref_axis',(0.,0.,-1.));
#1616=DIRECTION('',(0.,0.,-1.));
#1617=DIRECTION('',(1.,0.,0.));
#1618=DIRECTION('center_axis',(0.,0.,1.));
#1619=DIRECTION('ref_axis',(0.,-1.,0.));
#1620=DIRECTION('',(0.,-1.,0.));
#1621=DIRECTION('center_axis',(1.,0.,0.));
#1622=DIRECTION('ref_axis',(0.,1.,0.));
#1623=DIRECTION('center_axis',(1.,0.,0.));
#1624=DIRECTION('ref_axis',(0.,1.,0.));
#1625=DIRECTION('center_axis',(1.,0.,0.));
#1626=DIRECTION('ref_axis',(0.,1.,0.));
#1627=DIRECTION('center_axis',(1.,0.,0.));
#1628=DIRECTION('ref_axis',(0.,1.,0.));
#1629=DIRECTION('',(1.,0.,0.));
#1630=DIRECTION('center_axis',(1.,0.,0.));
#1631=DIRECTION('ref_axis',(0.,1.,0.));
#1632=DIRECTION('center_axis',(1.,0.,0.));
#1633=DIRECTION('ref_axis',(0.,1.,0.));
#1634=DIRECTION('center_axis',(1.,0.,0.));
#1635=DIRECTION('ref_axis',(0.,1.,0.));
#1636=DIRECTION('',(0.,0.,1.));
#1637=DIRECTION('',(0.,-3.70074341541719E-16,-1.));
#1638=DIRECTION('center_axis',(0.,1.,-3.70074341541719E-16));
#1639=DIRECTION('ref_axis',(0.,3.70074341541719E-16,1.));
#1640=DIRECTION('',(0.,3.70074341541719E-16,1.));
#1641=DIRECTION('',(1.,0.,0.));
#1642=DIRECTION('center_axis',(0.,-1.,0.));
#1643=DIRECTION('ref_axis',(0.,0.,-1.));
#1644=DIRECTION('',(0.,0.,-1.));
#1645=DIRECTION('',(-1.,0.,0.));
#1646=DIRECTION('',(0.,0.,-1.));
#1647=DIRECTION('center_axis',(1.,0.,0.));
#1648=DIRECTION('ref_axis',(0.,1.,0.));
#1649=DIRECTION('',(0.,-1.,0.));
#1650=DIRECTION('center_axis',(-1.,0.,0.));
#1651=DIRECTION('ref_axis',(0.,1.,0.));
#1652=DIRECTION('center_axis',(-1.,0.,0.));
#1653=DIRECTION('ref_axis',(0.,1.,0.));
#1654=DIRECTION('',(0.,1.,0.));
#1655=DIRECTION('',(0.,0.,1.));
#1656=DIRECTION('',(0.,-1.,0.));
#1657=DIRECTION('',(0.,0.,-1.));
#1658=DIRECTION('center_axis',(1.,0.,0.));
#1659=DIRECTION('ref_axis',(0.,1.,0.));
#1660=DIRECTION('',(1.,0.,0.));
#1661=DIRECTION('center_axis',(1.,0.,0.));
#1662=DIRECTION('ref_axis',(0.,1.,0.));
#1663=DIRECTION('center_axis',(1.,0.,0.));
#1664=DIRECTION('ref_axis',(0.,1.,0.));
#1665=DIRECTION('center_axis',(0.,-1.,0.));
#1666=DIRECTION('ref_axis',(0.,0.,-1.));
#1667=DIRECTION('',(1.,0.,0.));
#1668=DIRECTION('',(0.,0.,-1.));
#1669=DIRECTION('',(1.,0.,0.));
#1670=DIRECTION('center_axis',(0.,0.,1.));
#1671=DIRECTION('ref_axis',(0.,-1.,0.));
#1672=DIRECTION('',(1.,0.,0.));
#1673=DIRECTION('',(0.,-1.,0.));
#1674=DIRECTION('center_axis',(1.,0.,0.));
#1675=DIRECTION('ref_axis',(0.,1.,0.));
#1676=DIRECTION('',(0.,1.,0.));
#1677=DIRECTION('center_axis',(-1.,0.,0.));
#1678=DIRECTION('ref_axis',(0.,0.,1.));
#1679=DIRECTION('center_axis',(1.,0.,0.));
#1680=DIRECTION('ref_axis',(0.,1.,0.));
#1681=DIRECTION('center_axis',(-1.,0.,0.));
#1682=DIRECTION('ref_axis',(0.,1.,0.));
#1683=DIRECTION('',(-1.,0.,0.));
#1684=DIRECTION('center_axis',(1.,0.,0.));
#1685=DIRECTION('ref_axis',(0.,1.,0.));
#1686=DIRECTION('center_axis',(-1.,0.,0.));
#1687=DIRECTION('ref_axis',(0.,1.,0.));
#1688=DIRECTION('',(-1.,0.,0.));
#1689=DIRECTION('center_axis',(-1.,0.,0.));
#1690=DIRECTION('ref_axis',(0.,1.,0.));
#1691=DIRECTION('center_axis',(1.,0.,0.));
#1692=DIRECTION('ref_axis',(0.,1.,0.));
#1693=DIRECTION('center_axis',(-1.,0.,0.));
#1694=DIRECTION('ref_axis',(0.,1.,0.));
#1695=DIRECTION('',(-1.,0.,0.));
#1696=DIRECTION('center_axis',(0.,1.,0.));
#1697=DIRECTION('ref_axis',(0.,0.,1.));
#1698=DIRECTION('',(1.,0.,0.));
#1699=DIRECTION('',(0.,0.,1.));
#1700=DIRECTION('center_axis',(0.,0.,-1.));
#1701=DIRECTION('ref_axis',(0.,1.,0.));
#1702=DIRECTION('',(0.,1.,0.));
#1703=DIRECTION('center_axis',(1.,0.,0.));
#1704=DIRECTION('ref_axis',(0.,1.,0.));
#1705=DIRECTION('center_axis',(-1.,0.,0.));
#1706=DIRECTION('ref_axis',(0.,1.,0.));
#1707=DIRECTION('',(-1.,0.,0.));
#1708=DIRECTION('center_axis',(0.,-1.,0.));
#1709=DIRECTION('ref_axis',(0.,0.,-1.));
#1710=DIRECTION('',(0.,0.,1.));
#1711=DIRECTION('',(0.,0.,-1.));
#1712=DIRECTION('',(1.,0.,0.));
#1713=DIRECTION('center_axis',(0.,0.,1.));
#1714=DIRECTION('ref_axis',(0.,-1.,0.));
#1715=DIRECTION('',(0.,1.,0.));
#1716=DIRECTION('',(0.,-1.,0.));
#1717=DIRECTION('',(1.,0.,0.));
#1718=DIRECTION('center_axis',(0.,1.,0.));
#1719=DIRECTION('ref_axis',(0.,0.,1.));
#1720=DIRECTION('',(0.,0.,1.));
#1721=DIRECTION('center_axis',(1.,0.,0.));
#1722=DIRECTION('ref_axis',(0.,1.,0.));
#1723=DIRECTION('center_axis',(1.,0.,0.));
#1724=DIRECTION('ref_axis',(0.,1.,0.));
#1725=CARTESIAN_POINT('',(0.,0.,0.));
#1726=CARTESIAN_POINT('Origin',(0.,-29.9000004470348,-10.0000001490116));
#1727=CARTESIAN_POINT('',(-10.,-29.9000004470348,-8.00000011920929));
#1728=CARTESIAN_POINT('',(-10.,-29.9000004470348,-10.0000001490116));
#1729=CARTESIAN_POINT('',(-10.,-29.9000004470348,-7.50000011175871));
#1730=CARTESIAN_POINT('',(-20.,-29.9000004470348,-8.00000011920929));
#1731=CARTESIAN_POINT('',(0.,-29.9000004470348,-8.00000011920929));
#1732=CARTESIAN_POINT('',(-20.,-29.9000004470348,-10.0000001490116));
#1733=CARTESIAN_POINT('',(-20.,-29.9000004470348,-9.50000014156103));
#1734=CARTESIAN_POINT('',(0.,-29.9000004470348,-10.0000001490116));
#1735=CARTESIAN_POINT('Origin',(0.,-50.0000007450581,-10.0000001490116));
#1736=CARTESIAN_POINT('',(-10.,-37.0000005960464,-10.0000001490116));
#1737=CARTESIAN_POINT('',(-10.,-40.0000005960464,-10.0000001490116));
#1738=CARTESIAN_POINT('',(-20.,29.0000004470348,-10.0000001490116));
#1739=CARTESIAN_POINT('',(-20.,-30.0000004470348,-10.0000001490116));
#1740=CARTESIAN_POINT('',(-10.,29.0000004470348,-10.0000001490116));
#1741=CARTESIAN_POINT('',(0.,29.0000004470348,-10.0000001490116));
#1742=CARTESIAN_POINT('',(-10.,37.0000005960464,-10.0000001490116));
#1743=CARTESIAN_POINT('',(-10.,-10.0000001490116,-10.0000001490116));
#1744=CARTESIAN_POINT('',(-6.73205075302684,37.0000005960464,-10.0000001490116));
#1745=CARTESIAN_POINT('',(0.,37.0000005960464,-10.0000001490116));
#1746=CARTESIAN_POINT('',(-7.59807628585912,36.5000005215406,-10.0000001490116));
#1747=CARTESIAN_POINT('',(-23.4765973097271,27.3325321340773,-10.0000001490116));
#1748=CARTESIAN_POINT('',(-7.59807628585912,33.5000005215406,-10.0000001490116));
#1749=CARTESIAN_POINT('',(-7.59807628585912,-8.25000011175871,-10.0000001490116));
#1750=CARTESIAN_POINT('',(-5.00000007450581,32.0000005215406,-10.0000001490116));
#1751=CARTESIAN_POINT('',(14.6285210052415,20.6674685923543,-10.0000001490116));
#1752=CARTESIAN_POINT('',(-2.40192386315249,33.5000005215406,-10.0000001490116));
#1753=CARTESIAN_POINT('',(-19.5794829926971,23.5825321340773,-10.0000001490116));
#1754=CARTESIAN_POINT('',(-2.40192386315249,36.5000005215406,-10.0000001490116));
#1755=CARTESIAN_POINT('',(-2.40192386315249,-6.75000011175871,-10.0000001490116));
#1756=CARTESIAN_POINT('',(-3.26794939598477,37.0000005960464,-10.0000001490116));
#1757=CARTESIAN_POINT('',(15.9275591109182,25.9174685923543,-10.0000001490116));
#1758=CARTESIAN_POINT('',(0.,37.0000005960464,-10.0000001490116));
#1759=CARTESIAN_POINT('',(0.,37.0000005960464,-10.0000001490116));
#1760=CARTESIAN_POINT('',(0.,50.0000007450581,-10.0000001490116));
#1761=CARTESIAN_POINT('',(0.,-40.0000005960464,-10.0000001490116));
#1762=CARTESIAN_POINT('',(4.,50.0000007450581,-10.0000001490116));
#1763=CARTESIAN_POINT('',(0.,50.0000007450581,-10.0000001490116));
#1764=CARTESIAN_POINT('',(4.,-50.0000007450581,-10.0000001490116));
#1765=CARTESIAN_POINT('',(4.,-40.0000005960464,-10.0000001490116));
#1766=CARTESIAN_POINT('',(0.,-50.0000007450581,-10.0000001490116));
#1767=CARTESIAN_POINT('',(0.,-50.0000007450581,-10.0000001490116));
#1768=CARTESIAN_POINT('',(0.,-37.0000005960464,-10.0000001490116));
#1769=CARTESIAN_POINT('',(0.,-40.0000005960464,-10.0000001490116));
#1770=CARTESIAN_POINT('',(-3.26794939598478,-37.0000005960464,-10.0000001490116));
#1771=CARTESIAN_POINT('',(0.,-37.0000005960464,-10.0000001490116));
#1772=CARTESIAN_POINT('',(-2.40192386315249,-36.5000005215406,-10.0000001490116));
#1773=CARTESIAN_POINT('',(-4.42403820063573,-37.6674687786188,-10.0000001490116));
#1774=CARTESIAN_POINT('',(-2.40192386315249,-33.5000005215406,-10.0000001490116));
#1775=CARTESIAN_POINT('',(-2.40192386315249,-41.7500006332994,-10.0000001490116));
#1776=CARTESIAN_POINT('',(-5.00000007450581,-32.0000005215406,-10.0000001490116));
#1777=CARTESIAN_POINT('',(0.772114318856785,-35.3325323203418,-10.0000001490116));
#1778=CARTESIAN_POINT('',(-7.59807628585912,-33.5000005215406,-10.0000001490116));
#1779=CARTESIAN_POINT('',(-8.3211525176657,-33.9174687786188,-10.0000001490116));
#1780=CARTESIAN_POINT('',(-7.59807628585912,-36.5000005215406,-10.0000001490116));
#1781=CARTESIAN_POINT('',(-7.59807628585912,-43.2500006332994,-10.0000001490116));
#1782=CARTESIAN_POINT('',(-6.73205075302684,-37.0000005960464,-10.0000001490116));
#1783=CARTESIAN_POINT('',(-0.526923786819871,-40.5825323203419,-10.0000001490116));
#1784=CARTESIAN_POINT('',(0.,-37.0000005960464,-10.0000001490116));
#1785=CARTESIAN_POINT('',(-3.,-6.90000026415706,-10.0000001490116));
#1786=CARTESIAN_POINT('',(-3.,-9.09999928880811,-10.0000001490116));
#1787=CARTESIAN_POINT('',(-3.,-29.4750002607703,-10.0000001490116));
#1788=CARTESIAN_POINT('',(2.,-9.09999928880811,-10.0000001490116));
#1789=CARTESIAN_POINT('',(0.,-9.09999928880811,-10.0000001490116));
#1790=CARTESIAN_POINT('',(2.,-6.90000026415706,-10.0000001490116));
#1791=CARTESIAN_POINT('',(2.,-29.4750002607703,-10.0000001490116));
#1792=CARTESIAN_POINT('',(0.,-6.90000026415706,-10.0000001490116));
#1793=CARTESIAN_POINT('',(-3.,29.0000002235174,-10.0000001490116));
#1794=CARTESIAN_POINT('',(-3.,1.00000022351742,-10.0000001490116));
#1795=CARTESIAN_POINT('',(-3.,-17.5000002607703,-10.0000001490116));
#1796=CARTESIAN_POINT('',(2.,1.00000022351742,-10.0000001490116));
#1797=CARTESIAN_POINT('',(0.,1.00000022351741,-10.0000001490116));
#1798=CARTESIAN_POINT('',(2.,29.0000002235174,-10.0000001490116));
#1799=CARTESIAN_POINT('',(2.,-17.5000002607703,-10.0000001490116));
#1800=CARTESIAN_POINT('',(0.,29.0000002235174,-10.0000001490116));
#1801=CARTESIAN_POINT('Origin',(0.,29.0000004470348,-8.00000011920929));
#1802=CARTESIAN_POINT('',(-10.,29.0000004470348,-8.00000011920929));
#1803=CARTESIAN_POINT('',(-10.,29.0000004470348,-6.50000009685755));
#1804=CARTESIAN_POINT('',(-20.,29.0000004470348,-8.00000011920929));
#1805=CARTESIAN_POINT('',(-20.,29.0000004470348,-8.50000012665987));
#1806=CARTESIAN_POINT('',(0.,29.0000004470348,-8.00000011920929));
#1807=CARTESIAN_POINT('Origin',(0.,23.0000003427267,-8.00000011920929));
#1808=CARTESIAN_POINT('',(-10.,-30.0000004470348,-8.00000011920929));
#1809=CARTESIAN_POINT('',(-10.,-3.50000005215406,-8.00000011920929));
#1810=CARTESIAN_POINT('',(0.,-30.0000004470348,-8.00000011920929));
#1811=CARTESIAN_POINT('',(0.,-30.0000004470348,-8.00000011920929));
#1812=CARTESIAN_POINT('',(0.,-12.6054313005814,-8.00000011920929));
#1813=CARTESIAN_POINT('',(0.,-15.0000002235174,-8.00000011920929));
#1814=CARTESIAN_POINT('',(-3.,-12.6054313005814,-8.00000011920929));
#1815=CARTESIAN_POINT('',(0.,-12.6054313005814,-8.00000011920929));
#1816=CARTESIAN_POINT('',(-3.,-3.3945682523838,-8.00000011920929));
#1817=CARTESIAN_POINT('',(-3.,7.02500028312206,-8.00000011920929));
#1818=CARTESIAN_POINT('',(0.,-3.3945682523838,-8.00000011920929));
#1819=CARTESIAN_POINT('',(0.,-3.3945682523838,-8.00000011920929));
#1820=CARTESIAN_POINT('',(0.,1.00000022351742,-8.00000011920929));
#1821=CARTESIAN_POINT('',(0.,-15.0000002235174,-8.00000011920929));
#1822=CARTESIAN_POINT('',(-3.,1.00000022351742,-8.00000011920929));
#1823=CARTESIAN_POINT('',(0.,1.00000022351742,-8.00000011920929));
#1824=CARTESIAN_POINT('',(-3.,29.0000002235174,-8.00000011920929));
#1825=CARTESIAN_POINT('',(-3.,19.0000002831221,-8.00000011920929));
#1826=CARTESIAN_POINT('',(0.,29.0000002235174,-8.00000011920929));
#1827=CARTESIAN_POINT('',(0.,29.0000002235174,-8.00000011920929));
#1828=CARTESIAN_POINT('',(0.,30.0000004470348,-8.00000011920929));
#1829=CARTESIAN_POINT('',(0.,-15.0000002235174,-8.00000011920929));
#1830=CARTESIAN_POINT('',(-10.,30.0000004470348,-8.00000011920929));
#1831=CARTESIAN_POINT('',(0.,30.0000004470348,-8.00000011920929));
#1832=CARTESIAN_POINT('',(-10.,26.5000003948808,-8.00000011920929));
#1833=CARTESIAN_POINT('',(-20.,30.0000004470348,-8.00000011920929));
#1834=CARTESIAN_POINT('Origin',(-2.40192386315249,33.5000005215406,-2.));
#1835=CARTESIAN_POINT('',(-5.00000007450581,32.0000005215406,-2.));
#1836=CARTESIAN_POINT('',(-5.00000007450581,32.0000005215406,-2.));
#1837=CARTESIAN_POINT('',(-2.40192386315249,33.5000005215406,-2.));
#1838=CARTESIAN_POINT('',(-5.00000007450581,32.0000005215406,-2.));
#1839=CARTESIAN_POINT('',(-2.40192386315249,33.5000005215406,-2.));
#1840=CARTESIAN_POINT('Origin',(-2.40192386315249,36.5000005215406,-2.));
#1841=CARTESIAN_POINT('',(-2.40192386315249,36.5000005215406,-2.));
#1842=CARTESIAN_POINT('',(-2.40192386315249,33.5000005215406,-2.));
#1843=CARTESIAN_POINT('',(-2.40192386315249,36.5000005215406,-2.));
#1844=CARTESIAN_POINT('Origin',(-5.00000007450581,38.0000005215406,-2.));
#1845=CARTESIAN_POINT('',(-5.00000007450581,38.0000005215406,-2.));
#1846=CARTESIAN_POINT('',(-2.40192386315249,36.5000005215406,-2.));
#1847=CARTESIAN_POINT('',(-5.00000007450581,38.0000005215406,-9.00000022351741));
#1848=CARTESIAN_POINT('',(-5.00000007450581,38.0000005215406,-2.));
#1849=CARTESIAN_POINT('',(-4.88564076273308,37.9339751421043,-9.06602560295373));
#1850=CARTESIAN_POINT('Origin',(-7.59807628585912,36.5000005215406,-2.));
#1851=CARTESIAN_POINT('',(-3.15358982611637,39.0660259754828,-7.93397476957529));
#1852=CARTESIAN_POINT('',(-7.59807628585912,36.5000005215406,-2.));
#1853=CARTESIAN_POINT('',(-5.00000007450581,38.0000005215406,-2.));
#1854=CARTESIAN_POINT('',(-7.59807628585912,36.5000005215406,-2.));
#1855=CARTESIAN_POINT('Origin',(-7.59807628585912,33.5000005215406,-2.));
#1856=CARTESIAN_POINT('',(-7.59807628585912,33.5000005215406,-2.));
#1857=CARTESIAN_POINT('',(-7.59807628585912,36.5000005215406,-2.));
#1858=CARTESIAN_POINT('',(-7.59807628585912,33.5000005215406,-2.));
#1859=CARTESIAN_POINT('Origin',(-5.00000007450581,32.0000005215406,-2.));
#1860=CARTESIAN_POINT('',(-7.59807628585912,33.5000005215406,-2.));
#1861=CARTESIAN_POINT('Origin',(-5.00000007450581,35.0000005215406,-2.));
#1862=CARTESIAN_POINT('',(-3.5000000745058,35.0000005215406,-2.));
#1863=CARTESIAN_POINT('Origin',(-5.00000007450581,35.0000005215406,-2.));
#1864=CARTESIAN_POINT('Origin',(-5.00000007450581,-32.0000005215406,-2.));
#1865=CARTESIAN_POINT('',(-2.40192386315249,-33.5000005215406,-2.));
#1866=CARTESIAN_POINT('',(-2.40192386315249,-33.5000005215406,-2.));
#1867=CARTESIAN_POINT('',(-5.00000007450581,-32.0000005215406,-2.));
#1868=CARTESIAN_POINT('',(-5.00000007450581,-32.0000005215406,-2.));
#1869=CARTESIAN_POINT('',(-5.00000007450581,-32.0000005215406,-2.));
#1870=CARTESIAN_POINT('Origin',(-7.59807628585912,-33.5000005215406,-2.));
#1871=CARTESIAN_POINT('',(-7.59807628585912,-33.5000005215406,-2.));
#1872=CARTESIAN_POINT('',(-7.59807628585912,-33.5000005215406,-2.));
#1873=CARTESIAN_POINT('',(-7.59807628585912,-33.5000005215406,-2.));
#1874=CARTESIAN_POINT('Origin',(-7.59807628585912,-36.5000005215406,-2.));
#1875=CARTESIAN_POINT('',(-7.59807628585912,-36.5000005215406,-2.));
#1876=CARTESIAN_POINT('',(-7.59807628585912,-36.5000005215406,-2.));
#1877=CARTESIAN_POINT('',(-7.59807628585912,-36.5000005215406,-2.));
#1878=CARTESIAN_POINT('Origin',(-5.00000007450581,-38.0000005215406,-2.));
#1879=CARTESIAN_POINT('',(-5.00000007450581,-38.0000005215406,-2.));
#1880=CARTESIAN_POINT('',(-5.00000007450581,-38.0000005215406,-2.));
#1881=CARTESIAN_POINT('',(-5.00000007450581,-38.0000005215406,-9.00000022351742));
#1882=CARTESIAN_POINT('',(-5.00000007450581,-38.0000005215406,-2.));
#1883=CARTESIAN_POINT('',(-2.11435934157504,-39.6660259754828,-7.33397476957529));
#1884=CARTESIAN_POINT('Origin',(-2.40192386315249,-33.5000005215406,-2.));
#1885=CARTESIAN_POINT('',(-2.40192386315249,-36.5000005215406,-2.));
#1886=CARTESIAN_POINT('',(-2.40192386315249,-36.5000005215406,-2.));
#1887=CARTESIAN_POINT('',(-2.40192386315249,-33.5000005215406,-2.));
#1888=CARTESIAN_POINT('Origin',(-2.40192386315249,-36.5000005215406,-2.));
#1889=CARTESIAN_POINT('',(-3.84641027819176,-37.3339751421043,-9.66602560295374));
#1890=CARTESIAN_POINT('',(-2.40192386315249,-36.5000005215406,-2.));
#1891=CARTESIAN_POINT('Origin',(-5.00000007450581,-35.0000005215406,-2.));
#1892=CARTESIAN_POINT('',(-3.5000000745058,-35.0000005215406,-2.));
#1893=CARTESIAN_POINT('Origin',(-5.00000007450581,-35.0000005215406,-2.));
#1894=CARTESIAN_POINT('Origin',(0.,38.5000005960464,-8.50000014901161));
#1895=CARTESIAN_POINT('',(-10.,40.0000005960464,-7.00000014901161));
#1896=CARTESIAN_POINT('',(-10.,38.5000005960464,-8.50000014901161));
#1897=CARTESIAN_POINT('',(0.,40.0000005960464,-7.00000014901161));
#1898=CARTESIAN_POINT('',(0.,40.0000005960464,-7.00000014901161));
#1899=CARTESIAN_POINT('',(0.,30.0000004693866,-17.0000002756715));
#1900=CARTESIAN_POINT('Origin',(-5.00000007450581,35.0000005215406,0.));
#1901=CARTESIAN_POINT('',(-3.5000000745058,35.0000005215406,0.));
#1902=CARTESIAN_POINT('Origin',(-5.00000007450581,35.0000005215406,0.));
#1903=CARTESIAN_POINT('',(-3.5000000745058,35.0000005215406,0.));
#1904=CARTESIAN_POINT('Origin',(-5.00000007450581,-35.0000005215406,0.));
#1905=CARTESIAN_POINT('',(-3.5000000745058,-35.0000005215406,0.));
#1906=CARTESIAN_POINT('Origin',(-5.00000007450581,-35.0000005215406,0.));
#1907=CARTESIAN_POINT('',(-3.5000000745058,-35.0000005215406,0.));
#1908=CARTESIAN_POINT('Origin',(0.,-38.5000005960464,-8.50000014901161));
#1909=CARTESIAN_POINT('',(0.,-40.0000005960464,-7.00000014901161));
#1910=CARTESIAN_POINT('',(0.,-30.0000004693866,-17.0000002756715));
#1911=CARTESIAN_POINT('',(-10.,-40.0000005960464,-7.00000014901161));
#1912=CARTESIAN_POINT('',(0.,-40.0000005960464,-7.00000014901161));
#1913=CARTESIAN_POINT('',(-10.,-38.5000005960464,-8.50000014901161));
#1914=CARTESIAN_POINT('Origin',(0.,-40.0000005960464,-10.0000001490116));
#1915=CARTESIAN_POINT('',(0.,-40.0000005960464,0.));
#1916=CARTESIAN_POINT('',(0.,-40.0000005960464,-7.00000010430813));
#1917=CARTESIAN_POINT('',(-10.,-40.0000005960464,0.));
#1918=CARTESIAN_POINT('',(0.,-40.0000005960464,0.));
#1919=CARTESIAN_POINT('',(-10.,-40.0000005960464,0.));
#1920=CARTESIAN_POINT('Origin',(0.,30.0000004470348,-10.0000001490116));
#1921=CARTESIAN_POINT('',(0.,30.0000004470348,0.));
#1922=CARTESIAN_POINT('',(0.,30.0000004470348,-7.00000010430813));
#1923=CARTESIAN_POINT('',(-10.,30.0000004470348,0.));
#1924=CARTESIAN_POINT('',(0.,30.0000004470348,0.));
#1925=CARTESIAN_POINT('',(-10.,30.0000004470348,-10.0000001490116));
#1926=CARTESIAN_POINT('Origin',(0.,40.0000005960464,0.));
#1927=CARTESIAN_POINT('',(-10.,40.0000005960464,0.));
#1928=CARTESIAN_POINT('',(-10.,40.0000005960464,0.));
#1929=CARTESIAN_POINT('',(0.,40.0000005960464,0.));
#1930=CARTESIAN_POINT('',(0.,40.0000005960464,0.));
#1931=CARTESIAN_POINT('',(0.,40.0000005960464,-2.00000002980232));
#1932=CARTESIAN_POINT('Origin',(0.,30.0000004470348,0.));
#1933=CARTESIAN_POINT('',(0.,15.0000002235174,0.));
#1934=CARTESIAN_POINT('',(-10.,30.0000004470348,0.));
#1935=CARTESIAN_POINT('Origin',(-10.,35.0000005215406,-5.00000007450581));
#1936=CARTESIAN_POINT('Origin',(0.,0.,-4.00000005960464));
#1937=CARTESIAN_POINT('',(0.,29.0000002235174,2.00000002980232));
#1938=CARTESIAN_POINT('',(0.,29.0000002235174,-7.00000001490117));
#1939=CARTESIAN_POINT('',(0.,50.0000007450581,2.00000002980232));
#1940=CARTESIAN_POINT('',(0.,-50.0000007450581,2.00000002980232));
#1941=CARTESIAN_POINT('',(0.,50.0000007450581,2.00000002980232));
#1942=CARTESIAN_POINT('',(0.,43.0000006705523,-5.00000007450581));
#1943=CARTESIAN_POINT('Origin',(0.,45.0000006705523,-5.00000007450581));
#1944=CARTESIAN_POINT('Origin',(0.,-30.0000004470348,0.));
#1945=CARTESIAN_POINT('',(-10.,-30.0000004470348,0.));
#1946=CARTESIAN_POINT('',(-10.,-30.0000004470348,-10.0000001490116));
#1947=CARTESIAN_POINT('',(0.,-30.0000004470348,0.));
#1948=CARTESIAN_POINT('',(0.,-30.0000004470348,0.));
#1949=CARTESIAN_POINT('',(0.,-30.0000004470348,-2.00000002980232));
#1950=CARTESIAN_POINT('Origin',(0.,-40.0000005960464,0.));
#1951=CARTESIAN_POINT('',(0.,-20.0000002980232,0.));
#1952=CARTESIAN_POINT('',(-10.,-30.0000004470348,0.));
#1953=CARTESIAN_POINT('Origin',(-10.,-35.0000005215406,-5.00000007450581));
#1954=CARTESIAN_POINT('Origin',(0.,-15.9999997764826,-5.50000005960464));
#1955=CARTESIAN_POINT('',(0.,-15.9999997764826,-5.50000005960464));
#1956=CARTESIAN_POINT('',(0.,-13.9126979761204,-5.50000005960464));
#1957=CARTESIAN_POINT('',(0.,-7.99999988824129,-5.50000005960464));
#1958=CARTESIAN_POINT('',(2.,-15.9999997764826,-5.50000005960464));
#1959=CARTESIAN_POINT('',(0.,-15.9999997764826,-5.50000005960464));
#1960=CARTESIAN_POINT('',(2.,-13.9126979761204,-5.50000005960464));
#1961=CARTESIAN_POINT('',(2.,-12.9999997764826,-5.50000005960464));
#1962=CARTESIAN_POINT('',(0.,-13.9126979761204,-5.50000005960464));
#1963=CARTESIAN_POINT('Origin',(0.,-7.99999977648258,-4.00000005960464));
#1964=CARTESIAN_POINT('',(2.,-6.90000026415706,2.00000002980232));
#1965=CARTESIAN_POINT('Origin',(2.,-7.99999977648258,-4.00000005960464));
#1966=CARTESIAN_POINT('',(0.,-6.90000026415706,2.00000002980232));
#1967=CARTESIAN_POINT('',(0.,-6.90000026415706,2.00000002980232));
#1968=CARTESIAN_POINT('Origin',(0.,-7.99999977648258,-4.00000005960464));
#1969=CARTESIAN_POINT('Origin',(-3.,-7.99999977648258,-4.00000005960464));
#1970=CARTESIAN_POINT('Origin',(0.,-7.99999977648258,-4.00000005960464));
#1971=CARTESIAN_POINT('',(0.,-9.09999928880811,2.00000002980232));
#1972=CARTESIAN_POINT('',(0.,-13.9126979761204,-2.50000005960464));
#1973=CARTESIAN_POINT('Origin',(0.,-7.99999977648258,-4.00000005960464));
#1974=CARTESIAN_POINT('',(2.,-9.09999928880811,2.00000002980232));
#1975=CARTESIAN_POINT('',(0.,-9.09999928880811,2.00000002980232));
#1976=CARTESIAN_POINT('',(2.,-13.9126979761204,-2.50000005960464));
#1977=CARTESIAN_POINT('Origin',(2.,-7.99999977648258,-4.00000005960464));
#1978=CARTESIAN_POINT('',(0.,-13.9126979761204,-2.50000005960464));
#1979=CARTESIAN_POINT('Origin',(2.,-8.94999977648258,-4.00000005960464));
#1980=CARTESIAN_POINT('Origin',(2.,-7.99999977648258,-4.00000005960464));
#1981=CARTESIAN_POINT('',(2.,-15.9999997764826,-2.50000005960464));
#1982=CARTESIAN_POINT('',(2.,-15.9999997764826,-5.50000005960464));
#1983=CARTESIAN_POINT('',(2.,-15.9999997764826,-2.50000005960464));
#1984=CARTESIAN_POINT('',(2.,20.5250004842877,2.00000002980232));
#1985=CARTESIAN_POINT('',(2.,-10.9999997764826,-4.00000005960465));
#1986=CARTESIAN_POINT('Origin',(2.,-7.99999977648258,-4.00000005960464));
#1987=CARTESIAN_POINT('Origin',(-3.,-8.94999977648258,-4.00000005960464));
#1988=CARTESIAN_POINT('Origin',(-3.,-7.99999977648258,-4.00000005960464));
#1989=CARTESIAN_POINT('Origin',(0.,-15.9999997764826,-2.50000005960464));
#1990=CARTESIAN_POINT('',(0.,-15.9999997764826,-2.50000005960464));
#1991=CARTESIAN_POINT('',(0.,-15.9999997764826,-3.25000005960464));
#1992=CARTESIAN_POINT('',(0.,-15.9999997764826,-2.50000005960464));
#1993=CARTESIAN_POINT('Origin',(0.,-13.9126979761204,-2.50000005960464));
#1994=CARTESIAN_POINT('',(0.,-6.95634898806019,-2.50000005960464));
#1995=CARTESIAN_POINT('Origin',(0.,-7.99999977648258,-4.00000005960464));
#1996=CARTESIAN_POINT('Origin',(0.,-7.99999977648258,-4.00000005960464));
#1997=CARTESIAN_POINT('Origin',(0.,-45.0000006705523,-5.00000007450581));
#1998=CARTESIAN_POINT('',(0.,-47.0000006705523,-5.00000007450581));
#1999=CARTESIAN_POINT('Origin',(0.,-45.0000006705523,-5.00000007450581));
#2000=CARTESIAN_POINT('',(2.,-47.0000006705523,-5.00000007450581));
#2001=CARTESIAN_POINT('',(0.,-47.0000006705523,-5.00000007450581));
#2002=CARTESIAN_POINT('Origin',(2.,-45.0000006705523,-5.00000007450581));
#2003=CARTESIAN_POINT('Origin',(2.,-45.0000006705523,-5.00000007450581));
#2004=CARTESIAN_POINT('Origin',(-3.,15.0000002235174,-4.00000005960464));
#2005=CARTESIAN_POINT('',(-3.,1.00000022351742,-9.99999997019768));
#2006=CARTESIAN_POINT('',(-3.,29.0000002235174,2.00000002980232));
#2007=CARTESIAN_POINT('Origin',(0.,29.0000002235174,-9.99999997019768));
#2008=CARTESIAN_POINT('',(2.,29.0000002235174,2.00000002980232));
#2009=CARTESIAN_POINT('',(2.,29.0000002235174,2.00000002980232));
#2010=CARTESIAN_POINT('',(0.,29.0000002235174,2.00000002980232));
#2011=CARTESIAN_POINT('Origin',(0.,1.00000022351742,2.00000002980232));
#2012=CARTESIAN_POINT('',(0.,1.00000022351741,2.00000002980232));
#2013=CARTESIAN_POINT('',(0.,1.00000022351742,-1.00000001490116));
#2014=CARTESIAN_POINT('',(2.,1.00000022351742,2.00000002980232));
#2015=CARTESIAN_POINT('',(0.,1.00000022351741,2.00000002980232));
#2016=CARTESIAN_POINT('',(2.,1.00000022351742,-9.99999997019768));
#2017=CARTESIAN_POINT('Origin',(2.,15.0000002235174,-4.00000005960464));
#2018=CARTESIAN_POINT('',(2.,32.5000004842877,2.00000002980232));
#2019=CARTESIAN_POINT('',(2.,3.25000022351742,-4.00000005960464));
#2020=CARTESIAN_POINT('Origin',(2.,4.75000022351742,-4.00000005960464));
#2021=CARTESIAN_POINT('',(2.,23.7500002235174,-4.00000005960464));
#2022=CARTESIAN_POINT('Origin',(2.,25.2500002235174,-4.00000005960464));
#2023=CARTESIAN_POINT('',(2.,7.00000010430813,0.));
#2024=CARTESIAN_POINT('',(2.,23.0000003427267,0.));
#2025=CARTESIAN_POINT('',(2.,11.0000001639128,0.));
#2026=CARTESIAN_POINT('',(2.,7.00000010430813,-8.00000011920929));
#2027=CARTESIAN_POINT('',(2.,7.00000010430813,-6.00000008940697));
#2028=CARTESIAN_POINT('',(2.,23.0000003427267,-8.00000011920929));
#2029=CARTESIAN_POINT('',(2.,19.0000002831221,-8.00000011920929));
#2030=CARTESIAN_POINT('',(2.,23.0000003427267,-2.00000002980232));
#2031=CARTESIAN_POINT('Origin',(0.,45.0000006705523,-5.00000007450581));
#2032=CARTESIAN_POINT('',(2.,43.0000006705523,-5.00000007450581));
#2033=CARTESIAN_POINT('',(0.,43.0000006705523,-5.00000007450581));
#2034=CARTESIAN_POINT('Origin',(2.,45.0000006705523,-5.00000007450581));
#2035=CARTESIAN_POINT('Origin',(2.,45.0000006705523,-5.00000007450581));
#2036=CARTESIAN_POINT('Origin',(0.,23.0000003427267,0.));
#2037=CARTESIAN_POINT('',(4.,23.0000003427267,-8.00000011920929));
#2038=CARTESIAN_POINT('',(0.,23.0000003427267,-8.00000011920929));
#2039=CARTESIAN_POINT('',(4.,23.0000003427267,0.));
#2040=CARTESIAN_POINT('',(4.,23.0000003427267,0.));
#2041=CARTESIAN_POINT('',(0.,23.0000003427267,0.));
#2042=CARTESIAN_POINT('Origin',(0.,23.0000003427267,-8.00000011920929));
#2043=CARTESIAN_POINT('',(4.,7.00000010430813,-8.00000011920929));
#2044=CARTESIAN_POINT('',(0.,7.00000010430813,-8.00000011920929));
#2045=CARTESIAN_POINT('',(4.,23.0000003427267,-8.00000011920929));
#2046=CARTESIAN_POINT('Origin',(0.,0.,-4.00000005960464));
#2047=CARTESIAN_POINT('',(0.,-50.0000007450581,2.00000002980232));
#2048=CARTESIAN_POINT('Origin',(-20.,0.,-9.00000013411045));
#2049=CARTESIAN_POINT('Origin',(0.,25.2500002235174,-4.00000005960464));
#2050=CARTESIAN_POINT('',(4.,23.7500002235174,-4.00000005960464));
#2051=CARTESIAN_POINT('Origin',(4.,25.2500002235174,-4.00000005960464));
#2052=CARTESIAN_POINT('',(0.,23.7500002235174,-4.00000005960464));
#2053=CARTESIAN_POINT('Origin',(0.,-24.0000004470348,-4.00000005960464));
#2054=CARTESIAN_POINT('',(4.,-27.0000004470348,-4.00000005960465));
#2055=CARTESIAN_POINT('Origin',(4.,-24.0000004470348,-4.00000005960464));
#2056=CARTESIAN_POINT('',(0.,-27.0000004470348,-4.00000005960465));
#2057=CARTESIAN_POINT('',(0.,-27.0000004470348,-4.00000005960465));
#2058=CARTESIAN_POINT('Origin',(0.,-24.0000004470348,-4.00000005960464));
#2059=CARTESIAN_POINT('Origin',(0.,-7.99999977648258,-4.00000005960464));
#2060=CARTESIAN_POINT('',(4.,-10.9999997764826,-4.00000005960465));
#2061=CARTESIAN_POINT('Origin',(4.,-7.99999977648258,-4.00000005960464));
#2062=CARTESIAN_POINT('',(0.,-10.9999997764826,-4.00000005960465));
#2063=CARTESIAN_POINT('Origin',(0.,7.00000010430813,-8.00000011920929));
#2064=CARTESIAN_POINT('',(4.,7.00000010430813,0.));
#2065=CARTESIAN_POINT('',(0.,7.00000010430813,0.));
#2066=CARTESIAN_POINT('',(4.,7.00000010430813,-8.00000011920929));
#2067=CARTESIAN_POINT('Origin',(0.,7.00000010430813,0.));
#2068=CARTESIAN_POINT('',(4.,7.00000010430813,0.));
#2069=CARTESIAN_POINT('Origin',(0.,4.75000022351742,-4.00000005960464));
#2070=CARTESIAN_POINT('',(4.,3.25000022351742,-4.00000005960464));
#2071=CARTESIAN_POINT('Origin',(4.,4.75000022351742,-4.00000005960464));
#2072=CARTESIAN_POINT('',(0.,3.25000022351742,-4.00000005960464));
#2073=CARTESIAN_POINT('Origin',(0.,-50.0000007450581,2.00000002980232));
#2074=CARTESIAN_POINT('',(0.,-50.0000007450581,2.00000002980232));
#2075=CARTESIAN_POINT('',(0.,-50.0000007450581,-10.0000001490116));
#2076=CARTESIAN_POINT('',(4.,-50.0000007450581,2.00000002980232));
#2077=CARTESIAN_POINT('',(4.,-50.0000007450581,-10.0000001490116));
#2078=CARTESIAN_POINT('',(0.,-50.0000007450581,2.00000002980232));
#2079=CARTESIAN_POINT('Origin',(0.,50.0000007450581,2.00000002980232));
#2080=CARTESIAN_POINT('',(0.,-50.0000007450581,2.00000002980232));
#2081=CARTESIAN_POINT('',(4.,50.0000007450581,2.00000002980232));
#2082=CARTESIAN_POINT('',(4.,-50.0000007450581,2.00000002980232));
#2083=CARTESIAN_POINT('',(0.,50.0000007450581,2.00000002980232));
#2084=CARTESIAN_POINT('Origin',(0.,50.0000007450581,-10.0000001490116));
#2085=CARTESIAN_POINT('',(4.,50.0000007450581,2.00000002980232));
#2086=CARTESIAN_POINT('Origin',(4.,0.,-4.00000005960464));
#2087=CARTESIAN_POINT('Origin',(0.,0.,-4.00000005960464));
#2088=UNCERTAINTY_MEASURE_WITH_UNIT(LENGTH_MEASURE(0.01),#2092,
'DISTANCE_ACCURACY_VALUE',
'Maximum model space distance between geometric entities at asserted c
onnectivities');
#2089=UNCERTAINTY_MEASURE_WITH_UNIT(LENGTH_MEASURE(0.01),#2092,
'DISTANCE_ACCURACY_VALUE',
'Maximum model space distance between geometric entities at asserted c
onnectivities');
#2090=(
GEOMETRIC_REPRESENTATION_CONTEXT(3)
GLOBAL_UNCERTAINTY_ASSIGNED_CONTEXT((#2088))
GLOBAL_UNIT_ASSIGNED_CONTEXT((#2092,#2094,#2095))
REPRESENTATION_CONTEXT('','3D')
);
#2091=(
GEOMETRIC_REPRESENTATION_CONTEXT(3)
GLOBAL_UNCERTAINTY_ASSIGNED_CONTEXT((#2089))
GLOBAL_UNIT_ASSIGNED_CONTEXT((#2092,#2094,#2095))
REPRESENTATION_CONTEXT('','3D')
);
#2092=(
LENGTH_UNIT()
NAMED_UNIT(*)
SI_UNIT(.MILLI.,.METRE.)
);
#2093=(
LENGTH_UNIT()
NAMED_UNIT(*)
SI_UNIT($,.METRE.)
);
#2094=(
NAMED_UNIT(*)
PLANE_ANGLE_UNIT()
SI_UNIT($,.RADIAN.)
);
#2095=(
NAMED_UNIT(*)
SI_UNIT($,.STERADIAN.)
SOLID_ANGLE_UNIT()
);
#2096=SHAPE_DEFINITION_REPRESENTATION(#2097,#2098);
#2097=PRODUCT_DEFINITION_SHAPE('',$,#2100);
#2098=SHAPE_REPRESENTATION('',(#1308),#2090);
#2099=PRODUCT_DEFINITION_CONTEXT('part definition',#2104,'design');
#2100=PRODUCT_DEFINITION('panel','panel',#2101,#2099);
#2101=PRODUCT_DEFINITION_FORMATION('',$,#2106);
#2102=PRODUCT_RELATED_PRODUCT_CATEGORY('panel','panel',(#2106));
#2103=APPLICATION_PROTOCOL_DEFINITION('international standard',
'automotive_design',2009,#2104);
#2104=APPLICATION_CONTEXT(
'Core Data for Automotive Mechanical Design Process');
#2105=PRODUCT_CONTEXT('part definition',#2104,'mechanical');
#2106=PRODUCT('panel','panel',$,(#2105));
#2107=PRESENTATION_STYLE_ASSIGNMENT((#2108));
#2108=SURFACE_STYLE_USAGE(.BOTH.,#2109);
#2109=SURFACE_SIDE_STYLE('',(#2110));
#2110=SURFACE_STYLE_FILL_AREA(#2111);
#2111=FILL_AREA_STYLE('Steel - Satin',(#2112));
#2112=FILL_AREA_STYLE_COLOUR('Steel - Satin',#2113);
#2113=COLOUR_RGB('Steel - Satin',0.627450980392157,0.627450980392157,0.627450980392157);
ENDSEC;
END-ISO-10303-21;
