ISO-10303-21;
HEADER;
/* Generated by software containing ST-Developer
 * from STEP Tools, Inc. (www.steptools.com) 
 */

FILE_DESCRIPTION(
/* description */ (''),
/* implementation_level */ '2;1');

FILE_NAME(
/* name */ 'ugate_bot.step',
/* time_stamp */ '2025-12-31T18:05:07+01:00',
/* author */ (''),
/* organization */ (''),
/* preprocessor_version */ 'ST-DEVELOPER v20.1',
/* originating_system */ 'Autodesk Translation Framework v14.21.0.0',
/* authorisation */ '');

FILE_SCHEMA (('AUTOMOTIVE_DESIGN { 1 0 10303 214 3 1 1 }'));
ENDSEC;

DATA;
#10=MECHANICAL_DESIGN_GEOMETRIC_PRESENTATION_REPRESENTATION('',(#13),#1269);
#11=SHAPE_REPRESENTATION_RELATIONSHIP('SRR','None',#1276,#12);
#12=ADVANCED_BREP_SHAPE_REPRESENTATION('',(#14),#1268);
#13=STYLED_ITEM('',(#1285),#14);
#14=MANIFOLD_SOLID_BREP('Body1',#769);
#15=CYLINDRICAL_SURFACE('',#831,1.49999999999999);
#16=CYLINDRICAL_SURFACE('',#832,1.49999999999999);
#17=CYLINDRICAL_SURFACE('',#833,1.49999999999999);
#18=CYLINDRICAL_SURFACE('',#834,1.49999999999999);
#19=CYLINDRICAL_SURFACE('',#835,1.49999999999999);
#20=CYLINDRICAL_SURFACE('',#836,1.49999999999999);
#21=CYLINDRICAL_SURFACE('',#837,1.49999999999999);
#22=CYLINDRICAL_SURFACE('',#838,1.49999999999999);
#23=CYLINDRICAL_SURFACE('',#839,1.49999999999999);
#24=CYLINDRICAL_SURFACE('',#840,1.49999999999999);
#25=CYLINDRICAL_SURFACE('',#841,1.49999999999999);
#26=CYLINDRICAL_SURFACE('',#842,1.49999999999999);
#27=CYLINDRICAL_SURFACE('',#843,1.49999999999999);
#28=CYLINDRICAL_SURFACE('',#844,1.49999999999999);
#29=CYLINDRICAL_SURFACE('',#845,1.49999999999999);
#30=CYLINDRICAL_SURFACE('',#846,1.49999999999999);
#31=FACE_BOUND('',#138,.T.);
#32=FACE_BOUND('',#139,.T.);
#33=FACE_BOUND('',#140,.T.);
#34=FACE_BOUND('',#141,.T.);
#35=FACE_BOUND('',#142,.T.);
#36=FACE_BOUND('',#143,.T.);
#37=FACE_BOUND('',#144,.T.);
#38=FACE_BOUND('',#145,.T.);
#39=FACE_BOUND('',#146,.T.);
#40=FACE_BOUND('',#147,.T.);
#41=FACE_BOUND('',#148,.T.);
#42=FACE_BOUND('',#149,.T.);
#43=FACE_BOUND('',#150,.T.);
#44=FACE_BOUND('',#151,.T.);
#45=FACE_BOUND('',#152,.T.);
#46=FACE_BOUND('',#153,.T.);
#47=FACE_BOUND('',#163,.T.);
#48=FACE_BOUND('',#164,.T.);
#49=FACE_BOUND('',#165,.T.);
#50=FACE_BOUND('',#166,.T.);
#51=FACE_BOUND('',#167,.T.);
#52=FACE_BOUND('',#168,.T.);
#53=FACE_BOUND('',#169,.T.);
#54=FACE_BOUND('',#170,.T.);
#55=FACE_BOUND('',#171,.T.);
#56=FACE_BOUND('',#172,.T.);
#57=FACE_BOUND('',#173,.T.);
#58=FACE_BOUND('',#174,.T.);
#59=FACE_BOUND('',#175,.T.);
#60=FACE_BOUND('',#176,.T.);
#61=FACE_BOUND('',#177,.T.);
#62=FACE_BOUND('',#178,.T.);
#63=CIRCLE('',#790,1.49999999999999);
#64=CIRCLE('',#791,1.49999999999999);
#65=CIRCLE('',#792,1.49999999999999);
#66=CIRCLE('',#793,1.49999999999999);
#67=CIRCLE('',#794,1.49999999999999);
#68=CIRCLE('',#795,1.49999999999999);
#69=CIRCLE('',#796,1.49999999999999);
#70=CIRCLE('',#797,1.49999999999999);
#71=CIRCLE('',#798,1.49999999999999);
#72=CIRCLE('',#799,1.49999999999999);
#73=CIRCLE('',#800,1.49999999999999);
#74=CIRCLE('',#801,1.49999999999999);
#75=CIRCLE('',#802,1.49999999999999);
#76=CIRCLE('',#803,1.49999999999999);
#77=CIRCLE('',#804,1.49999999999999);
#78=CIRCLE('',#805,1.49999999999999);
#79=CIRCLE('',#815,1.49999999999999);
#80=CIRCLE('',#816,1.49999999999999);
#81=CIRCLE('',#817,1.49999999999999);
#82=CIRCLE('',#818,1.49999999999999);
#83=CIRCLE('',#819,1.49999999999999);
#84=CIRCLE('',#820,1.49999999999999);
#85=CIRCLE('',#821,1.49999999999999);
#86=CIRCLE('',#822,1.49999999999999);
#87=CIRCLE('',#823,1.49999999999999);
#88=CIRCLE('',#824,1.49999999999999);
#89=CIRCLE('',#825,1.49999999999999);
#90=CIRCLE('',#826,1.49999999999999);
#91=CIRCLE('',#827,1.49999999999999);
#92=CIRCLE('',#828,1.49999999999999);
#93=CIRCLE('',#829,1.49999999999999);
#94=CIRCLE('',#830,1.49999999999999);
#95=FACE_OUTER_BOUND('',#131,.T.);
#96=FACE_OUTER_BOUND('',#132,.T.);
#97=FACE_OUTER_BOUND('',#133,.T.);
#98=FACE_OUTER_BOUND('',#134,.T.);
#99=FACE_OUTER_BOUND('',#135,.T.);
#100=FACE_OUTER_BOUND('',#136,.T.);
#101=FACE_OUTER_BOUND('',#137,.T.);
#102=FACE_OUTER_BOUND('',#154,.T.);
#103=FACE_OUTER_BOUND('',#155,.T.);
#104=FACE_OUTER_BOUND('',#156,.T.);
#105=FACE_OUTER_BOUND('',#157,.T.);
#106=FACE_OUTER_BOUND('',#158,.T.);
#107=FACE_OUTER_BOUND('',#159,.T.);
#108=FACE_OUTER_BOUND('',#160,.T.);
#109=FACE_OUTER_BOUND('',#161,.T.);
#110=FACE_OUTER_BOUND('',#162,.T.);
#111=FACE_OUTER_BOUND('',#179,.T.);
#112=FACE_OUTER_BOUND('',#180,.T.);
#113=FACE_OUTER_BOUND('',#181,.T.);
#114=FACE_OUTER_BOUND('',#182,.T.);
#115=FACE_OUTER_BOUND('',#183,.T.);
#116=FACE_OUTER_BOUND('',#184,.T.);
#117=FACE_OUTER_BOUND('',#185,.T.);
#118=FACE_OUTER_BOUND('',#186,.T.);
#119=FACE_OUTER_BOUND('',#187,.T.);
#120=FACE_OUTER_BOUND('',#188,.T.);
#121=FACE_OUTER_BOUND('',#189,.T.);
#122=FACE_OUTER_BOUND('',#190,.T.);
#123=FACE_OUTER_BOUND('',#191,.T.);
#124=FACE_OUTER_BOUND('',#192,.T.);
#125=FACE_OUTER_BOUND('',#193,.T.);
#126=FACE_OUTER_BOUND('',#194,.T.);
#127=FACE_OUTER_BOUND('',#195,.T.);
#128=FACE_OUTER_BOUND('',#196,.T.);
#129=FACE_OUTER_BOUND('',#197,.T.);
#130=FACE_OUTER_BOUND('',#198,.T.);
#131=EDGE_LOOP('',(#509,#510,#511,#512));
#132=EDGE_LOOP('',(#513,#514,#515,#516));
#133=EDGE_LOOP('',(#517,#518,#519,#520));
#134=EDGE_LOOP('',(#521,#522,#523,#524));
#135=EDGE_LOOP('',(#525,#526,#527,#528));
#136=EDGE_LOOP('',(#529,#530,#531,#532,#533,#534,#535));
#137=EDGE_LOOP('',(#536,#537,#538,#539));
#138=EDGE_LOOP('',(#540));
#139=EDGE_LOOP('',(#541));
#140=EDGE_LOOP('',(#542));
#141=EDGE_LOOP('',(#543));
#142=EDGE_LOOP('',(#544));
#143=EDGE_LOOP('',(#545));
#144=EDGE_LOOP('',(#546));
#145=EDGE_LOOP('',(#547));
#146=EDGE_LOOP('',(#548));
#147=EDGE_LOOP('',(#549));
#148=EDGE_LOOP('',(#550));
#149=EDGE_LOOP('',(#551));
#150=EDGE_LOOP('',(#552));
#151=EDGE_LOOP('',(#553));
#152=EDGE_LOOP('',(#554));
#153=EDGE_LOOP('',(#555));
#154=EDGE_LOOP('',(#556,#557,#558,#559,#560,#561,#562,#563,#564,#565,#566,
#567));
#155=EDGE_LOOP('',(#568,#569,#570,#571,#572,#573,#574));
#156=EDGE_LOOP('',(#575,#576,#577,#578));
#157=EDGE_LOOP('',(#579,#580,#581,#582));
#158=EDGE_LOOP('',(#583,#584,#585,#586));
#159=EDGE_LOOP('',(#587,#588,#589,#590));
#160=EDGE_LOOP('',(#591,#592,#593,#594));
#161=EDGE_LOOP('',(#595,#596,#597,#598,#599,#600,#601));
#162=EDGE_LOOP('',(#602,#603,#604,#605));
#163=EDGE_LOOP('',(#606));
#164=EDGE_LOOP('',(#607));
#165=EDGE_LOOP('',(#608));
#166=EDGE_LOOP('',(#609));
#167=EDGE_LOOP('',(#610));
#168=EDGE_LOOP('',(#611));
#169=EDGE_LOOP('',(#612));
#170=EDGE_LOOP('',(#613));
#171=EDGE_LOOP('',(#614));
#172=EDGE_LOOP('',(#615));
#173=EDGE_LOOP('',(#616));
#174=EDGE_LOOP('',(#617));
#175=EDGE_LOOP('',(#618));
#176=EDGE_LOOP('',(#619));
#177=EDGE_LOOP('',(#620));
#178=EDGE_LOOP('',(#621));
#179=EDGE_LOOP('',(#622,#623,#624,#625));
#180=EDGE_LOOP('',(#626,#627,#628,#629));
#181=EDGE_LOOP('',(#630,#631,#632,#633));
#182=EDGE_LOOP('',(#634,#635,#636,#637));
#183=EDGE_LOOP('',(#638,#639,#640,#641));
#184=EDGE_LOOP('',(#642,#643,#644,#645));
#185=EDGE_LOOP('',(#646,#647,#648,#649));
#186=EDGE_LOOP('',(#650,#651,#652,#653));
#187=EDGE_LOOP('',(#654,#655,#656,#657));
#188=EDGE_LOOP('',(#658,#659,#660,#661));
#189=EDGE_LOOP('',(#662,#663,#664,#665));
#190=EDGE_LOOP('',(#666,#667,#668,#669));
#191=EDGE_LOOP('',(#670,#671,#672,#673));
#192=EDGE_LOOP('',(#674,#675,#676,#677));
#193=EDGE_LOOP('',(#678,#679,#680,#681));
#194=EDGE_LOOP('',(#682,#683,#684,#685));
#195=EDGE_LOOP('',(#686,#687,#688,#689,#690,#691,#692,#693,#694,#695,#696,
#697));
#196=EDGE_LOOP('',(#698,#699,#700,#701));
#197=EDGE_LOOP('',(#702,#703,#704,#705));
#198=EDGE_LOOP('',(#706,#707,#708,#709,#710,#711,#712));
#199=LINE('',#1063,#269);
#200=LINE('',#1065,#270);
#201=LINE('',#1067,#271);
#202=LINE('',#1068,#272);
#203=LINE('',#1072,#273);
#204=LINE('',#1074,#274);
#205=LINE('',#1076,#275);
#206=LINE('',#1077,#276);
#207=LINE('',#1080,#277);
#208=LINE('',#1082,#278);
#209=LINE('',#1083,#279);
#210=LINE('',#1087,#280);
#211=LINE('',#1089,#281);
#212=LINE('',#1091,#282);
#213=LINE('',#1092,#283);
#214=LINE('',#1094,#284);
#215=LINE('',#1095,#285);
#216=LINE('',#1097,#286);
#217=LINE('',#1098,#287);
#218=LINE('',#1102,#288);
#219=LINE('',#1104,#289);
#220=LINE('',#1106,#290);
#221=LINE('',#1107,#291);
#222=LINE('',#1142,#292);
#223=LINE('',#1144,#293);
#224=LINE('',#1146,#294);
#225=LINE('',#1148,#295);
#226=LINE('',#1150,#296);
#227=LINE('',#1151,#297);
#228=LINE('',#1153,#298);
#229=LINE('',#1154,#299);
#230=LINE('',#1157,#300);
#231=LINE('',#1158,#301);
#232=LINE('',#1162,#302);
#233=LINE('',#1164,#303);
#234=LINE('',#1166,#304);
#235=LINE('',#1167,#305);
#236=LINE('',#1169,#306);
#237=LINE('',#1170,#307);
#238=LINE('',#1173,#308);
#239=LINE('',#1175,#309);
#240=LINE('',#1176,#310);
#241=LINE('',#1179,#311);
#242=LINE('',#1181,#312);
#243=LINE('',#1182,#313);
#244=LINE('',#1185,#314);
#245=LINE('',#1187,#315);
#246=LINE('',#1188,#316);
#247=LINE('',#1190,#317);
#248=LINE('',#1192,#318);
#249=LINE('',#1226,#319);
#250=LINE('',#1228,#320);
#251=LINE('',#1230,#321);
#252=LINE('',#1232,#322);
#253=LINE('',#1234,#323);
#254=LINE('',#1236,#324);
#255=LINE('',#1238,#325);
#256=LINE('',#1240,#326);
#257=LINE('',#1242,#327);
#258=LINE('',#1244,#328);
#259=LINE('',#1246,#329);
#260=LINE('',#1248,#330);
#261=LINE('',#1250,#331);
#262=LINE('',#1252,#332);
#263=LINE('',#1254,#333);
#264=LINE('',#1256,#334);
#265=LINE('',#1259,#335);
#266=LINE('',#1260,#336);
#267=LINE('',#1261,#337);
#268=LINE('',#1264,#338);
#269=VECTOR('',#855,10.);
#270=VECTOR('',#856,10.);
#271=VECTOR('',#857,10.);
#272=VECTOR('',#858,10.);
#273=VECTOR('',#861,10.);
#274=VECTOR('',#862,10.);
#275=VECTOR('',#863,10.);
#276=VECTOR('',#864,10.);
#277=VECTOR('',#867,10.);
#278=VECTOR('',#868,10.);
#279=VECTOR('',#869,10.);
#280=VECTOR('',#872,10.);
#281=VECTOR('',#873,10.);
#282=VECTOR('',#874,10.);
#283=VECTOR('',#875,10.);
#284=VECTOR('',#878,10.);
#285=VECTOR('',#879,10.);
#286=VECTOR('',#882,10.);
#287=VECTOR('',#883,10.);
#288=VECTOR('',#886,10.);
#289=VECTOR('',#887,10.);
#290=VECTOR('',#888,10.);
#291=VECTOR('',#889,10.);
#292=VECTOR('',#924,10.);
#293=VECTOR('',#925,10.);
#294=VECTOR('',#926,10.);
#295=VECTOR('',#927,10.);
#296=VECTOR('',#928,10.);
#297=VECTOR('',#929,10.);
#298=VECTOR('',#930,10.);
#299=VECTOR('',#931,10.);
#300=VECTOR('',#934,10.);
#301=VECTOR('',#935,10.);
#302=VECTOR('',#938,10.);
#303=VECTOR('',#939,10.);
#304=VECTOR('',#940,10.);
#305=VECTOR('',#941,10.);
#306=VECTOR('',#944,10.);
#307=VECTOR('',#945,10.);
#308=VECTOR('',#948,10.);
#309=VECTOR('',#949,10.);
#310=VECTOR('',#950,10.);
#311=VECTOR('',#953,10.);
#312=VECTOR('',#954,10.);
#313=VECTOR('',#955,10.);
#314=VECTOR('',#958,10.);
#315=VECTOR('',#959,10.);
#316=VECTOR('',#960,10.);
#317=VECTOR('',#963,10.);
#318=VECTOR('',#966,10.);
#319=VECTOR('',#1001,1.49999999999999);
#320=VECTOR('',#1004,1.49999999999999);
#321=VECTOR('',#1007,1.49999999999999);
#322=VECTOR('',#1010,1.49999999999999);
#323=VECTOR('',#1013,1.49999999999999);
#324=VECTOR('',#1016,1.49999999999999);
#325=VECTOR('',#1019,1.49999999999999);
#326=VECTOR('',#1022,1.49999999999999);
#327=VECTOR('',#1025,1.49999999999999);
#328=VECTOR('',#1028,1.49999999999999);
#329=VECTOR('',#1031,1.49999999999999);
#330=VECTOR('',#1034,1.49999999999999);
#331=VECTOR('',#1037,1.49999999999999);
#332=VECTOR('',#1040,1.49999999999999);
#333=VECTOR('',#1043,1.49999999999999);
#334=VECTOR('',#1046,1.49999999999999);
#335=VECTOR('',#1049,10.);
#336=VECTOR('',#1050,10.);
#337=VECTOR('',#1051,10.);
#338=VECTOR('',#1056,10.);
#339=VERTEX_POINT('',#1061);
#340=VERTEX_POINT('',#1062);
#341=VERTEX_POINT('',#1064);
#342=VERTEX_POINT('',#1066);
#343=VERTEX_POINT('',#1070);
#344=VERTEX_POINT('',#1071);
#345=VERTEX_POINT('',#1073);
#346=VERTEX_POINT('',#1075);
#347=VERTEX_POINT('',#1079);
#348=VERTEX_POINT('',#1081);
#349=VERTEX_POINT('',#1085);
#350=VERTEX_POINT('',#1086);
#351=VERTEX_POINT('',#1088);
#352=VERTEX_POINT('',#1090);
#353=VERTEX_POINT('',#1100);
#354=VERTEX_POINT('',#1101);
#355=VERTEX_POINT('',#1103);
#356=VERTEX_POINT('',#1105);
#357=VERTEX_POINT('',#1108);
#358=VERTEX_POINT('',#1110);
#359=VERTEX_POINT('',#1112);
#360=VERTEX_POINT('',#1114);
#361=VERTEX_POINT('',#1116);
#362=VERTEX_POINT('',#1118);
#363=VERTEX_POINT('',#1120);
#364=VERTEX_POINT('',#1122);
#365=VERTEX_POINT('',#1124);
#366=VERTEX_POINT('',#1126);
#367=VERTEX_POINT('',#1128);
#368=VERTEX_POINT('',#1130);
#369=VERTEX_POINT('',#1132);
#370=VERTEX_POINT('',#1134);
#371=VERTEX_POINT('',#1136);
#372=VERTEX_POINT('',#1138);
#373=VERTEX_POINT('',#1141);
#374=VERTEX_POINT('',#1143);
#375=VERTEX_POINT('',#1145);
#376=VERTEX_POINT('',#1147);
#377=VERTEX_POINT('',#1149);
#378=VERTEX_POINT('',#1152);
#379=VERTEX_POINT('',#1156);
#380=VERTEX_POINT('',#1160);
#381=VERTEX_POINT('',#1161);
#382=VERTEX_POINT('',#1163);
#383=VERTEX_POINT('',#1165);
#384=VERTEX_POINT('',#1172);
#385=VERTEX_POINT('',#1174);
#386=VERTEX_POINT('',#1178);
#387=VERTEX_POINT('',#1180);
#388=VERTEX_POINT('',#1184);
#389=VERTEX_POINT('',#1186);
#390=VERTEX_POINT('',#1193);
#391=VERTEX_POINT('',#1195);
#392=VERTEX_POINT('',#1197);
#393=VERTEX_POINT('',#1199);
#394=VERTEX_POINT('',#1201);
#395=VERTEX_POINT('',#1203);
#396=VERTEX_POINT('',#1205);
#397=VERTEX_POINT('',#1207);
#398=VERTEX_POINT('',#1209);
#399=VERTEX_POINT('',#1211);
#400=VERTEX_POINT('',#1213);
#401=VERTEX_POINT('',#1215);
#402=VERTEX_POINT('',#1217);
#403=VERTEX_POINT('',#1219);
#404=VERTEX_POINT('',#1221);
#405=VERTEX_POINT('',#1223);
#406=VERTEX_POINT('',#1258);
#407=EDGE_CURVE('',#339,#340,#199,.T.);
#408=EDGE_CURVE('',#339,#341,#200,.T.);
#409=EDGE_CURVE('',#342,#341,#201,.T.);
#410=EDGE_CURVE('',#340,#342,#202,.T.);
#411=EDGE_CURVE('',#343,#344,#203,.T.);
#412=EDGE_CURVE('',#343,#345,#204,.T.);
#413=EDGE_CURVE('',#346,#345,#205,.T.);
#414=EDGE_CURVE('',#344,#346,#206,.T.);
#415=EDGE_CURVE('',#347,#343,#207,.T.);
#416=EDGE_CURVE('',#347,#348,#208,.T.);
#417=EDGE_CURVE('',#345,#348,#209,.T.);
#418=EDGE_CURVE('',#349,#350,#210,.T.);
#419=EDGE_CURVE('',#349,#351,#211,.T.);
#420=EDGE_CURVE('',#352,#351,#212,.T.);
#421=EDGE_CURVE('',#350,#352,#213,.T.);
#422=EDGE_CURVE('',#350,#347,#214,.T.);
#423=EDGE_CURVE('',#348,#352,#215,.T.);
#424=EDGE_CURVE('',#351,#342,#216,.T.);
#425=EDGE_CURVE('',#341,#346,#217,.T.);
#426=EDGE_CURVE('',#353,#354,#218,.T.);
#427=EDGE_CURVE('',#354,#355,#219,.T.);
#428=EDGE_CURVE('',#355,#356,#220,.T.);
#429=EDGE_CURVE('',#356,#353,#221,.T.);
#430=EDGE_CURVE('',#357,#357,#63,.T.);
#431=EDGE_CURVE('',#358,#358,#64,.T.);
#432=EDGE_CURVE('',#359,#359,#65,.T.);
#433=EDGE_CURVE('',#360,#360,#66,.T.);
#434=EDGE_CURVE('',#361,#361,#67,.T.);
#435=EDGE_CURVE('',#362,#362,#68,.T.);
#436=EDGE_CURVE('',#363,#363,#69,.T.);
#437=EDGE_CURVE('',#364,#364,#70,.T.);
#438=EDGE_CURVE('',#365,#365,#71,.T.);
#439=EDGE_CURVE('',#366,#366,#72,.T.);
#440=EDGE_CURVE('',#367,#367,#73,.T.);
#441=EDGE_CURVE('',#368,#368,#74,.T.);
#442=EDGE_CURVE('',#369,#369,#75,.T.);
#443=EDGE_CURVE('',#370,#370,#76,.T.);
#444=EDGE_CURVE('',#371,#371,#77,.T.);
#445=EDGE_CURVE('',#372,#372,#78,.T.);
#446=EDGE_CURVE('',#373,#339,#222,.T.);
#447=EDGE_CURVE('',#373,#374,#223,.T.);
#448=EDGE_CURVE('',#375,#374,#224,.T.);
#449=EDGE_CURVE('',#376,#375,#225,.T.);
#450=EDGE_CURVE('',#377,#376,#226,.T.);
#451=EDGE_CURVE('',#354,#377,#227,.T.);
#452=EDGE_CURVE('',#353,#378,#228,.T.);
#453=EDGE_CURVE('',#344,#378,#229,.T.);
#454=EDGE_CURVE('',#378,#379,#230,.T.);
#455=EDGE_CURVE('',#379,#349,#231,.T.);
#456=EDGE_CURVE('',#380,#381,#232,.T.);
#457=EDGE_CURVE('',#380,#382,#233,.T.);
#458=EDGE_CURVE('',#383,#382,#234,.T.);
#459=EDGE_CURVE('',#381,#383,#235,.T.);
#460=EDGE_CURVE('',#376,#380,#236,.T.);
#461=EDGE_CURVE('',#382,#375,#237,.T.);
#462=EDGE_CURVE('',#384,#373,#238,.T.);
#463=EDGE_CURVE('',#384,#385,#239,.T.);
#464=EDGE_CURVE('',#374,#385,#240,.T.);
#465=EDGE_CURVE('',#381,#386,#241,.T.);
#466=EDGE_CURVE('',#387,#383,#242,.T.);
#467=EDGE_CURVE('',#386,#387,#243,.T.);
#468=EDGE_CURVE('',#386,#388,#244,.T.);
#469=EDGE_CURVE('',#389,#387,#245,.T.);
#470=EDGE_CURVE('',#388,#389,#246,.T.);
#471=EDGE_CURVE('',#385,#389,#247,.T.);
#472=EDGE_CURVE('',#340,#384,#248,.T.);
#473=EDGE_CURVE('',#390,#390,#79,.T.);
#474=EDGE_CURVE('',#391,#391,#80,.T.);
#475=EDGE_CURVE('',#392,#392,#81,.T.);
#476=EDGE_CURVE('',#393,#393,#82,.T.);
#477=EDGE_CURVE('',#394,#394,#83,.T.);
#478=EDGE_CURVE('',#395,#395,#84,.T.);
#479=EDGE_CURVE('',#396,#396,#85,.T.);
#480=EDGE_CURVE('',#397,#397,#86,.T.);
#481=EDGE_CURVE('',#398,#398,#87,.T.);
#482=EDGE_CURVE('',#399,#399,#88,.T.);
#483=EDGE_CURVE('',#400,#400,#89,.T.);
#484=EDGE_CURVE('',#401,#401,#90,.T.);
#485=EDGE_CURVE('',#402,#402,#91,.T.);
#486=EDGE_CURVE('',#403,#403,#92,.T.);
#487=EDGE_CURVE('',#404,#404,#93,.T.);
#488=EDGE_CURVE('',#405,#405,#94,.T.);
#489=EDGE_CURVE('',#405,#372,#249,.T.);
#490=EDGE_CURVE('',#404,#371,#250,.T.);
#491=EDGE_CURVE('',#403,#370,#251,.T.);
#492=EDGE_CURVE('',#402,#369,#252,.T.);
#493=EDGE_CURVE('',#401,#368,#253,.T.);
#494=EDGE_CURVE('',#400,#367,#254,.T.);
#495=EDGE_CURVE('',#399,#366,#255,.T.);
#496=EDGE_CURVE('',#398,#365,#256,.T.);
#497=EDGE_CURVE('',#397,#364,#257,.T.);
#498=EDGE_CURVE('',#396,#363,#258,.T.);
#499=EDGE_CURVE('',#395,#362,#259,.T.);
#500=EDGE_CURVE('',#394,#361,#260,.T.);
#501=EDGE_CURVE('',#393,#360,#261,.T.);
#502=EDGE_CURVE('',#392,#359,#262,.T.);
#503=EDGE_CURVE('',#391,#358,#263,.T.);
#504=EDGE_CURVE('',#390,#357,#264,.T.);
#505=EDGE_CURVE('',#355,#406,#265,.T.);
#506=EDGE_CURVE('',#388,#406,#266,.T.);
#507=EDGE_CURVE('',#356,#379,#267,.T.);
#508=EDGE_CURVE('',#406,#377,#268,.T.);
#509=ORIENTED_EDGE('',*,*,#407,.F.);
#510=ORIENTED_EDGE('',*,*,#408,.T.);
#511=ORIENTED_EDGE('',*,*,#409,.F.);
#512=ORIENTED_EDGE('',*,*,#410,.F.);
#513=ORIENTED_EDGE('',*,*,#411,.F.);
#514=ORIENTED_EDGE('',*,*,#412,.T.);
#515=ORIENTED_EDGE('',*,*,#413,.F.);
#516=ORIENTED_EDGE('',*,*,#414,.F.);
#517=ORIENTED_EDGE('',*,*,#415,.F.);
#518=ORIENTED_EDGE('',*,*,#416,.T.);
#519=ORIENTED_EDGE('',*,*,#417,.F.);
#520=ORIENTED_EDGE('',*,*,#412,.F.);
#521=ORIENTED_EDGE('',*,*,#418,.F.);
#522=ORIENTED_EDGE('',*,*,#419,.T.);
#523=ORIENTED_EDGE('',*,*,#420,.F.);
#524=ORIENTED_EDGE('',*,*,#421,.F.);
#525=ORIENTED_EDGE('',*,*,#422,.F.);
#526=ORIENTED_EDGE('',*,*,#421,.T.);
#527=ORIENTED_EDGE('',*,*,#423,.F.);
#528=ORIENTED_EDGE('',*,*,#416,.F.);
#529=ORIENTED_EDGE('',*,*,#423,.T.);
#530=ORIENTED_EDGE('',*,*,#420,.T.);
#531=ORIENTED_EDGE('',*,*,#424,.T.);
#532=ORIENTED_EDGE('',*,*,#409,.T.);
#533=ORIENTED_EDGE('',*,*,#425,.T.);
#534=ORIENTED_EDGE('',*,*,#413,.T.);
#535=ORIENTED_EDGE('',*,*,#417,.T.);
#536=ORIENTED_EDGE('',*,*,#426,.T.);
#537=ORIENTED_EDGE('',*,*,#427,.T.);
#538=ORIENTED_EDGE('',*,*,#428,.T.);
#539=ORIENTED_EDGE('',*,*,#429,.T.);
#540=ORIENTED_EDGE('',*,*,#430,.F.);
#541=ORIENTED_EDGE('',*,*,#431,.F.);
#542=ORIENTED_EDGE('',*,*,#432,.F.);
#543=ORIENTED_EDGE('',*,*,#433,.F.);
#544=ORIENTED_EDGE('',*,*,#434,.F.);
#545=ORIENTED_EDGE('',*,*,#435,.F.);
#546=ORIENTED_EDGE('',*,*,#436,.F.);
#547=ORIENTED_EDGE('',*,*,#437,.F.);
#548=ORIENTED_EDGE('',*,*,#438,.F.);
#549=ORIENTED_EDGE('',*,*,#439,.F.);
#550=ORIENTED_EDGE('',*,*,#440,.F.);
#551=ORIENTED_EDGE('',*,*,#441,.F.);
#552=ORIENTED_EDGE('',*,*,#442,.F.);
#553=ORIENTED_EDGE('',*,*,#443,.F.);
#554=ORIENTED_EDGE('',*,*,#444,.F.);
#555=ORIENTED_EDGE('',*,*,#445,.F.);
#556=ORIENTED_EDGE('',*,*,#446,.F.);
#557=ORIENTED_EDGE('',*,*,#447,.T.);
#558=ORIENTED_EDGE('',*,*,#448,.F.);
#559=ORIENTED_EDGE('',*,*,#449,.F.);
#560=ORIENTED_EDGE('',*,*,#450,.F.);
#561=ORIENTED_EDGE('',*,*,#451,.F.);
#562=ORIENTED_EDGE('',*,*,#426,.F.);
#563=ORIENTED_EDGE('',*,*,#452,.T.);
#564=ORIENTED_EDGE('',*,*,#453,.F.);
#565=ORIENTED_EDGE('',*,*,#414,.T.);
#566=ORIENTED_EDGE('',*,*,#425,.F.);
#567=ORIENTED_EDGE('',*,*,#408,.F.);
#568=ORIENTED_EDGE('',*,*,#418,.T.);
#569=ORIENTED_EDGE('',*,*,#422,.T.);
#570=ORIENTED_EDGE('',*,*,#415,.T.);
#571=ORIENTED_EDGE('',*,*,#411,.T.);
#572=ORIENTED_EDGE('',*,*,#453,.T.);
#573=ORIENTED_EDGE('',*,*,#454,.T.);
#574=ORIENTED_EDGE('',*,*,#455,.T.);
#575=ORIENTED_EDGE('',*,*,#456,.F.);
#576=ORIENTED_EDGE('',*,*,#457,.T.);
#577=ORIENTED_EDGE('',*,*,#458,.F.);
#578=ORIENTED_EDGE('',*,*,#459,.F.);
#579=ORIENTED_EDGE('',*,*,#460,.F.);
#580=ORIENTED_EDGE('',*,*,#449,.T.);
#581=ORIENTED_EDGE('',*,*,#461,.F.);
#582=ORIENTED_EDGE('',*,*,#457,.F.);
#583=ORIENTED_EDGE('',*,*,#462,.F.);
#584=ORIENTED_EDGE('',*,*,#463,.T.);
#585=ORIENTED_EDGE('',*,*,#464,.F.);
#586=ORIENTED_EDGE('',*,*,#447,.F.);
#587=ORIENTED_EDGE('',*,*,#465,.F.);
#588=ORIENTED_EDGE('',*,*,#459,.T.);
#589=ORIENTED_EDGE('',*,*,#466,.F.);
#590=ORIENTED_EDGE('',*,*,#467,.F.);
#591=ORIENTED_EDGE('',*,*,#468,.F.);
#592=ORIENTED_EDGE('',*,*,#467,.T.);
#593=ORIENTED_EDGE('',*,*,#469,.F.);
#594=ORIENTED_EDGE('',*,*,#470,.F.);
#595=ORIENTED_EDGE('',*,*,#469,.T.);
#596=ORIENTED_EDGE('',*,*,#466,.T.);
#597=ORIENTED_EDGE('',*,*,#458,.T.);
#598=ORIENTED_EDGE('',*,*,#461,.T.);
#599=ORIENTED_EDGE('',*,*,#448,.T.);
#600=ORIENTED_EDGE('',*,*,#464,.T.);
#601=ORIENTED_EDGE('',*,*,#471,.T.);
#602=ORIENTED_EDGE('',*,*,#407,.T.);
#603=ORIENTED_EDGE('',*,*,#472,.T.);
#604=ORIENTED_EDGE('',*,*,#462,.T.);
#605=ORIENTED_EDGE('',*,*,#446,.T.);
#606=ORIENTED_EDGE('',*,*,#473,.T.);
#607=ORIENTED_EDGE('',*,*,#474,.T.);
#608=ORIENTED_EDGE('',*,*,#475,.T.);
#609=ORIENTED_EDGE('',*,*,#476,.T.);
#610=ORIENTED_EDGE('',*,*,#477,.T.);
#611=ORIENTED_EDGE('',*,*,#478,.T.);
#612=ORIENTED_EDGE('',*,*,#479,.T.);
#613=ORIENTED_EDGE('',*,*,#480,.T.);
#614=ORIENTED_EDGE('',*,*,#481,.T.);
#615=ORIENTED_EDGE('',*,*,#482,.T.);
#616=ORIENTED_EDGE('',*,*,#483,.T.);
#617=ORIENTED_EDGE('',*,*,#484,.T.);
#618=ORIENTED_EDGE('',*,*,#485,.T.);
#619=ORIENTED_EDGE('',*,*,#486,.T.);
#620=ORIENTED_EDGE('',*,*,#487,.T.);
#621=ORIENTED_EDGE('',*,*,#488,.T.);
#622=ORIENTED_EDGE('',*,*,#488,.F.);
#623=ORIENTED_EDGE('',*,*,#489,.T.);
#624=ORIENTED_EDGE('',*,*,#445,.T.);
#625=ORIENTED_EDGE('',*,*,#489,.F.);
#626=ORIENTED_EDGE('',*,*,#487,.F.);
#627=ORIENTED_EDGE('',*,*,#490,.T.);
#628=ORIENTED_EDGE('',*,*,#444,.T.);
#629=ORIENTED_EDGE('',*,*,#490,.F.);
#630=ORIENTED_EDGE('',*,*,#486,.F.);
#631=ORIENTED_EDGE('',*,*,#491,.T.);
#632=ORIENTED_EDGE('',*,*,#443,.T.);
#633=ORIENTED_EDGE('',*,*,#491,.F.);
#634=ORIENTED_EDGE('',*,*,#485,.F.);
#635=ORIENTED_EDGE('',*,*,#492,.T.);
#636=ORIENTED_EDGE('',*,*,#442,.T.);
#637=ORIENTED_EDGE('',*,*,#492,.F.);
#638=ORIENTED_EDGE('',*,*,#484,.F.);
#639=ORIENTED_EDGE('',*,*,#493,.T.);
#640=ORIENTED_EDGE('',*,*,#441,.T.);
#641=ORIENTED_EDGE('',*,*,#493,.F.);
#642=ORIENTED_EDGE('',*,*,#483,.F.);
#643=ORIENTED_EDGE('',*,*,#494,.T.);
#644=ORIENTED_EDGE('',*,*,#440,.T.);
#645=ORIENTED_EDGE('',*,*,#494,.F.);
#646=ORIENTED_EDGE('',*,*,#482,.F.);
#647=ORIENTED_EDGE('',*,*,#495,.T.);
#648=ORIENTED_EDGE('',*,*,#439,.T.);
#649=ORIENTED_EDGE('',*,*,#495,.F.);
#650=ORIENTED_EDGE('',*,*,#481,.F.);
#651=ORIENTED_EDGE('',*,*,#496,.T.);
#652=ORIENTED_EDGE('',*,*,#438,.T.);
#653=ORIENTED_EDGE('',*,*,#496,.F.);
#654=ORIENTED_EDGE('',*,*,#480,.F.);
#655=ORIENTED_EDGE('',*,*,#497,.T.);
#656=ORIENTED_EDGE('',*,*,#437,.T.);
#657=ORIENTED_EDGE('',*,*,#497,.F.);
#658=ORIENTED_EDGE('',*,*,#479,.F.);
#659=ORIENTED_EDGE('',*,*,#498,.T.);
#660=ORIENTED_EDGE('',*,*,#436,.T.);
#661=ORIENTED_EDGE('',*,*,#498,.F.);
#662=ORIENTED_EDGE('',*,*,#478,.F.);
#663=ORIENTED_EDGE('',*,*,#499,.T.);
#664=ORIENTED_EDGE('',*,*,#435,.T.);
#665=ORIENTED_EDGE('',*,*,#499,.F.);
#666=ORIENTED_EDGE('',*,*,#477,.F.);
#667=ORIENTED_EDGE('',*,*,#500,.T.);
#668=ORIENTED_EDGE('',*,*,#434,.T.);
#669=ORIENTED_EDGE('',*,*,#500,.F.);
#670=ORIENTED_EDGE('',*,*,#476,.F.);
#671=ORIENTED_EDGE('',*,*,#501,.T.);
#672=ORIENTED_EDGE('',*,*,#433,.T.);
#673=ORIENTED_EDGE('',*,*,#501,.F.);
#674=ORIENTED_EDGE('',*,*,#475,.F.);
#675=ORIENTED_EDGE('',*,*,#502,.T.);
#676=ORIENTED_EDGE('',*,*,#432,.T.);
#677=ORIENTED_EDGE('',*,*,#502,.F.);
#678=ORIENTED_EDGE('',*,*,#474,.F.);
#679=ORIENTED_EDGE('',*,*,#503,.T.);
#680=ORIENTED_EDGE('',*,*,#431,.T.);
#681=ORIENTED_EDGE('',*,*,#503,.F.);
#682=ORIENTED_EDGE('',*,*,#473,.F.);
#683=ORIENTED_EDGE('',*,*,#504,.T.);
#684=ORIENTED_EDGE('',*,*,#430,.T.);
#685=ORIENTED_EDGE('',*,*,#504,.F.);
#686=ORIENTED_EDGE('',*,*,#428,.F.);
#687=ORIENTED_EDGE('',*,*,#505,.T.);
#688=ORIENTED_EDGE('',*,*,#506,.F.);
#689=ORIENTED_EDGE('',*,*,#470,.T.);
#690=ORIENTED_EDGE('',*,*,#471,.F.);
#691=ORIENTED_EDGE('',*,*,#463,.F.);
#692=ORIENTED_EDGE('',*,*,#472,.F.);
#693=ORIENTED_EDGE('',*,*,#410,.T.);
#694=ORIENTED_EDGE('',*,*,#424,.F.);
#695=ORIENTED_EDGE('',*,*,#419,.F.);
#696=ORIENTED_EDGE('',*,*,#455,.F.);
#697=ORIENTED_EDGE('',*,*,#507,.F.);
#698=ORIENTED_EDGE('',*,*,#429,.F.);
#699=ORIENTED_EDGE('',*,*,#507,.T.);
#700=ORIENTED_EDGE('',*,*,#454,.F.);
#701=ORIENTED_EDGE('',*,*,#452,.F.);
#702=ORIENTED_EDGE('',*,*,#427,.F.);
#703=ORIENTED_EDGE('',*,*,#451,.T.);
#704=ORIENTED_EDGE('',*,*,#508,.F.);
#705=ORIENTED_EDGE('',*,*,#505,.F.);
#706=ORIENTED_EDGE('',*,*,#468,.T.);
#707=ORIENTED_EDGE('',*,*,#506,.T.);
#708=ORIENTED_EDGE('',*,*,#508,.T.);
#709=ORIENTED_EDGE('',*,*,#450,.T.);
#710=ORIENTED_EDGE('',*,*,#460,.T.);
#711=ORIENTED_EDGE('',*,*,#456,.T.);
#712=ORIENTED_EDGE('',*,*,#465,.T.);
#713=PLANE('',#783);
#714=PLANE('',#784);
#715=PLANE('',#785);
#716=PLANE('',#786);
#717=PLANE('',#787);
#718=PLANE('',#788);
#719=PLANE('',#789);
#720=PLANE('',#806);
#721=PLANE('',#807);
#722=PLANE('',#808);
#723=PLANE('',#809);
#724=PLANE('',#810);
#725=PLANE('',#811);
#726=PLANE('',#812);
#727=PLANE('',#813);
#728=PLANE('',#814);
#729=PLANE('',#847);
#730=PLANE('',#848);
#731=PLANE('',#849);
#732=PLANE('',#850);
#733=ADVANCED_FACE('',(#95),#713,.T.);
#734=ADVANCED_FACE('',(#96),#714,.T.);
#735=ADVANCED_FACE('',(#97),#715,.T.);
#736=ADVANCED_FACE('',(#98),#716,.T.);
#737=ADVANCED_FACE('',(#99),#717,.T.);
#738=ADVANCED_FACE('',(#100),#718,.T.);
#739=ADVANCED_FACE('',(#101,#31,#32,#33,#34,#35,#36,#37,#38,#39,#40,#41,
#42,#43,#44,#45,#46),#719,.F.);
#740=ADVANCED_FACE('',(#102),#720,.T.);
#741=ADVANCED_FACE('',(#103),#721,.T.);
#742=ADVANCED_FACE('',(#104),#722,.T.);
#743=ADVANCED_FACE('',(#105),#723,.T.);
#744=ADVANCED_FACE('',(#106),#724,.T.);
#745=ADVANCED_FACE('',(#107),#725,.T.);
#746=ADVANCED_FACE('',(#108),#726,.T.);
#747=ADVANCED_FACE('',(#109),#727,.T.);
#748=ADVANCED_FACE('',(#110,#47,#48,#49,#50,#51,#52,#53,#54,#55,#56,#57,
#58,#59,#60,#61,#62),#728,.T.);
#749=ADVANCED_FACE('',(#111),#15,.F.);
#750=ADVANCED_FACE('',(#112),#16,.F.);
#751=ADVANCED_FACE('',(#113),#17,.F.);
#752=ADVANCED_FACE('',(#114),#18,.F.);
#753=ADVANCED_FACE('',(#115),#19,.F.);
#754=ADVANCED_FACE('',(#116),#20,.F.);
#755=ADVANCED_FACE('',(#117),#21,.F.);
#756=ADVANCED_FACE('',(#118),#22,.F.);
#757=ADVANCED_FACE('',(#119),#23,.F.);
#758=ADVANCED_FACE('',(#120),#24,.F.);
#759=ADVANCED_FACE('',(#121),#25,.F.);
#760=ADVANCED_FACE('',(#122),#26,.F.);
#761=ADVANCED_FACE('',(#123),#27,.F.);
#762=ADVANCED_FACE('',(#124),#28,.F.);
#763=ADVANCED_FACE('',(#125),#29,.F.);
#764=ADVANCED_FACE('',(#126),#30,.F.);
#765=ADVANCED_FACE('',(#127),#729,.T.);
#766=ADVANCED_FACE('',(#128),#730,.T.);
#767=ADVANCED_FACE('',(#129),#731,.T.);
#768=ADVANCED_FACE('',(#130),#732,.T.);
#769=CLOSED_SHELL('',(#733,#734,#735,#736,#737,#738,#739,#740,#741,#742,
#743,#744,#745,#746,#747,#748,#749,#750,#751,#752,#753,#754,#755,#756,#757,
#758,#759,#760,#761,#762,#763,#764,#765,#766,#767,#768));
#770=DERIVED_UNIT_ELEMENT(#772,1.);
#771=DERIVED_UNIT_ELEMENT(#1271,-3.);
#772=(
MASS_UNIT()
NAMED_UNIT(*)
SI_UNIT(.KILO.,.GRAM.)
);
#773=DERIVED_UNIT((#770,#771));
#774=MEASURE_REPRESENTATION_ITEM('density measure',
POSITIVE_RATIO_MEASURE(7850.),#773);
#775=PROPERTY_DEFINITION_REPRESENTATION(#780,#777);
#776=PROPERTY_DEFINITION_REPRESENTATION(#781,#778);
#777=REPRESENTATION('material name',(#779),#1268);
#778=REPRESENTATION('density',(#774),#1268);
#779=DESCRIPTIVE_REPRESENTATION_ITEM('Steel','Steel');
#780=PROPERTY_DEFINITION('material property','material name',#1278);
#781=PROPERTY_DEFINITION('material property','density of part',#1278);
#782=AXIS2_PLACEMENT_3D('',#1059,#851,#852);
#783=AXIS2_PLACEMENT_3D('',#1060,#853,#854);
#784=AXIS2_PLACEMENT_3D('',#1069,#859,#860);
#785=AXIS2_PLACEMENT_3D('',#1078,#865,#866);
#786=AXIS2_PLACEMENT_3D('',#1084,#870,#871);
#787=AXIS2_PLACEMENT_3D('',#1093,#876,#877);
#788=AXIS2_PLACEMENT_3D('',#1096,#880,#881);
#789=AXIS2_PLACEMENT_3D('',#1099,#884,#885);
#790=AXIS2_PLACEMENT_3D('',#1109,#890,#891);
#791=AXIS2_PLACEMENT_3D('',#1111,#892,#893);
#792=AXIS2_PLACEMENT_3D('',#1113,#894,#895);
#793=AXIS2_PLACEMENT_3D('',#1115,#896,#897);
#794=AXIS2_PLACEMENT_3D('',#1117,#898,#899);
#795=AXIS2_PLACEMENT_3D('',#1119,#900,#901);
#796=AXIS2_PLACEMENT_3D('',#1121,#902,#903);
#797=AXIS2_PLACEMENT_3D('',#1123,#904,#905);
#798=AXIS2_PLACEMENT_3D('',#1125,#906,#907);
#799=AXIS2_PLACEMENT_3D('',#1127,#908,#909);
#800=AXIS2_PLACEMENT_3D('',#1129,#910,#911);
#801=AXIS2_PLACEMENT_3D('',#1131,#912,#913);
#802=AXIS2_PLACEMENT_3D('',#1133,#914,#915);
#803=AXIS2_PLACEMENT_3D('',#1135,#916,#917);
#804=AXIS2_PLACEMENT_3D('',#1137,#918,#919);
#805=AXIS2_PLACEMENT_3D('',#1139,#920,#921);
#806=AXIS2_PLACEMENT_3D('',#1140,#922,#923);
#807=AXIS2_PLACEMENT_3D('',#1155,#932,#933);
#808=AXIS2_PLACEMENT_3D('',#1159,#936,#937);
#809=AXIS2_PLACEMENT_3D('',#1168,#942,#943);
#810=AXIS2_PLACEMENT_3D('',#1171,#946,#947);
#811=AXIS2_PLACEMENT_3D('',#1177,#951,#952);
#812=AXIS2_PLACEMENT_3D('',#1183,#956,#957);
#813=AXIS2_PLACEMENT_3D('',#1189,#961,#962);
#814=AXIS2_PLACEMENT_3D('',#1191,#964,#965);
#815=AXIS2_PLACEMENT_3D('',#1194,#967,#968);
#816=AXIS2_PLACEMENT_3D('',#1196,#969,#970);
#817=AXIS2_PLACEMENT_3D('',#1198,#971,#972);
#818=AXIS2_PLACEMENT_3D('',#1200,#973,#974);
#819=AXIS2_PLACEMENT_3D('',#1202,#975,#976);
#820=AXIS2_PLACEMENT_3D('',#1204,#977,#978);
#821=AXIS2_PLACEMENT_3D('',#1206,#979,#980);
#822=AXIS2_PLACEMENT_3D('',#1208,#981,#982);
#823=AXIS2_PLACEMENT_3D('',#1210,#983,#984);
#824=AXIS2_PLACEMENT_3D('',#1212,#985,#986);
#825=AXIS2_PLACEMENT_3D('',#1214,#987,#988);
#826=AXIS2_PLACEMENT_3D('',#1216,#989,#990);
#827=AXIS2_PLACEMENT_3D('',#1218,#991,#992);
#828=AXIS2_PLACEMENT_3D('',#1220,#993,#994);
#829=AXIS2_PLACEMENT_3D('',#1222,#995,#996);
#830=AXIS2_PLACEMENT_3D('',#1224,#997,#998);
#831=AXIS2_PLACEMENT_3D('',#1225,#999,#1000);
#832=AXIS2_PLACEMENT_3D('',#1227,#1002,#1003);
#833=AXIS2_PLACEMENT_3D('',#1229,#1005,#1006);
#834=AXIS2_PLACEMENT_3D('',#1231,#1008,#1009);
#835=AXIS2_PLACEMENT_3D('',#1233,#1011,#1012);
#836=AXIS2_PLACEMENT_3D('',#1235,#1014,#1015);
#837=AXIS2_PLACEMENT_3D('',#1237,#1017,#1018);
#838=AXIS2_PLACEMENT_3D('',#1239,#1020,#1021);
#839=AXIS2_PLACEMENT_3D('',#1241,#1023,#1024);
#840=AXIS2_PLACEMENT_3D('',#1243,#1026,#1027);
#841=AXIS2_PLACEMENT_3D('',#1245,#1029,#1030);
#842=AXIS2_PLACEMENT_3D('',#1247,#1032,#1033);
#843=AXIS2_PLACEMENT_3D('',#1249,#1035,#1036);
#844=AXIS2_PLACEMENT_3D('',#1251,#1038,#1039);
#845=AXIS2_PLACEMENT_3D('',#1253,#1041,#1042);
#846=AXIS2_PLACEMENT_3D('',#1255,#1044,#1045);
#847=AXIS2_PLACEMENT_3D('',#1257,#1047,#1048);
#848=AXIS2_PLACEMENT_3D('',#1262,#1052,#1053);
#849=AXIS2_PLACEMENT_3D('',#1263,#1054,#1055);
#850=AXIS2_PLACEMENT_3D('',#1265,#1057,#1058);
#851=DIRECTION('axis',(0.,0.,1.));
#852=DIRECTION('refdir',(1.,0.,0.));
#853=DIRECTION('center_axis',(0.,1.,0.));
#854=DIRECTION('ref_axis',(-1.,0.,0.));
#855=DIRECTION('',(1.,0.,0.));
#856=DIRECTION('',(0.,0.,1.));
#857=DIRECTION('',(-1.,0.,0.));
#858=DIRECTION('',(0.,0.,1.));
#859=DIRECTION('center_axis',(0.,-1.,0.));
#860=DIRECTION('ref_axis',(1.,0.,0.));
#861=DIRECTION('',(-1.,0.,0.));
#862=DIRECTION('',(0.,0.,1.));
#863=DIRECTION('',(1.,0.,0.));
#864=DIRECTION('',(0.,0.,1.));
#865=DIRECTION('center_axis',(-0.707106781186548,-0.707106781186548,0.));
#866=DIRECTION('ref_axis',(0.707106781186548,-0.707106781186548,0.));
#867=DIRECTION('',(-0.707106781186548,0.707106781186548,0.));
#868=DIRECTION('',(0.,0.,1.));
#869=DIRECTION('',(0.707106781186547,-0.707106781186547,0.));
#870=DIRECTION('center_axis',(0.,-1.,0.));
#871=DIRECTION('ref_axis',(1.,0.,0.));
#872=DIRECTION('',(-1.,0.,0.));
#873=DIRECTION('',(0.,0.,1.));
#874=DIRECTION('',(1.,0.,0.));
#875=DIRECTION('',(0.,0.,1.));
#876=DIRECTION('center_axis',(0.707106781186548,-0.707106781186548,0.));
#877=DIRECTION('ref_axis',(0.707106781186548,0.707106781186548,0.));
#878=DIRECTION('',(-0.707106781186548,-0.707106781186548,0.));
#879=DIRECTION('',(0.707106781186547,0.707106781186547,0.));
#880=DIRECTION('center_axis',(0.,0.,1.));
#881=DIRECTION('ref_axis',(1.,0.,0.));
#882=DIRECTION('',(0.,1.,0.));
#883=DIRECTION('',(0.,-1.,0.));
#884=DIRECTION('center_axis',(0.,0.,1.));
#885=DIRECTION('ref_axis',(1.,0.,0.));
#886=DIRECTION('',(0.,1.,0.));
#887=DIRECTION('',(1.,0.,0.));
#888=DIRECTION('',(0.,-1.,0.));
#889=DIRECTION('',(-1.,0.,0.));
#890=DIRECTION('center_axis',(0.,0.,-1.));
#891=DIRECTION('ref_axis',(1.,0.,0.));
#892=DIRECTION('center_axis',(0.,0.,-1.));
#893=DIRECTION('ref_axis',(1.,0.,0.));
#894=DIRECTION('center_axis',(0.,0.,-1.));
#895=DIRECTION('ref_axis',(1.,0.,0.));
#896=DIRECTION('center_axis',(0.,0.,-1.));
#897=DIRECTION('ref_axis',(1.,0.,0.));
#898=DIRECTION('center_axis',(0.,0.,-1.));
#899=DIRECTION('ref_axis',(1.,0.,0.));
#900=DIRECTION('center_axis',(0.,0.,-1.));
#901=DIRECTION('ref_axis',(1.,0.,0.));
#902=DIRECTION('center_axis',(0.,0.,-1.));
#903=DIRECTION('ref_axis',(1.,0.,0.));
#904=DIRECTION('center_axis',(0.,0.,-1.));
#905=DIRECTION('ref_axis',(1.,0.,0.));
#906=DIRECTION('center_axis',(0.,0.,-1.));
#907=DIRECTION('ref_axis',(1.,0.,0.));
#908=DIRECTION('center_axis',(0.,0.,-1.));
#909=DIRECTION('ref_axis',(1.,0.,0.));
#910=DIRECTION('center_axis',(0.,0.,-1.));
#911=DIRECTION('ref_axis',(1.,0.,0.));
#912=DIRECTION('center_axis',(0.,0.,-1.));
#913=DIRECTION('ref_axis',(1.,0.,0.));
#914=DIRECTION('center_axis',(0.,0.,-1.));
#915=DIRECTION('ref_axis',(1.,0.,0.));
#916=DIRECTION('center_axis',(0.,0.,-1.));
#917=DIRECTION('ref_axis',(1.,0.,0.));
#918=DIRECTION('center_axis',(0.,0.,-1.));
#919=DIRECTION('ref_axis',(1.,0.,0.));
#920=DIRECTION('center_axis',(0.,0.,-1.));
#921=DIRECTION('ref_axis',(1.,0.,0.));
#922=DIRECTION('center_axis',(-1.,0.,0.));
#923=DIRECTION('ref_axis',(0.,-1.,0.));
#924=DIRECTION('',(0.,-1.,0.));
#925=DIRECTION('',(0.,0.,1.));
#926=DIRECTION('',(0.,-1.,0.));
#927=DIRECTION('',(0.,0.,1.));
#928=DIRECTION('',(0.,-1.,0.));
#929=DIRECTION('',(0.,0.,1.));
#930=DIRECTION('',(0.,0.,1.));
#931=DIRECTION('',(0.,-1.,0.));
#932=DIRECTION('center_axis',(0.,0.,1.));
#933=DIRECTION('ref_axis',(1.,0.,0.));
#934=DIRECTION('',(1.,0.,0.));
#935=DIRECTION('',(0.,1.,0.));
#936=DIRECTION('center_axis',(-0.707106781186548,0.707106781186548,0.));
#937=DIRECTION('ref_axis',(-0.707106781186548,-0.707106781186548,0.));
#938=DIRECTION('',(0.707106781186548,0.707106781186548,0.));
#939=DIRECTION('',(0.,0.,1.));
#940=DIRECTION('',(-0.707106781186547,-0.707106781186547,0.));
#941=DIRECTION('',(0.,0.,1.));
#942=DIRECTION('center_axis',(0.,1.,0.));
#943=DIRECTION('ref_axis',(-1.,0.,0.));
#944=DIRECTION('',(1.,0.,0.));
#945=DIRECTION('',(-1.,0.,0.));
#946=DIRECTION('center_axis',(0.,-1.,0.));
#947=DIRECTION('ref_axis',(1.,0.,0.));
#948=DIRECTION('',(-1.,0.,0.));
#949=DIRECTION('',(0.,0.,1.));
#950=DIRECTION('',(1.,0.,0.));
#951=DIRECTION('center_axis',(0.707106781186548,0.707106781186548,0.));
#952=DIRECTION('ref_axis',(-0.707106781186548,0.707106781186548,0.));
#953=DIRECTION('',(0.707106781186548,-0.707106781186548,0.));
#954=DIRECTION('',(-0.707106781186547,0.707106781186547,0.));
#955=DIRECTION('',(0.,0.,1.));
#956=DIRECTION('center_axis',(0.,1.,0.));
#957=DIRECTION('ref_axis',(-1.,0.,0.));
#958=DIRECTION('',(1.,0.,0.));
#959=DIRECTION('',(-1.,0.,0.));
#960=DIRECTION('',(0.,0.,1.));
#961=DIRECTION('center_axis',(0.,0.,1.));
#962=DIRECTION('ref_axis',(1.,0.,0.));
#963=DIRECTION('',(0.,1.,0.));
#964=DIRECTION('center_axis',(0.,0.,1.));
#965=DIRECTION('ref_axis',(1.,0.,0.));
#966=DIRECTION('',(0.,1.,0.));
#967=DIRECTION('center_axis',(0.,0.,-1.));
#968=DIRECTION('ref_axis',(1.,0.,0.));
#969=DIRECTION('center_axis',(0.,0.,-1.));
#970=DIRECTION('ref_axis',(1.,0.,0.));
#971=DIRECTION('center_axis',(0.,0.,-1.));
#972=DIRECTION('ref_axis',(1.,0.,0.));
#973=DIRECTION('center_axis',(0.,0.,-1.));
#974=DIRECTION('ref_axis',(1.,0.,0.));
#975=DIRECTION('center_axis',(0.,0.,-1.));
#976=DIRECTION('ref_axis',(1.,0.,0.));
#977=DIRECTION('center_axis',(0.,0.,-1.));
#978=DIRECTION('ref_axis',(1.,0.,0.));
#979=DIRECTION('center_axis',(0.,0.,-1.));
#980=DIRECTION('ref_axis',(1.,0.,0.));
#981=DIRECTION('center_axis',(0.,0.,-1.));
#982=DIRECTION('ref_axis',(1.,0.,0.));
#983=DIRECTION('center_axis',(0.,0.,-1.));
#984=DIRECTION('ref_axis',(1.,0.,0.));
#985=DIRECTION('center_axis',(0.,0.,-1.));
#986=DIRECTION('ref_axis',(1.,0.,0.));
#987=DIRECTION('center_axis',(0.,0.,-1.));
#988=DIRECTION('ref_axis',(1.,0.,0.));
#989=DIRECTION('center_axis',(0.,0.,-1.));
#990=DIRECTION('ref_axis',(1.,0.,0.));
#991=DIRECTION('center_axis',(0.,0.,-1.));
#992=DIRECTION('ref_axis',(1.,0.,0.));
#993=DIRECTION('center_axis',(0.,0.,-1.));
#994=DIRECTION('ref_axis',(1.,0.,0.));
#995=DIRECTION('center_axis',(0.,0.,-1.));
#996=DIRECTION('ref_axis',(1.,0.,0.));
#997=DIRECTION('center_axis',(0.,0.,-1.));
#998=DIRECTION('ref_axis',(1.,0.,0.));
#999=DIRECTION('center_axis',(0.,0.,1.));
#1000=DIRECTION('ref_axis',(1.,0.,0.));
#1001=DIRECTION('',(0.,0.,-1.));
#1002=DIRECTION('center_axis',(0.,0.,1.));
#1003=DIRECTION('ref_axis',(1.,0.,0.));
#1004=DIRECTION('',(0.,0.,-1.));
#1005=DIRECTION('center_axis',(0.,0.,1.));
#1006=DIRECTION('ref_axis',(1.,0.,0.));
#1007=DIRECTION('',(0.,0.,-1.));
#1008=DIRECTION('center_axis',(0.,0.,1.));
#1009=DIRECTION('ref_axis',(1.,0.,0.));
#1010=DIRECTION('',(0.,0.,-1.));
#1011=DIRECTION('center_axis',(0.,0.,1.));
#1012=DIRECTION('ref_axis',(1.,0.,0.));
#1013=DIRECTION('',(0.,0.,-1.));
#1014=DIRECTION('center_axis',(0.,0.,1.));
#1015=DIRECTION('ref_axis',(1.,0.,0.));
#1016=DIRECTION('',(0.,0.,-1.));
#1017=DIRECTION('center_axis',(0.,0.,1.));
#1018=DIRECTION('ref_axis',(1.,0.,0.));
#1019=DIRECTION('',(0.,0.,-1.));
#1020=DIRECTION('center_axis',(0.,0.,1.));
#1021=DIRECTION('ref_axis',(1.,0.,0.));
#1022=DIRECTION('',(0.,0.,-1.));
#1023=DIRECTION('center_axis',(0.,0.,1.));
#1024=DIRECTION('ref_axis',(1.,0.,0.));
#1025=DIRECTION('',(0.,0.,-1.));
#1026=DIRECTION('center_axis',(0.,0.,1.));
#1027=DIRECTION('ref_axis',(1.,0.,0.));
#1028=DIRECTION('',(0.,0.,-1.));
#1029=DIRECTION('center_axis',(0.,0.,1.));
#1030=DIRECTION('ref_axis',(1.,0.,0.));
#1031=DIRECTION('',(0.,0.,-1.));
#1032=DIRECTION('center_axis',(0.,0.,1.));
#1033=DIRECTION('ref_axis',(1.,0.,0.));
#1034=DIRECTION('',(0.,0.,-1.));
#1035=DIRECTION('center_axis',(0.,0.,1.));
#1036=DIRECTION('ref_axis',(1.,0.,0.));
#1037=DIRECTION('',(0.,0.,-1.));
#1038=DIRECTION('center_axis',(0.,0.,1.));
#1039=DIRECTION('ref_axis',(1.,0.,0.));
#1040=DIRECTION('',(0.,0.,-1.));
#1041=DIRECTION('center_axis',(0.,0.,1.));
#1042=DIRECTION('ref_axis',(1.,0.,0.));
#1043=DIRECTION('',(0.,0.,-1.));
#1044=DIRECTION('center_axis',(0.,0.,1.));
#1045=DIRECTION('ref_axis',(1.,0.,0.));
#1046=DIRECTION('',(0.,0.,-1.));
#1047=DIRECTION('center_axis',(1.,0.,0.));
#1048=DIRECTION('ref_axis',(0.,1.,0.));
#1049=DIRECTION('',(0.,0.,1.));
#1050=DIRECTION('',(0.,1.,0.));
#1051=DIRECTION('',(0.,0.,1.));
#1052=DIRECTION('center_axis',(0.,-1.,0.));
#1053=DIRECTION('ref_axis',(1.,0.,0.));
#1054=DIRECTION('center_axis',(0.,1.,0.));
#1055=DIRECTION('ref_axis',(-1.,0.,0.));
#1056=DIRECTION('',(-1.,0.,0.));
#1057=DIRECTION('center_axis',(0.,0.,1.));
#1058=DIRECTION('ref_axis',(1.,0.,0.));
#1059=CARTESIAN_POINT('',(0.,0.,0.));
#1060=CARTESIAN_POINT('Origin',(-240.000003576279,-44.,0.));
#1061=CARTESIAN_POINT('',(-260.000003874302,-44.,2.));
#1062=CARTESIAN_POINT('',(-240.000003576279,-44.,2.));
#1063=CARTESIAN_POINT('',(-245.000003650784,-44.,2.));
#1064=CARTESIAN_POINT('',(-260.000003874302,-44.,10.));
#1065=CARTESIAN_POINT('',(-260.000003874302,-44.,0.));
#1066=CARTESIAN_POINT('',(-240.000003576279,-44.,10.));
#1067=CARTESIAN_POINT('',(-260.000003874302,-44.,10.));
#1068=CARTESIAN_POINT('',(-240.000003576279,-44.,0.));
#1069=CARTESIAN_POINT('Origin',(-260.000003874302,-47.0000007003546,0.));
#1070=CARTESIAN_POINT('',(-251.000003740191,-47.0000007003546,2.));
#1071=CARTESIAN_POINT('',(-260.000003874302,-47.0000007003546,2.));
#1072=CARTESIAN_POINT('',(-255.000003799796,-47.0000007003546,2.));
#1073=CARTESIAN_POINT('',(-251.000003740191,-47.0000007003546,10.));
#1074=CARTESIAN_POINT('',(-251.000003740191,-47.0000007003546,0.));
#1075=CARTESIAN_POINT('',(-260.000003874302,-47.0000007003546,10.));
#1076=CARTESIAN_POINT('',(-251.000003740191,-47.0000007003546,10.));
#1077=CARTESIAN_POINT('',(-260.000003874302,-47.0000007003546,0.));
#1078=CARTESIAN_POINT('Origin',(-251.000003740191,-47.0000007003546,0.));
#1079=CARTESIAN_POINT('',(-250.00000372529,-48.0000007152557,2.));
#1080=CARTESIAN_POINT('',(-262.500003911555,-35.5000005289912,2.));
#1081=CARTESIAN_POINT('',(-250.00000372529,-48.0000007152557,10.));
#1082=CARTESIAN_POINT('',(-250.00000372529,-48.0000007152557,0.));
#1083=CARTESIAN_POINT('',(-250.00000372529,-48.0000007152557,10.));
#1084=CARTESIAN_POINT('Origin',(-249.000003710389,-47.0000007003546,0.));
#1085=CARTESIAN_POINT('',(-240.000003576279,-47.0000007003546,2.));
#1086=CARTESIAN_POINT('',(-249.000003710389,-47.0000007003546,2.));
#1087=CARTESIAN_POINT('',(-249.50000371784,-47.0000007003546,2.));
#1088=CARTESIAN_POINT('',(-240.000003576279,-47.0000007003546,10.));
#1089=CARTESIAN_POINT('',(-240.000003576279,-47.0000007003546,0.));
#1090=CARTESIAN_POINT('',(-249.000003710389,-47.0000007003546,10.));
#1091=CARTESIAN_POINT('',(-240.000003576279,-47.0000007003546,10.));
#1092=CARTESIAN_POINT('',(-249.000003710389,-47.0000007003546,0.));
#1093=CARTESIAN_POINT('Origin',(-250.00000372529,-48.0000007152557,0.));
#1094=CARTESIAN_POINT('',(-238.000003546476,-36.0000005364418,2.));
#1095=CARTESIAN_POINT('',(-250.00000372529,-48.0000007152557,10.));
#1096=CARTESIAN_POINT('Origin',(-250.00000372529,0.,10.));
#1097=CARTESIAN_POINT('',(-240.000003576279,50.0000007450581,10.));
#1098=CARTESIAN_POINT('',(-260.000003874302,-50.0000007450581,10.));
#1099=CARTESIAN_POINT('Origin',(-250.00000372529,0.,0.));
#1100=CARTESIAN_POINT('',(-260.000003874302,-50.0000007450581,0.));
#1101=CARTESIAN_POINT('',(-260.000003874302,50.0000007450581,0.));
#1102=CARTESIAN_POINT('',(-260.000003874302,-50.0000007450581,0.));
#1103=CARTESIAN_POINT('',(-240.000003576279,50.0000007450581,0.));
#1104=CARTESIAN_POINT('',(-260.000003874302,50.0000007450581,0.));
#1105=CARTESIAN_POINT('',(-240.000003576279,-50.0000007450581,0.));
#1106=CARTESIAN_POINT('',(-240.000003576279,50.0000007450581,0.));
#1107=CARTESIAN_POINT('',(-240.000003576279,-50.0000007450581,0.));
#1108=CARTESIAN_POINT('',(-256.500003650784,24.9999994784594,0.));
#1109=CARTESIAN_POINT('Origin',(-255.000003650784,24.9999994784594,0.));
#1110=CARTESIAN_POINT('',(-246.500003650784,14.9999994784594,0.));
#1111=CARTESIAN_POINT('Origin',(-245.000003650784,14.9999994784594,0.));
#1112=CARTESIAN_POINT('',(-246.500003650784,34.9999994784594,0.));
#1113=CARTESIAN_POINT('Origin',(-245.000003650784,34.9999994784594,0.));
#1114=CARTESIAN_POINT('',(-256.500003650784,-15.0000005215406,0.));
#1115=CARTESIAN_POINT('Origin',(-255.000003650784,-15.0000005215406,0.));
#1116=CARTESIAN_POINT('',(-246.500003650784,-15.0000005215406,0.));
#1117=CARTESIAN_POINT('Origin',(-245.000003650784,-15.0000005215406,0.));
#1118=CARTESIAN_POINT('',(-256.500003650784,4.99999947845936,0.));
#1119=CARTESIAN_POINT('Origin',(-255.000003650784,4.99999947845936,0.));
#1120=CARTESIAN_POINT('',(-256.500003650784,-5.00000052154064,0.));
#1121=CARTESIAN_POINT('Origin',(-255.000003650784,-5.00000052154064,0.));
#1122=CARTESIAN_POINT('',(-256.500003650784,14.9999994784594,0.));
#1123=CARTESIAN_POINT('Origin',(-255.000003650784,14.9999994784594,0.));
#1124=CARTESIAN_POINT('',(-246.500003650784,-5.00000052154064,0.));
#1125=CARTESIAN_POINT('Origin',(-245.000003650784,-5.00000052154064,0.));
#1126=CARTESIAN_POINT('',(-246.500003650784,-25.0000005215406,0.));
#1127=CARTESIAN_POINT('Origin',(-245.000003650784,-25.0000005215406,0.));
#1128=CARTESIAN_POINT('',(-246.500003650784,-35.0000005215406,0.));
#1129=CARTESIAN_POINT('Origin',(-245.000003650784,-35.0000005215406,0.));
#1130=CARTESIAN_POINT('',(-256.500003650784,-25.0000005215406,0.));
#1131=CARTESIAN_POINT('Origin',(-255.000003650784,-25.0000005215406,0.));
#1132=CARTESIAN_POINT('',(-256.500003650784,-35.0000005215406,0.));
#1133=CARTESIAN_POINT('Origin',(-255.000003650784,-35.0000005215406,0.));
#1134=CARTESIAN_POINT('',(-246.500003650784,24.9999994784594,0.));
#1135=CARTESIAN_POINT('Origin',(-245.000003650784,24.9999994784594,0.));
#1136=CARTESIAN_POINT('',(-256.500003650784,34.9999994784594,0.));
#1137=CARTESIAN_POINT('Origin',(-255.000003650784,34.9999994784594,0.));
#1138=CARTESIAN_POINT('',(-246.500003650784,4.99999947845936,0.));
#1139=CARTESIAN_POINT('Origin',(-245.000003650784,4.99999947845936,0.));
#1140=CARTESIAN_POINT('Origin',(-260.000003874302,50.0000007450581,0.));
#1141=CARTESIAN_POINT('',(-260.000003874302,44.,2.));
#1142=CARTESIAN_POINT('',(-260.000003874302,-50.0000007450581,2.));
#1143=CARTESIAN_POINT('',(-260.000003874302,44.,10.));
#1144=CARTESIAN_POINT('',(-260.000003874302,44.,0.));
#1145=CARTESIAN_POINT('',(-260.000003874302,47.0000007003546,10.));
#1146=CARTESIAN_POINT('',(-260.000003874302,-50.0000007450581,10.));
#1147=CARTESIAN_POINT('',(-260.000003874302,47.0000007003546,2.));
#1148=CARTESIAN_POINT('',(-260.000003874302,47.0000007003546,0.));
#1149=CARTESIAN_POINT('',(-260.000003874302,50.0000007450581,2.));
#1150=CARTESIAN_POINT('',(-260.000003874302,-50.0000007450581,2.));
#1151=CARTESIAN_POINT('',(-260.000003874302,50.0000007450581,0.));
#1152=CARTESIAN_POINT('',(-260.000003874302,-50.0000007450581,2.));
#1153=CARTESIAN_POINT('',(-260.000003874302,-50.0000007450581,0.));
#1154=CARTESIAN_POINT('',(-260.000003874302,-50.0000007450581,2.));
#1155=CARTESIAN_POINT('Origin',(-250.00000372529,0.,2.));
#1156=CARTESIAN_POINT('',(-240.000003576279,-50.0000007450581,2.));
#1157=CARTESIAN_POINT('',(-240.000003576279,-50.0000007450581,2.));
#1158=CARTESIAN_POINT('',(-240.000003576279,50.0000007450581,2.));
#1159=CARTESIAN_POINT('Origin',(-250.00000372529,48.0000007152557,0.));
#1160=CARTESIAN_POINT('',(-251.000003740191,47.0000007003546,2.));
#1161=CARTESIAN_POINT('',(-250.00000372529,48.0000007152557,2.));
#1162=CARTESIAN_POINT('',(-262.000003904104,36.0000005364418,2.));
#1163=CARTESIAN_POINT('',(-251.000003740191,47.0000007003546,10.));
#1164=CARTESIAN_POINT('',(-251.000003740191,47.0000007003546,0.));
#1165=CARTESIAN_POINT('',(-250.00000372529,48.0000007152557,10.));
#1166=CARTESIAN_POINT('',(-250.00000372529,48.0000007152557,10.));
#1167=CARTESIAN_POINT('',(-250.00000372529,48.0000007152557,0.));
#1168=CARTESIAN_POINT('Origin',(-251.000003740191,47.0000007003546,0.));
#1169=CARTESIAN_POINT('',(-250.500003732741,47.0000007003546,2.));
#1170=CARTESIAN_POINT('',(-251.000003740191,47.0000007003546,10.));
#1171=CARTESIAN_POINT('Origin',(-260.000003874302,44.,0.));
#1172=CARTESIAN_POINT('',(-240.000003576279,44.,2.));
#1173=CARTESIAN_POINT('',(-255.000003799796,44.,2.));
#1174=CARTESIAN_POINT('',(-240.000003576279,44.,10.));
#1175=CARTESIAN_POINT('',(-240.000003576279,44.,0.));
#1176=CARTESIAN_POINT('',(-260.000003874302,44.,10.));
#1177=CARTESIAN_POINT('Origin',(-249.000003710389,47.0000007003546,0.));
#1178=CARTESIAN_POINT('',(-249.000003710389,47.0000007003546,2.));
#1179=CARTESIAN_POINT('',(-237.500003539026,35.5000005289912,2.));
#1180=CARTESIAN_POINT('',(-249.000003710389,47.0000007003546,10.));
#1181=CARTESIAN_POINT('',(-250.00000372529,48.0000007152557,10.));
#1182=CARTESIAN_POINT('',(-249.000003710389,47.0000007003546,0.));
#1183=CARTESIAN_POINT('Origin',(-240.000003576279,47.0000007003546,0.));
#1184=CARTESIAN_POINT('',(-240.000003576279,47.0000007003546,2.));
#1185=CARTESIAN_POINT('',(-245.000003650784,47.0000007003546,2.));
#1186=CARTESIAN_POINT('',(-240.000003576279,47.0000007003546,10.));
#1187=CARTESIAN_POINT('',(-240.000003576279,47.0000007003546,10.));
#1188=CARTESIAN_POINT('',(-240.000003576279,47.0000007003546,0.));
#1189=CARTESIAN_POINT('Origin',(-250.00000372529,0.,10.));
#1190=CARTESIAN_POINT('',(-240.000003576279,50.0000007450581,10.));
#1191=CARTESIAN_POINT('Origin',(-250.00000372529,0.,2.));
#1192=CARTESIAN_POINT('',(-240.000003576279,50.0000007450581,2.));
#1193=CARTESIAN_POINT('',(-256.500003650784,24.9999994784594,2.));
#1194=CARTESIAN_POINT('Origin',(-255.000003650784,24.9999994784594,2.));
#1195=CARTESIAN_POINT('',(-246.500003650784,14.9999994784594,2.));
#1196=CARTESIAN_POINT('Origin',(-245.000003650784,14.9999994784594,2.));
#1197=CARTESIAN_POINT('',(-246.500003650784,34.9999994784594,2.));
#1198=CARTESIAN_POINT('Origin',(-245.000003650784,34.9999994784594,2.));
#1199=CARTESIAN_POINT('',(-256.500003650784,-15.0000005215406,2.));
#1200=CARTESIAN_POINT('Origin',(-255.000003650784,-15.0000005215406,2.));
#1201=CARTESIAN_POINT('',(-246.500003650784,-15.0000005215406,2.));
#1202=CARTESIAN_POINT('Origin',(-245.000003650784,-15.0000005215406,2.));
#1203=CARTESIAN_POINT('',(-256.500003650784,4.99999947845936,2.));
#1204=CARTESIAN_POINT('Origin',(-255.000003650784,4.99999947845936,2.));
#1205=CARTESIAN_POINT('',(-256.500003650784,-5.00000052154064,2.));
#1206=CARTESIAN_POINT('Origin',(-255.000003650784,-5.00000052154064,2.));
#1207=CARTESIAN_POINT('',(-256.500003650784,14.9999994784594,2.));
#1208=CARTESIAN_POINT('Origin',(-255.000003650784,14.9999994784594,2.));
#1209=CARTESIAN_POINT('',(-246.500003650784,-5.00000052154064,2.));
#1210=CARTESIAN_POINT('Origin',(-245.000003650784,-5.00000052154064,2.));
#1211=CARTESIAN_POINT('',(-246.500003650784,-25.0000005215406,2.));
#1212=CARTESIAN_POINT('Origin',(-245.000003650784,-25.0000005215406,2.));
#1213=CARTESIAN_POINT('',(-246.500003650784,-35.0000005215406,2.));
#1214=CARTESIAN_POINT('Origin',(-245.000003650784,-35.0000005215406,2.));
#1215=CARTESIAN_POINT('',(-256.500003650784,-25.0000005215406,2.));
#1216=CARTESIAN_POINT('Origin',(-255.000003650784,-25.0000005215406,2.));
#1217=CARTESIAN_POINT('',(-256.500003650784,-35.0000005215406,2.));
#1218=CARTESIAN_POINT('Origin',(-255.000003650784,-35.0000005215406,2.));
#1219=CARTESIAN_POINT('',(-246.500003650784,24.9999994784594,2.));
#1220=CARTESIAN_POINT('Origin',(-245.000003650784,24.9999994784594,2.));
#1221=CARTESIAN_POINT('',(-256.500003650784,34.9999994784594,2.));
#1222=CARTESIAN_POINT('Origin',(-255.000003650784,34.9999994784594,2.));
#1223=CARTESIAN_POINT('',(-246.500003650784,4.99999947845936,2.));
#1224=CARTESIAN_POINT('Origin',(-245.000003650784,4.99999947845936,2.));
#1225=CARTESIAN_POINT('Origin',(-245.000003650784,4.99999947845936,0.));
#1226=CARTESIAN_POINT('',(-246.500003650784,4.99999947845936,0.));
#1227=CARTESIAN_POINT('Origin',(-255.000003650784,34.9999994784594,0.));
#1228=CARTESIAN_POINT('',(-256.500003650784,34.9999994784594,0.));
#1229=CARTESIAN_POINT('Origin',(-245.000003650784,24.9999994784594,0.));
#1230=CARTESIAN_POINT('',(-246.500003650784,24.9999994784594,0.));
#1231=CARTESIAN_POINT('Origin',(-255.000003650784,-35.0000005215406,0.));
#1232=CARTESIAN_POINT('',(-256.500003650784,-35.0000005215406,0.));
#1233=CARTESIAN_POINT('Origin',(-255.000003650784,-25.0000005215406,0.));
#1234=CARTESIAN_POINT('',(-256.500003650784,-25.0000005215406,0.));
#1235=CARTESIAN_POINT('Origin',(-245.000003650784,-35.0000005215406,0.));
#1236=CARTESIAN_POINT('',(-246.500003650784,-35.0000005215406,0.));
#1237=CARTESIAN_POINT('Origin',(-245.000003650784,-25.0000005215406,0.));
#1238=CARTESIAN_POINT('',(-246.500003650784,-25.0000005215406,0.));
#1239=CARTESIAN_POINT('Origin',(-245.000003650784,-5.00000052154064,0.));
#1240=CARTESIAN_POINT('',(-246.500003650784,-5.00000052154064,0.));
#1241=CARTESIAN_POINT('Origin',(-255.000003650784,14.9999994784594,0.));
#1242=CARTESIAN_POINT('',(-256.500003650784,14.9999994784594,0.));
#1243=CARTESIAN_POINT('Origin',(-255.000003650784,-5.00000052154064,0.));
#1244=CARTESIAN_POINT('',(-256.500003650784,-5.00000052154064,0.));
#1245=CARTESIAN_POINT('Origin',(-255.000003650784,4.99999947845936,0.));
#1246=CARTESIAN_POINT('',(-256.500003650784,4.99999947845936,0.));
#1247=CARTESIAN_POINT('Origin',(-245.000003650784,-15.0000005215406,0.));
#1248=CARTESIAN_POINT('',(-246.500003650784,-15.0000005215406,0.));
#1249=CARTESIAN_POINT('Origin',(-255.000003650784,-15.0000005215406,0.));
#1250=CARTESIAN_POINT('',(-256.500003650784,-15.0000005215406,0.));
#1251=CARTESIAN_POINT('Origin',(-245.000003650784,34.9999994784594,0.));
#1252=CARTESIAN_POINT('',(-246.500003650784,34.9999994784594,0.));
#1253=CARTESIAN_POINT('Origin',(-245.000003650784,14.9999994784594,0.));
#1254=CARTESIAN_POINT('',(-246.500003650784,14.9999994784594,0.));
#1255=CARTESIAN_POINT('Origin',(-255.000003650784,24.9999994784594,0.));
#1256=CARTESIAN_POINT('',(-256.500003650784,24.9999994784594,0.));
#1257=CARTESIAN_POINT('Origin',(-240.000003576279,-50.0000007450581,0.));
#1258=CARTESIAN_POINT('',(-240.000003576279,50.0000007450581,2.));
#1259=CARTESIAN_POINT('',(-240.000003576279,50.0000007450581,0.));
#1260=CARTESIAN_POINT('',(-240.000003576279,50.0000007450581,2.));
#1261=CARTESIAN_POINT('',(-240.000003576279,-50.0000007450581,0.));
#1262=CARTESIAN_POINT('Origin',(-260.000003874302,-50.0000007450581,0.));
#1263=CARTESIAN_POINT('Origin',(-240.000003576279,50.0000007450581,0.));
#1264=CARTESIAN_POINT('',(-260.000003874302,50.0000007450581,2.));
#1265=CARTESIAN_POINT('Origin',(-250.00000372529,0.,2.));
#1266=UNCERTAINTY_MEASURE_WITH_UNIT(LENGTH_MEASURE(0.01),#1270,
'DISTANCE_ACCURACY_VALUE',
'Maximum model space distance between geometric entities at asserted c
onnectivities');
#1267=UNCERTAINTY_MEASURE_WITH_UNIT(LENGTH_MEASURE(0.01),#1270,
'DISTANCE_ACCURACY_VALUE',
'Maximum model space distance between geometric entities at asserted c
onnectivities');
#1268=(
GEOMETRIC_REPRESENTATION_CONTEXT(3)
GLOBAL_UNCERTAINTY_ASSIGNED_CONTEXT((#1266))
GLOBAL_UNIT_ASSIGNED_CONTEXT((#1270,#1272,#1273))
REPRESENTATION_CONTEXT('','3D')
);
#1269=(
GEOMETRIC_REPRESENTATION_CONTEXT(3)
GLOBAL_UNCERTAINTY_ASSIGNED_CONTEXT((#1267))
GLOBAL_UNIT_ASSIGNED_CONTEXT((#1270,#1272,#1273))
REPRESENTATION_CONTEXT('','3D')
);
#1270=(
LENGTH_UNIT()
NAMED_UNIT(*)
SI_UNIT(.MILLI.,.METRE.)
);
#1271=(
LENGTH_UNIT()
NAMED_UNIT(*)
SI_UNIT($,.METRE.)
);
#1272=(
NAMED_UNIT(*)
PLANE_ANGLE_UNIT()
SI_UNIT($,.RADIAN.)
);
#1273=(
NAMED_UNIT(*)
SI_UNIT($,.STERADIAN.)
SOLID_ANGLE_UNIT()
);
#1274=SHAPE_DEFINITION_REPRESENTATION(#1275,#1276);
#1275=PRODUCT_DEFINITION_SHAPE('',$,#1278);
#1276=SHAPE_REPRESENTATION('',(#782),#1268);
#1277=PRODUCT_DEFINITION_CONTEXT('part definition',#1282,'design');
#1278=PRODUCT_DEFINITION('ugate_bot','ugate_bot',#1279,#1277);
#1279=PRODUCT_DEFINITION_FORMATION('',$,#1284);
#1280=PRODUCT_RELATED_PRODUCT_CATEGORY('ugate_bot','ugate_bot',(#1284));
#1281=APPLICATION_PROTOCOL_DEFINITION('international standard',
'automotive_design',2009,#1282);
#1282=APPLICATION_CONTEXT(
'Core Data for Automotive Mechanical Design Process');
#1283=PRODUCT_CONTEXT('part definition',#1282,'mechanical');
#1284=PRODUCT('ugate_bot','ugate_bot',$,(#1283));
#1285=PRESENTATION_STYLE_ASSIGNMENT((#1286));
#1286=SURFACE_STYLE_USAGE(.BOTH.,#1287);
#1287=SURFACE_SIDE_STYLE('',(#1288));
#1288=SURFACE_STYLE_FILL_AREA(#1289);
#1289=FILL_AREA_STYLE('Steel - Satin',(#1290));
#1290=FILL_AREA_STYLE_COLOUR('Steel - Satin',#1291);
#1291=COLOUR_RGB('Steel - Satin',0.627450980392157,0.627450980392157,0.627450980392157);
ENDSEC;
END-ISO-10303-21;
