ISO-10303-21;
HEADER;
/* Generated by software containing ST-Developer
 * from STEP Tools, Inc. (www.steptools.com) 
 */

FILE_DESCRIPTION(
/* description */ (''),
/* implementation_level */ '2;1');

FILE_NAME(
/* name */ 'ugate_top_side.step',
/* time_stamp */ '2025-12-31T18:05:18+01:00',
/* author */ (''),
/* organization */ (''),
/* preprocessor_version */ 'ST-DEVELOPER v20.1',
/* originating_system */ 'Autodesk Translation Framework v14.21.0.0',
/* authorisation */ '');

FILE_SCHEMA (('AUTOMOTIVE_DESIGN { 1 0 10303 214 3 1 1 }'));
ENDSEC;

DATA;
#10=MECHANICAL_DESIGN_GEOMETRIC_PRESENTATION_REPRESENTATION('',(#13),#500);
#11=SHAPE_REPRESENTATION_RELATIONSHIP('SRR','None',#507,#12);
#12=ADVANCED_BREP_SHAPE_REPRESENTATION('',(#14),#499);
#13=STYLED_ITEM('',(#516),#14);
#14=MANIFOLD_SOLID_BREP('Body1',#294);
#15=CYLINDRICAL_SURFACE('',#315,2.04999999999998);
#16=CYLINDRICAL_SURFACE('',#319,2.04999999999998);
#17=CYLINDRICAL_SURFACE('',#325,1.99999999999999);
#18=CYLINDRICAL_SURFACE('',#328,1.99999999999999);
#19=FACE_BOUND('',#55,.T.);
#20=FACE_BOUND('',#56,.T.);
#21=FACE_BOUND('',#57,.T.);
#22=FACE_BOUND('',#58,.T.);
#23=FACE_BOUND('',#74,.T.);
#24=FACE_BOUND('',#75,.T.);
#25=PLANE('',#311);
#26=PLANE('',#321);
#27=PLANE('',#322);
#28=PLANE('',#323);
#29=PLANE('',#324);
#30=PLANE('',#327);
#31=PLANE('',#330);
#32=PLANE('',#331);
#33=PLANE('',#332);
#34=PLANE('',#333);
#35=PLANE('',#334);
#36=FACE_OUTER_BOUND('',#53,.T.);
#37=FACE_OUTER_BOUND('',#54,.T.);
#38=FACE_OUTER_BOUND('',#59,.T.);
#39=FACE_OUTER_BOUND('',#60,.T.);
#40=FACE_OUTER_BOUND('',#61,.T.);
#41=FACE_OUTER_BOUND('',#62,.T.);
#42=FACE_OUTER_BOUND('',#63,.T.);
#43=FACE_OUTER_BOUND('',#64,.T.);
#44=FACE_OUTER_BOUND('',#65,.T.);
#45=FACE_OUTER_BOUND('',#66,.T.);
#46=FACE_OUTER_BOUND('',#67,.T.);
#47=FACE_OUTER_BOUND('',#68,.T.);
#48=FACE_OUTER_BOUND('',#69,.T.);
#49=FACE_OUTER_BOUND('',#70,.T.);
#50=FACE_OUTER_BOUND('',#71,.T.);
#51=FACE_OUTER_BOUND('',#72,.T.);
#52=FACE_OUTER_BOUND('',#73,.T.);
#53=EDGE_LOOP('',(#201,#202,#203,#204));
#54=EDGE_LOOP('',(#205,#206,#207,#208,#209,#210,#211,#212));
#55=EDGE_LOOP('',(#213));
#56=EDGE_LOOP('',(#214));
#57=EDGE_LOOP('',(#215));
#58=EDGE_LOOP('',(#216));
#59=EDGE_LOOP('',(#217,#218,#219,#220));
#60=EDGE_LOOP('',(#221,#222,#223,#224));
#61=EDGE_LOOP('',(#225,#226,#227,#228));
#62=EDGE_LOOP('',(#229,#230,#231,#232));
#63=EDGE_LOOP('',(#233,#234,#235,#236));
#64=EDGE_LOOP('',(#237,#238,#239));
#65=EDGE_LOOP('',(#240,#241,#242,#243,#244,#245,#246));
#66=EDGE_LOOP('',(#247,#248,#249,#250));
#67=EDGE_LOOP('',(#251));
#68=EDGE_LOOP('',(#252,#253,#254,#255));
#69=EDGE_LOOP('',(#256));
#70=EDGE_LOOP('',(#257,#258,#259,#260));
#71=EDGE_LOOP('',(#261,#262,#263,#264));
#72=EDGE_LOOP('',(#265,#266,#267,#268));
#73=EDGE_LOOP('',(#269,#270,#271,#272));
#74=EDGE_LOOP('',(#273));
#75=EDGE_LOOP('',(#274));
#76=LINE('',#423,#103);
#77=LINE('',#428,#104);
#78=LINE('',#430,#105);
#79=LINE('',#432,#106);
#80=LINE('',#434,#107);
#81=LINE('',#436,#108);
#82=LINE('',#438,#109);
#83=LINE('',#440,#110);
#84=LINE('',#441,#111);
#85=LINE('',#451,#112);
#86=LINE('',#454,#113);
#87=LINE('',#459,#114);
#88=LINE('',#462,#115);
#89=LINE('',#464,#116);
#90=LINE('',#465,#117);
#91=LINE('',#467,#118);
#92=LINE('',#468,#119);
#93=LINE('',#472,#120);
#94=LINE('',#474,#121);
#95=LINE('',#475,#122);
#96=LINE('',#478,#123);
#97=LINE('',#483,#124);
#98=LINE('',#488,#125);
#99=LINE('',#489,#126);
#100=LINE('',#492,#127);
#101=LINE('',#493,#128);
#102=LINE('',#495,#129);
#103=VECTOR('',#341,2.54999999999999);
#104=VECTOR('',#346,10.);
#105=VECTOR('',#347,10.);
#106=VECTOR('',#348,10.);
#107=VECTOR('',#349,10.);
#108=VECTOR('',#350,10.);
#109=VECTOR('',#351,10.);
#110=VECTOR('',#352,10.);
#111=VECTOR('',#353,10.);
#112=VECTOR('',#364,2.04999999999998);
#113=VECTOR('',#367,2.54999999999999);
#114=VECTOR('',#374,2.04999999999998);
#115=VECTOR('',#377,10.);
#116=VECTOR('',#378,10.);
#117=VECTOR('',#379,10.);
#118=VECTOR('',#382,10.);
#119=VECTOR('',#383,10.);
#120=VECTOR('',#388,10.);
#121=VECTOR('',#389,10.);
#122=VECTOR('',#390,10.);
#123=VECTOR('',#393,1.99999999999999);
#124=VECTOR('',#400,1.99999999999999);
#125=VECTOR('',#407,10.);
#126=VECTOR('',#408,10.);
#127=VECTOR('',#411,10.);
#128=VECTOR('',#412,10.);
#129=VECTOR('',#415,10.);
#130=CIRCLE('',#309,3.05);
#131=CIRCLE('',#310,2.04999999999998);
#132=CIRCLE('',#312,3.05);
#133=CIRCLE('',#313,1.99999999999999);
#134=CIRCLE('',#314,1.99999999999999);
#135=CIRCLE('',#316,2.04999999999998);
#136=CIRCLE('',#318,2.04999999999998);
#137=CIRCLE('',#320,2.04999999999998);
#138=CIRCLE('',#326,1.99999999999999);
#139=CIRCLE('',#329,1.99999999999999);
#140=VERTEX_POINT('',#420);
#141=VERTEX_POINT('',#422);
#142=VERTEX_POINT('',#426);
#143=VERTEX_POINT('',#427);
#144=VERTEX_POINT('',#429);
#145=VERTEX_POINT('',#431);
#146=VERTEX_POINT('',#433);
#147=VERTEX_POINT('',#435);
#148=VERTEX_POINT('',#437);
#149=VERTEX_POINT('',#439);
#150=VERTEX_POINT('',#442);
#151=VERTEX_POINT('',#444);
#152=VERTEX_POINT('',#446);
#153=VERTEX_POINT('',#449);
#154=VERTEX_POINT('',#453);
#155=VERTEX_POINT('',#457);
#156=VERTEX_POINT('',#461);
#157=VERTEX_POINT('',#463);
#158=VERTEX_POINT('',#471);
#159=VERTEX_POINT('',#473);
#160=VERTEX_POINT('',#477);
#161=VERTEX_POINT('',#482);
#162=VERTEX_POINT('',#487);
#163=VERTEX_POINT('',#491);
#164=EDGE_CURVE('',#140,#140,#130,.T.);
#165=EDGE_CURVE('',#140,#141,#76,.T.);
#166=EDGE_CURVE('',#141,#141,#131,.T.);
#167=EDGE_CURVE('',#142,#143,#77,.T.);
#168=EDGE_CURVE('',#144,#143,#78,.T.);
#169=EDGE_CURVE('',#145,#144,#79,.T.);
#170=EDGE_CURVE('',#146,#145,#80,.T.);
#171=EDGE_CURVE('',#147,#146,#81,.T.);
#172=EDGE_CURVE('',#148,#147,#82,.T.);
#173=EDGE_CURVE('',#148,#149,#83,.T.);
#174=EDGE_CURVE('',#149,#142,#84,.T.);
#175=EDGE_CURVE('',#150,#150,#132,.T.);
#176=EDGE_CURVE('',#151,#151,#133,.T.);
#177=EDGE_CURVE('',#152,#152,#134,.T.);
#178=EDGE_CURVE('',#153,#153,#135,.T.);
#179=EDGE_CURVE('',#153,#141,#85,.T.);
#180=EDGE_CURVE('',#150,#154,#86,.T.);
#181=EDGE_CURVE('',#154,#154,#136,.T.);
#182=EDGE_CURVE('',#155,#155,#137,.T.);
#183=EDGE_CURVE('',#155,#154,#87,.T.);
#184=EDGE_CURVE('',#156,#148,#88,.T.);
#185=EDGE_CURVE('',#156,#157,#89,.T.);
#186=EDGE_CURVE('',#157,#149,#90,.T.);
#187=EDGE_CURVE('',#143,#156,#91,.T.);
#188=EDGE_CURVE('',#142,#157,#92,.T.);
#189=EDGE_CURVE('',#147,#158,#93,.T.);
#190=EDGE_CURVE('',#159,#158,#94,.T.);
#191=EDGE_CURVE('',#144,#159,#95,.T.);
#192=EDGE_CURVE('',#151,#160,#96,.T.);
#193=EDGE_CURVE('',#160,#160,#138,.T.);
#194=EDGE_CURVE('',#152,#161,#97,.T.);
#195=EDGE_CURVE('',#161,#161,#139,.T.);
#196=EDGE_CURVE('',#162,#159,#98,.T.);
#197=EDGE_CURVE('',#145,#162,#99,.T.);
#198=EDGE_CURVE('',#163,#162,#100,.T.);
#199=EDGE_CURVE('',#146,#163,#101,.T.);
#200=EDGE_CURVE('',#158,#163,#102,.T.);
#201=ORIENTED_EDGE('',*,*,#164,.T.);
#202=ORIENTED_EDGE('',*,*,#165,.T.);
#203=ORIENTED_EDGE('',*,*,#166,.T.);
#204=ORIENTED_EDGE('',*,*,#165,.F.);
#205=ORIENTED_EDGE('',*,*,#167,.T.);
#206=ORIENTED_EDGE('',*,*,#168,.F.);
#207=ORIENTED_EDGE('',*,*,#169,.F.);
#208=ORIENTED_EDGE('',*,*,#170,.F.);
#209=ORIENTED_EDGE('',*,*,#171,.F.);
#210=ORIENTED_EDGE('',*,*,#172,.F.);
#211=ORIENTED_EDGE('',*,*,#173,.T.);
#212=ORIENTED_EDGE('',*,*,#174,.T.);
#213=ORIENTED_EDGE('',*,*,#175,.F.);
#214=ORIENTED_EDGE('',*,*,#176,.T.);
#215=ORIENTED_EDGE('',*,*,#177,.T.);
#216=ORIENTED_EDGE('',*,*,#164,.F.);
#217=ORIENTED_EDGE('',*,*,#178,.F.);
#218=ORIENTED_EDGE('',*,*,#179,.T.);
#219=ORIENTED_EDGE('',*,*,#166,.F.);
#220=ORIENTED_EDGE('',*,*,#179,.F.);
#221=ORIENTED_EDGE('',*,*,#175,.T.);
#222=ORIENTED_EDGE('',*,*,#180,.T.);
#223=ORIENTED_EDGE('',*,*,#181,.T.);
#224=ORIENTED_EDGE('',*,*,#180,.F.);
#225=ORIENTED_EDGE('',*,*,#182,.F.);
#226=ORIENTED_EDGE('',*,*,#183,.T.);
#227=ORIENTED_EDGE('',*,*,#181,.F.);
#228=ORIENTED_EDGE('',*,*,#183,.F.);
#229=ORIENTED_EDGE('',*,*,#184,.F.);
#230=ORIENTED_EDGE('',*,*,#185,.T.);
#231=ORIENTED_EDGE('',*,*,#186,.T.);
#232=ORIENTED_EDGE('',*,*,#173,.F.);
#233=ORIENTED_EDGE('',*,*,#187,.F.);
#234=ORIENTED_EDGE('',*,*,#167,.F.);
#235=ORIENTED_EDGE('',*,*,#188,.T.);
#236=ORIENTED_EDGE('',*,*,#185,.F.);
#237=ORIENTED_EDGE('',*,*,#188,.F.);
#238=ORIENTED_EDGE('',*,*,#174,.F.);
#239=ORIENTED_EDGE('',*,*,#186,.F.);
#240=ORIENTED_EDGE('',*,*,#187,.T.);
#241=ORIENTED_EDGE('',*,*,#184,.T.);
#242=ORIENTED_EDGE('',*,*,#172,.T.);
#243=ORIENTED_EDGE('',*,*,#189,.T.);
#244=ORIENTED_EDGE('',*,*,#190,.F.);
#245=ORIENTED_EDGE('',*,*,#191,.F.);
#246=ORIENTED_EDGE('',*,*,#168,.T.);
#247=ORIENTED_EDGE('',*,*,#176,.F.);
#248=ORIENTED_EDGE('',*,*,#192,.T.);
#249=ORIENTED_EDGE('',*,*,#193,.T.);
#250=ORIENTED_EDGE('',*,*,#192,.F.);
#251=ORIENTED_EDGE('',*,*,#193,.F.);
#252=ORIENTED_EDGE('',*,*,#177,.F.);
#253=ORIENTED_EDGE('',*,*,#194,.T.);
#254=ORIENTED_EDGE('',*,*,#195,.T.);
#255=ORIENTED_EDGE('',*,*,#194,.F.);
#256=ORIENTED_EDGE('',*,*,#195,.F.);
#257=ORIENTED_EDGE('',*,*,#169,.T.);
#258=ORIENTED_EDGE('',*,*,#191,.T.);
#259=ORIENTED_EDGE('',*,*,#196,.F.);
#260=ORIENTED_EDGE('',*,*,#197,.F.);
#261=ORIENTED_EDGE('',*,*,#170,.T.);
#262=ORIENTED_EDGE('',*,*,#197,.T.);
#263=ORIENTED_EDGE('',*,*,#198,.F.);
#264=ORIENTED_EDGE('',*,*,#199,.F.);
#265=ORIENTED_EDGE('',*,*,#171,.T.);
#266=ORIENTED_EDGE('',*,*,#199,.T.);
#267=ORIENTED_EDGE('',*,*,#200,.F.);
#268=ORIENTED_EDGE('',*,*,#189,.F.);
#269=ORIENTED_EDGE('',*,*,#190,.T.);
#270=ORIENTED_EDGE('',*,*,#200,.T.);
#271=ORIENTED_EDGE('',*,*,#198,.T.);
#272=ORIENTED_EDGE('',*,*,#196,.T.);
#273=ORIENTED_EDGE('',*,*,#178,.T.);
#274=ORIENTED_EDGE('',*,*,#182,.T.);
#275=CONICAL_SURFACE('',#308,2.54999999999999,0.785398163397457);
#276=CONICAL_SURFACE('',#317,2.54999999999999,0.785398163397457);
#277=ADVANCED_FACE('',(#36),#275,.F.);
#278=ADVANCED_FACE('',(#37,#19,#20,#21,#22),#25,.T.);
#279=ADVANCED_FACE('',(#38),#15,.F.);
#280=ADVANCED_FACE('',(#39),#276,.F.);
#281=ADVANCED_FACE('',(#40),#16,.F.);
#282=ADVANCED_FACE('',(#41),#26,.F.);
#283=ADVANCED_FACE('',(#42),#27,.F.);
#284=ADVANCED_FACE('',(#43),#28,.F.);
#285=ADVANCED_FACE('',(#44),#29,.T.);
#286=ADVANCED_FACE('',(#45),#17,.F.);
#287=ADVANCED_FACE('',(#46),#30,.T.);
#288=ADVANCED_FACE('',(#47),#18,.F.);
#289=ADVANCED_FACE('',(#48),#31,.T.);
#290=ADVANCED_FACE('',(#49),#32,.T.);
#291=ADVANCED_FACE('',(#50),#33,.T.);
#292=ADVANCED_FACE('',(#51),#34,.T.);
#293=ADVANCED_FACE('',(#52,#23,#24),#35,.F.);
#294=CLOSED_SHELL('',(#277,#278,#279,#280,#281,#282,#283,#284,#285,#286,
#287,#288,#289,#290,#291,#292,#293));
#295=DERIVED_UNIT_ELEMENT(#297,1.);
#296=DERIVED_UNIT_ELEMENT(#502,-3.);
#297=(
MASS_UNIT()
NAMED_UNIT(*)
SI_UNIT(.KILO.,.GRAM.)
);
#298=DERIVED_UNIT((#295,#296));
#299=MEASURE_REPRESENTATION_ITEM('density measure',
POSITIVE_RATIO_MEASURE(7850.),#298);
#300=PROPERTY_DEFINITION_REPRESENTATION(#305,#302);
#301=PROPERTY_DEFINITION_REPRESENTATION(#306,#303);
#302=REPRESENTATION('material name',(#304),#499);
#303=REPRESENTATION('density',(#299),#499);
#304=DESCRIPTIVE_REPRESENTATION_ITEM('Steel','Steel');
#305=PROPERTY_DEFINITION('material property','material name',#509);
#306=PROPERTY_DEFINITION('material property','density of part',#509);
#307=AXIS2_PLACEMENT_3D('',#418,#335,#336);
#308=AXIS2_PLACEMENT_3D('',#419,#337,#338);
#309=AXIS2_PLACEMENT_3D('',#421,#339,#340);
#310=AXIS2_PLACEMENT_3D('',#424,#342,#343);
#311=AXIS2_PLACEMENT_3D('',#425,#344,#345);
#312=AXIS2_PLACEMENT_3D('',#443,#354,#355);
#313=AXIS2_PLACEMENT_3D('',#445,#356,#357);
#314=AXIS2_PLACEMENT_3D('',#447,#358,#359);
#315=AXIS2_PLACEMENT_3D('',#448,#360,#361);
#316=AXIS2_PLACEMENT_3D('',#450,#362,#363);
#317=AXIS2_PLACEMENT_3D('',#452,#365,#366);
#318=AXIS2_PLACEMENT_3D('',#455,#368,#369);
#319=AXIS2_PLACEMENT_3D('',#456,#370,#371);
#320=AXIS2_PLACEMENT_3D('',#458,#372,#373);
#321=AXIS2_PLACEMENT_3D('',#460,#375,#376);
#322=AXIS2_PLACEMENT_3D('',#466,#380,#381);
#323=AXIS2_PLACEMENT_3D('',#469,#384,#385);
#324=AXIS2_PLACEMENT_3D('',#470,#386,#387);
#325=AXIS2_PLACEMENT_3D('',#476,#391,#392);
#326=AXIS2_PLACEMENT_3D('',#479,#394,#395);
#327=AXIS2_PLACEMENT_3D('',#480,#396,#397);
#328=AXIS2_PLACEMENT_3D('',#481,#398,#399);
#329=AXIS2_PLACEMENT_3D('',#484,#401,#402);
#330=AXIS2_PLACEMENT_3D('',#485,#403,#404);
#331=AXIS2_PLACEMENT_3D('',#486,#405,#406);
#332=AXIS2_PLACEMENT_3D('',#490,#409,#410);
#333=AXIS2_PLACEMENT_3D('',#494,#413,#414);
#334=AXIS2_PLACEMENT_3D('',#496,#416,#417);
#335=DIRECTION('axis',(0.,0.,1.));
#336=DIRECTION('refdir',(1.,0.,0.));
#337=DIRECTION('center_axis',(0.,1.,0.));
#338=DIRECTION('ref_axis',(1.,0.,0.));
#339=DIRECTION('center_axis',(0.,1.,0.));
#340=DIRECTION('ref_axis',(1.,0.,0.));
#341=DIRECTION('',(0.707106781186554,-0.707106781186541,-8.65956056235501E-17));
#342=DIRECTION('center_axis',(0.,-1.,0.));
#343=DIRECTION('ref_axis',(1.,0.,0.));
#344=DIRECTION('center_axis',(0.,1.,0.));
#345=DIRECTION('ref_axis',(1.,0.,0.));
#346=DIRECTION('',(0.,0.,1.));
#347=DIRECTION('',(-1.,0.,0.));
#348=DIRECTION('',(0.,0.,1.));
#349=DIRECTION('',(1.,0.,0.));
#350=DIRECTION('',(0.,0.,-1.));
#351=DIRECTION('',(-1.,0.,0.));
#352=DIRECTION('',(0.,0.,-1.));
#353=DIRECTION('',(1.,0.,0.));
#354=DIRECTION('center_axis',(0.,1.,0.));
#355=DIRECTION('ref_axis',(1.,0.,0.));
#356=DIRECTION('center_axis',(0.,-1.,0.));
#357=DIRECTION('ref_axis',(1.,0.,0.));
#358=DIRECTION('center_axis',(0.,-1.,0.));
#359=DIRECTION('ref_axis',(1.,0.,0.));
#360=DIRECTION('center_axis',(0.,-1.,0.));
#361=DIRECTION('ref_axis',(1.,0.,0.));
#362=DIRECTION('center_axis',(0.,1.,0.));
#363=DIRECTION('ref_axis',(1.,0.,0.));
#364=DIRECTION('',(0.,1.,0.));
#365=DIRECTION('center_axis',(0.,1.,0.));
#366=DIRECTION('ref_axis',(1.,0.,0.));
#367=DIRECTION('',(0.707106781186554,-0.707106781186541,-8.65956056235501E-17));
#368=DIRECTION('center_axis',(0.,-1.,0.));
#369=DIRECTION('ref_axis',(1.,0.,0.));
#370=DIRECTION('center_axis',(0.,-1.,0.));
#371=DIRECTION('ref_axis',(1.,0.,0.));
#372=DIRECTION('center_axis',(0.,1.,0.));
#373=DIRECTION('ref_axis',(1.,0.,0.));
#374=DIRECTION('',(0.,1.,0.));
#375=DIRECTION('center_axis',(-0.707106781186548,-0.707106781186548,0.));
#376=DIRECTION('ref_axis',(-0.707106781186548,0.707106781186548,0.));
#377=DIRECTION('',(-0.707106781186548,0.707106781186548,0.));
#378=DIRECTION('',(0.,0.,-1.));
#379=DIRECTION('',(-0.707106781186548,0.707106781186548,0.));
#380=DIRECTION('center_axis',(0.707106781186538,-0.707106781186557,0.));
#381=DIRECTION('ref_axis',(-0.707106781186557,-0.707106781186538,0.));
#382=DIRECTION('',(-0.707106781186557,-0.707106781186538,0.));
#383=DIRECTION('',(-0.707106781186557,-0.707106781186538,0.));
#384=DIRECTION('center_axis',(0.,0.,-1.));
#385=DIRECTION('ref_axis',(-1.,0.,0.));
#386=DIRECTION('center_axis',(0.,0.,1.));
#387=DIRECTION('ref_axis',(-1.,0.,0.));
#388=DIRECTION('',(0.,-1.,0.));
#389=DIRECTION('',(-1.,0.,0.));
#390=DIRECTION('',(0.,-1.,0.));
#391=DIRECTION('center_axis',(0.,-1.,0.));
#392=DIRECTION('ref_axis',(1.,0.,0.));
#393=DIRECTION('',(0.,-1.,0.));
#394=DIRECTION('center_axis',(0.,-1.,0.));
#395=DIRECTION('ref_axis',(1.,0.,0.));
#396=DIRECTION('center_axis',(0.,1.,0.));
#397=DIRECTION('ref_axis',(1.,0.,0.));
#398=DIRECTION('center_axis',(0.,-1.,0.));
#399=DIRECTION('ref_axis',(1.,0.,0.));
#400=DIRECTION('',(0.,-1.,0.));
#401=DIRECTION('center_axis',(0.,-1.,0.));
#402=DIRECTION('ref_axis',(1.,0.,0.));
#403=DIRECTION('center_axis',(0.,1.,0.));
#404=DIRECTION('ref_axis',(1.,0.,0.));
#405=DIRECTION('center_axis',(1.,0.,0.));
#406=DIRECTION('ref_axis',(0.,0.,1.));
#407=DIRECTION('',(0.,0.,1.));
#408=DIRECTION('',(0.,-1.,0.));
#409=DIRECTION('center_axis',(0.,0.,-1.));
#410=DIRECTION('ref_axis',(1.,0.,0.));
#411=DIRECTION('',(1.,0.,0.));
#412=DIRECTION('',(0.,-1.,0.));
#413=DIRECTION('center_axis',(-1.,0.,0.));
#414=DIRECTION('ref_axis',(0.,0.,-1.));
#415=DIRECTION('',(0.,0.,-1.));
#416=DIRECTION('center_axis',(0.,1.,0.));
#417=DIRECTION('ref_axis',(1.,0.,0.));
#418=CARTESIAN_POINT('',(0.,0.,0.));
#419=CARTESIAN_POINT('Origin',(-255.000003799796,46.5,25.000000372529));
#420=CARTESIAN_POINT('',(-258.050003799796,47.,25.000000372529));
#421=CARTESIAN_POINT('Origin',(-255.000003799796,47.,25.000000372529));
#422=CARTESIAN_POINT('',(-257.050003799796,46.,25.000000372529));
#423=CARTESIAN_POINT('',(-257.550003799796,46.5,25.000000372529));
#424=CARTESIAN_POINT('Origin',(-255.000003799796,46.,25.000000372529));
#425=CARTESIAN_POINT('Origin',(-250.00000372529,47.,30.0000004470348));
#426=CARTESIAN_POINT('',(-248.999993383884,47.,29.0000007450581));
#427=CARTESIAN_POINT('',(-248.999993383884,47.,50.0000007450581));
#428=CARTESIAN_POINT('',(-248.999993383884,47.,40.0000005960464));
#429=CARTESIAN_POINT('',(-240.000003576279,47.,50.0000007450581));
#430=CARTESIAN_POINT('',(-240.000003576279,47.,50.0000007450581));
#431=CARTESIAN_POINT('',(-240.000003576279,47.,10.0000001490116));
#432=CARTESIAN_POINT('',(-240.000003576279,47.,10.0000001490116));
#433=CARTESIAN_POINT('',(-260.000003874302,47.,10.0000001490116));
#434=CARTESIAN_POINT('',(-260.000003874302,47.,10.0000001490116));
#435=CARTESIAN_POINT('',(-260.000003874302,47.,50.0000007450581));
#436=CARTESIAN_POINT('',(-260.000003874302,47.,50.0000007450581));
#437=CARTESIAN_POINT('',(-250.999994389713,46.9999989494681,50.0000007450581));
#438=CARTESIAN_POINT('',(-240.000003576279,47.,50.0000007450581));
#439=CARTESIAN_POINT('',(-250.999994389713,46.9999989494681,29.0000007450581));
#440=CARTESIAN_POINT('',(-250.999995440245,47.,40.0000005960464));
#441=CARTESIAN_POINT('',(-249.999998806044,47.,29.0000007450581));
#442=CARTESIAN_POINT('',(-248.050003650785,47.,25.000000372529));
#443=CARTESIAN_POINT('Origin',(-245.000003650784,47.,25.000000372529));
#444=CARTESIAN_POINT('',(-257.000003799796,47.,15.0000002235174));
#445=CARTESIAN_POINT('Origin',(-255.000003799796,47.,15.0000002235174));
#446=CARTESIAN_POINT('',(-247.000003650784,47.,15.0000002235174));
#447=CARTESIAN_POINT('Origin',(-245.000003650784,47.,15.0000002235174));
#448=CARTESIAN_POINT('Origin',(-255.000003799796,47.,25.000000372529));
#449=CARTESIAN_POINT('',(-257.050003799796,44.,25.000000372529));
#450=CARTESIAN_POINT('Origin',(-255.000003799796,44.,25.000000372529));
#451=CARTESIAN_POINT('',(-257.050003799796,47.,25.000000372529));
#452=CARTESIAN_POINT('Origin',(-245.000003650784,46.5,25.000000372529));
#453=CARTESIAN_POINT('',(-247.050003650784,46.,25.000000372529));
#454=CARTESIAN_POINT('',(-247.550003650784,46.5,25.000000372529));
#455=CARTESIAN_POINT('Origin',(-245.000003650784,46.,25.000000372529));
#456=CARTESIAN_POINT('Origin',(-245.000003650784,47.,25.000000372529));
#457=CARTESIAN_POINT('',(-247.050003650784,44.,25.000000372529));
#458=CARTESIAN_POINT('Origin',(-245.000003650784,44.,25.000000372529));
#459=CARTESIAN_POINT('',(-247.050003650784,47.,25.000000372529));
#460=CARTESIAN_POINT('Origin',(-249.999994412065,45.9999989718199,50.0000007450581));
#461=CARTESIAN_POINT('',(-249.999994412065,45.9999989718199,50.0000007450581));
#462=CARTESIAN_POINT('',(-247.749996960163,43.7500015199184,50.0000007450581));
#463=CARTESIAN_POINT('',(-249.999994412065,45.9999989718199,29.0000007450581));
#464=CARTESIAN_POINT('',(-249.999994412065,45.9999989718199,50.0000007450581));
#465=CARTESIAN_POINT('',(-250.999994389713,46.9999989494681,29.0000007450581));
#466=CARTESIAN_POINT('Origin',(-248.999993383884,47.,50.0000007450581));
#467=CARTESIAN_POINT('',(-246.749995931983,49.2499974519014,50.0000007450581));
#468=CARTESIAN_POINT('',(-249.999994412065,45.9999989718199,29.0000007450581));
#469=CARTESIAN_POINT('Origin',(-249.999993886799,46.4999994859099,29.0000007450581));
#470=CARTESIAN_POINT('Origin',(-240.000003576279,47.,50.0000007450581));
#471=CARTESIAN_POINT('',(-260.000003874302,44.,50.0000007450581));
#472=CARTESIAN_POINT('',(-260.000003874302,47.,50.0000007450581));
#473=CARTESIAN_POINT('',(-240.000003576279,44.,50.0000007450581));
#474=CARTESIAN_POINT('',(-240.000003576279,44.,50.0000007450581));
#475=CARTESIAN_POINT('',(-240.000003576279,47.,50.0000007450581));
#476=CARTESIAN_POINT('Origin',(-255.000003799796,47.,15.0000002235174));
#477=CARTESIAN_POINT('',(-257.000003799796,45.,15.0000002235174));
#478=CARTESIAN_POINT('',(-257.000003799796,47.,15.0000002235174));
#479=CARTESIAN_POINT('Origin',(-255.000003799796,45.,15.0000002235174));
#480=CARTESIAN_POINT('Origin',(-255.000003799796,45.,15.0000002235174));
#481=CARTESIAN_POINT('Origin',(-245.000003650784,47.,15.0000002235174));
#482=CARTESIAN_POINT('',(-247.000003650784,45.,15.0000002235174));
#483=CARTESIAN_POINT('',(-247.000003650784,47.,15.0000002235174));
#484=CARTESIAN_POINT('Origin',(-245.000003650784,45.,15.0000002235174));
#485=CARTESIAN_POINT('Origin',(-245.000003650784,45.,15.0000002235174));
#486=CARTESIAN_POINT('Origin',(-240.000003576279,47.,10.0000001490116));
#487=CARTESIAN_POINT('',(-240.000003576279,44.,10.0000001490116));
#488=CARTESIAN_POINT('',(-240.000003576279,44.,10.0000001490116));
#489=CARTESIAN_POINT('',(-240.000003576279,47.,10.0000001490116));
#490=CARTESIAN_POINT('Origin',(-260.000003874302,47.,10.0000001490116));
#491=CARTESIAN_POINT('',(-260.000003874302,44.,10.0000001490116));
#492=CARTESIAN_POINT('',(-260.000003874302,44.,10.0000001490116));
#493=CARTESIAN_POINT('',(-260.000003874302,47.,10.0000001490116));
#494=CARTESIAN_POINT('Origin',(-260.000003874302,47.,50.0000007450581));
#495=CARTESIAN_POINT('',(-260.000003874302,44.,50.0000007450581));
#496=CARTESIAN_POINT('Origin',(-250.00000372529,44.,30.0000004470348));
#497=UNCERTAINTY_MEASURE_WITH_UNIT(LENGTH_MEASURE(0.01),#501,
'DISTANCE_ACCURACY_VALUE',
'Maximum model space distance between geometric entities at asserted c
onnectivities');
#498=UNCERTAINTY_MEASURE_WITH_UNIT(LENGTH_MEASURE(0.01),#501,
'DISTANCE_ACCURACY_VALUE',
'Maximum model space distance between geometric entities at asserted c
onnectivities');
#499=(
GEOMETRIC_REPRESENTATION_CONTEXT(3)
GLOBAL_UNCERTAINTY_ASSIGNED_CONTEXT((#497))
GLOBAL_UNIT_ASSIGNED_CONTEXT((#501,#503,#504))
REPRESENTATION_CONTEXT('','3D')
);
#500=(
GEOMETRIC_REPRESENTATION_CONTEXT(3)
GLOBAL_UNCERTAINTY_ASSIGNED_CONTEXT((#498))
GLOBAL_UNIT_ASSIGNED_CONTEXT((#501,#503,#504))
REPRESENTATION_CONTEXT('','3D')
);
#501=(
LENGTH_UNIT()
NAMED_UNIT(*)
SI_UNIT(.MILLI.,.METRE.)
);
#502=(
LENGTH_UNIT()
NAMED_UNIT(*)
SI_UNIT($,.METRE.)
);
#503=(
NAMED_UNIT(*)
PLANE_ANGLE_UNIT()
SI_UNIT($,.RADIAN.)
);
#504=(
NAMED_UNIT(*)
SI_UNIT($,.STERADIAN.)
SOLID_ANGLE_UNIT()
);
#505=SHAPE_DEFINITION_REPRESENTATION(#506,#507);
#506=PRODUCT_DEFINITION_SHAPE('',$,#509);
#507=SHAPE_REPRESENTATION('',(#307),#499);
#508=PRODUCT_DEFINITION_CONTEXT('part definition',#513,'design');
#509=PRODUCT_DEFINITION('ugate_top_side','ugate_top_side',#510,#508);
#510=PRODUCT_DEFINITION_FORMATION('',$,#515);
#511=PRODUCT_RELATED_PRODUCT_CATEGORY('ugate_top_side','ugate_top_side',
(#515));
#512=APPLICATION_PROTOCOL_DEFINITION('international standard',
'automotive_design',2009,#513);
#513=APPLICATION_CONTEXT(
'Core Data for Automotive Mechanical Design Process');
#514=PRODUCT_CONTEXT('part definition',#513,'mechanical');
#515=PRODUCT('ugate_top_side','ugate_top_side',$,(#514));
#516=PRESENTATION_STYLE_ASSIGNMENT((#517));
#517=SURFACE_STYLE_USAGE(.BOTH.,#518);
#518=SURFACE_SIDE_STYLE('',(#519));
#519=SURFACE_STYLE_FILL_AREA(#520);
#520=FILL_AREA_STYLE('Steel - Satin',(#521));
#521=FILL_AREA_STYLE_COLOUR('Steel - Satin',#522);
#522=COLOUR_RGB('Steel - Satin',0.627450980392157,0.627450980392157,0.627450980392157);
ENDSEC;
END-ISO-10303-21;
