ISO-10303-21;
HEADER;
/* Generated by software containing ST-Developer
 * from STEP Tools, Inc. (www.steptools.com) 
 */

FILE_DESCRIPTION(
/* description */ (''),
/* implementation_level */ '2;1');

FILE_NAME(
/* name */ 'ugate_top.step',
/* time_stamp */ '2025-12-31T18:05:23+01:00',
/* author */ (''),
/* organization */ (''),
/* preprocessor_version */ 'ST-DEVELOPER v20.1',
/* originating_system */ 'Autodesk Translation Framework v14.21.0.0',
/* authorisation */ '');

FILE_SCHEMA (('AUTOMOTIVE_DESIGN { 1 0 10303 214 3 1 1 }'));
ENDSEC;

DATA;
#10=MECHANICAL_DESIGN_GEOMETRIC_PRESENTATION_REPRESENTATION('',(#13),#777);
#11=SHAPE_REPRESENTATION_RELATIONSHIP('SRR','None',#784,#12);
#12=ADVANCED_BREP_SHAPE_REPRESENTATION('',(#14),#776);
#13=STYLED_ITEM('',(#793),#14);
#14=MANIFOLD_SOLID_BREP('Body1',#485);
#15=FACE_OUTER_BOUND('',#39,.T.);
#16=FACE_OUTER_BOUND('',#40,.T.);
#17=FACE_OUTER_BOUND('',#41,.T.);
#18=FACE_OUTER_BOUND('',#42,.T.);
#19=FACE_OUTER_BOUND('',#43,.T.);
#20=FACE_OUTER_BOUND('',#44,.T.);
#21=FACE_OUTER_BOUND('',#45,.T.);
#22=FACE_OUTER_BOUND('',#46,.T.);
#23=FACE_OUTER_BOUND('',#47,.T.);
#24=FACE_OUTER_BOUND('',#48,.T.);
#25=FACE_OUTER_BOUND('',#49,.T.);
#26=FACE_OUTER_BOUND('',#50,.T.);
#27=FACE_OUTER_BOUND('',#51,.T.);
#28=FACE_OUTER_BOUND('',#52,.T.);
#29=FACE_OUTER_BOUND('',#53,.T.);
#30=FACE_OUTER_BOUND('',#54,.T.);
#31=FACE_OUTER_BOUND('',#55,.T.);
#32=FACE_OUTER_BOUND('',#56,.T.);
#33=FACE_OUTER_BOUND('',#57,.T.);
#34=FACE_OUTER_BOUND('',#58,.T.);
#35=FACE_OUTER_BOUND('',#59,.T.);
#36=FACE_OUTER_BOUND('',#60,.T.);
#37=FACE_OUTER_BOUND('',#61,.T.);
#38=FACE_OUTER_BOUND('',#62,.T.);
#39=EDGE_LOOP('',(#305,#306,#307,#308));
#40=EDGE_LOOP('',(#309,#310,#311,#312));
#41=EDGE_LOOP('',(#313,#314,#315,#316,#317,#318,#319,#320,#321,#322,#323,
#324,#325,#326,#327,#328));
#42=EDGE_LOOP('',(#329,#330,#331,#332));
#43=EDGE_LOOP('',(#333,#334,#335,#336));
#44=EDGE_LOOP('',(#337,#338,#339,#340));
#45=EDGE_LOOP('',(#341,#342,#343,#344));
#46=EDGE_LOOP('',(#345,#346,#347,#348));
#47=EDGE_LOOP('',(#349,#350,#351,#352));
#48=EDGE_LOOP('',(#353,#354,#355,#356));
#49=EDGE_LOOP('',(#357,#358,#359,#360));
#50=EDGE_LOOP('',(#361,#362,#363,#364));
#51=EDGE_LOOP('',(#365,#366,#367,#368,#369,#370,#371));
#52=EDGE_LOOP('',(#372,#373,#374,#375));
#53=EDGE_LOOP('',(#376,#377,#378,#379));
#54=EDGE_LOOP('',(#380,#381,#382,#383));
#55=EDGE_LOOP('',(#384,#385,#386,#387));
#56=EDGE_LOOP('',(#388,#389,#390,#391,#392,#393,#394));
#57=EDGE_LOOP('',(#395,#396,#397,#398,#399,#400,#401,#402,#403,#404,#405,
#406,#407,#408,#409,#410));
#58=EDGE_LOOP('',(#411,#412,#413,#414,#415,#416,#417));
#59=EDGE_LOOP('',(#418,#419,#420,#421));
#60=EDGE_LOOP('',(#422,#423,#424,#425,#426,#427,#428));
#61=EDGE_LOOP('',(#429,#430,#431,#432));
#62=EDGE_LOOP('',(#433,#434,#435,#436));
#63=LINE('',#643,#129);
#64=LINE('',#645,#130);
#65=LINE('',#647,#131);
#66=LINE('',#648,#132);
#67=LINE('',#651,#133);
#68=LINE('',#653,#134);
#69=LINE('',#654,#135);
#70=LINE('',#657,#136);
#71=LINE('',#659,#137);
#72=LINE('',#661,#138);
#73=LINE('',#663,#139);
#74=LINE('',#665,#140);
#75=LINE('',#667,#141);
#76=LINE('',#669,#142);
#77=LINE('',#671,#143);
#78=LINE('',#673,#144);
#79=LINE('',#675,#145);
#80=LINE('',#677,#146);
#81=LINE('',#679,#147);
#82=LINE('',#681,#148);
#83=LINE('',#682,#149);
#84=LINE('',#685,#150);
#85=LINE('',#686,#151);
#86=LINE('',#690,#152);
#87=LINE('',#691,#153);
#88=LINE('',#692,#154);
#89=LINE('',#695,#155);
#90=LINE('',#696,#156);
#91=LINE('',#699,#157);
#92=LINE('',#701,#158);
#93=LINE('',#702,#159);
#94=LINE('',#705,#160);
#95=LINE('',#706,#161);
#96=LINE('',#710,#162);
#97=LINE('',#712,#163);
#98=LINE('',#714,#164);
#99=LINE('',#715,#165);
#100=LINE('',#718,#166);
#101=LINE('',#720,#167);
#102=LINE('',#721,#168);
#103=LINE('',#724,#169);
#104=LINE('',#726,#170);
#105=LINE('',#727,#171);
#106=LINE('',#729,#172);
#107=LINE('',#730,#173);
#108=LINE('',#733,#174);
#109=LINE('',#734,#175);
#110=LINE('',#737,#176);
#111=LINE('',#739,#177);
#112=LINE('',#740,#178);
#113=LINE('',#743,#179);
#114=LINE('',#745,#180);
#115=LINE('',#746,#181);
#116=LINE('',#749,#182);
#117=LINE('',#751,#183);
#118=LINE('',#752,#184);
#119=LINE('',#755,#185);
#120=LINE('',#757,#186);
#121=LINE('',#758,#187);
#122=LINE('',#761,#188);
#123=LINE('',#762,#189);
#124=LINE('',#764,#190);
#125=LINE('',#765,#191);
#126=LINE('',#766,#192);
#127=LINE('',#767,#193);
#128=LINE('',#768,#194);
#129=VECTOR('',#527,10.);
#130=VECTOR('',#528,10.);
#131=VECTOR('',#529,10.);
#132=VECTOR('',#530,10.);
#133=VECTOR('',#533,10.);
#134=VECTOR('',#534,10.);
#135=VECTOR('',#535,10.);
#136=VECTOR('',#538,10.);
#137=VECTOR('',#539,10.);
#138=VECTOR('',#540,10.);
#139=VECTOR('',#541,10.);
#140=VECTOR('',#542,10.);
#141=VECTOR('',#543,10.);
#142=VECTOR('',#544,10.);
#143=VECTOR('',#545,10.);
#144=VECTOR('',#546,10.);
#145=VECTOR('',#547,10.);
#146=VECTOR('',#548,10.);
#147=VECTOR('',#549,10.);
#148=VECTOR('',#550,10.);
#149=VECTOR('',#551,10.);
#150=VECTOR('',#554,10.);
#151=VECTOR('',#555,10.);
#152=VECTOR('',#558,10.);
#153=VECTOR('',#559,10.);
#154=VECTOR('',#560,10.);
#155=VECTOR('',#563,10.);
#156=VECTOR('',#564,10.);
#157=VECTOR('',#567,10.);
#158=VECTOR('',#568,10.);
#159=VECTOR('',#569,10.);
#160=VECTOR('',#572,10.);
#161=VECTOR('',#573,10.);
#162=VECTOR('',#576,10.);
#163=VECTOR('',#577,10.);
#164=VECTOR('',#578,10.);
#165=VECTOR('',#579,10.);
#166=VECTOR('',#582,10.);
#167=VECTOR('',#583,10.);
#168=VECTOR('',#584,10.);
#169=VECTOR('',#587,10.);
#170=VECTOR('',#588,10.);
#171=VECTOR('',#589,10.);
#172=VECTOR('',#592,10.);
#173=VECTOR('',#593,10.);
#174=VECTOR('',#596,10.);
#175=VECTOR('',#597,10.);
#176=VECTOR('',#600,10.);
#177=VECTOR('',#601,10.);
#178=VECTOR('',#602,10.);
#179=VECTOR('',#605,10.);
#180=VECTOR('',#606,10.);
#181=VECTOR('',#607,10.);
#182=VECTOR('',#610,10.);
#183=VECTOR('',#611,10.);
#184=VECTOR('',#612,10.);
#185=VECTOR('',#615,10.);
#186=VECTOR('',#616,10.);
#187=VECTOR('',#617,10.);
#188=VECTOR('',#620,10.);
#189=VECTOR('',#621,10.);
#190=VECTOR('',#624,10.);
#191=VECTOR('',#625,10.);
#192=VECTOR('',#626,10.);
#193=VECTOR('',#627,10.);
#194=VECTOR('',#628,10.);
#195=VERTEX_POINT('',#641);
#196=VERTEX_POINT('',#642);
#197=VERTEX_POINT('',#644);
#198=VERTEX_POINT('',#646);
#199=VERTEX_POINT('',#650);
#200=VERTEX_POINT('',#652);
#201=VERTEX_POINT('',#656);
#202=VERTEX_POINT('',#658);
#203=VERTEX_POINT('',#660);
#204=VERTEX_POINT('',#662);
#205=VERTEX_POINT('',#664);
#206=VERTEX_POINT('',#666);
#207=VERTEX_POINT('',#668);
#208=VERTEX_POINT('',#670);
#209=VERTEX_POINT('',#672);
#210=VERTEX_POINT('',#674);
#211=VERTEX_POINT('',#676);
#212=VERTEX_POINT('',#678);
#213=VERTEX_POINT('',#680);
#214=VERTEX_POINT('',#684);
#215=VERTEX_POINT('',#688);
#216=VERTEX_POINT('',#689);
#217=VERTEX_POINT('',#694);
#218=VERTEX_POINT('',#698);
#219=VERTEX_POINT('',#700);
#220=VERTEX_POINT('',#704);
#221=VERTEX_POINT('',#708);
#222=VERTEX_POINT('',#709);
#223=VERTEX_POINT('',#711);
#224=VERTEX_POINT('',#713);
#225=VERTEX_POINT('',#717);
#226=VERTEX_POINT('',#719);
#227=VERTEX_POINT('',#723);
#228=VERTEX_POINT('',#725);
#229=VERTEX_POINT('',#732);
#230=VERTEX_POINT('',#736);
#231=VERTEX_POINT('',#738);
#232=VERTEX_POINT('',#742);
#233=VERTEX_POINT('',#744);
#234=VERTEX_POINT('',#748);
#235=VERTEX_POINT('',#750);
#236=VERTEX_POINT('',#754);
#237=VERTEX_POINT('',#756);
#238=VERTEX_POINT('',#760);
#239=EDGE_CURVE('',#195,#196,#63,.T.);
#240=EDGE_CURVE('',#196,#197,#64,.T.);
#241=EDGE_CURVE('',#197,#198,#65,.T.);
#242=EDGE_CURVE('',#198,#195,#66,.T.);
#243=EDGE_CURVE('',#199,#198,#67,.T.);
#244=EDGE_CURVE('',#200,#199,#68,.T.);
#245=EDGE_CURVE('',#195,#200,#69,.T.);
#246=EDGE_CURVE('',#197,#201,#70,.T.);
#247=EDGE_CURVE('',#202,#201,#71,.T.);
#248=EDGE_CURVE('',#203,#202,#72,.T.);
#249=EDGE_CURVE('',#204,#203,#73,.T.);
#250=EDGE_CURVE('',#205,#204,#74,.T.);
#251=EDGE_CURVE('',#206,#205,#75,.T.);
#252=EDGE_CURVE('',#207,#206,#76,.T.);
#253=EDGE_CURVE('',#208,#207,#77,.T.);
#254=EDGE_CURVE('',#208,#209,#78,.T.);
#255=EDGE_CURVE('',#210,#209,#79,.T.);
#256=EDGE_CURVE('',#210,#211,#80,.T.);
#257=EDGE_CURVE('',#212,#211,#81,.T.);
#258=EDGE_CURVE('',#213,#212,#82,.T.);
#259=EDGE_CURVE('',#199,#213,#83,.T.);
#260=EDGE_CURVE('',#213,#214,#84,.T.);
#261=EDGE_CURVE('',#214,#200,#85,.T.);
#262=EDGE_CURVE('',#215,#216,#86,.T.);
#263=EDGE_CURVE('',#216,#208,#87,.T.);
#264=EDGE_CURVE('',#207,#215,#88,.T.);
#265=EDGE_CURVE('',#216,#217,#89,.T.);
#266=EDGE_CURVE('',#209,#217,#90,.T.);
#267=EDGE_CURVE('',#205,#218,#91,.T.);
#268=EDGE_CURVE('',#218,#219,#92,.T.);
#269=EDGE_CURVE('',#219,#206,#93,.T.);
#270=EDGE_CURVE('',#220,#204,#94,.T.);
#271=EDGE_CURVE('',#218,#220,#95,.T.);
#272=EDGE_CURVE('',#221,#222,#96,.T.);
#273=EDGE_CURVE('',#221,#223,#97,.T.);
#274=EDGE_CURVE('',#224,#223,#98,.T.);
#275=EDGE_CURVE('',#222,#224,#99,.T.);
#276=EDGE_CURVE('',#225,#221,#100,.T.);
#277=EDGE_CURVE('',#225,#226,#101,.T.);
#278=EDGE_CURVE('',#223,#226,#102,.T.);
#279=EDGE_CURVE('',#227,#225,#103,.T.);
#280=EDGE_CURVE('',#227,#228,#104,.T.);
#281=EDGE_CURVE('',#226,#228,#105,.T.);
#282=EDGE_CURVE('',#203,#227,#106,.T.);
#283=EDGE_CURVE('',#228,#202,#107,.T.);
#284=EDGE_CURVE('',#201,#229,#108,.T.);
#285=EDGE_CURVE('',#229,#224,#109,.T.);
#286=EDGE_CURVE('',#230,#210,#110,.T.);
#287=EDGE_CURVE('',#230,#231,#111,.T.);
#288=EDGE_CURVE('',#211,#231,#112,.T.);
#289=EDGE_CURVE('',#232,#230,#113,.T.);
#290=EDGE_CURVE('',#232,#233,#114,.T.);
#291=EDGE_CURVE('',#231,#233,#115,.T.);
#292=EDGE_CURVE('',#234,#232,#116,.T.);
#293=EDGE_CURVE('',#234,#235,#117,.T.);
#294=EDGE_CURVE('',#233,#235,#118,.T.);
#295=EDGE_CURVE('',#236,#234,#119,.T.);
#296=EDGE_CURVE('',#236,#237,#120,.T.);
#297=EDGE_CURVE('',#235,#237,#121,.T.);
#298=EDGE_CURVE('',#237,#238,#122,.T.);
#299=EDGE_CURVE('',#238,#212,#123,.T.);
#300=EDGE_CURVE('',#214,#238,#124,.T.);
#301=EDGE_CURVE('',#217,#236,#125,.T.);
#302=EDGE_CURVE('',#219,#215,#126,.T.);
#303=EDGE_CURVE('',#222,#220,#127,.T.);
#304=EDGE_CURVE('',#196,#229,#128,.T.);
#305=ORIENTED_EDGE('',*,*,#239,.T.);
#306=ORIENTED_EDGE('',*,*,#240,.T.);
#307=ORIENTED_EDGE('',*,*,#241,.T.);
#308=ORIENTED_EDGE('',*,*,#242,.T.);
#309=ORIENTED_EDGE('',*,*,#242,.F.);
#310=ORIENTED_EDGE('',*,*,#243,.F.);
#311=ORIENTED_EDGE('',*,*,#244,.F.);
#312=ORIENTED_EDGE('',*,*,#245,.F.);
#313=ORIENTED_EDGE('',*,*,#241,.F.);
#314=ORIENTED_EDGE('',*,*,#246,.T.);
#315=ORIENTED_EDGE('',*,*,#247,.F.);
#316=ORIENTED_EDGE('',*,*,#248,.F.);
#317=ORIENTED_EDGE('',*,*,#249,.F.);
#318=ORIENTED_EDGE('',*,*,#250,.F.);
#319=ORIENTED_EDGE('',*,*,#251,.F.);
#320=ORIENTED_EDGE('',*,*,#252,.F.);
#321=ORIENTED_EDGE('',*,*,#253,.F.);
#322=ORIENTED_EDGE('',*,*,#254,.T.);
#323=ORIENTED_EDGE('',*,*,#255,.F.);
#324=ORIENTED_EDGE('',*,*,#256,.T.);
#325=ORIENTED_EDGE('',*,*,#257,.F.);
#326=ORIENTED_EDGE('',*,*,#258,.F.);
#327=ORIENTED_EDGE('',*,*,#259,.F.);
#328=ORIENTED_EDGE('',*,*,#243,.T.);
#329=ORIENTED_EDGE('',*,*,#259,.T.);
#330=ORIENTED_EDGE('',*,*,#260,.T.);
#331=ORIENTED_EDGE('',*,*,#261,.T.);
#332=ORIENTED_EDGE('',*,*,#244,.T.);
#333=ORIENTED_EDGE('',*,*,#262,.T.);
#334=ORIENTED_EDGE('',*,*,#263,.T.);
#335=ORIENTED_EDGE('',*,*,#253,.T.);
#336=ORIENTED_EDGE('',*,*,#264,.T.);
#337=ORIENTED_EDGE('',*,*,#263,.F.);
#338=ORIENTED_EDGE('',*,*,#265,.T.);
#339=ORIENTED_EDGE('',*,*,#266,.F.);
#340=ORIENTED_EDGE('',*,*,#254,.F.);
#341=ORIENTED_EDGE('',*,*,#251,.T.);
#342=ORIENTED_EDGE('',*,*,#267,.T.);
#343=ORIENTED_EDGE('',*,*,#268,.T.);
#344=ORIENTED_EDGE('',*,*,#269,.T.);
#345=ORIENTED_EDGE('',*,*,#267,.F.);
#346=ORIENTED_EDGE('',*,*,#250,.T.);
#347=ORIENTED_EDGE('',*,*,#270,.F.);
#348=ORIENTED_EDGE('',*,*,#271,.F.);
#349=ORIENTED_EDGE('',*,*,#272,.F.);
#350=ORIENTED_EDGE('',*,*,#273,.T.);
#351=ORIENTED_EDGE('',*,*,#274,.F.);
#352=ORIENTED_EDGE('',*,*,#275,.F.);
#353=ORIENTED_EDGE('',*,*,#276,.F.);
#354=ORIENTED_EDGE('',*,*,#277,.T.);
#355=ORIENTED_EDGE('',*,*,#278,.F.);
#356=ORIENTED_EDGE('',*,*,#273,.F.);
#357=ORIENTED_EDGE('',*,*,#279,.F.);
#358=ORIENTED_EDGE('',*,*,#280,.T.);
#359=ORIENTED_EDGE('',*,*,#281,.F.);
#360=ORIENTED_EDGE('',*,*,#277,.F.);
#361=ORIENTED_EDGE('',*,*,#282,.F.);
#362=ORIENTED_EDGE('',*,*,#248,.T.);
#363=ORIENTED_EDGE('',*,*,#283,.F.);
#364=ORIENTED_EDGE('',*,*,#280,.F.);
#365=ORIENTED_EDGE('',*,*,#283,.T.);
#366=ORIENTED_EDGE('',*,*,#247,.T.);
#367=ORIENTED_EDGE('',*,*,#284,.T.);
#368=ORIENTED_EDGE('',*,*,#285,.T.);
#369=ORIENTED_EDGE('',*,*,#274,.T.);
#370=ORIENTED_EDGE('',*,*,#278,.T.);
#371=ORIENTED_EDGE('',*,*,#281,.T.);
#372=ORIENTED_EDGE('',*,*,#286,.F.);
#373=ORIENTED_EDGE('',*,*,#287,.T.);
#374=ORIENTED_EDGE('',*,*,#288,.F.);
#375=ORIENTED_EDGE('',*,*,#256,.F.);
#376=ORIENTED_EDGE('',*,*,#289,.F.);
#377=ORIENTED_EDGE('',*,*,#290,.T.);
#378=ORIENTED_EDGE('',*,*,#291,.F.);
#379=ORIENTED_EDGE('',*,*,#287,.F.);
#380=ORIENTED_EDGE('',*,*,#292,.F.);
#381=ORIENTED_EDGE('',*,*,#293,.T.);
#382=ORIENTED_EDGE('',*,*,#294,.F.);
#383=ORIENTED_EDGE('',*,*,#290,.F.);
#384=ORIENTED_EDGE('',*,*,#295,.F.);
#385=ORIENTED_EDGE('',*,*,#296,.T.);
#386=ORIENTED_EDGE('',*,*,#297,.F.);
#387=ORIENTED_EDGE('',*,*,#293,.F.);
#388=ORIENTED_EDGE('',*,*,#294,.T.);
#389=ORIENTED_EDGE('',*,*,#297,.T.);
#390=ORIENTED_EDGE('',*,*,#298,.T.);
#391=ORIENTED_EDGE('',*,*,#299,.T.);
#392=ORIENTED_EDGE('',*,*,#257,.T.);
#393=ORIENTED_EDGE('',*,*,#288,.T.);
#394=ORIENTED_EDGE('',*,*,#291,.T.);
#395=ORIENTED_EDGE('',*,*,#239,.F.);
#396=ORIENTED_EDGE('',*,*,#245,.T.);
#397=ORIENTED_EDGE('',*,*,#261,.F.);
#398=ORIENTED_EDGE('',*,*,#300,.T.);
#399=ORIENTED_EDGE('',*,*,#298,.F.);
#400=ORIENTED_EDGE('',*,*,#296,.F.);
#401=ORIENTED_EDGE('',*,*,#301,.F.);
#402=ORIENTED_EDGE('',*,*,#265,.F.);
#403=ORIENTED_EDGE('',*,*,#262,.F.);
#404=ORIENTED_EDGE('',*,*,#302,.F.);
#405=ORIENTED_EDGE('',*,*,#268,.F.);
#406=ORIENTED_EDGE('',*,*,#271,.T.);
#407=ORIENTED_EDGE('',*,*,#303,.F.);
#408=ORIENTED_EDGE('',*,*,#275,.T.);
#409=ORIENTED_EDGE('',*,*,#285,.F.);
#410=ORIENTED_EDGE('',*,*,#304,.F.);
#411=ORIENTED_EDGE('',*,*,#286,.T.);
#412=ORIENTED_EDGE('',*,*,#255,.T.);
#413=ORIENTED_EDGE('',*,*,#266,.T.);
#414=ORIENTED_EDGE('',*,*,#301,.T.);
#415=ORIENTED_EDGE('',*,*,#295,.T.);
#416=ORIENTED_EDGE('',*,*,#292,.T.);
#417=ORIENTED_EDGE('',*,*,#289,.T.);
#418=ORIENTED_EDGE('',*,*,#264,.F.);
#419=ORIENTED_EDGE('',*,*,#252,.T.);
#420=ORIENTED_EDGE('',*,*,#269,.F.);
#421=ORIENTED_EDGE('',*,*,#302,.T.);
#422=ORIENTED_EDGE('',*,*,#270,.T.);
#423=ORIENTED_EDGE('',*,*,#249,.T.);
#424=ORIENTED_EDGE('',*,*,#282,.T.);
#425=ORIENTED_EDGE('',*,*,#279,.T.);
#426=ORIENTED_EDGE('',*,*,#276,.T.);
#427=ORIENTED_EDGE('',*,*,#272,.T.);
#428=ORIENTED_EDGE('',*,*,#303,.T.);
#429=ORIENTED_EDGE('',*,*,#260,.F.);
#430=ORIENTED_EDGE('',*,*,#258,.T.);
#431=ORIENTED_EDGE('',*,*,#299,.F.);
#432=ORIENTED_EDGE('',*,*,#300,.F.);
#433=ORIENTED_EDGE('',*,*,#240,.F.);
#434=ORIENTED_EDGE('',*,*,#304,.T.);
#435=ORIENTED_EDGE('',*,*,#284,.F.);
#436=ORIENTED_EDGE('',*,*,#246,.F.);
#437=PLANE('',#499);
#438=PLANE('',#500);
#439=PLANE('',#501);
#440=PLANE('',#502);
#441=PLANE('',#503);
#442=PLANE('',#504);
#443=PLANE('',#505);
#444=PLANE('',#506);
#445=PLANE('',#507);
#446=PLANE('',#508);
#447=PLANE('',#509);
#448=PLANE('',#510);
#449=PLANE('',#511);
#450=PLANE('',#512);
#451=PLANE('',#513);
#452=PLANE('',#514);
#453=PLANE('',#515);
#454=PLANE('',#516);
#455=PLANE('',#517);
#456=PLANE('',#518);
#457=PLANE('',#519);
#458=PLANE('',#520);
#459=PLANE('',#521);
#460=PLANE('',#522);
#461=ADVANCED_FACE('',(#15),#437,.T.);
#462=ADVANCED_FACE('',(#16),#438,.T.);
#463=ADVANCED_FACE('',(#17),#439,.T.);
#464=ADVANCED_FACE('',(#18),#440,.T.);
#465=ADVANCED_FACE('',(#19),#441,.T.);
#466=ADVANCED_FACE('',(#20),#442,.T.);
#467=ADVANCED_FACE('',(#21),#443,.T.);
#468=ADVANCED_FACE('',(#22),#444,.T.);
#469=ADVANCED_FACE('',(#23),#445,.T.);
#470=ADVANCED_FACE('',(#24),#446,.T.);
#471=ADVANCED_FACE('',(#25),#447,.T.);
#472=ADVANCED_FACE('',(#26),#448,.T.);
#473=ADVANCED_FACE('',(#27),#449,.T.);
#474=ADVANCED_FACE('',(#28),#450,.T.);
#475=ADVANCED_FACE('',(#29),#451,.T.);
#476=ADVANCED_FACE('',(#30),#452,.T.);
#477=ADVANCED_FACE('',(#31),#453,.T.);
#478=ADVANCED_FACE('',(#32),#454,.T.);
#479=ADVANCED_FACE('',(#33),#455,.T.);
#480=ADVANCED_FACE('',(#34),#456,.T.);
#481=ADVANCED_FACE('',(#35),#457,.T.);
#482=ADVANCED_FACE('',(#36),#458,.T.);
#483=ADVANCED_FACE('',(#37),#459,.T.);
#484=ADVANCED_FACE('',(#38),#460,.T.);
#485=CLOSED_SHELL('',(#461,#462,#463,#464,#465,#466,#467,#468,#469,#470,
#471,#472,#473,#474,#475,#476,#477,#478,#479,#480,#481,#482,#483,#484));
#486=DERIVED_UNIT_ELEMENT(#488,1.);
#487=DERIVED_UNIT_ELEMENT(#779,-3.);
#488=(
MASS_UNIT()
NAMED_UNIT(*)
SI_UNIT(.KILO.,.GRAM.)
);
#489=DERIVED_UNIT((#486,#487));
#490=MEASURE_REPRESENTATION_ITEM('density measure',
POSITIVE_RATIO_MEASURE(7850.),#489);
#491=PROPERTY_DEFINITION_REPRESENTATION(#496,#493);
#492=PROPERTY_DEFINITION_REPRESENTATION(#497,#494);
#493=REPRESENTATION('material name',(#495),#776);
#494=REPRESENTATION('density',(#490),#776);
#495=DESCRIPTIVE_REPRESENTATION_ITEM('Steel','Steel');
#496=PROPERTY_DEFINITION('material property','material name',#786);
#497=PROPERTY_DEFINITION('material property','density of part',#786);
#498=AXIS2_PLACEMENT_3D('',#639,#523,#524);
#499=AXIS2_PLACEMENT_3D('',#640,#525,#526);
#500=AXIS2_PLACEMENT_3D('',#649,#531,#532);
#501=AXIS2_PLACEMENT_3D('',#655,#536,#537);
#502=AXIS2_PLACEMENT_3D('',#683,#552,#553);
#503=AXIS2_PLACEMENT_3D('',#687,#556,#557);
#504=AXIS2_PLACEMENT_3D('',#693,#561,#562);
#505=AXIS2_PLACEMENT_3D('',#697,#565,#566);
#506=AXIS2_PLACEMENT_3D('',#703,#570,#571);
#507=AXIS2_PLACEMENT_3D('',#707,#574,#575);
#508=AXIS2_PLACEMENT_3D('',#716,#580,#581);
#509=AXIS2_PLACEMENT_3D('',#722,#585,#586);
#510=AXIS2_PLACEMENT_3D('',#728,#590,#591);
#511=AXIS2_PLACEMENT_3D('',#731,#594,#595);
#512=AXIS2_PLACEMENT_3D('',#735,#598,#599);
#513=AXIS2_PLACEMENT_3D('',#741,#603,#604);
#514=AXIS2_PLACEMENT_3D('',#747,#608,#609);
#515=AXIS2_PLACEMENT_3D('',#753,#613,#614);
#516=AXIS2_PLACEMENT_3D('',#759,#618,#619);
#517=AXIS2_PLACEMENT_3D('',#763,#622,#623);
#518=AXIS2_PLACEMENT_3D('',#769,#629,#630);
#519=AXIS2_PLACEMENT_3D('',#770,#631,#632);
#520=AXIS2_PLACEMENT_3D('',#771,#633,#634);
#521=AXIS2_PLACEMENT_3D('',#772,#635,#636);
#522=AXIS2_PLACEMENT_3D('',#773,#637,#638);
#523=DIRECTION('axis',(0.,0.,1.));
#524=DIRECTION('refdir',(1.,0.,0.));
#525=DIRECTION('center_axis',(0.,0.707106781186548,0.707106781186548));
#526=DIRECTION('ref_axis',(1.,0.,0.));
#527=DIRECTION('',(0.,0.707106781186548,-0.707106781186548));
#528=DIRECTION('',(-1.,0.,0.));
#529=DIRECTION('',(0.,-0.707106781186548,0.707106781186548));
#530=DIRECTION('',(1.,0.,0.));
#531=DIRECTION('center_axis',(0.,0.,1.));
#532=DIRECTION('ref_axis',(1.,0.,0.));
#533=DIRECTION('',(0.,1.,0.));
#534=DIRECTION('',(-1.,0.,0.));
#535=DIRECTION('',(0.,-1.,0.));
#536=DIRECTION('center_axis',(-1.,0.,0.));
#537=DIRECTION('ref_axis',(0.,1.,0.));
#538=DIRECTION('',(0.,0.,-1.));
#539=DIRECTION('',(0.,1.,0.));
#540=DIRECTION('',(0.,0.,-1.));
#541=DIRECTION('',(0.,1.,0.));
#542=DIRECTION('',(0.,0.,-1.));
#543=DIRECTION('',(0.,0.707106781186547,-0.707106781186547));
#544=DIRECTION('',(0.,1.,0.));
#545=DIRECTION('',(0.,0.707106781186547,0.707106781186547));
#546=DIRECTION('',(0.,0.,-1.));
#547=DIRECTION('',(0.,1.,0.));
#548=DIRECTION('',(0.,0.,-1.));
#549=DIRECTION('',(0.,1.,0.));
#550=DIRECTION('',(0.,0.,-1.));
#551=DIRECTION('',(0.,-0.707106781186548,-0.707106781186548));
#552=DIRECTION('center_axis',(0.,-0.707106781186548,0.707106781186548));
#553=DIRECTION('ref_axis',(1.,0.,0.));
#554=DIRECTION('',(1.,0.,0.));
#555=DIRECTION('',(0.,0.707106781186548,0.707106781186548));
#556=DIRECTION('center_axis',(0.,0.707106781186548,-0.707106781186548));
#557=DIRECTION('ref_axis',(-1.,0.,0.));
#558=DIRECTION('',(0.,-0.707106781186547,-0.707106781186547));
#559=DIRECTION('',(-1.,0.,0.));
#560=DIRECTION('',(1.,0.,0.));
#561=DIRECTION('center_axis',(0.,1.,0.));
#562=DIRECTION('ref_axis',(1.,0.,0.));
#563=DIRECTION('',(0.,0.,-1.));
#564=DIRECTION('',(1.,0.,0.));
#565=DIRECTION('center_axis',(0.,-0.707106781186548,-0.707106781186548));
#566=DIRECTION('ref_axis',(-1.,0.,0.));
#567=DIRECTION('',(1.,0.,0.));
#568=DIRECTION('',(0.,-0.707106781186547,0.707106781186547));
#569=DIRECTION('',(-1.,0.,0.));
#570=DIRECTION('center_axis',(0.,-1.,0.));
#571=DIRECTION('ref_axis',(-1.,0.,0.));
#572=DIRECTION('',(-1.,0.,0.));
#573=DIRECTION('',(0.,0.,-1.));
#574=DIRECTION('center_axis',(0.,-1.,0.));
#575=DIRECTION('ref_axis',(-1.,0.,0.));
#576=DIRECTION('',(1.,0.,0.));
#577=DIRECTION('',(0.,0.,-1.));
#578=DIRECTION('',(-1.,0.,0.));
#579=DIRECTION('',(0.,0.,-1.));
#580=DIRECTION('center_axis',(0.707106781186548,-0.707106781186548,0.));
#581=DIRECTION('ref_axis',(-0.707106781186548,-0.707106781186548,0.));
#582=DIRECTION('',(0.707106781186548,0.707106781186548,0.));
#583=DIRECTION('',(0.,0.,-1.));
#584=DIRECTION('',(-0.707106781186548,-0.707106781186548,0.));
#585=DIRECTION('center_axis',(-0.707106781186548,-0.707106781186548,0.));
#586=DIRECTION('ref_axis',(-0.707106781186548,0.707106781186548,0.));
#587=DIRECTION('',(0.707106781186548,-0.707106781186548,0.));
#588=DIRECTION('',(0.,0.,-1.));
#589=DIRECTION('',(-0.707106781186548,0.707106781186548,0.));
#590=DIRECTION('center_axis',(-1.9454273279102E-7,-0.999999999999981,0.));
#591=DIRECTION('ref_axis',(-0.999999999999981,1.9454273279102E-7,0.));
#592=DIRECTION('',(0.999999999999981,-1.9454273279102E-7,0.));
#593=DIRECTION('',(-0.999999999999981,1.9454273279102E-7,0.));
#594=DIRECTION('center_axis',(0.,0.,-1.));
#595=DIRECTION('ref_axis',(-1.,0.,0.));
#596=DIRECTION('',(1.,0.,0.));
#597=DIRECTION('',(0.,-1.,0.));
#598=DIRECTION('center_axis',(-1.9454273279102E-7,0.999999999999981,0.));
#599=DIRECTION('ref_axis',(0.999999999999981,1.9454273279102E-7,0.));
#600=DIRECTION('',(-0.999999999999981,-1.9454273279102E-7,0.));
#601=DIRECTION('',(0.,0.,-1.));
#602=DIRECTION('',(0.999999999999981,1.9454273279102E-7,0.));
#603=DIRECTION('center_axis',(-0.707106781186548,0.707106781186548,0.));
#604=DIRECTION('ref_axis',(0.707106781186548,0.707106781186548,0.));
#605=DIRECTION('',(-0.707106781186548,-0.707106781186548,0.));
#606=DIRECTION('',(0.,0.,-1.));
#607=DIRECTION('',(0.707106781186548,0.707106781186548,0.));
#608=DIRECTION('center_axis',(0.707106781186548,0.707106781186548,0.));
#609=DIRECTION('ref_axis',(0.707106781186548,-0.707106781186548,0.));
#610=DIRECTION('',(-0.707106781186548,0.707106781186548,0.));
#611=DIRECTION('',(0.,0.,-1.));
#612=DIRECTION('',(0.707106781186548,-0.707106781186548,0.));
#613=DIRECTION('center_axis',(0.,1.,0.));
#614=DIRECTION('ref_axis',(1.,0.,0.));
#615=DIRECTION('',(-1.,0.,0.));
#616=DIRECTION('',(0.,0.,-1.));
#617=DIRECTION('',(1.,0.,0.));
#618=DIRECTION('center_axis',(0.,0.,-1.));
#619=DIRECTION('ref_axis',(-1.,0.,0.));
#620=DIRECTION('',(0.,-1.,0.));
#621=DIRECTION('',(-1.,0.,0.));
#622=DIRECTION('center_axis',(1.,0.,0.));
#623=DIRECTION('ref_axis',(0.,-1.,0.));
#624=DIRECTION('',(0.,0.,-1.));
#625=DIRECTION('',(0.,-1.,0.));
#626=DIRECTION('',(0.,-1.,0.));
#627=DIRECTION('',(0.,-1.,0.));
#628=DIRECTION('',(0.,0.,-1.));
#629=DIRECTION('center_axis',(0.,0.,-1.));
#630=DIRECTION('ref_axis',(-1.,0.,0.));
#631=DIRECTION('center_axis',(0.,0.,-1.));
#632=DIRECTION('ref_axis',(-1.,0.,0.));
#633=DIRECTION('center_axis',(0.,0.,-1.));
#634=DIRECTION('ref_axis',(-1.,0.,0.));
#635=DIRECTION('center_axis',(0.,-1.,0.));
#636=DIRECTION('ref_axis',(-1.,0.,0.));
#637=DIRECTION('center_axis',(0.,1.,0.));
#638=DIRECTION('ref_axis',(1.,0.,0.));
#639=CARTESIAN_POINT('',(0.,0.,0.));
#640=CARTESIAN_POINT('Origin',(-255.00000089407,45.,65.));
#641=CARTESIAN_POINT('',(-240.000003576279,40.,70.));
#642=CARTESIAN_POINT('',(-240.000003576279,50.,60.));
#643=CARTESIAN_POINT('',(-240.000003576279,45.,65.));
#644=CARTESIAN_POINT('',(-260.,50.,60.));
#645=CARTESIAN_POINT('',(-255.00000089407,50.,60.));
#646=CARTESIAN_POINT('',(-260.,40.,70.));
#647=CARTESIAN_POINT('',(-260.,19.9999998137355,90.0000001862645));
#648=CARTESIAN_POINT('',(-255.00000089407,40.,70.));
#649=CARTESIAN_POINT('Origin',(-250.000001788139,-3.72529029846191E-7,70.));
#650=CARTESIAN_POINT('',(-260.,-40.0000007450581,70.));
#651=CARTESIAN_POINT('',(-260.,-50.0000007450581,70.));
#652=CARTESIAN_POINT('',(-240.000003576279,-40.0000007450581,70.));
#653=CARTESIAN_POINT('',(-245.000002682209,-40.0000007450581,70.));
#654=CARTESIAN_POINT('',(-240.000003576279,50.,70.));
#655=CARTESIAN_POINT('Origin',(-260.,-50.0000007450581,70.));
#656=CARTESIAN_POINT('',(-260.,50.,30.));
#657=CARTESIAN_POINT('',(-260.,50.,70.));
#658=CARTESIAN_POINT('',(-260.000003874302,47.0000007003546,30.));
#659=CARTESIAN_POINT('',(-260.,-50.0000007450581,30.));
#660=CARTESIAN_POINT('',(-260.000003874302,47.0000007003546,50.));
#661=CARTESIAN_POINT('',(-260.000003874302,47.0000007003546,70.));
#662=CARTESIAN_POINT('',(-260.000003874302,44.0000006556511,50.));
#663=CARTESIAN_POINT('',(-260.,-50.0000007450581,50.));
#664=CARTESIAN_POINT('',(-260.000003874302,44.0000006556511,61.));
#665=CARTESIAN_POINT('',(-260.000003874302,44.0000006556511,70.));
#666=CARTESIAN_POINT('',(-260.,37.0000006556511,68.));
#667=CARTESIAN_POINT('',(-260.,16.5000003054738,88.5000003501773));
#668=CARTESIAN_POINT('',(-260.,-37.0000006556511,68.));
#669=CARTESIAN_POINT('',(-260.,-50.0000007450581,68.));
#670=CARTESIAN_POINT('',(-260.000003874302,-44.0000006556511,61.));
#671=CARTESIAN_POINT('',(-260.,-41.5000006780028,63.4999999776483));
#672=CARTESIAN_POINT('',(-260.000003874302,-44.0000006556511,50.));
#673=CARTESIAN_POINT('',(-260.000003874302,-44.0000006556511,70.));
#674=CARTESIAN_POINT('',(-260.000003874302,-47.0000007003546,50.));
#675=CARTESIAN_POINT('',(-260.,-50.0000007450581,50.));
#676=CARTESIAN_POINT('',(-260.000003874302,-47.0000007003546,30.));
#677=CARTESIAN_POINT('',(-260.000003874302,-47.0000007003546,70.));
#678=CARTESIAN_POINT('',(-260.,-50.0000007450581,30.));
#679=CARTESIAN_POINT('',(-260.,-50.0000007450581,30.));
#680=CARTESIAN_POINT('',(-260.,-50.0000007450581,60.));
#681=CARTESIAN_POINT('',(-260.,-50.0000007450581,70.));
#682=CARTESIAN_POINT('',(-260.,-45.0000007450581,65.));
#683=CARTESIAN_POINT('Origin',(-245.000002682209,-45.0000007450581,65.));
#684=CARTESIAN_POINT('',(-240.000003576279,-50.0000007450581,60.));
#685=CARTESIAN_POINT('',(-245.000002682209,-50.0000007450581,60.));
#686=CARTESIAN_POINT('',(-240.000003576279,-20.0000005587935,90.0000001862645));
#687=CARTESIAN_POINT('Origin',(-255.000002831221,-40.5000006556511,64.5));
#688=CARTESIAN_POINT('',(-240.000003576279,-37.0000006556511,68.));
#689=CARTESIAN_POINT('',(-240.000003576279,-44.0000006556511,61.));
#690=CARTESIAN_POINT('',(-240.000003576279,-16.5000004917383,88.5000001639128));
#691=CARTESIAN_POINT('',(-255.000002831221,-44.0000006556511,61.));
#692=CARTESIAN_POINT('',(-255.000002831221,-37.0000006556511,68.));
#693=CARTESIAN_POINT('Origin',(-260.000003874302,-44.0000006556511,70.));
#694=CARTESIAN_POINT('',(-240.000003576279,-44.0000006556511,50.));
#695=CARTESIAN_POINT('',(-240.000003576279,-44.0000006556511,70.));
#696=CARTESIAN_POINT('',(-260.000003874302,-44.0000006556511,50.));
#697=CARTESIAN_POINT('Origin',(-245.000002682209,40.5000006556511,64.5));
#698=CARTESIAN_POINT('',(-240.000003576279,44.0000006556511,61.));
#699=CARTESIAN_POINT('',(-245.000002682209,44.0000006556511,61.));
#700=CARTESIAN_POINT('',(-240.000003576279,37.0000006556511,68.));
#701=CARTESIAN_POINT('',(-240.000003576279,41.5000004917383,63.5000001639128));
#702=CARTESIAN_POINT('',(-245.000002682209,37.0000006556511,68.));
#703=CARTESIAN_POINT('Origin',(-240.000003576279,44.0000006556511,70.));
#704=CARTESIAN_POINT('',(-240.000003576279,44.0000006556511,50.));
#705=CARTESIAN_POINT('',(-260.000003874302,44.0000006556511,50.));
#706=CARTESIAN_POINT('',(-240.000003576279,44.0000006556511,70.));
#707=CARTESIAN_POINT('Origin',(-240.000003576279,47.0000007003546,70.));
#708=CARTESIAN_POINT('',(-248.99999268353,47.0000007003546,50.));
#709=CARTESIAN_POINT('',(-240.000003576279,47.0000007003546,50.));
#710=CARTESIAN_POINT('',(-248.99999268353,47.0000007003546,50.));
#711=CARTESIAN_POINT('',(-248.99999268353,47.0000007003546,30.));
#712=CARTESIAN_POINT('',(-248.99999268353,47.0000007003546,70.));
#713=CARTESIAN_POINT('',(-240.000003576279,47.0000007003546,30.));
#714=CARTESIAN_POINT('',(-248.99999268353,47.0000007003546,30.));
#715=CARTESIAN_POINT('',(-240.000003576279,47.0000007003546,70.));
#716=CARTESIAN_POINT('Origin',(-248.99999268353,47.0000007003546,70.));
#717=CARTESIAN_POINT('',(-249.999994412065,45.9999989718199,50.));
#718=CARTESIAN_POINT('',(-249.999994412065,45.9999989718199,50.));
#719=CARTESIAN_POINT('',(-249.999994412065,45.9999989718199,30.));
#720=CARTESIAN_POINT('',(-249.999994412065,45.9999989718199,70.));
#721=CARTESIAN_POINT('',(-249.999994412065,45.9999989718199,30.));
#722=CARTESIAN_POINT('Origin',(-249.999994412065,45.9999989718199,70.));
#723=CARTESIAN_POINT('',(-250.999994389713,46.9999989494681,50.));
#724=CARTESIAN_POINT('',(-250.999994389713,46.9999989494681,50.));
#725=CARTESIAN_POINT('',(-250.999994389713,46.9999989494681,30.));
#726=CARTESIAN_POINT('',(-250.999994389713,46.9999989494681,70.));
#727=CARTESIAN_POINT('',(-250.999994389713,46.9999989494681,30.));
#728=CARTESIAN_POINT('Origin',(-250.999994389713,46.9999989494681,70.));
#729=CARTESIAN_POINT('',(-260.000003874302,47.0000007003546,50.));
#730=CARTESIAN_POINT('',(-260.000003874302,47.0000007003546,30.));
#731=CARTESIAN_POINT('Origin',(-250.000010662441,47.9999994859099,30.));
#732=CARTESIAN_POINT('',(-240.000003576279,50.,30.));
#733=CARTESIAN_POINT('',(-260.,50.,30.));
#734=CARTESIAN_POINT('',(-240.000003576279,50.,30.));
#735=CARTESIAN_POINT('Origin',(-260.000003874302,-47.0000007003546,70.));
#736=CARTESIAN_POINT('',(-250.999994389713,-46.9999989494681,50.));
#737=CARTESIAN_POINT('',(-260.000003874302,-47.0000007003546,50.));
#738=CARTESIAN_POINT('',(-250.999994389713,-46.9999989494681,30.));
#739=CARTESIAN_POINT('',(-250.999994389713,-46.9999989494681,70.));
#740=CARTESIAN_POINT('',(-260.000003874302,-47.0000007003546,30.));
#741=CARTESIAN_POINT('Origin',(-250.999994389713,-46.9999989494681,70.));
#742=CARTESIAN_POINT('',(-249.999994412065,-45.9999989718199,50.));
#743=CARTESIAN_POINT('',(-250.999994389713,-46.9999989494681,50.));
#744=CARTESIAN_POINT('',(-249.999994412065,-45.9999989718199,30.));
#745=CARTESIAN_POINT('',(-249.999994412065,-45.9999989718199,70.));
#746=CARTESIAN_POINT('',(-250.999994389713,-46.9999989494681,30.));
#747=CARTESIAN_POINT('Origin',(-249.999994412065,-45.9999989718199,70.));
#748=CARTESIAN_POINT('',(-248.99999268353,-47.0000007003546,50.));
#749=CARTESIAN_POINT('',(-249.999994412065,-45.9999989718199,50.));
#750=CARTESIAN_POINT('',(-248.99999268353,-47.0000007003546,30.));
#751=CARTESIAN_POINT('',(-248.99999268353,-47.0000007003546,70.));
#752=CARTESIAN_POINT('',(-249.999994412065,-45.9999989718199,30.));
#753=CARTESIAN_POINT('Origin',(-248.99999268353,-47.0000007003546,70.));
#754=CARTESIAN_POINT('',(-240.000003576279,-47.0000007003546,50.));
#755=CARTESIAN_POINT('',(-248.99999268353,-47.0000007003546,50.));
#756=CARTESIAN_POINT('',(-240.000003576279,-47.0000007003546,30.));
#757=CARTESIAN_POINT('',(-240.000003576279,-47.0000007003546,70.));
#758=CARTESIAN_POINT('',(-248.99999268353,-47.0000007003546,30.));
#759=CARTESIAN_POINT('Origin',(-250.000010662441,-47.999999858439,30.));
#760=CARTESIAN_POINT('',(-240.000003576279,-50.0000007450581,30.));
#761=CARTESIAN_POINT('',(-240.000003576279,50.,30.));
#762=CARTESIAN_POINT('',(-240.000003576279,-50.0000007450581,30.));
#763=CARTESIAN_POINT('Origin',(-240.000003576279,50.,70.));
#764=CARTESIAN_POINT('',(-240.000003576279,-50.0000007450581,70.));
#765=CARTESIAN_POINT('',(-240.000003576279,50.,50.));
#766=CARTESIAN_POINT('',(-240.000003576279,50.,68.));
#767=CARTESIAN_POINT('',(-240.000003576279,50.,50.));
#768=CARTESIAN_POINT('',(-240.000003576279,50.,70.));
#769=CARTESIAN_POINT('Origin',(-250.000010662441,-45.5000006780028,50.));
#770=CARTESIAN_POINT('Origin',(-250.000001788139,-3.72529029846191E-7,68.));
#771=CARTESIAN_POINT('Origin',(-250.000010662441,45.5000006780028,50.));
#772=CARTESIAN_POINT('Origin',(-240.000003576279,-50.0000007450581,70.));
#773=CARTESIAN_POINT('Origin',(-260.,50.,70.));
#774=UNCERTAINTY_MEASURE_WITH_UNIT(LENGTH_MEASURE(0.01),#778,
'DISTANCE_ACCURACY_VALUE',
'Maximum model space distance between geometric entities at asserted c
onnectivities');
#775=UNCERTAINTY_MEASURE_WITH_UNIT(LENGTH_MEASURE(0.01),#778,
'DISTANCE_ACCURACY_VALUE',
'Maximum model space distance between geometric entities at asserted c
onnectivities');
#776=(
GEOMETRIC_REPRESENTATION_CONTEXT(3)
GLOBAL_UNCERTAINTY_ASSIGNED_CONTEXT((#774))
GLOBAL_UNIT_ASSIGNED_CONTEXT((#778,#780,#781))
REPRESENTATION_CONTEXT('','3D')
);
#777=(
GEOMETRIC_REPRESENTATION_CONTEXT(3)
GLOBAL_UNCERTAINTY_ASSIGNED_CONTEXT((#775))
GLOBAL_UNIT_ASSIGNED_CONTEXT((#778,#780,#781))
REPRESENTATION_CONTEXT('','3D')
);
#778=(
LENGTH_UNIT()
NAMED_UNIT(*)
SI_UNIT(.MILLI.,.METRE.)
);
#779=(
LENGTH_UNIT()
NAMED_UNIT(*)
SI_UNIT($,.METRE.)
);
#780=(
NAMED_UNIT(*)
PLANE_ANGLE_UNIT()
SI_UNIT($,.RADIAN.)
);
#781=(
NAMED_UNIT(*)
SI_UNIT($,.STERADIAN.)
SOLID_ANGLE_UNIT()
);
#782=SHAPE_DEFINITION_REPRESENTATION(#783,#784);
#783=PRODUCT_DEFINITION_SHAPE('',$,#786);
#784=SHAPE_REPRESENTATION('',(#498),#776);
#785=PRODUCT_DEFINITION_CONTEXT('part definition',#790,'design');
#786=PRODUCT_DEFINITION('ugate_top','ugate_top',#787,#785);
#787=PRODUCT_DEFINITION_FORMATION('',$,#792);
#788=PRODUCT_RELATED_PRODUCT_CATEGORY('ugate_top','ugate_top',(#792));
#789=APPLICATION_PROTOCOL_DEFINITION('international standard',
'automotive_design',2009,#790);
#790=APPLICATION_CONTEXT(
'Core Data for Automotive Mechanical Design Process');
#791=PRODUCT_CONTEXT('part definition',#790,'mechanical');
#792=PRODUCT('ugate_top','ugate_top',$,(#791));
#793=PRESENTATION_STYLE_ASSIGNMENT((#794));
#794=SURFACE_STYLE_USAGE(.BOTH.,#795);
#795=SURFACE_SIDE_STYLE('',(#796));
#796=SURFACE_STYLE_FILL_AREA(#797);
#797=FILL_AREA_STYLE('Steel - Satin',(#798));
#798=FILL_AREA_STYLE_COLOUR('Steel - Satin',#799);
#799=COLOUR_RGB('Steel - Satin',0.627450980392157,0.627450980392157,0.627450980392157);
ENDSEC;
END-ISO-10303-21;
