ISO-10303-21;
HEADER;
/* Generated by software containing ST-Developer
 * from STEP Tools, Inc. (www.steptools.com) 
 */

FILE_DESCRIPTION(
/* description */ (''),
/* implementation_level */ '2;1');

FILE_NAME(
/* name */ 'ugate_bot_side.step',
/* time_stamp */ '2025-12-31T18:05:13+01:00',
/* author */ (''),
/* organization */ (''),
/* preprocessor_version */ 'ST-DEVELOPER v20.1',
/* originating_system */ 'Autodesk Translation Framework v14.21.0.0',
/* authorisation */ '');

FILE_SCHEMA (('AUTOMOTIVE_DESIGN { 1 0 10303 214 3 1 1 }'));
ENDSEC;

DATA;
#10=MECHANICAL_DESIGN_GEOMETRIC_PRESENTATION_REPRESENTATION('',(#13),#462);
#11=SHAPE_REPRESENTATION_RELATIONSHIP('SRR','None',#469,#12);
#12=ADVANCED_BREP_SHAPE_REPRESENTATION('',(#14),#461);
#13=STYLED_ITEM('',(#478),#14);
#14=MANIFOLD_SOLID_BREP('Body2',#270);
#15=FACE_BOUND('',#65,.T.);
#16=FACE_BOUND('',#66,.T.);
#17=FACE_BOUND('',#67,.T.);
#18=FACE_BOUND('',#68,.T.);
#19=CIRCLE('',#289,1.95);
#20=CIRCLE('',#290,1.95);
#21=CIRCLE('',#293,1.95);
#22=CIRCLE('',#294,1.95);
#23=CIRCLE('',#297,2.00000000000003);
#24=CIRCLE('',#298,2.00000000000003);
#25=CIRCLE('',#301,1.99999999999999);
#26=CIRCLE('',#302,1.99999999999999);
#27=CYLINDRICAL_SURFACE('',#288,1.95);
#28=CYLINDRICAL_SURFACE('',#292,1.95);
#29=CYLINDRICAL_SURFACE('',#296,2.00000000000003);
#30=CYLINDRICAL_SURFACE('',#300,1.99999999999999);
#31=FACE_OUTER_BOUND('',#48,.T.);
#32=FACE_OUTER_BOUND('',#49,.T.);
#33=FACE_OUTER_BOUND('',#50,.T.);
#34=FACE_OUTER_BOUND('',#51,.T.);
#35=FACE_OUTER_BOUND('',#52,.T.);
#36=FACE_OUTER_BOUND('',#53,.T.);
#37=FACE_OUTER_BOUND('',#54,.T.);
#38=FACE_OUTER_BOUND('',#55,.T.);
#39=FACE_OUTER_BOUND('',#56,.T.);
#40=FACE_OUTER_BOUND('',#57,.T.);
#41=FACE_OUTER_BOUND('',#58,.T.);
#42=FACE_OUTER_BOUND('',#59,.T.);
#43=FACE_OUTER_BOUND('',#60,.T.);
#44=FACE_OUTER_BOUND('',#61,.T.);
#45=FACE_OUTER_BOUND('',#62,.T.);
#46=FACE_OUTER_BOUND('',#63,.T.);
#47=FACE_OUTER_BOUND('',#64,.T.);
#48=EDGE_LOOP('',(#174,#175,#176,#177));
#49=EDGE_LOOP('',(#178,#179,#180,#181));
#50=EDGE_LOOP('',(#182,#183,#184));
#51=EDGE_LOOP('',(#185,#186,#187,#188,#189,#190,#191));
#52=EDGE_LOOP('',(#192,#193,#194,#195));
#53=EDGE_LOOP('',(#196));
#54=EDGE_LOOP('',(#197,#198,#199,#200));
#55=EDGE_LOOP('',(#201));
#56=EDGE_LOOP('',(#202,#203,#204,#205));
#57=EDGE_LOOP('',(#206));
#58=EDGE_LOOP('',(#207,#208,#209,#210));
#59=EDGE_LOOP('',(#211));
#60=EDGE_LOOP('',(#212,#213,#214,#215));
#61=EDGE_LOOP('',(#216,#217,#218,#219));
#62=EDGE_LOOP('',(#220,#221,#222,#223));
#63=EDGE_LOOP('',(#224,#225,#226,#227));
#64=EDGE_LOOP('',(#228,#229,#230,#231,#232,#233,#234,#235));
#65=EDGE_LOOP('',(#236));
#66=EDGE_LOOP('',(#237));
#67=EDGE_LOOP('',(#238));
#68=EDGE_LOOP('',(#239));
#69=LINE('',#390,#94);
#70=LINE('',#392,#95);
#71=LINE('',#394,#96);
#72=LINE('',#395,#97);
#73=LINE('',#398,#98);
#74=LINE('',#400,#99);
#75=LINE('',#401,#100);
#76=LINE('',#403,#101);
#77=LINE('',#406,#102);
#78=LINE('',#408,#103);
#79=LINE('',#410,#104);
#80=LINE('',#412,#105);
#81=LINE('',#413,#106);
#82=LINE('',#418,#107);
#83=LINE('',#425,#108);
#84=LINE('',#432,#109);
#85=LINE('',#439,#110);
#86=LINE('',#445,#111);
#87=LINE('',#447,#112);
#88=LINE('',#449,#113);
#89=LINE('',#450,#114);
#90=LINE('',#452,#115);
#91=LINE('',#453,#116);
#92=LINE('',#455,#117);
#93=LINE('',#456,#118);
#94=VECTOR('',#313,10.);
#95=VECTOR('',#314,10.);
#96=VECTOR('',#315,10.);
#97=VECTOR('',#316,10.);
#98=VECTOR('',#319,10.);
#99=VECTOR('',#320,10.);
#100=VECTOR('',#321,10.);
#101=VECTOR('',#324,10.);
#102=VECTOR('',#327,10.);
#103=VECTOR('',#328,10.);
#104=VECTOR('',#329,10.);
#105=VECTOR('',#330,10.);
#106=VECTOR('',#331,10.);
#107=VECTOR('',#336,1.95);
#108=VECTOR('',#345,1.95);
#109=VECTOR('',#354,2.00000000000003);
#110=VECTOR('',#363,1.99999999999999);
#111=VECTOR('',#370,10.);
#112=VECTOR('',#371,10.);
#113=VECTOR('',#372,10.);
#114=VECTOR('',#373,10.);
#115=VECTOR('',#376,10.);
#116=VECTOR('',#377,10.);
#117=VECTOR('',#380,10.);
#118=VECTOR('',#381,10.);
#119=VERTEX_POINT('',#388);
#120=VERTEX_POINT('',#389);
#121=VERTEX_POINT('',#391);
#122=VERTEX_POINT('',#393);
#123=VERTEX_POINT('',#397);
#124=VERTEX_POINT('',#399);
#125=VERTEX_POINT('',#405);
#126=VERTEX_POINT('',#407);
#127=VERTEX_POINT('',#409);
#128=VERTEX_POINT('',#411);
#129=VERTEX_POINT('',#415);
#130=VERTEX_POINT('',#417);
#131=VERTEX_POINT('',#422);
#132=VERTEX_POINT('',#424);
#133=VERTEX_POINT('',#429);
#134=VERTEX_POINT('',#431);
#135=VERTEX_POINT('',#436);
#136=VERTEX_POINT('',#438);
#137=VERTEX_POINT('',#443);
#138=VERTEX_POINT('',#444);
#139=VERTEX_POINT('',#446);
#140=VERTEX_POINT('',#448);
#141=EDGE_CURVE('',#119,#120,#69,.T.);
#142=EDGE_CURVE('',#119,#121,#70,.T.);
#143=EDGE_CURVE('',#121,#122,#71,.T.);
#144=EDGE_CURVE('',#120,#122,#72,.T.);
#145=EDGE_CURVE('',#123,#119,#73,.T.);
#146=EDGE_CURVE('',#124,#123,#74,.T.);
#147=EDGE_CURVE('',#124,#121,#75,.T.);
#148=EDGE_CURVE('',#122,#124,#76,.T.);
#149=EDGE_CURVE('',#120,#125,#77,.T.);
#150=EDGE_CURVE('',#125,#126,#78,.T.);
#151=EDGE_CURVE('',#127,#126,#79,.T.);
#152=EDGE_CURVE('',#128,#127,#80,.T.);
#153=EDGE_CURVE('',#128,#123,#81,.T.);
#154=EDGE_CURVE('',#129,#129,#19,.T.);
#155=EDGE_CURVE('',#129,#130,#82,.T.);
#156=EDGE_CURVE('',#130,#130,#20,.T.);
#157=EDGE_CURVE('',#131,#131,#21,.T.);
#158=EDGE_CURVE('',#131,#132,#83,.T.);
#159=EDGE_CURVE('',#132,#132,#22,.T.);
#160=EDGE_CURVE('',#133,#133,#23,.T.);
#161=EDGE_CURVE('',#133,#134,#84,.T.);
#162=EDGE_CURVE('',#134,#134,#24,.T.);
#163=EDGE_CURVE('',#135,#135,#25,.T.);
#164=EDGE_CURVE('',#135,#136,#85,.T.);
#165=EDGE_CURVE('',#136,#136,#26,.T.);
#166=EDGE_CURVE('',#137,#138,#86,.T.);
#167=EDGE_CURVE('',#137,#139,#87,.T.);
#168=EDGE_CURVE('',#140,#139,#88,.T.);
#169=EDGE_CURVE('',#138,#140,#89,.T.);
#170=EDGE_CURVE('',#138,#125,#90,.T.);
#171=EDGE_CURVE('',#126,#140,#91,.T.);
#172=EDGE_CURVE('',#128,#137,#92,.T.);
#173=EDGE_CURVE('',#139,#127,#93,.T.);
#174=ORIENTED_EDGE('',*,*,#141,.F.);
#175=ORIENTED_EDGE('',*,*,#142,.T.);
#176=ORIENTED_EDGE('',*,*,#143,.T.);
#177=ORIENTED_EDGE('',*,*,#144,.F.);
#178=ORIENTED_EDGE('',*,*,#145,.F.);
#179=ORIENTED_EDGE('',*,*,#146,.F.);
#180=ORIENTED_EDGE('',*,*,#147,.T.);
#181=ORIENTED_EDGE('',*,*,#142,.F.);
#182=ORIENTED_EDGE('',*,*,#147,.F.);
#183=ORIENTED_EDGE('',*,*,#148,.F.);
#184=ORIENTED_EDGE('',*,*,#143,.F.);
#185=ORIENTED_EDGE('',*,*,#145,.T.);
#186=ORIENTED_EDGE('',*,*,#141,.T.);
#187=ORIENTED_EDGE('',*,*,#149,.T.);
#188=ORIENTED_EDGE('',*,*,#150,.T.);
#189=ORIENTED_EDGE('',*,*,#151,.F.);
#190=ORIENTED_EDGE('',*,*,#152,.F.);
#191=ORIENTED_EDGE('',*,*,#153,.T.);
#192=ORIENTED_EDGE('',*,*,#154,.F.);
#193=ORIENTED_EDGE('',*,*,#155,.T.);
#194=ORIENTED_EDGE('',*,*,#156,.F.);
#195=ORIENTED_EDGE('',*,*,#155,.F.);
#196=ORIENTED_EDGE('',*,*,#154,.T.);
#197=ORIENTED_EDGE('',*,*,#157,.F.);
#198=ORIENTED_EDGE('',*,*,#158,.T.);
#199=ORIENTED_EDGE('',*,*,#159,.F.);
#200=ORIENTED_EDGE('',*,*,#158,.F.);
#201=ORIENTED_EDGE('',*,*,#157,.T.);
#202=ORIENTED_EDGE('',*,*,#160,.F.);
#203=ORIENTED_EDGE('',*,*,#161,.T.);
#204=ORIENTED_EDGE('',*,*,#162,.T.);
#205=ORIENTED_EDGE('',*,*,#161,.F.);
#206=ORIENTED_EDGE('',*,*,#162,.F.);
#207=ORIENTED_EDGE('',*,*,#163,.F.);
#208=ORIENTED_EDGE('',*,*,#164,.T.);
#209=ORIENTED_EDGE('',*,*,#165,.T.);
#210=ORIENTED_EDGE('',*,*,#164,.F.);
#211=ORIENTED_EDGE('',*,*,#165,.F.);
#212=ORIENTED_EDGE('',*,*,#166,.F.);
#213=ORIENTED_EDGE('',*,*,#167,.T.);
#214=ORIENTED_EDGE('',*,*,#168,.F.);
#215=ORIENTED_EDGE('',*,*,#169,.F.);
#216=ORIENTED_EDGE('',*,*,#170,.F.);
#217=ORIENTED_EDGE('',*,*,#169,.T.);
#218=ORIENTED_EDGE('',*,*,#171,.F.);
#219=ORIENTED_EDGE('',*,*,#150,.F.);
#220=ORIENTED_EDGE('',*,*,#172,.F.);
#221=ORIENTED_EDGE('',*,*,#152,.T.);
#222=ORIENTED_EDGE('',*,*,#173,.F.);
#223=ORIENTED_EDGE('',*,*,#167,.F.);
#224=ORIENTED_EDGE('',*,*,#173,.T.);
#225=ORIENTED_EDGE('',*,*,#151,.T.);
#226=ORIENTED_EDGE('',*,*,#171,.T.);
#227=ORIENTED_EDGE('',*,*,#168,.T.);
#228=ORIENTED_EDGE('',*,*,#146,.T.);
#229=ORIENTED_EDGE('',*,*,#153,.F.);
#230=ORIENTED_EDGE('',*,*,#172,.T.);
#231=ORIENTED_EDGE('',*,*,#166,.T.);
#232=ORIENTED_EDGE('',*,*,#170,.T.);
#233=ORIENTED_EDGE('',*,*,#149,.F.);
#234=ORIENTED_EDGE('',*,*,#144,.T.);
#235=ORIENTED_EDGE('',*,*,#148,.T.);
#236=ORIENTED_EDGE('',*,*,#156,.T.);
#237=ORIENTED_EDGE('',*,*,#159,.T.);
#238=ORIENTED_EDGE('',*,*,#160,.T.);
#239=ORIENTED_EDGE('',*,*,#163,.T.);
#240=PLANE('',#284);
#241=PLANE('',#285);
#242=PLANE('',#286);
#243=PLANE('',#287);
#244=PLANE('',#291);
#245=PLANE('',#295);
#246=PLANE('',#299);
#247=PLANE('',#303);
#248=PLANE('',#304);
#249=PLANE('',#305);
#250=PLANE('',#306);
#251=PLANE('',#307);
#252=PLANE('',#308);
#253=ADVANCED_FACE('',(#31),#240,.F.);
#254=ADVANCED_FACE('',(#32),#241,.F.);
#255=ADVANCED_FACE('',(#33),#242,.F.);
#256=ADVANCED_FACE('',(#34),#243,.T.);
#257=ADVANCED_FACE('',(#35),#27,.T.);
#258=ADVANCED_FACE('',(#36),#244,.F.);
#259=ADVANCED_FACE('',(#37),#28,.T.);
#260=ADVANCED_FACE('',(#38),#245,.F.);
#261=ADVANCED_FACE('',(#39),#29,.F.);
#262=ADVANCED_FACE('',(#40),#246,.F.);
#263=ADVANCED_FACE('',(#41),#30,.F.);
#264=ADVANCED_FACE('',(#42),#247,.F.);
#265=ADVANCED_FACE('',(#43),#248,.T.);
#266=ADVANCED_FACE('',(#44),#249,.T.);
#267=ADVANCED_FACE('',(#45),#250,.T.);
#268=ADVANCED_FACE('',(#46),#251,.T.);
#269=ADVANCED_FACE('',(#47,#15,#16,#17,#18),#252,.F.);
#270=CLOSED_SHELL('',(#253,#254,#255,#256,#257,#258,#259,#260,#261,#262,
#263,#264,#265,#266,#267,#268,#269));
#271=DERIVED_UNIT_ELEMENT(#273,1.);
#272=DERIVED_UNIT_ELEMENT(#464,-3.);
#273=(
MASS_UNIT()
NAMED_UNIT(*)
SI_UNIT(.KILO.,.GRAM.)
);
#274=DERIVED_UNIT((#271,#272));
#275=MEASURE_REPRESENTATION_ITEM('density measure',
POSITIVE_RATIO_MEASURE(7850.),#274);
#276=PROPERTY_DEFINITION_REPRESENTATION(#281,#278);
#277=PROPERTY_DEFINITION_REPRESENTATION(#282,#279);
#278=REPRESENTATION('material name',(#280),#461);
#279=REPRESENTATION('density',(#275),#461);
#280=DESCRIPTIVE_REPRESENTATION_ITEM('Steel','Steel');
#281=PROPERTY_DEFINITION('material property','material name',#471);
#282=PROPERTY_DEFINITION('material property','density of part',#471);
#283=AXIS2_PLACEMENT_3D('',#386,#309,#310);
#284=AXIS2_PLACEMENT_3D('',#387,#311,#312);
#285=AXIS2_PLACEMENT_3D('',#396,#317,#318);
#286=AXIS2_PLACEMENT_3D('',#402,#322,#323);
#287=AXIS2_PLACEMENT_3D('',#404,#325,#326);
#288=AXIS2_PLACEMENT_3D('',#414,#332,#333);
#289=AXIS2_PLACEMENT_3D('',#416,#334,#335);
#290=AXIS2_PLACEMENT_3D('',#419,#337,#338);
#291=AXIS2_PLACEMENT_3D('',#420,#339,#340);
#292=AXIS2_PLACEMENT_3D('',#421,#341,#342);
#293=AXIS2_PLACEMENT_3D('',#423,#343,#344);
#294=AXIS2_PLACEMENT_3D('',#426,#346,#347);
#295=AXIS2_PLACEMENT_3D('',#427,#348,#349);
#296=AXIS2_PLACEMENT_3D('',#428,#350,#351);
#297=AXIS2_PLACEMENT_3D('',#430,#352,#353);
#298=AXIS2_PLACEMENT_3D('',#433,#355,#356);
#299=AXIS2_PLACEMENT_3D('',#434,#357,#358);
#300=AXIS2_PLACEMENT_3D('',#435,#359,#360);
#301=AXIS2_PLACEMENT_3D('',#437,#361,#362);
#302=AXIS2_PLACEMENT_3D('',#440,#364,#365);
#303=AXIS2_PLACEMENT_3D('',#441,#366,#367);
#304=AXIS2_PLACEMENT_3D('',#442,#368,#369);
#305=AXIS2_PLACEMENT_3D('',#451,#374,#375);
#306=AXIS2_PLACEMENT_3D('',#454,#378,#379);
#307=AXIS2_PLACEMENT_3D('',#457,#382,#383);
#308=AXIS2_PLACEMENT_3D('',#458,#384,#385);
#309=DIRECTION('axis',(0.,0.,1.));
#310=DIRECTION('refdir',(1.,0.,0.));
#311=DIRECTION('center_axis',(-0.707106719133224,0.707106843239865,0.));
#312=DIRECTION('ref_axis',(-0.707106843239865,-0.707106719133224,0.));
#313=DIRECTION('',(-0.707106843239865,-0.707106719133224,4.36136825853782E-17));
#314=DIRECTION('',(0.,0.,1.));
#315=DIRECTION('',(-0.707106843239865,-0.707106719133224,0.));
#316=DIRECTION('',(0.,0.,1.));
#317=DIRECTION('center_axis',(0.707106859044944,0.707106703328143,0.));
#318=DIRECTION('ref_axis',(-0.707106703328143,0.707106859044944,0.));
#319=DIRECTION('',(-0.707106703328143,0.707106859044944,4.36136739557553E-17));
#320=DIRECTION('',(0.,0.,-1.));
#321=DIRECTION('',(-0.707106703328143,0.707106859044944,0.));
#322=DIRECTION('center_axis',(0.,0.,1.));
#323=DIRECTION('ref_axis',(1.,0.,0.));
#324=DIRECTION('',(1.,0.,0.));
#325=DIRECTION('center_axis',(-6.16790560045302E-17,0.,-1.));
#326=DIRECTION('ref_axis',(-1.,0.,6.16790560045302E-17));
#327=DIRECTION('',(-1.,0.,6.16790560045302E-17));
#328=DIRECTION('',(0.,1.,0.));
#329=DIRECTION('',(-1.,0.,6.16790560045302E-17));
#330=DIRECTION('',(0.,1.,0.));
#331=DIRECTION('',(-1.,0.,6.16790560045302E-17));
#332=DIRECTION('center_axis',(0.,-1.,0.));
#333=DIRECTION('ref_axis',(-1.,0.,0.));
#334=DIRECTION('center_axis',(0.,-1.,0.));
#335=DIRECTION('ref_axis',(-1.,0.,0.));
#336=DIRECTION('',(0.,1.,0.));
#337=DIRECTION('center_axis',(0.,1.,0.));
#338=DIRECTION('ref_axis',(-1.,0.,0.));
#339=DIRECTION('center_axis',(0.,1.,0.));
#340=DIRECTION('ref_axis',(-1.,0.,0.));
#341=DIRECTION('center_axis',(0.,-1.,0.));
#342=DIRECTION('ref_axis',(-1.,0.,0.));
#343=DIRECTION('center_axis',(0.,-1.,0.));
#344=DIRECTION('ref_axis',(-1.,0.,0.));
#345=DIRECTION('',(0.,1.,0.));
#346=DIRECTION('center_axis',(0.,1.,0.));
#347=DIRECTION('ref_axis',(-1.,0.,0.));
#348=DIRECTION('center_axis',(0.,1.,0.));
#349=DIRECTION('ref_axis',(-1.,0.,0.));
#350=DIRECTION('center_axis',(0.,1.,0.));
#351=DIRECTION('ref_axis',(-1.,0.,0.));
#352=DIRECTION('center_axis',(0.,1.,0.));
#353=DIRECTION('ref_axis',(-1.,0.,0.));
#354=DIRECTION('',(0.,1.,0.));
#355=DIRECTION('center_axis',(0.,1.,0.));
#356=DIRECTION('ref_axis',(-1.,0.,0.));
#357=DIRECTION('center_axis',(0.,1.,0.));
#358=DIRECTION('ref_axis',(-1.,0.,0.));
#359=DIRECTION('center_axis',(0.,1.,0.));
#360=DIRECTION('ref_axis',(-1.,0.,0.));
#361=DIRECTION('center_axis',(0.,1.,0.));
#362=DIRECTION('ref_axis',(-1.,0.,0.));
#363=DIRECTION('',(0.,1.,0.));
#364=DIRECTION('center_axis',(0.,1.,0.));
#365=DIRECTION('ref_axis',(-1.,0.,0.));
#366=DIRECTION('center_axis',(0.,1.,0.));
#367=DIRECTION('ref_axis',(-1.,0.,0.));
#368=DIRECTION('center_axis',(0.,0.,1.));
#369=DIRECTION('ref_axis',(1.,0.,0.));
#370=DIRECTION('',(-1.,0.,0.));
#371=DIRECTION('',(0.,1.,0.));
#372=DIRECTION('',(1.,0.,0.));
#373=DIRECTION('',(0.,1.,0.));
#374=DIRECTION('center_axis',(-1.,0.,0.));
#375=DIRECTION('ref_axis',(0.,0.,1.));
#376=DIRECTION('',(0.,0.,-1.));
#377=DIRECTION('',(0.,0.,1.));
#378=DIRECTION('center_axis',(1.,0.,0.));
#379=DIRECTION('ref_axis',(0.,0.,-1.));
#380=DIRECTION('',(0.,0.,1.));
#381=DIRECTION('',(0.,0.,-1.));
#382=DIRECTION('center_axis',(0.,1.,0.));
#383=DIRECTION('ref_axis',(0.,0.,1.));
#384=DIRECTION('center_axis',(0.,1.,0.));
#385=DIRECTION('ref_axis',(-1.,0.,0.));
#386=CARTESIAN_POINT('',(0.,0.,0.));
#387=CARTESIAN_POINT('Origin',(-249.999994214199,48.0000007003546,2.));
#388=CARTESIAN_POINT('',(-249.999994214199,48.0000007003546,2.));
#389=CARTESIAN_POINT('',(-250.999994389713,47.0000007003546,2.));
#390=CARTESIAN_POINT('',(-247.749996115936,50.2499984037131,2.));
#391=CARTESIAN_POINT('',(-249.999994214199,48.0000007003546,11.));
#392=CARTESIAN_POINT('',(-249.999994214199,48.0000007003546,2.));
#393=CARTESIAN_POINT('',(-250.999994389713,47.0000007003546,11.));
#394=CARTESIAN_POINT('',(-249.999994214199,48.0000007003546,11.));
#395=CARTESIAN_POINT('',(-250.999994389713,47.0000007003546,9.00000011175871));
#396=CARTESIAN_POINT('Origin',(-248.999994434416,47.0000007003546,2.));
#397=CARTESIAN_POINT('',(-248.999994434416,47.0000007003546,2.));
#398=CARTESIAN_POINT('',(-246.749997215369,44.7500029858202,2.));
#399=CARTESIAN_POINT('',(-248.999994434416,47.0000007003546,11.));
#400=CARTESIAN_POINT('',(-248.999994434416,47.0000007003546,9.00000011175871));
#401=CARTESIAN_POINT('',(-248.999994434416,47.0000007003546,11.));
#402=CARTESIAN_POINT('Origin',(-249.999994412065,47.5000007003546,11.));
#403=CARTESIAN_POINT('',(-249.999999068677,47.0000007003546,11.));
#404=CARTESIAN_POINT('Origin',(-240.000003576279,47.0000007003546,2.));
#405=CARTESIAN_POINT('',(-260.000003874302,47.0000007003546,2.));
#406=CARTESIAN_POINT('',(-240.000003576279,47.0000007003546,2.));
#407=CARTESIAN_POINT('',(-260.000003874302,50.0000007003546,2.));
#408=CARTESIAN_POINT('',(-260.000003874302,47.0000007003546,2.));
#409=CARTESIAN_POINT('',(-240.000003576279,50.0000007003546,2.));
#410=CARTESIAN_POINT('',(-240.000003576279,50.0000007003546,2.));
#411=CARTESIAN_POINT('',(-240.000003576279,47.0000007003546,2.));
#412=CARTESIAN_POINT('',(-240.000003576279,47.0000007003546,2.));
#413=CARTESIAN_POINT('',(-240.000003576279,47.0000007003546,2.));
#414=CARTESIAN_POINT('Origin',(-245.000003650784,47.0000007003546,25.000000372529));
#415=CARTESIAN_POINT('',(-243.050003650785,45.0000007003546,25.000000372529));
#416=CARTESIAN_POINT('Origin',(-245.000003650784,45.0000007003546,25.000000372529));
#417=CARTESIAN_POINT('',(-243.050003650785,47.0000007003546,25.000000372529));
#418=CARTESIAN_POINT('',(-243.050003650785,47.0000007003546,25.000000372529));
#419=CARTESIAN_POINT('Origin',(-245.000003650784,47.0000007003546,25.000000372529));
#420=CARTESIAN_POINT('Origin',(-245.000003650784,45.0000007003546,25.000000372529));
#421=CARTESIAN_POINT('Origin',(-255.000003799796,47.0000007003546,25.000000372529));
#422=CARTESIAN_POINT('',(-253.050003799796,45.0000007003546,25.000000372529));
#423=CARTESIAN_POINT('Origin',(-255.000003799796,45.0000007003546,25.000000372529));
#424=CARTESIAN_POINT('',(-253.050003799796,47.0000007003546,25.000000372529));
#425=CARTESIAN_POINT('',(-253.050003799796,47.0000007003546,25.000000372529));
#426=CARTESIAN_POINT('Origin',(-255.000003799796,47.0000007003546,25.000000372529));
#427=CARTESIAN_POINT('Origin',(-255.000003799796,45.0000007003546,25.000000372529));
#428=CARTESIAN_POINT('Origin',(-245.000003650784,47.0000007003546,15.0000002235174));
#429=CARTESIAN_POINT('',(-243.000003650784,47.0000007003546,15.0000002235174));
#430=CARTESIAN_POINT('Origin',(-245.000003650784,47.0000007003546,15.0000002235174));
#431=CARTESIAN_POINT('',(-243.000003650784,49.0000007003546,15.0000002235174));
#432=CARTESIAN_POINT('',(-243.000003650784,47.0000007003546,15.0000002235174));
#433=CARTESIAN_POINT('Origin',(-245.000003650784,49.0000007003546,15.0000002235174));
#434=CARTESIAN_POINT('Origin',(-245.000003650784,49.0000007003546,15.0000002235174));
#435=CARTESIAN_POINT('Origin',(-255.000003799796,47.0000007003546,15.0000002235174));
#436=CARTESIAN_POINT('',(-253.000003799796,47.0000007003546,15.0000002235174));
#437=CARTESIAN_POINT('Origin',(-255.000003799796,47.0000007003546,15.0000002235174));
#438=CARTESIAN_POINT('',(-253.000003799796,49.0000007003546,15.0000002235174));
#439=CARTESIAN_POINT('',(-253.000003799796,47.0000007003546,15.0000002235174));
#440=CARTESIAN_POINT('Origin',(-255.000003799796,49.0000007003546,15.0000002235174));
#441=CARTESIAN_POINT('Origin',(-255.000003799796,49.0000007003546,15.0000002235174));
#442=CARTESIAN_POINT('Origin',(-260.000003874302,47.0000007003546,30.0000004470348));
#443=CARTESIAN_POINT('',(-240.000003576279,47.0000007003546,30.0000004470348));
#444=CARTESIAN_POINT('',(-260.000003874302,47.0000007003546,30.0000004470348));
#445=CARTESIAN_POINT('',(-240.000003576279,47.0000007003546,30.0000004470348));
#446=CARTESIAN_POINT('',(-240.000003576279,50.0000007003546,30.0000004470348));
#447=CARTESIAN_POINT('',(-240.000003576279,47.0000007003546,30.0000004470348));
#448=CARTESIAN_POINT('',(-260.000003874302,50.0000007003546,30.0000004470348));
#449=CARTESIAN_POINT('',(-240.000003576279,50.0000007003546,30.0000004470348));
#450=CARTESIAN_POINT('',(-260.000003874302,47.0000007003546,30.0000004470348));
#451=CARTESIAN_POINT('Origin',(-260.000003874302,47.0000007003546,2.));
#452=CARTESIAN_POINT('',(-260.000003874302,47.0000007003546,30.0000004470348));
#453=CARTESIAN_POINT('',(-260.000003874302,50.0000007003546,30.0000004470348));
#454=CARTESIAN_POINT('Origin',(-240.000003576279,47.0000007003546,30.0000004470348));
#455=CARTESIAN_POINT('',(-240.000003576279,47.0000007003546,2.));
#456=CARTESIAN_POINT('',(-240.000003576279,50.0000007003546,2.));
#457=CARTESIAN_POINT('Origin',(-250.00000372529,50.0000007003546,16.0000002235174));
#458=CARTESIAN_POINT('Origin',(-250.00000372529,47.0000007003546,16.0000002235174));
#459=UNCERTAINTY_MEASURE_WITH_UNIT(LENGTH_MEASURE(0.01),#463,
'DISTANCE_ACCURACY_VALUE',
'Maximum model space distance between geometric entities at asserted c
onnectivities');
#460=UNCERTAINTY_MEASURE_WITH_UNIT(LENGTH_MEASURE(0.01),#463,
'DISTANCE_ACCURACY_VALUE',
'Maximum model space distance between geometric entities at asserted c
onnectivities');
#461=(
GEOMETRIC_REPRESENTATION_CONTEXT(3)
GLOBAL_UNCERTAINTY_ASSIGNED_CONTEXT((#459))
GLOBAL_UNIT_ASSIGNED_CONTEXT((#463,#465,#466))
REPRESENTATION_CONTEXT('','3D')
);
#462=(
GEOMETRIC_REPRESENTATION_CONTEXT(3)
GLOBAL_UNCERTAINTY_ASSIGNED_CONTEXT((#460))
GLOBAL_UNIT_ASSIGNED_CONTEXT((#463,#465,#466))
REPRESENTATION_CONTEXT('','3D')
);
#463=(
LENGTH_UNIT()
NAMED_UNIT(*)
SI_UNIT(.MILLI.,.METRE.)
);
#464=(
LENGTH_UNIT()
NAMED_UNIT(*)
SI_UNIT($,.METRE.)
);
#465=(
NAMED_UNIT(*)
PLANE_ANGLE_UNIT()
SI_UNIT($,.RADIAN.)
);
#466=(
NAMED_UNIT(*)
SI_UNIT($,.STERADIAN.)
SOLID_ANGLE_UNIT()
);
#467=SHAPE_DEFINITION_REPRESENTATION(#468,#469);
#468=PRODUCT_DEFINITION_SHAPE('',$,#471);
#469=SHAPE_REPRESENTATION('',(#283),#461);
#470=PRODUCT_DEFINITION_CONTEXT('part definition',#475,'design');
#471=PRODUCT_DEFINITION('ugate_bot_side','ugate_bot_side',#472,#470);
#472=PRODUCT_DEFINITION_FORMATION('',$,#477);
#473=PRODUCT_RELATED_PRODUCT_CATEGORY('ugate_bot_side','ugate_bot_side',
(#477));
#474=APPLICATION_PROTOCOL_DEFINITION('international standard',
'automotive_design',2009,#475);
#475=APPLICATION_CONTEXT(
'Core Data for Automotive Mechanical Design Process');
#476=PRODUCT_CONTEXT('part definition',#475,'mechanical');
#477=PRODUCT('ugate_bot_side','ugate_bot_side',$,(#476));
#478=PRESENTATION_STYLE_ASSIGNMENT((#479));
#479=SURFACE_STYLE_USAGE(.BOTH.,#480);
#480=SURFACE_SIDE_STYLE('',(#481));
#481=SURFACE_STYLE_FILL_AREA(#482);
#482=FILL_AREA_STYLE('Steel - Satin',(#483));
#483=FILL_AREA_STYLE_COLOUR('Steel - Satin',#484);
#484=COLOUR_RGB('Steel - Satin',0.627450980392157,0.627450980392157,0.627450980392157);
ENDSEC;
END-ISO-10303-21;
